<svg width="21" height="21" viewBox="0 0 21 21" fill="none" xmlns="http://www.w3.org/2000/svg">
<path d="M10.0977 20.2051C8.71745 20.2051 7.41862 19.9414 6.20117 19.4141C4.98372 18.8867 3.90951 18.1576 2.97852 17.2266C2.04753 16.2956 1.31836 15.2214 0.791016 14.0039C0.263672 12.7799 0 11.4779 0 10.0977C0 8.71745 0.263672 7.41862 0.791016 6.20117C1.31836 4.98372 2.04427 3.90951 2.96875 2.97852C3.89974 2.04753 4.97396 1.31836 6.19141 0.791016C7.40885 0.263672 8.71094 0 10.0977 0C11.4779 0 12.7767 0.263672 13.9941 0.791016C15.2181 1.31836 16.2956 2.04753 17.2266 2.97852C18.1576 3.90951 18.8867 4.98372 19.4141 6.20117C19.9414 7.41862 20.2051 8.71745 20.2051 10.0977C20.2051 11.4779 19.9414 12.7799 19.4141 14.0039C18.8867 15.2214 18.1576 16.2956 17.2266 17.2266C16.2956 18.1576 15.2214 18.8867 14.0039 19.4141C12.7865 19.9414 11.4844 20.2051 10.0977 20.2051ZM10.0977 18.1738C11.224 18.1738 12.2754 17.9655 13.252 17.5488C14.2285 17.1322 15.0846 16.556 15.8203 15.8203C16.5625 15.0781 17.1419 14.2188 17.5586 13.2422C17.9753 12.2656 18.1836 11.2174 18.1836 10.0977C18.1836 8.97786 17.972 7.92969 17.5488 6.95312C17.1322 5.97656 16.5527 5.12044 15.8105 4.38477C15.0684 3.64258 14.209 3.06315 13.2324 2.64648C12.2624 2.22982 11.2174 2.02148 10.0977 2.02148C8.97786 2.02148 7.92969 2.22982 6.95312 2.64648C5.97656 3.06315 5.12044 3.64258 4.38477 4.38477C3.64909 5.12044 3.07292 5.97656 2.65625 6.95312C2.23958 7.92969 2.03125 8.97786 2.03125 10.0977C2.03125 11.2174 2.23958 12.2656 2.65625 13.2422C3.07292 14.2188 3.64909 15.0781 4.38477 15.8203C5.12695 16.556 5.98307 17.1322 6.95312 17.5488C7.92969 17.9655 8.97786 18.1738 10.0977 18.1738ZM6.49414 11.0254C6.22721 11.0254 6.00586 10.9408 5.83008 10.7715C5.6543 10.6022 5.56641 10.3841 5.56641 10.1172C5.56641 9.84375 5.65104 9.61914 5.82031 9.44336C5.99609 9.26758 6.2207 9.17969 6.49414 9.17969H13.7109C13.9844 9.17969 14.2057 9.26758 14.375 9.44336C14.5443 9.61914 14.6289 9.84375 14.6289 10.1172C14.6289 10.3841 14.541 10.6022 14.3652 10.7715C14.196 10.9408 13.9779 11.0254 13.7109 11.0254H6.49414ZM10.0879 14.6387C9.82096 14.6387 9.60286 14.554 9.43359 14.3848C9.26432 14.209 9.17969 13.9844 9.17969 13.7109V6.50391C9.17969 6.23047 9.26432 6.00911 9.43359 5.83984C9.60286 5.66406 9.82096 5.57617 10.0879 5.57617C10.3613 5.57617 10.5859 5.66406 10.7617 5.83984C10.9375 6.00911 11.0254 6.23047 11.0254 6.50391V13.7109C11.0254 13.9844 10.9375 14.209 10.7617 14.3848C10.5859 14.554 10.3613 14.6387 10.0879 14.6387Z" fill="#465AE1"/>
</svg>
