<svg width="48" height="48" viewBox="0 0 48 48" fill="none" xmlns="http://www.w3.org/2000/svg">
<path d="M27.5307 30.9694C27.6004 31.0391 27.6557 31.1218 27.6934 31.2128C27.7311 31.3039 27.7505 31.4015 27.7505 31.5C27.7505 31.5985 27.7311 31.6961 27.6934 31.7872C27.6557 31.8782 27.6004 31.9609 27.5307 32.0306C27.461 32.1003 27.3783 32.1556 27.2873 32.1933C27.1962 32.231 27.0986 32.2504 27.0001 32.2504C26.9016 32.2504 26.804 32.231 26.7129 32.1933C26.6219 32.1556 26.5392 32.1003 26.4695 32.0306L18.9695 24.5306C18.8997 24.461 18.8444 24.3783 18.8067 24.2872C18.7689 24.1962 18.7495 24.0986 18.7495 24C18.7495 23.9014 18.7689 23.8038 18.8067 23.7128C18.8444 23.6217 18.8997 23.539 18.9695 23.4694L26.4695 15.9694C26.6102 15.8286 26.8011 15.7496 27.0001 15.7496C27.1991 15.7496 27.39 15.8286 27.5307 15.9694C27.6715 16.1101 27.7505 16.301 27.7505 16.5C27.7505 16.699 27.6715 16.8899 27.5307 17.0306L20.5604 24L27.5307 30.9694Z" fill="black"/>
</svg>
