<svg width="21" height="36" viewBox="0 0 21 36" fill="none" xmlns="http://www.w3.org/2000/svg">
<path d="M7.78613 24.4902C7.97298 24.4902 8.12337 24.4355 8.2373 24.3262C8.35124 24.2168 8.40365 24.0732 8.39453 23.8955L8.10742 14.2637C8.10742 14.0859 8.04818 13.9447 7.92969 13.8398C7.81576 13.735 7.66992 13.6826 7.49219 13.6826C7.30534 13.6826 7.15495 13.7373 7.04102 13.8467C6.93164 13.9515 6.88151 14.0928 6.89062 14.2705L7.16406 23.9092C7.17773 24.0869 7.23926 24.2282 7.34863 24.333C7.45801 24.4378 7.60384 24.4902 7.78613 24.4902ZM10.5 24.4902C10.6823 24.4902 10.8304 24.4355 10.9443 24.3262C11.0583 24.2214 11.1152 24.0801 11.1152 23.9023V14.2637C11.1152 14.0859 11.0583 13.9447 10.9443 13.8398C10.8304 13.735 10.6823 13.6826 10.5 13.6826C10.3132 13.6826 10.1628 13.735 10.0488 13.8398C9.9349 13.9447 9.87793 14.0859 9.87793 14.2637V23.9023C9.87793 24.0801 9.9349 24.2214 10.0488 24.3262C10.1628 24.4355 10.3132 24.4902 10.5 24.4902ZM13.207 24.4902C13.3893 24.4902 13.5352 24.4378 13.6445 24.333C13.7585 24.2282 13.8177 24.0869 13.8223 23.9092L14.1025 14.2773C14.1071 14.0996 14.0547 13.9561 13.9453 13.8467C13.8359 13.7373 13.6878 13.6826 13.501 13.6826C13.3232 13.6826 13.1774 13.735 13.0635 13.8398C12.9495 13.9447 12.888 14.0882 12.8789 14.2705L12.5986 23.9023C12.5941 24.0755 12.6465 24.2168 12.7559 24.3262C12.8652 24.4355 13.0156 24.4902 13.207 24.4902ZM6.47363 11.29V9.41699C6.47363 8.74707 6.67643 8.22526 7.08203 7.85156C7.48763 7.47786 8.05729 7.29102 8.79102 7.29102H12.1885C12.9222 7.29102 13.4896 7.47786 13.8906 7.85156C14.2962 8.22526 14.499 8.74707 14.499 9.41699V11.29H12.9062V9.48535C12.9062 9.25293 12.8311 9.06836 12.6807 8.93164C12.5348 8.79036 12.3343 8.71973 12.0791 8.71973H8.90039C8.64518 8.71973 8.44238 8.79036 8.29199 8.93164C8.1416 9.06836 8.06641 9.25293 8.06641 9.48535V11.29H6.47363ZM2.5498 12.2812C2.33561 12.2812 2.15332 12.2083 2.00293 12.0625C1.85254 11.9167 1.77734 11.7367 1.77734 11.5225C1.77734 11.3083 1.85254 11.1283 2.00293 10.9824C2.15332 10.8366 2.33561 10.7637 2.5498 10.7637H18.4434C18.6576 10.7637 18.8398 10.8366 18.9902 10.9824C19.1406 11.1237 19.2158 11.3037 19.2158 11.5225C19.2158 11.7367 19.1406 11.9167 18.9902 12.0625C18.8444 12.2083 18.6621 12.2812 18.4434 12.2812H2.5498ZM6.45996 27.2314C6.00879 27.2314 5.61686 27.1449 5.28418 26.9717C4.9515 26.7985 4.68945 26.5501 4.49805 26.2266C4.30664 25.9076 4.19954 25.5247 4.17676 25.0781L3.55469 12.1035H17.4385L16.8164 25.0781C16.7936 25.5202 16.6865 25.9007 16.4951 26.2197C16.3037 26.5433 16.0417 26.7917 15.709 26.9648C15.3763 27.1426 14.9867 27.2314 14.54 27.2314H6.45996Z" fill="#B496A0" style="mix-blend-mode:plus-darker"/>
</svg>
