<svg width="23" height="36" viewBox="0 0 23 36" fill="none" xmlns="http://www.w3.org/2000/svg">
<path d="M11.5 11.748C11.263 11.748 11.0602 11.6637 10.8916 11.4951C10.7275 11.3265 10.6455 11.1237 10.6455 10.8867V9.02734C10.6455 8.79036 10.7275 8.58757 10.8916 8.41895C11.0602 8.25033 11.263 8.16602 11.5 8.16602C11.7324 8.16602 11.9329 8.25033 12.1016 8.41895C12.2702 8.58757 12.3545 8.79036 12.3545 9.02734V10.8867C12.3545 11.1237 12.2702 11.3265 12.1016 11.4951C11.9329 11.6637 11.7324 11.748 11.5 11.748ZM15.9639 13.6143C15.7998 13.4502 15.7178 13.2497 15.7178 13.0127C15.7178 12.7712 15.7975 12.5684 15.957 12.4043L17.2832 11.0781C17.4473 10.9141 17.6478 10.832 17.8848 10.832C18.1217 10.8275 18.3223 10.9072 18.4863 11.0713C18.6504 11.2354 18.7324 11.4382 18.7324 11.6797C18.737 11.9212 18.6595 12.124 18.5 12.2881L17.1807 13.6074C17.012 13.776 16.807 13.8604 16.5654 13.8604C16.3285 13.8604 16.1279 13.7783 15.9639 13.6143ZM17.8164 18.0645C17.8164 17.832 17.9007 17.6315 18.0693 17.4629C18.238 17.2943 18.4385 17.21 18.6709 17.21H20.5303C20.7627 17.21 20.9632 17.2943 21.1318 17.4629C21.3005 17.6315 21.3848 17.832 21.3848 18.0645C21.3848 18.2969 21.3005 18.4974 21.1318 18.666C20.9632 18.8301 20.7627 18.9121 20.5303 18.9121H18.6709C18.4385 18.9121 18.238 18.8301 18.0693 18.666C17.9007 18.4974 17.8164 18.2969 17.8164 18.0645ZM15.957 22.5215C16.1257 22.3574 16.3285 22.2754 16.5654 22.2754C16.8024 22.2754 17.0029 22.3551 17.167 22.5146L18.4932 23.8408C18.6572 24.0003 18.7393 24.1986 18.7393 24.4355C18.7438 24.6771 18.6641 24.8799 18.5 25.0439C18.3359 25.208 18.1331 25.2923 17.8916 25.2969C17.6546 25.3014 17.4541 25.2217 17.29 25.0576L15.9639 23.7314C15.7998 23.5674 15.7178 23.3646 15.7178 23.123C15.7178 22.8861 15.7975 22.6855 15.957 22.5215ZM11.5 24.3809C11.7324 24.3809 11.9329 24.4652 12.1016 24.6338C12.2702 24.8024 12.3545 25.0029 12.3545 25.2354V27.1016C12.3545 27.334 12.2702 27.5345 12.1016 27.7031C11.9329 27.8717 11.7324 27.9561 11.5 27.9561C11.263 27.9561 11.0602 27.8717 10.8916 27.7031C10.7275 27.5345 10.6455 27.334 10.6455 27.1016V25.2354C10.6455 25.0029 10.7275 24.8024 10.8916 24.6338C11.0602 24.4652 11.263 24.3809 11.5 24.3809ZM7.04297 22.5215C7.20247 22.6855 7.27995 22.8861 7.27539 23.123C7.27539 23.3646 7.19336 23.5674 7.0293 23.7314L5.70312 25.0508C5.54362 25.2148 5.3431 25.2946 5.10156 25.29C4.86003 25.2855 4.65723 25.2012 4.49316 25.0371C4.33366 24.8776 4.25391 24.6771 4.25391 24.4355C4.25391 24.194 4.33822 23.9935 4.50684 23.834L5.82617 22.5146C5.98568 22.3551 6.1862 22.2754 6.42773 22.2754C6.66927 22.2754 6.87435 22.3574 7.04297 22.5215ZM5.18359 18.0645C5.18359 18.2969 5.09928 18.4974 4.93066 18.666C4.76204 18.8301 4.56152 18.9121 4.3291 18.9121H2.46973C2.2373 18.9121 2.03678 18.8301 1.86816 18.666C1.69954 18.4974 1.61523 18.2969 1.61523 18.0645C1.61523 17.832 1.69954 17.6315 1.86816 17.4629C2.03678 17.2943 2.2373 17.21 2.46973 17.21H4.3291C4.56152 17.21 4.76204 17.2943 4.93066 17.4629C5.09928 17.6315 5.18359 17.832 5.18359 18.0645ZM7.0293 13.6143C6.86523 13.7783 6.66243 13.8604 6.4209 13.8604C6.18392 13.8558 5.9834 13.7715 5.81934 13.6074L4.5 12.2812C4.34049 12.1217 4.26074 11.9212 4.26074 11.6797C4.2653 11.4382 4.34961 11.2354 4.51367 11.0713C4.67773 10.9072 4.88053 10.8275 5.12207 10.832C5.36361 10.832 5.56185 10.9141 5.7168 11.0781L7.04297 12.4043C7.20247 12.5638 7.27995 12.7643 7.27539 13.0059C7.27539 13.2474 7.19336 13.4502 7.0293 13.6143ZM11.4932 22.6582C10.8597 22.6582 10.265 22.5397 9.70898 22.3027C9.15299 22.0612 8.66309 21.7308 8.23926 21.3115C7.81999 20.8877 7.49186 20.4001 7.25488 19.8486C7.0179 19.2926 6.89941 18.6979 6.89941 18.0645C6.89941 17.431 7.0179 16.8363 7.25488 16.2803C7.49186 15.7243 7.81999 15.2367 8.23926 14.8174C8.66309 14.3936 9.15299 14.0632 9.70898 13.8262C10.265 13.5846 10.8597 13.4639 11.4932 13.4639C12.1266 13.4639 12.7214 13.5846 13.2773 13.8262C13.8333 14.0632 14.321 14.3936 14.7402 14.8174C15.1641 15.2367 15.4945 15.7243 15.7314 16.2803C15.973 16.8363 16.0938 17.431 16.0938 18.0645C16.0938 18.6979 15.973 19.2926 15.7314 19.8486C15.4945 20.4001 15.1641 20.8877 14.7402 21.3115C14.321 21.7308 13.8333 22.0612 13.2773 22.3027C12.7214 22.5397 12.1266 22.6582 11.4932 22.6582Z" fill="#B496A0" style="mix-blend-mode:plus-darker"/>
</svg>
