<svg width="370" height="374" viewBox="0 0 370 374" fill="none" xmlns="http://www.w3.org/2000/svg">
<path d="M249.564 214.22L249.991 232.51L267.519 237.756L250.255 243.814L250.683 262.105L239.586 247.559L222.323 253.617L232.728 238.569L221.631 224.023L239.159 229.268L249.564 214.22Z" fill="#FFE360"/>
<g filter="url(#filter0_d_292_1016)">
<path d="M161 301.688C161 288.433 171.745 277.688 185 277.688C198.255 277.688 209 288.433 209 301.688C209 314.943 198.255 325.688 185 325.688C171.745 325.688 161 314.943 161 301.688Z" fill="white" fill-opacity="0.86" shape-rendering="crispEdges"/>
<path d="M161 301.688C161 288.433 171.745 277.688 185 277.688C198.255 277.688 209 288.433 209 301.688C209 314.943 198.255 325.688 185 325.688C171.745 325.688 161 314.943 161 301.688Z" fill="#DDDDDD" style="mix-blend-mode:color-burn" shape-rendering="crispEdges"/>
<path d="M161 301.688C161 288.433 171.745 277.688 185 277.688C198.255 277.688 209 288.433 209 301.688C209 314.943 198.255 325.688 185 325.688C171.745 325.688 161 314.943 161 301.688Z" fill="#F7F7F7" style="mix-blend-mode:darken" shape-rendering="crispEdges"/>
</g>
<path d="M101.24 37.0313L101.775 59.9112L123.7 66.4728L102.106 74.0517L102.64 96.9315L88.7593 78.7357L67.1646 86.3146L80.1803 67.49L66.2992 49.2942L88.2245 55.8558L101.24 37.0313Z" fill="#FFE360"/>
<path d="M96.5927 100.727L96.9318 115.237L110.836 119.398L97.1414 124.205L97.4806 138.715L88.6776 127.175L74.9827 131.982L83.237 120.044L74.4339 108.504L88.3384 112.665L96.5927 100.727Z" fill="#FFE360"/>
<path d="M288.826 104.319L289.734 143.129L326.924 154.259L290.294 167.114L291.201 205.923L267.656 175.059L231.026 187.915L253.104 155.984L229.558 125.12L266.749 136.25L288.826 104.319Z" fill="#FFE360"/>
<path d="M250.503 84.7151L250.663 91.5937L257.255 93.5663L250.763 95.8448L250.924 102.723L246.75 97.253L240.258 99.5315L244.171 93.8722L239.998 88.4018L246.59 90.3745L250.503 84.7151Z" fill="#FFE360"/>
<path d="M305.503 96.7151L305.663 103.594L312.255 105.566L305.763 107.845L305.924 114.723L301.75 109.253L295.258 111.531L299.171 105.872L294.998 100.402L301.59 102.374L305.503 96.7151Z" fill="#FFE360"/>
<path d="M272.093 33.3841L272.382 45.7597L284.242 49.3089L272.561 53.4083L272.85 65.7839L265.342 55.9418L253.662 60.0412L260.702 49.8591L253.193 40.017L265.053 43.5662L272.093 33.3841Z" fill="#FFE360"/>
<path d="M130.405 189.258L130.598 197.513L138.508 199.881L130.717 202.615L130.91 210.87L125.902 204.305L118.11 207.04L122.806 200.248L117.798 193.683L125.709 196.05L130.405 189.258Z" fill="#FFE360"/>
<g opacity="0.71">
<path d="M167.226 231.077V251.82C167.226 253.493 165.87 254.846 164.2 254.846H138.841C137.851 254.846 137.314 254.115 137.277 253.36C137.28 253.219 137.29 253.083 137.306 252.945C137.306 252.942 137.306 252.94 137.306 252.94C137.439 251.746 137.982 250.674 138.787 249.869C139.723 248.933 141.013 248.356 142.441 248.356H142.959C144.308 248.356 145.536 248.872 146.456 249.72C147.044 250.26 147.831 250.525 148.623 250.422C152.303 249.94 155.194 246.914 155.337 243.208C155.343 243.101 155.343 242.995 155.343 242.886V231.08H167.226V231.077Z" fill="#8D8C8C"/>
<path d="M191.822 231.077V251.82C191.822 253.493 193.175 254.846 194.842 254.846H220.159C221.148 254.846 221.683 254.115 221.72 253.36C221.717 253.219 221.707 253.083 221.691 252.945C221.691 252.942 221.691 252.94 221.691 252.94C221.558 251.746 221.018 250.674 220.212 249.869C219.279 248.933 217.989 248.356 216.564 248.356H216.048C214.703 248.356 213.477 248.871 212.56 249.72C211.975 250.259 211.187 250.525 210.398 250.422C206.723 249.94 203.838 246.914 203.694 243.208C203.689 243.101 203.689 242.995 203.689 242.886V231.08H191.824L191.822 231.077Z" fill="#8D8C8C"/>
<path d="M230.997 120.621H128V103.931C128 77.8403 151.056 48.1709 179.5 48.1709C207.941 48.1709 231 77.8403 231 103.931V120.621H230.997Z" fill="#8D8C8C"/>
<mask id="mask0_292_1016" style="mask-type:luminance" maskUnits="userSpaceOnUse" x="147" y="67" width="65" height="168">
<path d="M179.5 67.3265C161.653 67.3265 147.188 81.7943 147.188 99.639V234.542H175.942V139.974C175.942 138.009 177.535 136.416 179.5 136.416C181.465 136.416 183.058 138.009 183.058 139.974V234.542H211.812V99.639C211.812 81.7916 197.345 67.3265 179.5 67.3265Z" fill="white"/>
</mask>
<g mask="url(#mask0_292_1016)">
<mask id="mask1_292_1016" style="mask-type:luminance" maskUnits="userSpaceOnUse" x="145" y="65" width="69" height="171">
<path d="M213.142 65.997H145.855V235.871H213.142V65.997Z" fill="white"/>
</mask>
<g mask="url(#mask1_292_1016)">
<mask id="mask2_292_1016" style="mask-type:luminance" maskUnits="userSpaceOnUse" x="145" y="65" width="69" height="171">
<path d="M213.142 65.997H145.855V235.871H213.142V65.997Z" fill="white"/>
</mask>
<g mask="url(#mask2_292_1016)">
<rect x="145.768" y="65.9199" width="67.3903" height="170.007" fill="#8D8C8C"/>
</g>
</g>
</g>
<path d="M141.928 131.119C141.928 134.629 140.16 135.991 137.976 135.991C135.793 135.991 134.025 134.629 134.025 131.119C134.025 128.992 135.474 126.567 136.618 124.982C137.285 124.057 138.668 124.057 139.335 124.982C140.479 126.564 141.928 128.992 141.928 131.119Z" fill="#8D8C8C"/>
<path d="M224.972 131.119C224.972 134.629 223.204 135.991 221.021 135.991C218.838 135.991 217.069 134.629 217.069 131.119C217.069 128.992 218.519 126.567 219.662 124.982C220.329 124.057 221.712 124.057 222.379 124.982C223.523 126.564 224.972 128.992 224.972 131.119Z" fill="#8D8C8C"/>
<path d="M179.5 0L187.724 25.3192H214.347L192.811 40.9676L201.035 66.2842L179.5 50.6385L157.962 66.2842L166.189 40.9676L144.651 25.3192H171.273L179.5 0Z" fill="#8D8C8C"/>
<path d="M179.5 44.5227C185.697 44.5227 190.721 40.6096 190.721 35.7825C190.721 30.9554 185.697 27.0423 179.5 27.0423C173.303 27.0423 168.279 30.9554 168.279 35.7825C168.279 40.6096 173.303 44.5227 179.5 44.5227Z" fill="#8D8C8C"/>
<path d="M179.226 34.554C179.226 37.8193 177.607 40.465 175.612 40.465C173.618 40.465 171.999 37.8193 171.999 34.554" fill="#8D8C8C"/>
</g>
<path d="M161 301.688C161 288.433 171.745 277.688 185 277.688C198.255 277.688 209 288.433 209 301.688C209 314.943 198.255 325.688 185 325.688C171.745 325.688 161 314.943 161 301.688Z" fill="black" fill-opacity="0.01"/>
<path d="M196.875 301.188C196.875 301.461 196.766 301.724 196.573 301.917C196.38 302.111 196.117 302.219 195.844 302.219H185.531V312.532C185.531 312.805 185.423 313.068 185.229 313.261C185.036 313.454 184.774 313.563 184.5 313.563C184.226 313.563 183.964 313.454 183.771 313.261C183.577 313.068 183.469 312.805 183.469 312.532V302.219H173.156C172.883 302.219 172.62 302.111 172.427 301.917C172.234 301.724 172.125 301.461 172.125 301.188C172.125 300.914 172.234 300.652 172.427 300.459C172.62 300.265 172.883 300.157 173.156 300.157H183.469V289.844C183.469 289.571 183.577 289.308 183.771 289.115C183.964 288.922 184.226 288.813 184.5 288.813C184.774 288.813 185.036 288.922 185.229 289.115C185.423 289.308 185.531 289.571 185.531 289.844V300.157H195.844C196.117 300.157 196.38 300.265 196.573 300.459C196.766 300.652 196.875 300.914 196.875 301.188Z" fill="#465AE1"/>
<ellipse cx="185" cy="262" rx="85" ry="23" fill="url(#paint0_radial_292_1016)"/>
<defs>
<filter id="filter0_d_292_1016" x="121" y="245.688" width="128" height="128" filterUnits="userSpaceOnUse" color-interpolation-filters="sRGB">
<feFlood flood-opacity="0" result="BackgroundImageFix"/>
<feColorMatrix in="SourceAlpha" type="matrix" values="0 0 0 0 0 0 0 0 0 0 0 0 0 0 0 0 0 0 127 0" result="hardAlpha"/>
<feOffset dy="8"/>
<feGaussianBlur stdDeviation="20"/>
<feComposite in2="hardAlpha" operator="out"/>
<feColorMatrix type="matrix" values="0 0 0 0 0 0 0 0 0 0 0 0 0 0 0 0 0 0 0.12 0"/>
<feBlend mode="normal" in2="BackgroundImageFix" result="effect1_dropShadow_292_1016"/>
<feBlend mode="normal" in="SourceGraphic" in2="effect1_dropShadow_292_1016" result="shape"/>
</filter>
<radialGradient id="paint0_radial_292_1016" cx="0" cy="0" r="1" gradientUnits="userSpaceOnUse" gradientTransform="translate(185 262) scale(85 23)">
<stop offset="0.125" stop-color="#333333" stop-opacity="0.4"/>
<stop offset="1" stop-color="#EBE8E8" stop-opacity="0"/>
</radialGradient>
</defs>
</svg>
