<svg width="362" height="175" viewBox="0 0 362 175" fill="none" xmlns="http://www.w3.org/2000/svg">
<g clip-path="url(#clip0_718_13120)">
<rect width="362" height="175" rx="30" fill="#465AE1"/>
<path d="M40.1634 68.1634C41.73 66.5968 39.1212 61.4481 34.3366 56.6634C29.5519 51.8787 24.4032 49.27 22.8366 50.8366C21.27 52.4032 23.8788 57.5519 28.6634 62.3366C33.4481 67.1212 38.5968 69.73 40.1634 68.1634Z" fill="#FFD719"/>
<path d="M34.3366 62.3366C39.1212 57.5519 41.73 52.4032 40.1634 50.8366C38.5968 49.27 33.4481 51.8788 28.6634 56.6634C23.8788 61.4481 21.27 66.5968 22.8366 68.1634C24.4032 69.73 29.5519 67.1213 34.3366 62.3366Z" fill="#FFD719"/>
<path d="M74.5602 43.5602C77.0122 41.1081 72.9289 33.0492 65.4398 25.5602C57.9508 18.0711 49.8919 13.9878 47.4398 16.4399C44.9878 18.8919 49.0711 26.9508 56.5602 34.4399C64.0492 41.9289 72.1081 46.0122 74.5602 43.5602Z" fill="#FFD719"/>
<path d="M65.4398 34.4399C72.9289 26.9508 77.0122 18.8919 74.5602 16.4399C72.1081 13.9878 64.0492 18.0711 56.5602 25.5602C49.0711 33.0492 44.9878 41.1081 47.4398 43.5602C49.8919 46.0122 57.9508 41.9289 65.4398 34.4399Z" fill="#FFD719"/>
<path d="M41.2734 42.2734C42.227 41.3198 40.639 38.1858 37.7266 35.2734C34.8142 32.361 31.6802 30.773 30.7266 31.7266C29.773 32.6802 31.361 35.8142 34.2734 38.7266C37.1858 41.639 40.3198 43.227 41.2734 42.2734Z" fill="#FFD719"/>
<path d="M37.7266 38.7266C40.639 35.8142 42.227 32.6802 41.2734 31.7266C40.3198 30.773 37.1858 32.361 34.2734 35.2734C31.361 38.1858 29.773 41.3198 30.7266 42.2734C31.6802 43.227 34.8142 41.639 37.7266 38.7266Z" fill="#FFD719"/>
<path d="M107.581 203.581C121.067 190.095 98.609 145.771 57.4191 104.581C16.2292 63.391 -28.0945 40.9328 -41.5809 54.4191C-55.0672 67.9054 -32.609 112.229 8.58086 153.419C49.7707 194.609 94.0945 217.067 107.581 203.581Z" fill="#FFD719"/>
<path d="M57.4191 153.419C98.609 112.229 121.067 67.9055 107.581 54.4191C94.0945 40.9328 49.7707 63.391 8.58087 104.581C-32.609 145.771 -55.0672 190.095 -41.5809 203.581C-28.0946 217.067 16.2292 194.609 57.4191 153.419Z" fill="#FFD719"/>
<rect width="362" height="175" fill="#755D7B" fill-opacity="0.24"/>
<path d="M149.563 97V77.8H160.387C163.315 77.8 165.523 79.696 165.523 82.24C165.523 84.784 164.371 86.68 159.787 86.68V87.4C164.803 87.4 166.267 89.464 166.267 92.2C166.267 94.936 163.771 97 160.435 97H149.563ZM156.187 90.76H160.147C161.107 90.76 161.635 90.328 161.635 89.536C161.635 88.864 161.107 88.48 160.147 88.48H156.187V90.76ZM156.187 85.6H159.907C160.723 85.6 161.179 85.168 161.179 84.376C161.179 83.704 160.723 83.32 159.907 83.32H156.187V85.6ZM167.704 97V81.4H174.424L174.496 82.864C173.824 83.8 172.624 86.776 172.12 89.728L173.248 89.848C174.16 84.112 176.32 81.016 179.536 81.016C182.656 81.016 183.784 83.752 183.784 87.808H177.064C177.064 86.176 177.328 84.808 176.536 84.808C175.408 84.808 174.424 89.152 174.424 97H167.704ZM188.409 97C186.945 95.704 184.545 93.568 184.497 89.512C184.401 82.528 190.209 80.896 193.329 80.896C198.801 80.896 201.537 83.248 201.537 86.152C201.537 89.032 198.801 91.408 195.441 91.408C193.137 91.408 191.145 90.304 190.089 88.672L189.249 89.464C191.385 93.256 198.057 92.56 201.465 92.368L198.273 97H188.409ZM191.457 88.384C192.225 88.84 193.569 88.048 194.433 86.56C195.273 85.12 195.297 83.56 194.481 83.104C193.665 82.624 192.321 83.416 191.481 84.88C190.641 86.368 190.617 87.928 191.457 88.384ZM217.462 95.296C218.422 94.432 219.838 91.792 219.838 88.672L218.59 88.504C218.59 89.08 218.494 91.36 217.102 93.424C214.534 97.24 209.71 98.56 206.23 96.28C202.726 94 201.934 89.032 204.43 85.168C206.974 81.28 211.822 80.008 215.302 82.312C216.166 82.888 217.006 83.752 217.534 84.64V81.4H224.254V97H217.534L217.462 95.296ZM209.542 95.128C210.646 95.776 212.734 94.408 214.198 91.984C215.734 89.608 216.046 87.184 214.966 86.536C213.91 85.888 211.822 87.304 210.31 89.68C208.822 92.08 208.486 94.48 209.542 95.128ZM235.721 97.384C230.945 97.384 227.081 93.976 227.081 89.776C227.081 88.624 227.825 87.976 228.017 87.784H225.689V85.384C228.425 85.384 232.961 82.696 230.561 79.312H238.889C238.889 82.024 235.289 84.472 230.897 85.648L231.281 86.776C232.961 86.32 233.897 85.888 235.121 85.384H241.001V87.784H234.041C233.825 87.88 233.033 88.816 233.681 89.56C234.353 90.352 237.065 90.064 237.953 89.872C239.105 89.632 240.137 89.32 241.001 89.008V95.8C239.537 96.808 237.713 97.384 235.721 97.384ZM243.407 97V77.8H250.127L250.199 83.104C249.527 84.04 248.327 86.776 247.823 89.728L249.023 89.848C250.079 84.112 252.503 81.016 255.719 81.016C258.839 81.016 260.447 83.272 260.447 87.328V97H253.727V87.328C253.727 85.696 253.511 84.808 252.695 84.808C251.111 84.808 250.127 89.152 250.127 97H243.407ZM262.72 86.68C263.128 86.944 263.8 87.184 264.376 87.184C267.112 87.184 268.648 85.144 269.44 84.016V97H262.72V86.68ZM262.216 83.416C262.216 80.896 264.784 77.44 267.28 77.44C268.576 77.44 269.608 78.376 269.608 80.008C269.608 82.552 267.04 85.984 264.544 85.984C263.224 85.984 262.216 85.024 262.216 83.416ZM271.837 97V81.4H278.557L278.629 83.104C277.957 84.04 276.757 86.776 276.253 89.728L277.453 89.848C278.509 84.112 280.933 81.016 284.149 81.016C287.269 81.016 288.877 83.272 288.877 87.328V97H282.157V87.328C282.157 85.696 281.941 84.808 281.125 84.808C279.541 84.808 278.557 89.152 278.557 97H271.837ZM299.381 102.184C295.853 102.184 293.141 101.44 291.365 100.432V93.616C292.973 95.056 294.701 96.448 298.397 96.424C302.117 96.4 304.685 93.76 305.213 91L304.157 90.376C302.909 92.32 301.469 94.36 297.749 94.36C293.717 94.36 290.669 90.808 290.669 87.352C290.669 83.872 293.717 81.04 299.261 81.04C303.461 81.04 309.077 82.984 308.909 92.248C308.909 96.256 305.837 102.184 299.381 102.184ZM298.061 91.648C299.021 92.224 300.917 90.952 302.309 88.792C303.653 86.608 303.965 84.424 303.005 83.824C301.997 83.248 300.101 84.496 298.757 86.68C297.365 88.84 297.077 91.048 298.061 91.648Z" fill="#FFFCF5"/>
</g>
<defs>
<clipPath id="clip0_718_13120">
<rect width="362" height="175" rx="30" fill="white"/>
</clipPath>
</defs>
</svg>
