<svg width="79" height="76" viewBox="0 0 79 76" fill="none" xmlns="http://www.w3.org/2000/svg">
<path d="M63.5583 20.0022L64.4374 19.4726C66.1322 22.8127 67.6152 26.3541 69.377 29.719C71.545 33.8571 77.8051 43.0373 78.0417 47.2036C78.4512 54.4277 67.5375 63.29 60.61 62.8698C54.1204 62.4744 44.6084 54.6748 44.4671 47.9027C44.4177 45.47 45.6429 42.9949 46.5503 40.774C49.548 33.4405 53.9015 26.6296 56.5037 19.1195L57.57 19.7127C57.6724 22.9081 56.5955 32.2082 61.9623 31.1137C62.7144 30.9619 63.5583 29.8108 63.5583 29.1788V19.9987V20.0022ZM70.2703 39.9549C71.2448 44.9333 70.2703 50.1977 66.7642 53.9545L68.6779 56.1895C73.2504 52.0867 74.5815 44.672 70.2703 39.9549ZM56.4719 51.6313L48.0227 47.0165C48.7712 50.8298 51.8571 53.9581 55.7799 54.4277L56.4719 51.6313Z" fill="#465AE1"/>
<path d="M16.9516 60.787L17.4953 62.909L8.62943 72.0714L8.11392 71.9196C7.4466 70.3166 6.3238 70.0801 5.04212 69.3351C4.74553 69.1656 4.456 69.4375 4.59723 68.7313L25.076 48.242C24.398 46.2647 25.0265 44.3899 25.429 42.4197L28.2149 43.1611L28.4267 45.2443L37.5927 35.6899C38.1011 34.899 39.4711 35.7888 39.5488 35.7146C39.6935 35.5769 40.2514 32.4381 40.9611 32.0002L52.9659 19.4694L47.6732 31.2976L21.5522 58.845L16.9551 60.7834L16.9516 60.787Z" fill="#465AE1"/>
<path d="M56.4965 6.76892L53.5129 11.6273C49.223 10.6493 44.3681 8.31542 43.4324 3.59119C48.019 2.68377 52.3548 5.1271 56.4965 6.77246V6.76892Z" fill="#465AE1"/>
<path d="M77.678 9.237C78.2783 9.809 75.6054 11.3449 75.2064 11.5285C72.8231 12.6372 70.3163 12.6548 67.7953 13.1209L67.0856 9.237C70.5917 8.78859 74.1825 8.64736 77.678 9.237Z" fill="#465AE1"/>
<path d="M74.4577 0.452354C74.32 5.3955 69.398 6.29585 65.3235 6.40884C66.7464 5.37431 69.7688 0.759533 70.9798 0.240503C72.0356 -0.211441 73.4267 0.0392486 74.4612 0.452354H74.4577Z" fill="#465AE1"/>
<path d="M56.8501 13.8237C56.1969 10.3176 59.7065 6.63499 62.8454 9.41374C62.4217 10.1587 57.3373 14.371 56.8501 13.8237Z" fill="#465AE1"/>
<path d="M5.61752 75.2313C3.42489 75.9799 0.985097 75.6621 0 73.3282C2.25619 71.3863 6.13302 71.4534 5.61752 75.2313Z" fill="#465AE1"/>
<path d="M64.6142 12.4147C65.1756 15.5783 61.8813 18.6677 58.9684 16.8211L64.6142 12.4147Z" fill="#465AE1"/>
<path d="M70.2704 39.9553C74.5816 44.6725 73.2505 52.0872 68.6781 56.19L66.7643 53.955C70.2704 50.1982 71.2449 44.9338 70.2704 39.9553Z" fill="white"/>
<path d="M56.4718 51.6314L55.7797 54.4278C51.857 53.9582 48.7711 50.8299 48.0225 47.0166L56.4718 51.6314Z" fill="white"/>
</svg>
