<svg width="129" height="125" viewBox="0 0 129 125" fill="none" xmlns="http://www.w3.org/2000/svg">
<path d="M104.338 32.8361L105.781 31.9666C108.563 37.4498 110.997 43.2634 113.89 48.7872C117.449 55.5804 127.725 70.6505 128.114 77.49C128.786 89.349 110.87 103.897 99.4977 103.208C88.8443 102.559 73.2293 89.7548 72.9975 78.6376C72.9164 74.6441 74.9276 70.5809 76.4173 66.9351C81.3382 54.8964 88.4849 43.7155 92.7567 31.387L94.5072 32.3608C94.6753 37.6063 92.9074 52.8735 101.718 51.0767C102.952 50.8275 104.338 48.9379 104.338 47.9004V32.8303V32.8361ZM115.356 65.5904C116.956 73.7631 115.356 82.4052 109.6 88.5723L112.742 92.2413C120.248 85.5061 122.433 73.3341 115.356 65.5904ZM92.7046 84.7584L78.8343 77.1828C80.0631 83.4427 85.1289 88.5781 91.5685 89.349L92.7046 84.7584Z" fill="#465AE1"/>
<path d="M27.8278 99.7879L28.7204 103.271L14.1661 118.313L13.3199 118.063C12.2244 115.432 10.3812 115.044 8.27718 113.821C7.79029 113.542 7.315 113.989 7.54685 112.829L41.1648 79.194C40.0519 75.9482 41.0837 72.8704 41.7444 69.6361L46.3176 70.8533L46.6654 74.273L61.7124 58.5885C62.547 57.2902 64.7959 58.7508 64.9235 58.6291C65.1611 58.4031 66.0769 53.2502 67.2419 52.5315L86.949 31.9608L78.2605 51.3781L35.3802 96.6L27.8335 99.7821L27.8278 99.7879Z" fill="#465AE1"/>
<path d="M92.7448 11.112L87.847 19.0876C80.8046 17.482 72.8348 13.6507 71.2988 5.8954C78.8281 4.40578 85.9458 8.41675 92.7448 11.1178V11.112Z" fill="#465AE1"/>
<path d="M127.517 15.1635C128.502 16.1025 124.114 18.6238 123.459 18.9252C119.547 20.7452 115.431 20.7742 111.293 21.5393L110.128 15.1635C115.884 14.4274 121.778 14.1955 127.517 15.1635Z" fill="#465AE1"/>
<path d="M122.23 0.742586C122.004 8.85727 113.924 10.3353 107.235 10.5208C109.571 8.82249 114.533 1.24685 116.521 0.394811C118.254 -0.347103 120.538 0.0644307 122.236 0.742586H122.23Z" fill="#465AE1"/>
<path d="M93.3249 22.6929C92.2526 16.9372 98.014 10.8918 103.167 15.4534C102.471 16.6764 94.1247 23.5913 93.3249 22.6929Z" fill="#465AE1"/>
<path d="M9.22175 123.5C5.62231 124.729 1.61714 124.207 0 120.376C3.70377 117.188 10.068 117.298 9.22175 123.5Z" fill="#465AE1"/>
<path d="M106.07 20.3802C106.992 25.5736 101.584 30.6452 96.8022 27.6138L106.07 20.3802Z" fill="#465AE1"/>
<path d="M115.356 65.5906C122.433 73.3343 120.248 85.5063 112.742 92.2415L109.601 88.5725C115.356 82.4053 116.956 73.7632 115.356 65.5906Z" fill="white"/>
<path d="M92.7048 84.7585L91.5687 89.3491C85.1291 88.5782 80.0633 83.4428 78.8345 77.1829L92.7048 84.7585Z" fill="white"/>
</svg>
