<svg width="25" height="24" viewBox="0 0 25 24" fill="none" xmlns="http://www.w3.org/2000/svg">
<path d="M24.5427 7.64154C24.5427 13.0311 20.1309 18.3321 13.1735 22.8866C12.9016 23.0512 12.5309 23.2283 12.2714 23.2283C12.0118 23.2283 11.6411 23.0512 11.3816 22.8866C4.41176 18.3321 0 13.0311 0 7.64154C0 3.16289 3.00296 0 6.88332 0C9.29311 0 11.1715 1.37902 12.2714 3.45387C13.3959 1.36637 15.2496 0 17.6594 0C21.5398 0 24.5427 3.16289 24.5427 7.64154ZM9.66385 9.46336V10.6146C9.10775 10.6526 8.82352 10.9816 8.82352 11.6774V15.5741C8.82352 16.3079 9.14481 16.6368 9.79978 16.6368H14.7553C15.4102 16.6368 15.7315 16.3079 15.7315 15.5741V11.6774C15.7315 10.9816 15.4473 10.6526 14.8912 10.6146V9.46336C14.8912 7.65419 13.8284 6.45229 12.2714 6.45229C10.7266 6.45229 9.66385 7.65419 9.66385 9.46336ZM13.8903 9.34949V10.602H10.6648V9.34949C10.6648 8.19821 11.3074 7.43911 12.2714 7.43911C13.2477 7.43911 13.8903 8.19821 13.8903 9.34949Z" fill="#465AE1"/>
</svg>
