<svg width="18" height="20" viewBox="0 0 18 20" fill="none" xmlns="http://www.w3.org/2000/svg">
<path d="M16.5 1.5H14.25V0.75C14.25 0.551088 14.171 0.360322 14.0303 0.21967C13.8897 0.0790176 13.6989 0 13.5 0C13.3011 0 13.1103 0.0790176 12.9697 0.21967C12.829 0.360322 12.75 0.551088 12.75 0.75V1.5H5.25V0.75C5.25 0.551088 5.17098 0.360322 5.03033 0.21967C4.88968 0.0790176 4.69891 0 4.5 0C4.30109 0 4.11032 0.0790176 3.96967 0.21967C3.82902 0.360322 3.75 0.551088 3.75 0.75V1.5H1.5C1.10218 1.5 0.720644 1.65804 0.43934 1.93934C0.158035 2.22064 0 2.60218 0 3V18C0 18.3978 0.158035 18.7794 0.43934 19.0607C0.720644 19.342 1.10218 19.5 1.5 19.5H16.5C16.8978 19.5 17.2794 19.342 17.5607 19.0607C17.842 18.7794 18 18.3978 18 18V3C18 2.60218 17.842 2.22064 17.5607 1.93934C17.2794 1.65804 16.8978 1.5 16.5 1.5ZM3.75 3V3.75C3.75 3.94891 3.82902 4.13968 3.96967 4.28033C4.11032 4.42098 4.30109 4.5 4.5 4.5C4.69891 4.5 4.88968 4.42098 5.03033 4.28033C5.17098 4.13968 5.25 3.94891 5.25 3.75V3H12.75V3.75C12.75 3.94891 12.829 4.13968 12.9697 4.28033C13.1103 4.42098 13.3011 4.5 13.5 4.5C13.6989 4.5 13.8897 4.42098 14.0303 4.28033C14.171 4.13968 14.25 3.94891 14.25 3.75V3H16.5V6H1.5V3H3.75ZM16.5 18H1.5V7.5H16.5V18ZM12.9056 9.96937C12.9754 10.039 13.0307 10.1217 13.0684 10.2128C13.1062 10.3038 13.1256 10.4014 13.1256 10.5C13.1256 10.5986 13.1062 10.6962 13.0684 10.7872C13.0307 10.8783 12.9754 10.961 12.9056 11.0306L8.40563 15.5306C8.33597 15.6004 8.25325 15.6557 8.1622 15.6934C8.07116 15.7312 7.97356 15.7506 7.875 15.7506C7.77644 15.7506 7.67884 15.7312 7.58779 15.6934C7.49675 15.6557 7.41403 15.6004 7.34437 15.5306L5.09437 13.2806C4.95364 13.1399 4.87458 12.949 4.87458 12.75C4.87458 12.551 4.95364 12.3601 5.09437 12.2194C5.23511 12.0786 5.42598 11.9996 5.625 11.9996C5.82402 11.9996 6.01489 12.0786 6.15563 12.2194L7.875 13.9397L11.8444 9.96937C11.914 9.89964 11.9967 9.84432 12.0878 9.80658C12.1788 9.76884 12.2764 9.74941 12.375 9.74941C12.4736 9.74941 12.5712 9.76884 12.6622 9.80658C12.7533 9.84432 12.836 9.89964 12.9056 9.96937Z" fill="#727272"/>
</svg>
