<svg width="23" height="36" viewBox="0 0 23 36" fill="none" xmlns="http://www.w3.org/2000/svg">
<path d="M2.03223 13.6826C2.03223 13.5231 2.03906 13.2702 2.05273 12.9238C2.07096 12.5775 2.09831 12.2106 2.13477 11.8232C2.17578 11.4359 2.23275 11.0986 2.30566 10.8115C2.36947 10.5426 2.47884 10.3376 2.63379 10.1963C2.78874 10.055 2.96419 9.9707 3.16016 9.94336C3.35612 9.91602 3.55208 9.94336 3.74805 10.0254C3.94401 10.1029 4.11947 10.2282 4.27441 10.4014C4.7347 10.9255 5.2474 11.3037 5.8125 11.5361C6.3776 11.764 7.00423 11.8779 7.69238 11.8779C8.22559 11.8779 8.74284 11.8438 9.24414 11.7754C9.75 11.707 10.2467 11.6387 10.7344 11.5703C11.222 11.502 11.7074 11.4678 12.1904 11.4678C13.2523 11.4678 14.2275 11.6296 15.1162 11.9531C16.0094 12.2767 16.7842 12.7301 17.4404 13.3135C18.0967 13.8923 18.6048 14.5804 18.9648 15.3779C19.3249 16.1709 19.5049 17.0391 19.5049 17.9824C19.5049 18.9668 19.3249 19.8691 18.9648 20.6895C18.6094 21.5052 18.1012 22.2139 17.4404 22.8154C16.7842 23.4124 16.0072 23.875 15.1094 24.2031C14.2161 24.5358 13.234 24.7021 12.1631 24.7021C10.6273 24.7021 9.2373 24.4401 7.99316 23.916C6.74902 23.3965 5.68262 22.6536 4.79395 21.6875C3.90983 20.7168 3.22852 19.557 2.75 18.208C2.27148 16.8545 2.03223 15.346 2.03223 13.6826ZM3.59766 13.6826C3.59766 15.1318 3.7959 16.4375 4.19238 17.5996C4.58887 18.7617 5.16081 19.7552 5.9082 20.5801C6.6556 21.4049 7.55566 22.0384 8.6084 22.4805C9.66569 22.918 10.8506 23.1367 12.1631 23.1367C13.0199 23.1367 13.8014 23.0137 14.5078 22.7676C15.2142 22.5169 15.8226 22.1637 16.333 21.708C16.848 21.2477 17.2445 20.7031 17.5225 20.0742C17.8005 19.4408 17.9395 18.7435 17.9395 17.9824C17.9395 17.2578 17.8005 16.5947 17.5225 15.9932C17.2445 15.3916 16.848 14.8698 16.333 14.4277C15.818 13.9811 15.2096 13.637 14.5078 13.3955C13.806 13.154 13.0335 13.0332 12.1904 13.0332C11.8988 13.0332 11.598 13.0514 11.2881 13.0879C10.9782 13.1198 10.6478 13.1608 10.2969 13.2109C9.90951 13.2656 9.49707 13.318 9.05957 13.3682C8.62663 13.4183 8.1709 13.4434 7.69238 13.4434C7.25033 13.4434 6.79915 13.3955 6.33887 13.2998C5.88314 13.1995 5.44564 13.0537 5.02637 12.8623C4.6071 12.6709 4.22884 12.4339 3.8916 12.1514C3.764 12.0511 3.69108 12.0807 3.67285 12.2402C3.64551 12.4408 3.625 12.6663 3.61133 12.917C3.60221 13.1676 3.59766 13.4229 3.59766 13.6826ZM7.19336 15.8496C7.13867 15.6901 7.14779 15.5602 7.2207 15.46C7.29362 15.3597 7.39388 15.3096 7.52148 15.3096C7.64909 15.305 7.7653 15.3665 7.87012 15.4941C8.17546 15.8861 8.53548 16.2051 8.9502 16.4512C9.36491 16.6927 9.83203 16.8887 10.3516 17.0391C10.8757 17.1895 11.459 17.3193 12.1016 17.4287C13.7194 17.6885 15.057 18.0553 16.1143 18.5293C17.1715 18.9987 18.0055 19.6322 18.6162 20.4297C18.8851 20.7943 19.1562 21.1862 19.4297 21.6055C19.7077 22.0202 19.9606 22.4372 20.1885 22.8564C20.4209 23.2757 20.6077 23.6745 20.749 24.0527C20.8903 24.4355 20.9609 24.7751 20.9609 25.0713C20.9609 25.3402 20.9017 25.5863 20.7832 25.8096C20.6693 26.0374 20.512 26.2174 20.3115 26.3496C20.111 26.4818 19.8923 26.5479 19.6553 26.5479C19.4593 26.5479 19.2839 26.4932 19.1289 26.3838C18.974 26.279 18.8623 26.1126 18.7939 25.8848C18.6071 25.2969 18.443 24.7477 18.3018 24.2373C18.1605 23.7314 17.9964 23.2575 17.8096 22.8154C17.6273 22.3688 17.3789 21.9541 17.0645 21.5713C16.7728 21.1976 16.4652 20.874 16.1416 20.6006C15.8226 20.3271 15.4557 20.0856 15.041 19.876C14.6263 19.6618 14.141 19.4681 13.585 19.2949C13.0335 19.1172 12.3773 18.9372 11.6162 18.7549C10.846 18.5726 10.1602 18.3561 9.55859 18.1055C8.96159 17.8503 8.46029 17.5404 8.05469 17.1758C7.64909 16.8112 7.36198 16.3691 7.19336 15.8496Z" fill="#B496A0" style="mix-blend-mode:plus-darker"/>
</svg>
