<svg width="22" height="36" viewBox="0 0 22 36" fill="none" xmlns="http://www.w3.org/2000/svg">
<path d="M11 26.9375C10.804 26.9375 10.6354 26.8737 10.4941 26.7461C10.3529 26.6185 10.2617 26.4499 10.2207 26.2402C10.0794 25.2422 9.93132 24.3809 9.77637 23.6562C9.62598 22.9362 9.44141 22.3278 9.22266 21.8311C9.00846 21.3298 8.73275 20.915 8.39551 20.5869C8.06283 20.2542 7.64811 19.9831 7.15137 19.7734C6.65918 19.5638 6.0599 19.3883 5.35352 19.2471C4.65169 19.1012 3.81543 18.9645 2.84473 18.8369C2.63053 18.8096 2.45508 18.7253 2.31836 18.584C2.1862 18.4382 2.12012 18.265 2.12012 18.0645C2.12012 17.8639 2.18848 17.6908 2.3252 17.5449C2.46191 17.3945 2.63509 17.3079 2.84473 17.2852C3.81543 17.1803 4.65625 17.0618 5.36719 16.9297C6.07812 16.7975 6.68197 16.6266 7.17871 16.417C7.68001 16.2074 8.09701 15.9339 8.42969 15.5967C8.76693 15.2594 9.04492 14.8379 9.26367 14.332C9.48242 13.8216 9.66471 13.2041 9.81055 12.4795C9.95638 11.7503 10.0931 10.8867 10.2207 9.88867C10.2572 9.68359 10.346 9.51497 10.4873 9.38281C10.6331 9.25065 10.804 9.18457 11 9.18457C11.196 9.18457 11.3646 9.25065 11.5059 9.38281C11.6517 9.51497 11.7383 9.68359 11.7656 9.88867C11.9023 10.8867 12.0459 11.748 12.1963 12.4727C12.3467 13.1973 12.5312 13.8148 12.75 14.3252C12.9688 14.8311 13.2445 15.2526 13.5771 15.5898C13.9144 15.9225 14.3314 16.1937 14.8281 16.4033C15.3249 16.613 15.9264 16.7861 16.6328 16.9229C17.3438 17.055 18.1846 17.1758 19.1553 17.2852C19.3649 17.3125 19.5381 17.3991 19.6748 17.5449C19.8115 17.6908 19.8799 17.8639 19.8799 18.0645C19.8799 18.265 19.8092 18.4382 19.668 18.584C19.5312 18.7298 19.3604 18.8141 19.1553 18.8369C18.18 18.9417 17.3369 19.0602 16.626 19.1924C15.9196 19.3245 15.3158 19.4954 14.8145 19.7051C14.3177 19.9147 13.9007 20.1882 13.5635 20.5254C13.2308 20.8626 12.9528 21.2865 12.7295 21.7969C12.5107 22.3027 12.3285 22.918 12.1826 23.6426C12.0368 24.3717 11.8978 25.2376 11.7656 26.2402C11.7383 26.4453 11.6517 26.6117 11.5059 26.7393C11.3646 26.8714 11.196 26.9375 11 26.9375Z" fill="#B496A0" style="mix-blend-mode:plus-darker"/>
</svg>
