<svg width="363" height="439" viewBox="0 0 363 439" fill="none" xmlns="http://www.w3.org/2000/svg">
<path d="M37 100.215C37 85.8554 48.6406 74.2148 63 74.2148H311C325.359 74.2148 337 85.8554 337 100.215V303.215C337 317.574 325.359 329.215 311 329.215H63C48.6406 329.215 37 317.574 37 303.215V100.215Z" fill="#FFFCF5"/>
<path d="M53 104.227C53 96.4946 59.268 90.2266 67 90.2266C74.732 90.2266 81 96.4946 81 104.227C81 111.959 74.732 118.227 67 118.227C59.268 118.227 53 111.959 53 104.227Z" fill="#C7B6F0"/>
<path d="M66.625 96L69.2516 101.267L75.125 102.111L70.875 106.211L71.8783 112L66.625 109.267L61.3717 112L62.375 106.211L58.125 102.111L63.9984 101.267L66.625 96Z" fill="#FF87EB"/>
<path d="M93.7227 108.193C92.8867 108.193 92.1641 108.014 91.5547 107.654C90.9453 107.291 90.4746 106.777 90.1426 106.113C89.8145 105.449 89.6504 104.662 89.6504 103.752V103.74C89.6504 102.826 89.8164 102.039 90.1484 101.379C90.4844 100.715 90.957 100.203 91.5664 99.8438C92.1758 99.4844 92.8945 99.3047 93.7227 99.3047C94.5547 99.3047 95.2734 99.4844 95.8789 99.8438C96.4883 100.203 96.959 100.715 97.291 101.379C97.623 102.043 97.7891 102.83 97.7891 103.74V103.752C97.7891 104.662 97.623 105.449 97.291 106.113C96.9629 106.777 96.4941 107.291 95.8848 107.654C95.2754 108.014 94.5547 108.193 93.7227 108.193ZM93.7227 106.693C94.1797 106.693 94.5781 106.572 94.918 106.33C95.2578 106.088 95.5195 105.746 95.7031 105.305C95.8906 104.863 95.9844 104.346 95.9844 103.752V103.74C95.9844 103.143 95.8906 102.625 95.7031 102.188C95.5195 101.746 95.2578 101.406 94.918 101.168C94.5781 100.926 94.1797 100.805 93.7227 100.805C93.2656 100.805 92.8672 100.926 92.5273 101.168C92.1875 101.406 91.9238 101.746 91.7363 102.188C91.5488 102.625 91.4551 103.143 91.4551 103.74V103.752C91.4551 104.346 91.5469 104.863 91.7305 105.305C91.918 105.746 92.1797 106.088 92.5156 106.33C92.8555 106.572 93.2578 106.693 93.7227 106.693ZM95.8672 108.814L93.1484 105.193H94.7949L97.5137 108.814H95.8672ZM101.434 108.111C100.953 108.111 100.549 108.018 100.221 107.83C99.8965 107.643 99.6523 107.369 99.4883 107.01C99.3242 106.646 99.2422 106.209 99.2422 105.697V101.525H100.953V105.305C100.953 105.762 101.043 106.107 101.223 106.342C101.406 106.576 101.701 106.693 102.107 106.693C102.318 106.693 102.504 106.66 102.664 106.594C102.828 106.523 102.965 106.426 103.074 106.301C103.184 106.176 103.266 106.025 103.32 105.85C103.379 105.67 103.408 105.471 103.408 105.252V101.525H105.119V107.977H103.408V106.98H103.303C103.205 107.215 103.068 107.418 102.893 107.59C102.717 107.758 102.506 107.887 102.26 107.977C102.014 108.066 101.738 108.111 101.434 108.111ZM106.848 107.977V101.525H108.559V107.977H106.848ZM107.709 100.535C107.447 100.535 107.221 100.443 107.029 100.26C106.838 100.072 106.742 99.8477 106.742 99.5859C106.742 99.3203 106.838 99.0957 107.029 98.9121C107.221 98.7246 107.447 98.6309 107.709 98.6309C107.975 98.6309 108.201 98.7246 108.389 98.9121C108.576 99.0957 108.67 99.3203 108.67 99.5859C108.67 99.8477 108.576 100.072 108.389 100.26C108.201 100.443 107.975 100.535 107.709 100.535ZM112.959 108C112.178 108 111.615 107.863 111.271 107.59C110.928 107.312 110.756 106.861 110.756 106.236V102.814H109.76V101.525H110.756V99.9844H112.484V101.525H113.814V102.814H112.484V105.844C112.484 106.133 112.549 106.346 112.678 106.482C112.811 106.615 113.021 106.682 113.311 106.682C113.42 106.682 113.51 106.68 113.58 106.676C113.654 106.668 113.732 106.66 113.814 106.652V107.924C113.709 107.943 113.582 107.961 113.434 107.977C113.285 107.992 113.127 108 112.959 108ZM116.996 108.076C116.59 108.076 116.227 107.998 115.906 107.842C115.59 107.682 115.342 107.457 115.162 107.168C114.982 106.875 114.893 106.533 114.893 106.143V106.131C114.893 105.744 114.988 105.412 115.18 105.135C115.375 104.857 115.658 104.641 116.029 104.484C116.404 104.324 116.859 104.229 117.395 104.197L119.797 104.051V105.094L117.652 105.234C117.285 105.254 117.012 105.332 116.832 105.469C116.652 105.605 116.562 105.791 116.562 106.025V106.037C116.562 106.283 116.656 106.477 116.844 106.617C117.031 106.758 117.273 106.828 117.57 106.828C117.836 106.828 118.072 106.775 118.279 106.67C118.486 106.564 118.65 106.422 118.771 106.242C118.893 106.059 118.953 105.854 118.953 105.627V103.57C118.953 103.289 118.859 103.074 118.672 102.926C118.488 102.773 118.221 102.697 117.869 102.697C117.561 102.697 117.309 102.75 117.113 102.855C116.922 102.957 116.793 103.104 116.727 103.295L116.715 103.318H115.133L115.139 103.266C115.186 102.887 115.328 102.557 115.566 102.275C115.809 101.994 116.133 101.775 116.539 101.619C116.949 101.463 117.424 101.385 117.963 101.385C118.533 101.385 119.018 101.473 119.416 101.648C119.814 101.82 120.117 102.07 120.324 102.398C120.535 102.723 120.641 103.113 120.641 103.57V107.977H118.953V107.121H118.848C118.738 107.32 118.592 107.492 118.408 107.637C118.229 107.777 118.018 107.887 117.775 107.965C117.537 108.039 117.277 108.076 116.996 108.076Z" fill="#4A2E6E"/>
<path d="M315 104.227C315 102.57 316.343 101.227 318 101.227C319.657 101.227 321 102.57 321 104.227C321 105.883 319.657 107.227 318 107.227C316.343 107.227 315 105.883 315 104.227Z" fill="#69E093"/>
<path d="M53.0195 150.422C53.0195 140.481 61.0784 132.422 71.0195 132.422H244.02C253.961 132.422 262.02 140.481 262.02 150.422V166.422C262.02 176.363 253.961 184.422 244.02 184.422H59.0195C55.7058 184.422 53.0195 181.736 53.0195 178.422V150.422Z" fill="#63A7F7" fill-opacity="0.66"/>
<path d="M70.4043 153.977V150.338L67.4043 145.521H68.6055L70.8848 149.277H70.9785L73.2578 145.521H74.459L71.459 150.338V153.977H70.4043ZM77.4121 154.088C76.8145 154.088 76.2969 153.957 75.8594 153.695C75.4258 153.43 75.0898 153.053 74.8516 152.564C74.6172 152.076 74.5 151.496 74.5 150.824V150.812C74.5 150.137 74.6172 149.555 74.8516 149.066C75.0898 148.578 75.4258 148.203 75.8594 147.941C76.2969 147.68 76.8145 147.549 77.4121 147.549C78.0137 147.549 78.5312 147.68 78.9648 147.941C79.3984 148.203 79.7324 148.578 79.9668 149.066C80.2051 149.555 80.3242 150.137 80.3242 150.812V150.824C80.3242 151.496 80.2051 152.076 79.9668 152.564C79.7324 153.053 79.3984 153.43 78.9648 153.695C78.5312 153.957 78.0137 154.088 77.4121 154.088ZM77.4121 153.186C77.8105 153.186 78.1484 153.092 78.4258 152.904C78.7031 152.717 78.9141 152.447 79.0586 152.096C79.207 151.744 79.2812 151.32 79.2812 150.824V150.812C79.2812 150.312 79.207 149.887 79.0586 149.535C78.9141 149.184 78.7031 148.916 78.4258 148.732C78.1484 148.545 77.8105 148.451 77.4121 148.451C77.0137 148.451 76.6758 148.545 76.3984 148.732C76.1211 148.916 75.9082 149.184 75.7598 149.535C75.6152 149.887 75.543 150.312 75.543 150.812V150.824C75.543 151.32 75.6152 151.744 75.7598 152.096C75.9082 152.447 76.1211 152.717 76.3984 152.904C76.6758 153.092 77.0137 153.186 77.4121 153.186ZM84.0215 154.088C83.5449 154.088 83.1445 153.998 82.8203 153.818C82.4961 153.635 82.252 153.369 82.0879 153.021C81.9277 152.67 81.8477 152.246 81.8477 151.75V147.66H82.8672V151.504C82.8672 152.07 82.9766 152.492 83.1953 152.77C83.418 153.047 83.7812 153.186 84.2852 153.186C84.5625 153.186 84.8066 153.145 85.0176 153.062C85.2324 152.98 85.4121 152.863 85.5566 152.711C85.7012 152.555 85.8086 152.367 85.8789 152.148C85.9531 151.926 85.9902 151.676 85.9902 151.398V147.66H87.0098V153.977H85.9902V153.033H85.8965C85.7949 153.256 85.6562 153.447 85.4805 153.607C85.3047 153.764 85.0938 153.883 84.8477 153.965C84.6055 154.047 84.3301 154.088 84.0215 154.088ZM94.6211 154.088C94.0898 154.088 93.625 153.953 93.2266 153.684C92.8281 153.414 92.5195 153.035 92.3008 152.547C92.082 152.055 91.9727 151.48 91.9727 150.824V150.812C91.9727 150.152 92.082 149.578 92.3008 149.09C92.5195 148.602 92.8262 148.223 93.2207 147.953C93.6191 147.684 94.0859 147.549 94.6211 147.549C94.9102 147.549 95.1816 147.596 95.4355 147.689C95.6934 147.779 95.9219 147.906 96.1211 148.07C96.3203 148.234 96.4766 148.43 96.5898 148.656H96.6836V145.152H97.7031V153.977H96.6836V152.969H96.5898C96.4609 153.203 96.2988 153.404 96.1035 153.572C95.9082 153.736 95.6855 153.863 95.4355 153.953C95.1855 154.043 94.9141 154.088 94.6211 154.088ZM94.8555 153.186C95.2383 153.186 95.5684 153.09 95.8457 152.898C96.123 152.707 96.3359 152.436 96.4844 152.084C96.6328 151.729 96.707 151.309 96.707 150.824V150.812C96.707 150.324 96.6328 149.904 96.4844 149.553C96.3359 149.201 96.123 148.93 95.8457 148.738C95.5684 148.547 95.2383 148.451 94.8555 148.451C94.4727 148.451 94.1426 148.547 93.8652 148.738C93.5918 148.926 93.3809 149.195 93.2324 149.547C93.0879 149.898 93.0156 150.32 93.0156 150.812V150.824C93.0156 151.312 93.0879 151.734 93.2324 152.09C93.3809 152.441 93.5918 152.713 93.8652 152.904C94.1426 153.092 94.4727 153.186 94.8555 153.186ZM102.256 154.088C101.658 154.088 101.141 153.957 100.703 153.695C100.27 153.43 99.9336 153.053 99.6953 152.564C99.4609 152.076 99.3438 151.496 99.3438 150.824V150.812C99.3438 150.137 99.4609 149.555 99.6953 149.066C99.9336 148.578 100.27 148.203 100.703 147.941C101.141 147.68 101.658 147.549 102.256 147.549C102.857 147.549 103.375 147.68 103.809 147.941C104.242 148.203 104.576 148.578 104.811 149.066C105.049 149.555 105.168 150.137 105.168 150.812V150.824C105.168 151.496 105.049 152.076 104.811 152.564C104.576 153.053 104.242 153.43 103.809 153.695C103.375 153.957 102.857 154.088 102.256 154.088ZM102.256 153.186C102.654 153.186 102.992 153.092 103.27 152.904C103.547 152.717 103.758 152.447 103.902 152.096C104.051 151.744 104.125 151.32 104.125 150.824V150.812C104.125 150.312 104.051 149.887 103.902 149.535C103.758 149.184 103.547 148.916 103.27 148.732C102.992 148.545 102.654 148.451 102.256 148.451C101.857 148.451 101.52 148.545 101.242 148.732C100.965 148.916 100.752 149.184 100.604 149.535C100.459 149.887 100.387 150.312 100.387 150.812V150.824C100.387 151.32 100.459 151.744 100.604 152.096C100.752 152.447 100.965 152.717 101.242 152.904C101.52 153.092 101.857 153.186 102.256 153.186ZM106.75 153.977V147.66H107.77V148.609H107.863C108.023 148.273 108.254 148.014 108.555 147.83C108.855 147.643 109.238 147.549 109.703 147.549C110.414 147.549 110.959 147.752 111.338 148.158C111.721 148.561 111.912 149.137 111.912 149.887V153.977H110.893V150.133C110.893 149.562 110.771 149.141 110.529 148.867C110.291 148.59 109.92 148.451 109.416 148.451C109.08 148.451 108.789 148.523 108.543 148.668C108.297 148.812 108.105 149.018 107.969 149.283C107.836 149.549 107.77 149.867 107.77 150.238V153.977H106.75ZM114.168 148.855L114.045 145.521H115.135L115.012 148.855H114.168ZM119.564 154.023C118.916 154.023 118.445 153.893 118.152 153.631C117.863 153.369 117.719 152.938 117.719 152.336V148.504H116.723V147.66H117.719V146.025H118.773V147.66H120.156V148.504H118.773V152.078C118.773 152.449 118.844 152.717 118.984 152.881C119.125 153.041 119.359 153.121 119.688 153.121C119.777 153.121 119.854 153.119 119.916 153.115C119.982 153.111 120.062 153.105 120.156 153.098V153.965C120.059 153.98 119.961 153.994 119.863 154.006C119.766 154.018 119.666 154.023 119.564 154.023ZM125.113 153.977V145.152H126.133V148.609H126.227C126.387 148.273 126.617 148.014 126.918 147.83C127.219 147.643 127.602 147.549 128.066 147.549C128.539 147.549 128.939 147.641 129.268 147.824C129.596 148.004 129.846 148.268 130.018 148.615C130.189 148.963 130.275 149.387 130.275 149.887V153.977H129.256V150.133C129.256 149.562 129.135 149.141 128.893 148.867C128.654 148.59 128.283 148.451 127.779 148.451C127.443 148.451 127.152 148.523 126.906 148.668C126.66 148.812 126.469 149.018 126.332 149.283C126.199 149.549 126.133 149.867 126.133 150.238V153.977H125.113ZM133.855 154.088C133.457 154.088 133.098 154.012 132.777 153.859C132.461 153.707 132.209 153.49 132.021 153.209C131.838 152.928 131.746 152.596 131.746 152.213V152.201C131.746 151.826 131.836 151.506 132.016 151.24C132.195 150.971 132.457 150.76 132.801 150.607C133.145 150.455 133.561 150.365 134.049 150.338L136.369 150.197V151.012L134.172 151.152C133.691 151.18 133.34 151.279 133.117 151.451C132.898 151.623 132.789 151.865 132.789 152.178V152.189C132.789 152.51 132.91 152.76 133.152 152.939C133.395 153.115 133.699 153.203 134.066 153.203C134.414 153.203 134.723 153.135 134.992 152.998C135.262 152.857 135.473 152.668 135.625 152.43C135.781 152.191 135.859 151.922 135.859 151.621V149.652C135.859 149.262 135.74 148.965 135.502 148.762C135.268 148.555 134.914 148.451 134.441 148.451C134.062 148.451 133.752 148.52 133.51 148.656C133.268 148.789 133.105 148.979 133.023 149.225L133.018 149.242H131.998L132.004 149.207C132.059 148.875 132.195 148.586 132.414 148.34C132.637 148.09 132.924 147.896 133.275 147.76C133.627 147.619 134.027 147.549 134.477 147.549C134.992 147.549 135.428 147.633 135.783 147.801C136.143 147.969 136.414 148.211 136.598 148.527C136.785 148.84 136.879 149.215 136.879 149.652V153.977H135.859V153.045H135.766C135.633 153.268 135.471 153.457 135.279 153.613C135.092 153.77 134.879 153.889 134.641 153.971C134.402 154.049 134.141 154.088 133.855 154.088ZM140.295 153.977L137.957 147.66H139.035L140.764 152.863H140.857L142.586 147.66H143.664L141.326 153.977H140.295ZM147.355 154.088C146.754 154.088 146.236 153.955 145.803 153.689C145.373 153.424 145.041 153.049 144.807 152.564C144.576 152.076 144.461 151.502 144.461 150.842V150.836C144.461 150.184 144.576 149.611 144.807 149.119C145.041 148.627 145.371 148.242 145.797 147.965C146.223 147.688 146.721 147.549 147.291 147.549C147.865 147.549 148.357 147.682 148.768 147.947C149.182 148.213 149.498 148.584 149.717 149.061C149.939 149.533 150.051 150.084 150.051 150.713V151.111H144.988V150.297H149.529L149.025 151.041V150.637C149.025 150.141 148.951 149.732 148.803 149.412C148.654 149.092 148.449 148.854 148.188 148.697C147.926 148.537 147.625 148.457 147.285 148.457C146.945 148.457 146.641 148.541 146.371 148.709C146.105 148.873 145.895 149.117 145.738 149.441C145.582 149.766 145.504 150.164 145.504 150.637V151.041C145.504 151.49 145.58 151.875 145.732 152.195C145.885 152.512 146.102 152.756 146.383 152.928C146.664 153.096 146.996 153.18 147.379 153.18C147.664 153.18 147.912 153.141 148.123 153.062C148.334 152.984 148.508 152.885 148.645 152.764C148.781 152.643 148.877 152.52 148.932 152.395L148.955 152.342H149.975L149.963 152.389C149.908 152.604 149.811 152.812 149.67 153.016C149.533 153.215 149.355 153.396 149.137 153.561C148.918 153.721 148.658 153.85 148.357 153.947C148.061 154.041 147.727 154.088 147.355 154.088ZM157.252 154.023C156.604 154.023 156.133 153.893 155.84 153.631C155.551 153.369 155.406 152.938 155.406 152.336V148.504H154.41V147.66H155.406V146.025H156.461V147.66H157.844V148.504H156.461V152.078C156.461 152.449 156.531 152.717 156.672 152.881C156.812 153.041 157.047 153.121 157.375 153.121C157.465 153.121 157.541 153.119 157.604 153.115C157.67 153.111 157.75 153.105 157.844 153.098V153.965C157.746 153.98 157.648 153.994 157.551 154.006C157.453 154.018 157.354 154.023 157.252 154.023ZM161.881 154.088C161.283 154.088 160.766 153.957 160.328 153.695C159.895 153.43 159.559 153.053 159.32 152.564C159.086 152.076 158.969 151.496 158.969 150.824V150.812C158.969 150.137 159.086 149.555 159.32 149.066C159.559 148.578 159.895 148.203 160.328 147.941C160.766 147.68 161.283 147.549 161.881 147.549C162.482 147.549 163 147.68 163.434 147.941C163.867 148.203 164.201 148.578 164.436 149.066C164.674 149.555 164.793 150.137 164.793 150.812V150.824C164.793 151.496 164.674 152.076 164.436 152.564C164.201 153.053 163.867 153.43 163.434 153.695C163 153.957 162.482 154.088 161.881 154.088ZM161.881 153.186C162.279 153.186 162.617 153.092 162.895 152.904C163.172 152.717 163.383 152.447 163.527 152.096C163.676 151.744 163.75 151.32 163.75 150.824V150.812C163.75 150.312 163.676 149.887 163.527 149.535C163.383 149.184 163.172 148.916 162.895 148.732C162.617 148.545 162.279 148.451 161.881 148.451C161.482 148.451 161.145 148.545 160.867 148.732C160.59 148.916 160.377 149.184 160.229 149.535C160.084 149.887 160.012 150.312 160.012 150.812V150.824C160.012 151.32 160.084 151.744 160.229 152.096C160.377 152.447 160.59 152.717 160.867 152.904C161.145 153.092 161.482 153.186 161.881 153.186ZM172.334 154.088C171.744 154.088 171.232 153.953 170.799 153.684C170.365 153.414 170.029 153.033 169.791 152.541C169.553 152.049 169.434 151.469 169.434 150.801V150.789C169.434 150.133 169.551 149.562 169.785 149.078C170.023 148.594 170.359 148.219 170.793 147.953C171.227 147.684 171.738 147.549 172.328 147.549C172.84 147.549 173.281 147.639 173.652 147.818C174.023 147.998 174.32 148.24 174.543 148.545C174.766 148.846 174.908 149.184 174.971 149.559L174.977 149.594H173.963L173.957 149.576C173.879 149.264 173.701 148.998 173.424 148.779C173.146 148.561 172.781 148.451 172.328 148.451C171.949 148.451 171.621 148.547 171.344 148.738C171.066 148.93 170.852 149.201 170.699 149.553C170.551 149.9 170.477 150.312 170.477 150.789V150.801C170.477 151.285 170.553 151.707 170.705 152.066C170.857 152.422 171.072 152.697 171.35 152.893C171.627 153.088 171.953 153.186 172.328 153.186C172.754 153.186 173.102 153.094 173.371 152.91C173.641 152.727 173.834 152.459 173.951 152.107L173.963 152.072L174.971 152.066L174.959 152.131C174.873 152.51 174.721 152.848 174.502 153.145C174.283 153.438 173.994 153.668 173.635 153.836C173.275 154.004 172.842 154.088 172.334 154.088ZM178.199 154.088C177.801 154.088 177.441 154.012 177.121 153.859C176.805 153.707 176.553 153.49 176.365 153.209C176.182 152.928 176.09 152.596 176.09 152.213V152.201C176.09 151.826 176.18 151.506 176.359 151.24C176.539 150.971 176.801 150.76 177.145 150.607C177.488 150.455 177.904 150.365 178.393 150.338L180.713 150.197V151.012L178.516 151.152C178.035 151.18 177.684 151.279 177.461 151.451C177.242 151.623 177.133 151.865 177.133 152.178V152.189C177.133 152.51 177.254 152.76 177.496 152.939C177.738 153.115 178.043 153.203 178.41 153.203C178.758 153.203 179.066 153.135 179.336 152.998C179.605 152.857 179.816 152.668 179.969 152.43C180.125 152.191 180.203 151.922 180.203 151.621V149.652C180.203 149.262 180.084 148.965 179.846 148.762C179.611 148.555 179.258 148.451 178.785 148.451C178.406 148.451 178.096 148.52 177.854 148.656C177.611 148.789 177.449 148.979 177.367 149.225L177.361 149.242H176.342L176.348 149.207C176.402 148.875 176.539 148.586 176.758 148.34C176.98 148.09 177.268 147.896 177.619 147.76C177.971 147.619 178.371 147.549 178.82 147.549C179.336 147.549 179.771 147.633 180.127 147.801C180.486 147.969 180.758 148.211 180.941 148.527C181.129 148.84 181.223 149.215 181.223 149.652V153.977H180.203V153.045H180.109C179.977 153.268 179.814 153.457 179.623 153.613C179.436 153.77 179.223 153.889 178.984 153.971C178.746 154.049 178.484 154.088 178.199 154.088ZM183.086 153.977V147.66H184.105V148.598H184.199C184.32 148.266 184.525 148.008 184.814 147.824C185.104 147.641 185.461 147.549 185.887 147.549C185.984 147.549 186.08 147.555 186.174 147.566C186.271 147.574 186.346 147.582 186.396 147.59V148.58C186.291 148.561 186.188 148.547 186.086 148.539C185.988 148.527 185.883 148.521 185.77 148.521C185.445 148.521 185.158 148.586 184.908 148.715C184.658 148.844 184.461 149.023 184.316 149.254C184.176 149.484 184.105 149.754 184.105 150.062V153.977H183.086ZM187.773 153.977V147.66H188.793V148.598H188.887C189.008 148.266 189.213 148.008 189.502 147.824C189.791 147.641 190.148 147.549 190.574 147.549C190.672 147.549 190.768 147.555 190.861 147.566C190.959 147.574 191.033 147.582 191.084 147.59V148.58C190.979 148.561 190.875 148.547 190.773 148.539C190.676 148.527 190.57 148.521 190.457 148.521C190.133 148.521 189.846 148.586 189.596 148.715C189.346 148.844 189.148 149.023 189.004 149.254C188.863 149.484 188.793 149.754 188.793 150.062V153.977H187.773ZM192.941 156.191C192.875 156.191 192.801 156.188 192.719 156.18C192.637 156.176 192.561 156.168 192.49 156.156V155.318C192.553 155.33 192.621 155.338 192.695 155.342C192.77 155.346 192.842 155.348 192.912 155.348C193.201 155.348 193.438 155.273 193.621 155.125C193.809 154.977 193.959 154.721 194.072 154.357L194.189 153.982L191.852 147.66H192.941L194.887 153.496L194.482 152.857H194.963L194.559 153.496L196.498 147.66H197.57L195.104 154.363C194.932 154.836 194.75 155.205 194.559 155.471C194.367 155.736 194.143 155.922 193.885 156.027C193.631 156.137 193.316 156.191 192.941 156.191ZM204.537 154.023C203.889 154.023 203.418 153.893 203.125 153.631C202.836 153.369 202.691 152.938 202.691 152.336V148.504H201.695V147.66H202.691V146.025H203.746V147.66H205.129V148.504H203.746V152.078C203.746 152.449 203.816 152.717 203.957 152.881C204.098 153.041 204.332 153.121 204.66 153.121C204.75 153.121 204.826 153.119 204.889 153.115C204.955 153.111 205.035 153.105 205.129 153.098V153.965C205.031 153.98 204.934 153.994 204.836 154.006C204.738 154.018 204.639 154.023 204.537 154.023ZM206.711 153.977V145.152H207.73V148.609H207.824C207.984 148.273 208.215 148.014 208.516 147.83C208.816 147.643 209.199 147.549 209.664 147.549C210.137 147.549 210.537 147.641 210.865 147.824C211.193 148.004 211.443 148.268 211.615 148.615C211.787 148.963 211.873 149.387 211.873 149.887V153.977H210.854V150.133C210.854 149.562 210.732 149.141 210.49 148.867C210.252 148.59 209.881 148.451 209.377 148.451C209.041 148.451 208.75 148.523 208.504 148.668C208.258 148.812 208.066 149.018 207.93 149.283C207.797 149.549 207.73 149.867 207.73 150.238V153.977H206.711ZM213.742 153.977V147.66H214.762V153.977H213.742ZM214.258 146.441C214.066 146.441 213.9 146.373 213.76 146.236C213.623 146.096 213.555 145.93 213.555 145.738C213.555 145.543 213.623 145.377 213.76 145.24C213.9 145.104 214.066 145.035 214.258 145.035C214.453 145.035 214.619 145.104 214.756 145.24C214.893 145.377 214.961 145.543 214.961 145.738C214.961 145.93 214.893 146.096 214.756 146.236C214.619 146.373 214.453 146.441 214.258 146.441ZM218.852 154.088C218.383 154.088 217.969 154.018 217.609 153.877C217.25 153.732 216.961 153.531 216.742 153.273C216.527 153.016 216.4 152.713 216.361 152.365H217.404C217.49 152.627 217.658 152.838 217.908 152.998C218.158 153.158 218.484 153.238 218.887 153.238C219.172 153.238 219.422 153.197 219.637 153.115C219.855 153.029 220.027 152.914 220.152 152.77C220.277 152.621 220.34 152.451 220.34 152.26V152.248C220.34 152.033 220.254 151.852 220.082 151.703C219.91 151.551 219.629 151.428 219.238 151.334L218.26 151.1C217.865 151.006 217.541 150.885 217.287 150.736C217.033 150.584 216.846 150.398 216.725 150.18C216.604 149.957 216.543 149.695 216.543 149.395V149.389C216.543 149.037 216.645 148.723 216.848 148.445C217.055 148.168 217.336 147.949 217.691 147.789C218.047 147.629 218.447 147.549 218.893 147.549C219.334 147.549 219.725 147.619 220.064 147.76C220.408 147.896 220.684 148.092 220.891 148.346C221.102 148.6 221.23 148.898 221.277 149.242H220.275C220.209 148.992 220.057 148.789 219.818 148.633C219.58 148.477 219.27 148.398 218.887 148.398C218.637 148.398 218.414 148.439 218.219 148.521C218.023 148.6 217.869 148.709 217.756 148.85C217.643 148.99 217.586 149.154 217.586 149.342V149.354C217.586 149.494 217.623 149.619 217.697 149.729C217.771 149.838 217.887 149.934 218.043 150.016C218.199 150.098 218.4 150.17 218.646 150.232L219.619 150.467C220.213 150.611 220.654 150.818 220.943 151.088C221.236 151.357 221.383 151.719 221.383 152.172V152.184C221.383 152.559 221.271 152.891 221.049 153.18C220.826 153.465 220.523 153.688 220.141 153.848C219.762 154.008 219.332 154.088 218.852 154.088ZM69.6836 171.088C69.2852 171.088 68.9258 171.012 68.6055 170.859C68.2891 170.707 68.0371 170.49 67.8496 170.209C67.666 169.928 67.5742 169.596 67.5742 169.213V169.201C67.5742 168.826 67.6641 168.506 67.8438 168.24C68.0234 167.971 68.2852 167.76 68.6289 167.607C68.9727 167.455 69.3887 167.365 69.877 167.338L72.1973 167.197V168.012L70 168.152C69.5195 168.18 69.168 168.279 68.9453 168.451C68.7266 168.623 68.6172 168.865 68.6172 169.178V169.189C68.6172 169.51 68.7383 169.76 68.9805 169.939C69.2227 170.115 69.5273 170.203 69.8945 170.203C70.2422 170.203 70.5508 170.135 70.8203 169.998C71.0898 169.857 71.3008 169.668 71.4531 169.43C71.6094 169.191 71.6875 168.922 71.6875 168.621V166.652C71.6875 166.262 71.5684 165.965 71.3301 165.762C71.0957 165.555 70.7422 165.451 70.2695 165.451C69.8906 165.451 69.5801 165.52 69.3379 165.656C69.0957 165.789 68.9336 165.979 68.8516 166.225L68.8457 166.242H67.8262L67.832 166.207C67.8867 165.875 68.0234 165.586 68.2422 165.34C68.4648 165.09 68.752 164.896 69.1035 164.76C69.4551 164.619 69.8555 164.549 70.3047 164.549C70.8203 164.549 71.2559 164.633 71.6113 164.801C71.9707 164.969 72.2422 165.211 72.4258 165.527C72.6133 165.84 72.707 166.215 72.707 166.652V170.977H71.6875V170.045H71.5938C71.4609 170.268 71.2988 170.457 71.1074 170.613C70.9199 170.77 70.707 170.889 70.4688 170.971C70.2305 171.049 69.9688 171.088 69.6836 171.088ZM74.6289 170.977V162.152H75.6484V170.977H74.6289ZM80.2012 171.088C79.6035 171.088 79.0859 170.957 78.6484 170.695C78.2148 170.43 77.8789 170.053 77.6406 169.564C77.4062 169.076 77.2891 168.496 77.2891 167.824V167.812C77.2891 167.137 77.4062 166.555 77.6406 166.066C77.8789 165.578 78.2148 165.203 78.6484 164.941C79.0859 164.68 79.6035 164.549 80.2012 164.549C80.8027 164.549 81.3203 164.68 81.7539 164.941C82.1875 165.203 82.5215 165.578 82.7559 166.066C82.9941 166.555 83.1133 167.137 83.1133 167.812V167.824C83.1133 168.496 82.9941 169.076 82.7559 169.564C82.5215 170.053 82.1875 170.43 81.7539 170.695C81.3203 170.957 80.8027 171.088 80.2012 171.088ZM80.2012 170.186C80.5996 170.186 80.9375 170.092 81.2148 169.904C81.4922 169.717 81.7031 169.447 81.8477 169.096C81.9961 168.744 82.0703 168.32 82.0703 167.824V167.812C82.0703 167.312 81.9961 166.887 81.8477 166.535C81.7031 166.184 81.4922 165.916 81.2148 165.732C80.9375 165.545 80.5996 165.451 80.2012 165.451C79.8027 165.451 79.4648 165.545 79.1875 165.732C78.9102 165.916 78.6973 166.184 78.5488 166.535C78.4043 166.887 78.332 167.312 78.332 167.812V167.824C78.332 168.32 78.4043 168.744 78.5488 169.096C78.6973 169.447 78.9102 169.717 79.1875 169.904C79.4648 170.092 79.8027 170.186 80.2012 170.186ZM84.6953 170.977V164.66H85.7148V165.609H85.8086C85.9688 165.273 86.1992 165.014 86.5 164.83C86.8008 164.643 87.1836 164.549 87.6484 164.549C88.3594 164.549 88.9043 164.752 89.2832 165.158C89.666 165.561 89.8574 166.137 89.8574 166.887V170.977H88.8379V167.133C88.8379 166.562 88.7168 166.141 88.4746 165.867C88.2363 165.59 87.8652 165.451 87.3613 165.451C87.0254 165.451 86.7344 165.523 86.4883 165.668C86.2422 165.812 86.0508 166.018 85.9141 166.283C85.7812 166.549 85.7148 166.867 85.7148 167.238V170.977H84.6953ZM94.2812 171.088C93.6797 171.088 93.1621 170.955 92.7285 170.689C92.2988 170.424 91.9668 170.049 91.7324 169.564C91.502 169.076 91.3867 168.502 91.3867 167.842V167.836C91.3867 167.184 91.502 166.611 91.7324 166.119C91.9668 165.627 92.2969 165.242 92.7227 164.965C93.1484 164.688 93.6465 164.549 94.2168 164.549C94.791 164.549 95.2832 164.682 95.6934 164.947C96.1074 165.213 96.4238 165.584 96.6426 166.061C96.8652 166.533 96.9766 167.084 96.9766 167.713V168.111H91.9141V167.297H96.4551L95.9512 168.041V167.637C95.9512 167.141 95.877 166.732 95.7285 166.412C95.5801 166.092 95.375 165.854 95.1133 165.697C94.8516 165.537 94.5508 165.457 94.2109 165.457C93.8711 165.457 93.5664 165.541 93.2969 165.709C93.0312 165.873 92.8203 166.117 92.6641 166.441C92.5078 166.766 92.4297 167.164 92.4297 167.637V168.041C92.4297 168.49 92.5059 168.875 92.6582 169.195C92.8105 169.512 93.0273 169.756 93.3086 169.928C93.5898 170.096 93.9219 170.18 94.3047 170.18C94.5898 170.18 94.8379 170.141 95.0488 170.062C95.2598 169.984 95.4336 169.885 95.5703 169.764C95.707 169.643 95.8027 169.52 95.8574 169.395L95.8809 169.342H96.9004L96.8887 169.389C96.834 169.604 96.7363 169.812 96.5957 170.016C96.459 170.215 96.2812 170.396 96.0625 170.561C95.8438 170.721 95.584 170.85 95.2832 170.947C94.9863 171.041 94.6523 171.088 94.2812 171.088ZM99.3906 171.035C99.1836 171.035 99.0039 170.961 98.8516 170.812C98.7031 170.66 98.6289 170.48 98.6289 170.273C98.6289 170.062 98.7031 169.883 98.8516 169.734C99.0039 169.586 99.1836 169.512 99.3906 169.512C99.6016 169.512 99.7812 169.586 99.9297 169.734C100.078 169.883 100.152 170.062 100.152 170.273C100.152 170.48 100.078 170.66 99.9297 170.812C99.7812 170.961 99.6016 171.035 99.3906 171.035Z" fill="#465AE1"/>
<path d="M183.094 212.715C183.094 202.774 191.153 194.715 201.094 194.715H303.094C313.035 194.715 321.094 202.774 321.094 212.715V224.715C321.094 228.029 318.407 230.715 315.094 230.715H201.094C191.153 230.715 183.094 222.656 183.094 212.715Z" fill="#465AE1"/>
<path d="M198.266 216.367V207.912H199.32V216.367H198.266ZM205.145 216.367V210.895H204.096V210.051H205.145V209.348C205.145 208.926 205.213 208.578 205.35 208.305C205.49 208.027 205.697 207.822 205.971 207.689C206.244 207.553 206.58 207.484 206.979 207.484C207.104 207.484 207.221 207.49 207.33 207.502C207.443 207.51 207.553 207.523 207.658 207.543V208.357C207.596 208.346 207.523 208.338 207.441 208.334C207.359 208.33 207.273 208.328 207.184 208.328C206.82 208.328 206.559 208.416 206.398 208.592C206.242 208.768 206.164 209.029 206.164 209.377V210.051H207.6V210.895H206.164V216.367H205.145ZM211.391 216.479C210.789 216.479 210.271 216.346 209.838 216.08C209.408 215.814 209.076 215.439 208.842 214.955C208.611 214.467 208.496 213.893 208.496 213.232V213.227C208.496 212.574 208.611 212.002 208.842 211.51C209.076 211.018 209.406 210.633 209.832 210.355C210.258 210.078 210.756 209.939 211.326 209.939C211.9 209.939 212.393 210.072 212.803 210.338C213.217 210.604 213.533 210.975 213.752 211.451C213.975 211.924 214.086 212.475 214.086 213.104V213.502H209.023V212.688H213.564L213.061 213.432V213.027C213.061 212.531 212.986 212.123 212.838 211.803C212.689 211.482 212.484 211.244 212.223 211.088C211.961 210.928 211.66 210.848 211.32 210.848C210.98 210.848 210.676 210.932 210.406 211.1C210.141 211.264 209.93 211.508 209.773 211.832C209.617 212.156 209.539 212.555 209.539 213.027V213.432C209.539 213.881 209.615 214.266 209.768 214.586C209.92 214.902 210.137 215.146 210.418 215.318C210.699 215.486 211.031 215.57 211.414 215.57C211.699 215.57 211.947 215.531 212.158 215.453C212.369 215.375 212.543 215.275 212.68 215.154C212.816 215.033 212.912 214.91 212.967 214.785L212.99 214.732H214.01L213.998 214.779C213.943 214.994 213.846 215.203 213.705 215.406C213.568 215.605 213.391 215.787 213.172 215.951C212.953 216.111 212.693 216.24 212.393 216.338C212.096 216.432 211.762 216.479 211.391 216.479ZM218.246 216.479C217.645 216.479 217.127 216.346 216.693 216.08C216.264 215.814 215.932 215.439 215.697 214.955C215.467 214.467 215.352 213.893 215.352 213.232V213.227C215.352 212.574 215.467 212.002 215.697 211.51C215.932 211.018 216.262 210.633 216.688 210.355C217.113 210.078 217.611 209.939 218.182 209.939C218.756 209.939 219.248 210.072 219.658 210.338C220.072 210.604 220.389 210.975 220.607 211.451C220.83 211.924 220.941 212.475 220.941 213.104V213.502H215.879V212.688H220.42L219.916 213.432V213.027C219.916 212.531 219.842 212.123 219.693 211.803C219.545 211.482 219.34 211.244 219.078 211.088C218.816 210.928 218.516 210.848 218.176 210.848C217.836 210.848 217.531 210.932 217.262 211.1C216.996 211.264 216.785 211.508 216.629 211.832C216.473 212.156 216.395 212.555 216.395 213.027V213.432C216.395 213.881 216.471 214.266 216.623 214.586C216.775 214.902 216.992 215.146 217.273 215.318C217.555 215.486 217.887 215.57 218.27 215.57C218.555 215.57 218.803 215.531 219.014 215.453C219.225 215.375 219.398 215.275 219.535 215.154C219.672 215.033 219.768 214.91 219.822 214.785L219.846 214.732H220.865L220.854 214.779C220.799 214.994 220.701 215.203 220.561 215.406C220.424 215.605 220.246 215.787 220.027 215.951C219.809 216.111 219.549 216.24 219.248 216.338C218.951 216.432 218.617 216.479 218.246 216.479ZM222.582 216.367V207.543H223.602V216.367H222.582ZM231.529 216.479C230.932 216.479 230.414 216.348 229.977 216.086C229.543 215.82 229.207 215.443 228.969 214.955C228.734 214.467 228.617 213.887 228.617 213.215V213.203C228.617 212.527 228.734 211.945 228.969 211.457C229.207 210.969 229.543 210.594 229.977 210.332C230.414 210.07 230.932 209.939 231.529 209.939C232.131 209.939 232.648 210.07 233.082 210.332C233.516 210.594 233.85 210.969 234.084 211.457C234.322 211.945 234.441 212.527 234.441 213.203V213.215C234.441 213.887 234.322 214.467 234.084 214.955C233.85 215.443 233.516 215.82 233.082 216.086C232.648 216.348 232.131 216.479 231.529 216.479ZM231.529 215.576C231.928 215.576 232.266 215.482 232.543 215.295C232.82 215.107 233.031 214.838 233.176 214.486C233.324 214.135 233.398 213.711 233.398 213.215V213.203C233.398 212.703 233.324 212.277 233.176 211.926C233.031 211.574 232.82 211.307 232.543 211.123C232.266 210.936 231.928 210.842 231.529 210.842C231.131 210.842 230.793 210.936 230.516 211.123C230.238 211.307 230.025 211.574 229.877 211.926C229.732 212.277 229.66 212.703 229.66 213.203V213.215C229.66 213.711 229.732 214.135 229.877 214.486C230.025 214.838 230.238 215.107 230.516 215.295C230.793 215.482 231.131 215.576 231.529 215.576ZM237.576 216.367L235.238 210.051H236.316L238.045 215.254H238.139L239.867 210.051H240.945L238.607 216.367H237.576ZM244.637 216.479C244.035 216.479 243.518 216.346 243.084 216.08C242.654 215.814 242.322 215.439 242.088 214.955C241.857 214.467 241.742 213.893 241.742 213.232V213.227C241.742 212.574 241.857 212.002 242.088 211.51C242.322 211.018 242.652 210.633 243.078 210.355C243.504 210.078 244.002 209.939 244.572 209.939C245.146 209.939 245.639 210.072 246.049 210.338C246.463 210.604 246.779 210.975 246.998 211.451C247.221 211.924 247.332 212.475 247.332 213.104V213.502H242.27V212.688H246.811L246.307 213.432V213.027C246.307 212.531 246.232 212.123 246.084 211.803C245.936 211.482 245.73 211.244 245.469 211.088C245.207 210.928 244.906 210.848 244.566 210.848C244.227 210.848 243.922 210.932 243.652 211.1C243.387 211.264 243.176 211.508 243.02 211.832C242.863 212.156 242.785 212.555 242.785 213.027V213.432C242.785 213.881 242.861 214.266 243.014 214.586C243.166 214.902 243.383 215.146 243.664 215.318C243.945 215.486 244.277 215.57 244.66 215.57C244.945 215.57 245.193 215.531 245.404 215.453C245.615 215.375 245.789 215.275 245.926 215.154C246.062 215.033 246.158 214.91 246.213 214.785L246.236 214.732H247.256L247.244 214.779C247.189 214.994 247.092 215.203 246.951 215.406C246.814 215.605 246.637 215.787 246.418 215.951C246.199 216.111 245.939 216.24 245.639 216.338C245.342 216.432 245.008 216.479 244.637 216.479ZM248.914 216.367V210.051H249.934V210.988H250.027C250.148 210.656 250.354 210.398 250.643 210.215C250.932 210.031 251.289 209.939 251.715 209.939C251.812 209.939 251.908 209.945 252.002 209.957C252.1 209.965 252.174 209.973 252.225 209.98V210.971C252.119 210.951 252.016 210.938 251.914 210.93C251.816 210.918 251.711 210.912 251.598 210.912C251.273 210.912 250.986 210.977 250.736 211.105C250.486 211.234 250.289 211.414 250.145 211.645C250.004 211.875 249.934 212.145 249.934 212.453V216.367H248.914ZM254.703 216.367L252.934 210.051H253.953L255.195 215.102H255.289L256.701 210.051H257.668L259.08 215.102H259.174L260.416 210.051H261.43L259.66 216.367H258.635L257.223 211.48H257.129L255.723 216.367H254.703ZM262.836 216.367V207.543H263.855V211H263.949C264.109 210.664 264.34 210.404 264.641 210.221C264.941 210.033 265.324 209.939 265.789 209.939C266.262 209.939 266.662 210.031 266.99 210.215C267.318 210.395 267.568 210.658 267.74 211.006C267.912 211.354 267.998 211.777 267.998 212.277V216.367H266.979V212.523C266.979 211.953 266.857 211.531 266.615 211.258C266.377 210.98 266.006 210.842 265.502 210.842C265.166 210.842 264.875 210.914 264.629 211.059C264.383 211.203 264.191 211.408 264.055 211.674C263.922 211.939 263.855 212.258 263.855 212.629V216.367H262.836ZM272.422 216.479C271.82 216.479 271.303 216.346 270.869 216.08C270.439 215.814 270.107 215.439 269.873 214.955C269.643 214.467 269.527 213.893 269.527 213.232V213.227C269.527 212.574 269.643 212.002 269.873 211.51C270.107 211.018 270.438 210.633 270.863 210.355C271.289 210.078 271.787 209.939 272.357 209.939C272.932 209.939 273.424 210.072 273.834 210.338C274.248 210.604 274.564 210.975 274.783 211.451C275.006 211.924 275.117 212.475 275.117 213.104V213.502H270.055V212.688H274.596L274.092 213.432V213.027C274.092 212.531 274.018 212.123 273.869 211.803C273.721 211.482 273.516 211.244 273.254 211.088C272.992 210.928 272.691 210.848 272.352 210.848C272.012 210.848 271.707 210.932 271.438 211.1C271.172 211.264 270.961 211.508 270.805 211.832C270.648 212.156 270.57 212.555 270.57 213.027V213.432C270.57 213.881 270.646 214.266 270.799 214.586C270.951 214.902 271.168 215.146 271.449 215.318C271.73 215.486 272.062 215.57 272.445 215.57C272.73 215.57 272.979 215.531 273.189 215.453C273.4 215.375 273.574 215.275 273.711 215.154C273.848 215.033 273.943 214.91 273.998 214.785L274.021 214.732H275.041L275.029 214.779C274.975 214.994 274.877 215.203 274.736 215.406C274.6 215.605 274.422 215.787 274.203 215.951C273.984 216.111 273.725 216.24 273.424 216.338C273.127 216.432 272.793 216.479 272.422 216.479ZM276.758 216.367V207.543H277.777V216.367H276.758ZM279.734 216.367V210.051H280.754V211.012H280.848C280.988 210.672 281.203 210.408 281.492 210.221C281.785 210.033 282.139 209.939 282.553 209.939C282.838 209.939 283.094 209.986 283.32 210.08C283.547 210.174 283.742 210.305 283.906 210.473C284.07 210.637 284.201 210.828 284.299 211.047H284.393C284.506 210.824 284.658 210.631 284.85 210.467C285.041 210.299 285.262 210.17 285.512 210.08C285.766 209.986 286.037 209.939 286.326 209.939C286.756 209.939 287.119 210.02 287.416 210.18C287.717 210.34 287.945 210.574 288.102 210.883C288.258 211.188 288.336 211.561 288.336 212.002V216.367H287.316V212.236C287.316 211.924 287.268 211.666 287.17 211.463C287.076 211.256 286.932 211.102 286.736 211C286.541 210.895 286.295 210.842 285.998 210.842C285.705 210.842 285.449 210.908 285.23 211.041C285.012 211.174 284.842 211.352 284.721 211.574C284.6 211.793 284.539 212.037 284.539 212.307V216.367H283.52V212.078C283.52 211.828 283.465 211.611 283.355 211.428C283.25 211.24 283.098 211.096 282.898 210.994C282.703 210.893 282.473 210.842 282.207 210.842C281.934 210.842 281.686 210.914 281.463 211.059C281.244 211.203 281.07 211.398 280.941 211.645C280.816 211.887 280.754 212.156 280.754 212.453V216.367H279.734ZM292.754 216.479C292.152 216.479 291.635 216.346 291.201 216.08C290.771 215.814 290.439 215.439 290.205 214.955C289.975 214.467 289.859 213.893 289.859 213.232V213.227C289.859 212.574 289.975 212.002 290.205 211.51C290.439 211.018 290.77 210.633 291.195 210.355C291.621 210.078 292.119 209.939 292.689 209.939C293.264 209.939 293.756 210.072 294.166 210.338C294.58 210.604 294.896 210.975 295.115 211.451C295.338 211.924 295.449 212.475 295.449 213.104V213.502H290.387V212.688H294.928L294.424 213.432V213.027C294.424 212.531 294.35 212.123 294.201 211.803C294.053 211.482 293.848 211.244 293.586 211.088C293.324 210.928 293.023 210.848 292.684 210.848C292.344 210.848 292.039 210.932 291.77 211.1C291.504 211.264 291.293 211.508 291.137 211.832C290.98 212.156 290.902 212.555 290.902 213.027V213.432C290.902 213.881 290.979 214.266 291.131 214.586C291.283 214.902 291.5 215.146 291.781 215.318C292.062 215.486 292.395 215.57 292.777 215.57C293.062 215.57 293.311 215.531 293.521 215.453C293.732 215.375 293.906 215.275 294.043 215.154C294.18 215.033 294.275 214.91 294.33 214.785L294.354 214.732H295.373L295.361 214.779C295.307 214.994 295.209 215.203 295.068 215.406C294.932 215.605 294.754 215.787 294.535 215.951C294.316 216.111 294.057 216.24 293.756 216.338C293.459 216.432 293.125 216.479 292.754 216.479ZM299.363 216.479C298.832 216.479 298.367 216.344 297.969 216.074C297.57 215.805 297.262 215.426 297.043 214.938C296.824 214.445 296.715 213.871 296.715 213.215V213.203C296.715 212.543 296.824 211.969 297.043 211.48C297.262 210.992 297.568 210.613 297.963 210.344C298.361 210.074 298.828 209.939 299.363 209.939C299.652 209.939 299.924 209.986 300.178 210.08C300.436 210.17 300.664 210.297 300.863 210.461C301.062 210.625 301.219 210.82 301.332 211.047H301.426V207.543H302.445V216.367H301.426V215.359H301.332C301.203 215.594 301.041 215.795 300.846 215.963C300.65 216.127 300.428 216.254 300.178 216.344C299.928 216.434 299.656 216.479 299.363 216.479ZM299.598 215.576C299.98 215.576 300.311 215.48 300.588 215.289C300.865 215.098 301.078 214.826 301.227 214.475C301.375 214.119 301.449 213.699 301.449 213.215V213.203C301.449 212.715 301.375 212.295 301.227 211.943C301.078 211.592 300.865 211.32 300.588 211.129C300.311 210.938 299.98 210.842 299.598 210.842C299.215 210.842 298.885 210.938 298.607 211.129C298.334 211.316 298.123 211.586 297.975 211.938C297.83 212.289 297.758 212.711 297.758 213.203V213.215C297.758 213.703 297.83 214.125 297.975 214.48C298.123 214.832 298.334 215.104 298.607 215.295C298.885 215.482 299.215 215.576 299.598 215.576ZM305.234 216.426C305.027 216.426 304.848 216.352 304.695 216.203C304.547 216.051 304.473 215.871 304.473 215.664C304.473 215.453 304.547 215.273 304.695 215.125C304.848 214.977 305.027 214.902 305.234 214.902C305.445 214.902 305.625 214.977 305.773 215.125C305.922 215.273 305.996 215.453 305.996 215.664C305.996 215.871 305.922 216.051 305.773 216.203C305.625 216.352 305.445 216.426 305.234 216.426Z" fill="#FFFCF5"/>
<path d="M53.0195 259.008C53.0195 249.067 61.0784 241.008 71.0195 241.008H244.02C253.961 241.008 262.02 249.067 262.02 259.008V275.008C262.02 284.949 253.961 293.008 244.02 293.008H59.0195C55.7058 293.008 53.0195 290.322 53.0195 287.008V259.008Z" fill="#98C4F6"/>
<path d="M69.8301 262.562L67.5273 254.107H68.6289L70.3105 260.98H70.3809L72.2734 254.107H73.3398L75.2324 260.98H75.3027L76.9844 254.107H78.0859L75.7832 262.562H74.7871L72.8418 255.889H72.7715L70.8262 262.562H69.8301ZM81.5723 262.674C80.9746 262.674 80.457 262.543 80.0195 262.281C79.5859 262.016 79.25 261.639 79.0117 261.15C78.7773 260.662 78.6602 260.082 78.6602 259.41V259.398C78.6602 258.723 78.7773 258.141 79.0117 257.652C79.25 257.164 79.5859 256.789 80.0195 256.527C80.457 256.266 80.9746 256.135 81.5723 256.135C82.1738 256.135 82.6914 256.266 83.125 256.527C83.5586 256.789 83.8926 257.164 84.127 257.652C84.3652 258.141 84.4844 258.723 84.4844 259.398V259.41C84.4844 260.082 84.3652 260.662 84.127 261.15C83.8926 261.639 83.5586 262.016 83.125 262.281C82.6914 262.543 82.1738 262.674 81.5723 262.674ZM81.5723 261.771C81.9707 261.771 82.3086 261.678 82.5859 261.49C82.8633 261.303 83.0742 261.033 83.2188 260.682C83.3672 260.33 83.4414 259.906 83.4414 259.41V259.398C83.4414 258.898 83.3672 258.473 83.2188 258.121C83.0742 257.77 82.8633 257.502 82.5859 257.318C82.3086 257.131 81.9707 257.037 81.5723 257.037C81.1738 257.037 80.8359 257.131 80.5586 257.318C80.2812 257.502 80.0684 257.77 79.9199 258.121C79.7754 258.473 79.7031 258.898 79.7031 259.398V259.41C79.7031 259.906 79.7754 260.33 79.9199 260.682C80.0684 261.033 80.2812 261.303 80.5586 261.49C80.8359 261.678 81.1738 261.771 81.5723 261.771ZM88.1816 262.674C87.7051 262.674 87.3047 262.584 86.9805 262.404C86.6562 262.221 86.4121 261.955 86.248 261.607C86.0879 261.256 86.0078 260.832 86.0078 260.336V256.246H87.0273V260.09C87.0273 260.656 87.1367 261.078 87.3555 261.355C87.5781 261.633 87.9414 261.771 88.4453 261.771C88.7227 261.771 88.9668 261.73 89.1777 261.648C89.3926 261.566 89.5723 261.449 89.7168 261.297C89.8613 261.141 89.9688 260.953 90.0391 260.734C90.1133 260.512 90.1504 260.262 90.1504 259.984V256.246H91.1699V262.562H90.1504V261.619H90.0566C89.9551 261.842 89.8164 262.033 89.6406 262.193C89.4648 262.35 89.2539 262.469 89.0078 262.551C88.7656 262.633 88.4902 262.674 88.1816 262.674ZM93.1328 262.562V253.738H94.1523V262.562H93.1328ZM98.4414 262.674C97.9102 262.674 97.4453 262.539 97.0469 262.27C96.6484 262 96.3398 261.621 96.1211 261.133C95.9023 260.641 95.793 260.066 95.793 259.41V259.398C95.793 258.738 95.9023 258.164 96.1211 257.676C96.3398 257.188 96.6465 256.809 97.041 256.539C97.4395 256.27 97.9062 256.135 98.4414 256.135C98.7305 256.135 99.002 256.182 99.2559 256.275C99.5137 256.365 99.7422 256.492 99.9414 256.656C100.141 256.82 100.297 257.016 100.41 257.242H100.504V253.738H101.523V262.562H100.504V261.555H100.41C100.281 261.789 100.119 261.99 99.9238 262.158C99.7285 262.322 99.5059 262.449 99.2559 262.539C99.0059 262.629 98.7344 262.674 98.4414 262.674ZM98.6758 261.771C99.0586 261.771 99.3887 261.676 99.666 261.484C99.9434 261.293 100.156 261.021 100.305 260.67C100.453 260.314 100.527 259.895 100.527 259.41V259.398C100.527 258.91 100.453 258.49 100.305 258.139C100.156 257.787 99.9434 257.516 99.666 257.324C99.3887 257.133 99.0586 257.037 98.6758 257.037C98.293 257.037 97.9629 257.133 97.6855 257.324C97.4121 257.512 97.2012 257.781 97.0527 258.133C96.9082 258.484 96.8359 258.906 96.8359 259.398V259.41C96.8359 259.898 96.9082 260.32 97.0527 260.676C97.2012 261.027 97.4121 261.299 97.6855 261.49C97.9629 261.678 98.293 261.771 98.6758 261.771ZM107.395 264.777C107.328 264.777 107.254 264.773 107.172 264.766C107.09 264.762 107.014 264.754 106.943 264.742V263.904C107.006 263.916 107.074 263.924 107.148 263.928C107.223 263.932 107.295 263.934 107.365 263.934C107.654 263.934 107.891 263.859 108.074 263.711C108.262 263.562 108.412 263.307 108.525 262.943L108.643 262.568L106.305 256.246H107.395L109.34 262.082L108.936 261.443H109.416L109.012 262.082L110.951 256.246H112.023L109.557 262.949C109.385 263.422 109.203 263.791 109.012 264.057C108.82 264.322 108.596 264.508 108.338 264.613C108.084 264.723 107.77 264.777 107.395 264.777ZM115.732 262.674C115.135 262.674 114.617 262.543 114.18 262.281C113.746 262.016 113.41 261.639 113.172 261.15C112.938 260.662 112.82 260.082 112.82 259.41V259.398C112.82 258.723 112.938 258.141 113.172 257.652C113.41 257.164 113.746 256.789 114.18 256.527C114.617 256.266 115.135 256.135 115.732 256.135C116.334 256.135 116.852 256.266 117.285 256.527C117.719 256.789 118.053 257.164 118.287 257.652C118.525 258.141 118.645 258.723 118.645 259.398V259.41C118.645 260.082 118.525 260.662 118.287 261.15C118.053 261.639 117.719 262.016 117.285 262.281C116.852 262.543 116.334 262.674 115.732 262.674ZM115.732 261.771C116.131 261.771 116.469 261.678 116.746 261.49C117.023 261.303 117.234 261.033 117.379 260.682C117.527 260.33 117.602 259.906 117.602 259.41V259.398C117.602 258.898 117.527 258.473 117.379 258.121C117.234 257.77 117.023 257.502 116.746 257.318C116.469 257.131 116.131 257.037 115.732 257.037C115.334 257.037 114.996 257.131 114.719 257.318C114.441 257.502 114.229 257.77 114.08 258.121C113.936 258.473 113.863 258.898 113.863 259.398V259.41C113.863 259.906 113.936 260.33 114.08 260.682C114.229 261.033 114.441 261.303 114.719 261.49C114.996 261.678 115.334 261.771 115.732 261.771ZM122.342 262.674C121.865 262.674 121.465 262.584 121.141 262.404C120.816 262.221 120.572 261.955 120.408 261.607C120.248 261.256 120.168 260.832 120.168 260.336V256.246H121.188V260.09C121.188 260.656 121.297 261.078 121.516 261.355C121.738 261.633 122.102 261.771 122.605 261.771C122.883 261.771 123.127 261.73 123.338 261.648C123.553 261.566 123.732 261.449 123.877 261.297C124.021 261.141 124.129 260.953 124.199 260.734C124.273 260.512 124.311 260.262 124.311 259.984V256.246H125.33V262.562H124.311V261.619H124.217C124.115 261.842 123.977 262.033 123.801 262.193C123.625 262.35 123.414 262.469 123.168 262.551C122.926 262.633 122.65 262.674 122.342 262.674ZM130.668 262.562V253.738H131.688V262.562H130.668ZM133.668 262.562V256.246H134.688V262.562H133.668ZM134.184 255.027C133.992 255.027 133.826 254.959 133.686 254.822C133.549 254.682 133.48 254.516 133.48 254.324C133.48 254.129 133.549 253.963 133.686 253.826C133.826 253.689 133.992 253.621 134.184 253.621C134.379 253.621 134.545 253.689 134.682 253.826C134.818 253.963 134.887 254.129 134.887 254.324C134.887 254.516 134.818 254.682 134.682 254.822C134.545 254.959 134.379 255.027 134.184 255.027ZM136.668 262.562V253.738H137.688V262.562H136.668ZM140.646 262.562L138.18 259.469L138.93 258.818L141.93 262.562H140.646ZM137.559 260.289L137.512 259.006H137.781L140.512 256.246H141.748L138.748 259.141L138.502 259.381L137.559 260.289ZM145.41 262.674C144.809 262.674 144.291 262.541 143.857 262.275C143.428 262.01 143.096 261.635 142.861 261.15C142.631 260.662 142.516 260.088 142.516 259.428V259.422C142.516 258.77 142.631 258.197 142.861 257.705C143.096 257.213 143.426 256.828 143.852 256.551C144.277 256.273 144.775 256.135 145.346 256.135C145.92 256.135 146.412 256.268 146.822 256.533C147.236 256.799 147.553 257.17 147.771 257.646C147.994 258.119 148.105 258.67 148.105 259.299V259.697H143.043V258.883H147.584L147.08 259.627V259.223C147.08 258.727 147.006 258.318 146.857 257.998C146.709 257.678 146.504 257.439 146.242 257.283C145.98 257.123 145.68 257.043 145.34 257.043C145 257.043 144.695 257.127 144.426 257.295C144.16 257.459 143.949 257.703 143.793 258.027C143.637 258.352 143.559 258.75 143.559 259.223V259.627C143.559 260.076 143.635 260.461 143.787 260.781C143.939 261.098 144.156 261.342 144.438 261.514C144.719 261.682 145.051 261.766 145.434 261.766C145.719 261.766 145.967 261.727 146.178 261.648C146.389 261.57 146.562 261.471 146.699 261.35C146.836 261.229 146.932 261.105 146.986 260.98L147.01 260.928H148.029L148.018 260.975C147.963 261.189 147.865 261.398 147.725 261.602C147.588 261.801 147.41 261.982 147.191 262.146C146.973 262.307 146.713 262.436 146.412 262.533C146.115 262.627 145.781 262.674 145.41 262.674ZM155.307 262.609C154.658 262.609 154.188 262.479 153.895 262.217C153.605 261.955 153.461 261.523 153.461 260.922V257.09H152.465V256.246H153.461V254.611H154.516V256.246H155.898V257.09H154.516V260.664C154.516 261.035 154.586 261.303 154.727 261.467C154.867 261.627 155.102 261.707 155.43 261.707C155.52 261.707 155.596 261.705 155.658 261.701C155.725 261.697 155.805 261.691 155.898 261.684V262.551C155.801 262.566 155.703 262.58 155.605 262.592C155.508 262.604 155.408 262.609 155.307 262.609ZM159.936 262.674C159.338 262.674 158.82 262.543 158.383 262.281C157.949 262.016 157.613 261.639 157.375 261.15C157.141 260.662 157.023 260.082 157.023 259.41V259.398C157.023 258.723 157.141 258.141 157.375 257.652C157.613 257.164 157.949 256.789 158.383 256.527C158.82 256.266 159.338 256.135 159.936 256.135C160.537 256.135 161.055 256.266 161.488 256.527C161.922 256.789 162.256 257.164 162.49 257.652C162.729 258.141 162.848 258.723 162.848 259.398V259.41C162.848 260.082 162.729 260.662 162.49 261.15C162.256 261.639 161.922 262.016 161.488 262.281C161.055 262.543 160.537 262.674 159.936 262.674ZM159.936 261.771C160.334 261.771 160.672 261.678 160.949 261.49C161.227 261.303 161.438 261.033 161.582 260.682C161.73 260.33 161.805 259.906 161.805 259.41V259.398C161.805 258.898 161.73 258.473 161.582 258.121C161.438 257.77 161.227 257.502 160.949 257.318C160.672 257.131 160.334 257.037 159.936 257.037C159.537 257.037 159.199 257.131 158.922 257.318C158.645 257.502 158.432 257.77 158.283 258.121C158.139 258.473 158.066 258.898 158.066 259.398V259.41C158.066 259.906 158.139 260.33 158.283 260.682C158.432 261.033 158.645 261.303 158.922 261.49C159.199 261.678 159.537 261.771 159.936 261.771ZM170.945 262.674C170.652 262.674 170.381 262.629 170.131 262.539C169.881 262.449 169.658 262.322 169.463 262.158C169.268 261.99 169.105 261.789 168.977 261.555H168.883V262.562H167.863V253.738H168.883V257.242H168.977C169.094 257.016 169.25 256.82 169.445 256.656C169.645 256.492 169.871 256.365 170.125 256.275C170.383 256.182 170.656 256.135 170.945 256.135C171.48 256.135 171.945 256.27 172.34 256.539C172.738 256.809 173.047 257.188 173.266 257.676C173.484 258.164 173.594 258.738 173.594 259.398V259.41C173.594 260.066 173.484 260.641 173.266 261.133C173.047 261.621 172.738 262 172.34 262.27C171.945 262.539 171.48 262.674 170.945 262.674ZM170.711 261.771C171.098 261.771 171.428 261.678 171.701 261.49C171.975 261.299 172.184 261.027 172.328 260.676C172.477 260.32 172.551 259.898 172.551 259.41V259.398C172.551 258.906 172.477 258.484 172.328 258.133C172.184 257.781 171.975 257.512 171.701 257.324C171.428 257.133 171.098 257.037 170.711 257.037C170.328 257.037 169.998 257.133 169.721 257.324C169.443 257.516 169.23 257.787 169.082 258.139C168.934 258.49 168.859 258.91 168.859 259.398V259.41C168.859 259.895 168.934 260.314 169.082 260.67C169.23 261.021 169.443 261.293 169.721 261.484C169.998 261.676 170.328 261.771 170.711 261.771ZM175.176 262.562V256.246H176.195V257.184H176.289C176.41 256.852 176.615 256.594 176.904 256.41C177.193 256.227 177.551 256.135 177.977 256.135C178.074 256.135 178.17 256.141 178.264 256.152C178.361 256.16 178.436 256.168 178.486 256.176V257.166C178.381 257.146 178.277 257.133 178.176 257.125C178.078 257.113 177.973 257.107 177.859 257.107C177.535 257.107 177.248 257.172 176.998 257.301C176.748 257.43 176.551 257.609 176.406 257.84C176.266 258.07 176.195 258.34 176.195 258.648V262.562H175.176ZM182.148 262.674C181.547 262.674 181.029 262.541 180.596 262.275C180.166 262.01 179.834 261.635 179.6 261.15C179.369 260.662 179.254 260.088 179.254 259.428V259.422C179.254 258.77 179.369 258.197 179.6 257.705C179.834 257.213 180.164 256.828 180.59 256.551C181.016 256.273 181.514 256.135 182.084 256.135C182.658 256.135 183.15 256.268 183.561 256.533C183.975 256.799 184.291 257.17 184.51 257.646C184.732 258.119 184.844 258.67 184.844 259.299V259.697H179.781V258.883H184.322L183.818 259.627V259.223C183.818 258.727 183.744 258.318 183.596 257.998C183.447 257.678 183.242 257.439 182.98 257.283C182.719 257.123 182.418 257.043 182.078 257.043C181.738 257.043 181.434 257.127 181.164 257.295C180.898 257.459 180.688 257.703 180.531 258.027C180.375 258.352 180.297 258.75 180.297 259.223V259.627C180.297 260.076 180.373 260.461 180.525 260.781C180.678 261.098 180.895 261.342 181.176 261.514C181.457 261.682 181.789 261.766 182.172 261.766C182.457 261.766 182.705 261.727 182.916 261.648C183.127 261.57 183.301 261.471 183.438 261.35C183.574 261.229 183.67 261.105 183.725 260.98L183.748 260.928H184.768L184.756 260.975C184.701 261.189 184.604 261.398 184.463 261.602C184.326 261.801 184.148 261.982 183.93 262.146C183.711 262.307 183.451 262.436 183.15 262.533C182.854 262.627 182.52 262.674 182.148 262.674ZM188.16 262.674C187.762 262.674 187.402 262.598 187.082 262.445C186.766 262.293 186.514 262.076 186.326 261.795C186.143 261.514 186.051 261.182 186.051 260.799V260.787C186.051 260.412 186.141 260.092 186.32 259.826C186.5 259.557 186.762 259.346 187.105 259.193C187.449 259.041 187.865 258.951 188.354 258.924L190.674 258.783V259.598L188.477 259.738C187.996 259.766 187.645 259.865 187.422 260.037C187.203 260.209 187.094 260.451 187.094 260.764V260.775C187.094 261.096 187.215 261.346 187.457 261.525C187.699 261.701 188.004 261.789 188.371 261.789C188.719 261.789 189.027 261.721 189.297 261.584C189.566 261.443 189.777 261.254 189.93 261.016C190.086 260.777 190.164 260.508 190.164 260.207V258.238C190.164 257.848 190.045 257.551 189.807 257.348C189.572 257.141 189.219 257.037 188.746 257.037C188.367 257.037 188.057 257.105 187.814 257.242C187.572 257.375 187.41 257.564 187.328 257.811L187.322 257.828H186.303L186.309 257.793C186.363 257.461 186.5 257.172 186.719 256.926C186.941 256.676 187.229 256.482 187.58 256.346C187.932 256.205 188.332 256.135 188.781 256.135C189.297 256.135 189.732 256.219 190.088 256.387C190.447 256.555 190.719 256.797 190.902 257.113C191.09 257.426 191.184 257.801 191.184 258.238V262.562H190.164V261.631H190.07C189.938 261.854 189.775 262.043 189.584 262.199C189.396 262.355 189.184 262.475 188.945 262.557C188.707 262.635 188.445 262.674 188.16 262.674ZM195.291 262.609C194.643 262.609 194.172 262.479 193.879 262.217C193.59 261.955 193.445 261.523 193.445 260.922V257.09H192.449V256.246H193.445V254.611H194.5V256.246H195.883V257.09H194.5V260.664C194.5 261.035 194.57 261.303 194.711 261.467C194.852 261.627 195.086 261.707 195.414 261.707C195.504 261.707 195.58 261.705 195.643 261.701C195.709 261.697 195.789 261.691 195.883 261.684V262.551C195.785 262.566 195.688 262.58 195.59 262.592C195.492 262.604 195.393 262.609 195.291 262.609ZM197.465 262.562V253.738H198.484V257.195H198.578C198.738 256.859 198.969 256.6 199.27 256.416C199.57 256.229 199.953 256.135 200.418 256.135C200.891 256.135 201.291 256.227 201.619 256.41C201.947 256.59 202.197 256.854 202.369 257.201C202.541 257.549 202.627 257.973 202.627 258.473V262.562H201.607V258.719C201.607 258.148 201.486 257.727 201.244 257.453C201.006 257.176 200.635 257.037 200.131 257.037C199.795 257.037 199.504 257.109 199.258 257.254C199.012 257.398 198.82 257.604 198.684 257.869C198.551 258.135 198.484 258.453 198.484 258.824V262.562H197.465ZM207.051 262.674C206.449 262.674 205.932 262.541 205.498 262.275C205.068 262.01 204.736 261.635 204.502 261.15C204.271 260.662 204.156 260.088 204.156 259.428V259.422C204.156 258.77 204.271 258.197 204.502 257.705C204.736 257.213 205.066 256.828 205.492 256.551C205.918 256.273 206.416 256.135 206.986 256.135C207.561 256.135 208.053 256.268 208.463 256.533C208.877 256.799 209.193 257.17 209.412 257.646C209.635 258.119 209.746 258.67 209.746 259.299V259.697H204.684V258.883H209.225L208.721 259.627V259.223C208.721 258.727 208.646 258.318 208.498 257.998C208.35 257.678 208.145 257.439 207.883 257.283C207.621 257.123 207.32 257.043 206.98 257.043C206.641 257.043 206.336 257.127 206.066 257.295C205.801 257.459 205.59 257.703 205.434 258.027C205.277 258.352 205.199 258.75 205.199 259.223V259.627C205.199 260.076 205.275 260.461 205.428 260.781C205.58 261.098 205.797 261.342 206.078 261.514C206.359 261.682 206.691 261.766 207.074 261.766C207.359 261.766 207.607 261.727 207.818 261.648C208.029 261.57 208.203 261.471 208.34 261.35C208.477 261.229 208.572 261.105 208.627 260.98L208.65 260.928H209.67L209.658 260.975C209.604 261.189 209.506 261.398 209.365 261.602C209.229 261.801 209.051 261.982 208.832 262.146C208.613 262.307 208.354 262.436 208.053 262.533C207.756 262.627 207.422 262.674 207.051 262.674ZM70.1934 279.609C69.5449 279.609 69.0742 279.479 68.7812 279.217C68.4922 278.955 68.3477 278.523 68.3477 277.922V274.09H67.3516V273.246H68.3477V271.611H69.4023V273.246H70.7852V274.09H69.4023V277.664C69.4023 278.035 69.4727 278.303 69.6133 278.467C69.7539 278.627 69.9883 278.707 70.3164 278.707C70.4062 278.707 70.4824 278.705 70.5449 278.701C70.6113 278.697 70.6914 278.691 70.7852 278.684V279.551C70.6875 279.566 70.5898 279.58 70.4922 279.592C70.3945 279.604 70.2949 279.609 70.1934 279.609ZM74.8223 279.674C74.2246 279.674 73.707 279.543 73.2695 279.281C72.8359 279.016 72.5 278.639 72.2617 278.15C72.0273 277.662 71.9102 277.082 71.9102 276.41V276.398C71.9102 275.723 72.0273 275.141 72.2617 274.652C72.5 274.164 72.8359 273.789 73.2695 273.527C73.707 273.266 74.2246 273.135 74.8223 273.135C75.4238 273.135 75.9414 273.266 76.375 273.527C76.8086 273.789 77.1426 274.164 77.377 274.652C77.6152 275.141 77.7344 275.723 77.7344 276.398V276.41C77.7344 277.082 77.6152 277.662 77.377 278.15C77.1426 278.639 76.8086 279.016 76.375 279.281C75.9414 279.543 75.4238 279.674 74.8223 279.674ZM74.8223 278.771C75.2207 278.771 75.5586 278.678 75.8359 278.49C76.1133 278.303 76.3242 278.033 76.4688 277.682C76.6172 277.33 76.6914 276.906 76.6914 276.41V276.398C76.6914 275.898 76.6172 275.473 76.4688 275.121C76.3242 274.77 76.1133 274.502 75.8359 274.318C75.5586 274.131 75.2207 274.037 74.8223 274.037C74.4238 274.037 74.0859 274.131 73.8086 274.318C73.5312 274.502 73.3184 274.77 73.1699 275.121C73.0254 275.473 72.9531 275.898 72.9531 276.398V276.41C72.9531 276.906 73.0254 277.33 73.1699 277.682C73.3184 278.033 73.5312 278.303 73.8086 278.49C74.0859 278.678 74.4238 278.771 74.8223 278.771ZM81.918 281.789C81.4102 281.789 80.9668 281.717 80.5879 281.572C80.209 281.432 79.9062 281.23 79.6797 280.969C79.457 280.711 79.3184 280.41 79.2637 280.066L79.2754 280.061H80.3301L80.3359 280.066C80.3906 280.305 80.5547 280.5 80.8281 280.652C81.1016 280.809 81.4648 280.887 81.918 280.887C82.4844 280.887 82.9258 280.758 83.2422 280.5C83.5625 280.246 83.7227 279.887 83.7227 279.422V278.145H83.6289C83.4961 278.375 83.3301 278.572 83.1309 278.736C82.9316 278.9 82.707 279.025 82.457 279.111C82.207 279.193 81.9375 279.234 81.6484 279.234C81.1055 279.234 80.6348 279.105 80.2363 278.848C79.8418 278.586 79.5371 278.227 79.3223 277.77C79.1074 277.312 79 276.789 79 276.199V276.188C79 275.598 79.1074 275.074 79.3223 274.617C79.541 274.156 79.8496 273.795 80.248 273.533C80.6465 273.268 81.1211 273.135 81.6719 273.135C81.9688 273.135 82.2422 273.182 82.4922 273.275C82.7422 273.369 82.9629 273.502 83.1543 273.674C83.3496 273.846 83.5117 274.051 83.6406 274.289H83.7109V273.246H84.7305V279.475C84.7305 279.943 84.6152 280.352 84.3848 280.699C84.1582 281.047 83.834 281.314 83.4121 281.502C82.9902 281.693 82.4922 281.789 81.918 281.789ZM81.8711 278.332C82.2617 278.332 82.5957 278.242 82.873 278.062C83.1543 277.879 83.3691 277.627 83.5176 277.307C83.6699 276.986 83.7461 276.617 83.7461 276.199V276.188C83.7461 275.77 83.6699 275.398 83.5176 275.074C83.3691 274.75 83.1543 274.496 82.873 274.312C82.5957 274.129 82.2617 274.037 81.8711 274.037C81.4805 274.037 81.1484 274.129 80.875 274.312C80.6055 274.496 80.3984 274.75 80.2539 275.074C80.1133 275.398 80.043 275.77 80.043 276.188V276.199C80.043 276.617 80.1133 276.986 80.2539 277.307C80.3984 277.627 80.6055 277.879 80.875 278.062C81.1484 278.242 81.4805 278.332 81.8711 278.332ZM89.207 279.674C88.6055 279.674 88.0879 279.541 87.6543 279.275C87.2246 279.01 86.8926 278.635 86.6582 278.15C86.4277 277.662 86.3125 277.088 86.3125 276.428V276.422C86.3125 275.77 86.4277 275.197 86.6582 274.705C86.8926 274.213 87.2227 273.828 87.6484 273.551C88.0742 273.273 88.5723 273.135 89.1426 273.135C89.7168 273.135 90.209 273.268 90.6191 273.533C91.0332 273.799 91.3496 274.17 91.5684 274.646C91.791 275.119 91.9023 275.67 91.9023 276.299V276.697H86.8398V275.883H91.3809L90.877 276.627V276.223C90.877 275.727 90.8027 275.318 90.6543 274.998C90.5059 274.678 90.3008 274.439 90.0391 274.283C89.7773 274.123 89.4766 274.043 89.1367 274.043C88.7969 274.043 88.4922 274.127 88.2227 274.295C87.957 274.459 87.7461 274.703 87.5898 275.027C87.4336 275.352 87.3555 275.75 87.3555 276.223V276.627C87.3555 277.076 87.4316 277.461 87.584 277.781C87.7363 278.098 87.9531 278.342 88.2344 278.514C88.5156 278.682 88.8477 278.766 89.2305 278.766C89.5156 278.766 89.7637 278.727 89.9746 278.648C90.1855 278.57 90.3594 278.471 90.4961 278.35C90.6328 278.229 90.7285 278.105 90.7832 277.98L90.8066 277.928H91.8262L91.8145 277.975C91.7598 278.189 91.6621 278.398 91.5215 278.602C91.3848 278.801 91.207 278.982 90.9883 279.146C90.7695 279.307 90.5098 279.436 90.209 279.533C89.9121 279.627 89.5781 279.674 89.207 279.674ZM95.7285 279.609C95.0801 279.609 94.6094 279.479 94.3164 279.217C94.0273 278.955 93.8828 278.523 93.8828 277.922V274.09H92.8867V273.246H93.8828V271.611H94.9375V273.246H96.3203V274.09H94.9375V277.664C94.9375 278.035 95.0078 278.303 95.1484 278.467C95.2891 278.627 95.5234 278.707 95.8516 278.707C95.9414 278.707 96.0176 278.705 96.0801 278.701C96.1465 278.697 96.2266 278.691 96.3203 278.684V279.551C96.2227 279.566 96.125 279.58 96.0273 279.592C95.9297 279.604 95.8301 279.609 95.7285 279.609ZM97.9023 279.562V270.738H98.9219V274.195H99.0156C99.1758 273.859 99.4062 273.6 99.707 273.416C100.008 273.229 100.391 273.135 100.855 273.135C101.328 273.135 101.729 273.227 102.057 273.41C102.385 273.59 102.635 273.854 102.807 274.201C102.979 274.549 103.064 274.973 103.064 275.473V279.562H102.045V275.719C102.045 275.148 101.924 274.727 101.682 274.453C101.443 274.176 101.072 274.037 100.568 274.037C100.232 274.037 99.9414 274.109 99.6953 274.254C99.4492 274.398 99.2578 274.604 99.1211 274.869C98.9883 275.135 98.9219 275.453 98.9219 275.824V279.562H97.9023ZM107.488 279.674C106.887 279.674 106.369 279.541 105.936 279.275C105.506 279.01 105.174 278.635 104.939 278.15C104.709 277.662 104.594 277.088 104.594 276.428V276.422C104.594 275.77 104.709 275.197 104.939 274.705C105.174 274.213 105.504 273.828 105.93 273.551C106.355 273.273 106.854 273.135 107.424 273.135C107.998 273.135 108.49 273.268 108.9 273.533C109.314 273.799 109.631 274.17 109.85 274.646C110.072 275.119 110.184 275.67 110.184 276.299V276.697H105.121V275.883H109.662L109.158 276.627V276.223C109.158 275.727 109.084 275.318 108.936 274.998C108.787 274.678 108.582 274.439 108.32 274.283C108.059 274.123 107.758 274.043 107.418 274.043C107.078 274.043 106.773 274.127 106.504 274.295C106.238 274.459 106.027 274.703 105.871 275.027C105.715 275.352 105.637 275.75 105.637 276.223V276.627C105.637 277.076 105.713 277.461 105.865 277.781C106.018 278.098 106.234 278.342 106.516 278.514C106.797 278.682 107.129 278.766 107.512 278.766C107.797 278.766 108.045 278.727 108.256 278.648C108.467 278.57 108.641 278.471 108.777 278.35C108.914 278.229 109.01 278.105 109.064 277.98L109.088 277.928H110.107L110.096 277.975C110.041 278.189 109.943 278.398 109.803 278.602C109.666 278.801 109.488 278.982 109.27 279.146C109.051 279.307 108.791 279.436 108.49 279.533C108.193 279.627 107.859 279.674 107.488 279.674ZM111.766 279.562V273.246H112.785V274.184H112.879C113 273.852 113.205 273.594 113.494 273.41C113.783 273.227 114.141 273.135 114.566 273.135C114.664 273.135 114.76 273.141 114.854 273.152C114.951 273.16 115.025 273.168 115.076 273.176V274.166C114.971 274.146 114.867 274.133 114.766 274.125C114.668 274.113 114.562 274.107 114.449 274.107C114.125 274.107 113.838 274.172 113.588 274.301C113.338 274.43 113.141 274.609 112.996 274.84C112.855 275.07 112.785 275.34 112.785 275.648V279.562H111.766ZM120.133 279.562V274.09H119.084V273.246H120.133V272.543C120.133 272.121 120.201 271.773 120.338 271.5C120.479 271.223 120.686 271.018 120.959 270.885C121.232 270.748 121.568 270.68 121.967 270.68C122.092 270.68 122.209 270.686 122.318 270.697C122.432 270.705 122.541 270.719 122.646 270.738V271.553C122.584 271.541 122.512 271.533 122.43 271.529C122.348 271.525 122.262 271.523 122.172 271.523C121.809 271.523 121.547 271.611 121.387 271.787C121.23 271.963 121.152 272.225 121.152 272.572V273.246H122.588V274.09H121.152V279.562H120.133ZM126.396 279.674C125.799 279.674 125.281 279.543 124.844 279.281C124.41 279.016 124.074 278.639 123.836 278.15C123.602 277.662 123.484 277.082 123.484 276.41V276.398C123.484 275.723 123.602 275.141 123.836 274.652C124.074 274.164 124.41 273.789 124.844 273.527C125.281 273.266 125.799 273.135 126.396 273.135C126.998 273.135 127.516 273.266 127.949 273.527C128.383 273.789 128.717 274.164 128.951 274.652C129.189 275.141 129.309 275.723 129.309 276.398V276.41C129.309 277.082 129.189 277.662 128.951 278.15C128.717 278.639 128.383 279.016 127.949 279.281C127.516 279.543 126.998 279.674 126.396 279.674ZM126.396 278.771C126.795 278.771 127.133 278.678 127.41 278.49C127.688 278.303 127.898 278.033 128.043 277.682C128.191 277.33 128.266 276.906 128.266 276.41V276.398C128.266 275.898 128.191 275.473 128.043 275.121C127.898 274.77 127.688 274.502 127.41 274.318C127.133 274.131 126.795 274.037 126.396 274.037C125.998 274.037 125.66 274.131 125.383 274.318C125.105 274.502 124.893 274.77 124.744 275.121C124.6 275.473 124.527 275.898 124.527 276.398V276.41C124.527 276.906 124.6 277.33 124.744 277.682C124.893 278.033 125.105 278.303 125.383 278.49C125.66 278.678 125.998 278.771 126.396 278.771ZM130.891 279.562V273.246H131.91V274.184H132.004C132.125 273.852 132.33 273.594 132.619 273.41C132.908 273.227 133.266 273.135 133.691 273.135C133.789 273.135 133.885 273.141 133.979 273.152C134.076 273.16 134.15 273.168 134.201 273.176V274.166C134.096 274.146 133.992 274.133 133.891 274.125C133.793 274.113 133.688 274.107 133.574 274.107C133.25 274.107 132.963 274.172 132.713 274.301C132.463 274.43 132.266 274.609 132.121 274.84C131.98 275.07 131.91 275.34 131.91 275.648V279.562H130.891ZM140.57 279.674C140.172 279.674 139.812 279.598 139.492 279.445C139.176 279.293 138.924 279.076 138.736 278.795C138.553 278.514 138.461 278.182 138.461 277.799V277.787C138.461 277.412 138.551 277.092 138.73 276.826C138.91 276.557 139.172 276.346 139.516 276.193C139.859 276.041 140.275 275.951 140.764 275.924L143.084 275.783V276.598L140.887 276.738C140.406 276.766 140.055 276.865 139.832 277.037C139.613 277.209 139.504 277.451 139.504 277.764V277.775C139.504 278.096 139.625 278.346 139.867 278.525C140.109 278.701 140.414 278.789 140.781 278.789C141.129 278.789 141.438 278.721 141.707 278.584C141.977 278.443 142.188 278.254 142.34 278.016C142.496 277.777 142.574 277.508 142.574 277.207V275.238C142.574 274.848 142.455 274.551 142.217 274.348C141.982 274.141 141.629 274.037 141.156 274.037C140.777 274.037 140.467 274.105 140.225 274.242C139.982 274.375 139.82 274.564 139.738 274.811L139.732 274.828H138.713L138.719 274.793C138.773 274.461 138.91 274.172 139.129 273.926C139.352 273.676 139.639 273.482 139.99 273.346C140.342 273.205 140.742 273.135 141.191 273.135C141.707 273.135 142.143 273.219 142.498 273.387C142.857 273.555 143.129 273.797 143.312 274.113C143.5 274.426 143.594 274.801 143.594 275.238V279.562H142.574V278.631H142.48C142.348 278.854 142.186 279.043 141.994 279.199C141.807 279.355 141.594 279.475 141.355 279.557C141.117 279.635 140.855 279.674 140.57 279.674ZM148.832 279.562V273.246H149.852V274.207H149.945C150.086 273.867 150.301 273.604 150.59 273.416C150.883 273.229 151.236 273.135 151.65 273.135C151.936 273.135 152.191 273.182 152.418 273.275C152.645 273.369 152.84 273.5 153.004 273.668C153.168 273.832 153.299 274.023 153.396 274.242H153.49C153.604 274.02 153.756 273.826 153.947 273.662C154.139 273.494 154.359 273.365 154.609 273.275C154.863 273.182 155.135 273.135 155.424 273.135C155.854 273.135 156.217 273.215 156.514 273.375C156.814 273.535 157.043 273.77 157.199 274.078C157.355 274.383 157.434 274.756 157.434 275.197V279.562H156.414V275.432C156.414 275.119 156.365 274.861 156.268 274.658C156.174 274.451 156.029 274.297 155.834 274.195C155.639 274.09 155.393 274.037 155.096 274.037C154.803 274.037 154.547 274.104 154.328 274.236C154.109 274.369 153.939 274.547 153.818 274.77C153.697 274.988 153.637 275.232 153.637 275.502V279.562H152.617V275.273C152.617 275.023 152.562 274.807 152.453 274.623C152.348 274.436 152.195 274.291 151.996 274.189C151.801 274.088 151.57 274.037 151.305 274.037C151.031 274.037 150.783 274.109 150.561 274.254C150.342 274.398 150.168 274.594 150.039 274.84C149.914 275.082 149.852 275.352 149.852 275.648V279.562H148.832ZM161.869 279.674C161.271 279.674 160.754 279.543 160.316 279.281C159.883 279.016 159.547 278.639 159.309 278.15C159.074 277.662 158.957 277.082 158.957 276.41V276.398C158.957 275.723 159.074 275.141 159.309 274.652C159.547 274.164 159.883 273.789 160.316 273.527C160.754 273.266 161.271 273.135 161.869 273.135C162.471 273.135 162.988 273.266 163.422 273.527C163.855 273.789 164.189 274.164 164.424 274.652C164.662 275.141 164.781 275.723 164.781 276.398V276.41C164.781 277.082 164.662 277.662 164.424 278.15C164.189 278.639 163.855 279.016 163.422 279.281C162.988 279.543 162.471 279.674 161.869 279.674ZM161.869 278.771C162.268 278.771 162.605 278.678 162.883 278.49C163.16 278.303 163.371 278.033 163.516 277.682C163.664 277.33 163.738 276.906 163.738 276.41V276.398C163.738 275.898 163.664 275.473 163.516 275.121C163.371 274.77 163.16 274.502 162.883 274.318C162.605 274.131 162.268 274.037 161.869 274.037C161.471 274.037 161.133 274.131 160.855 274.318C160.578 274.502 160.365 274.77 160.217 275.121C160.072 275.473 160 275.898 160 276.398V276.41C160 276.906 160.072 277.33 160.217 277.682C160.365 278.033 160.578 278.303 160.855 278.49C161.133 278.678 161.471 278.771 161.869 278.771ZM166.363 279.562V273.246H167.383V274.207H167.477C167.617 273.867 167.832 273.604 168.121 273.416C168.414 273.229 168.768 273.135 169.182 273.135C169.467 273.135 169.723 273.182 169.949 273.275C170.176 273.369 170.371 273.5 170.535 273.668C170.699 273.832 170.83 274.023 170.928 274.242H171.021C171.135 274.02 171.287 273.826 171.479 273.662C171.67 273.494 171.891 273.365 172.141 273.275C172.395 273.182 172.666 273.135 172.955 273.135C173.385 273.135 173.748 273.215 174.045 273.375C174.346 273.535 174.574 273.77 174.73 274.078C174.887 274.383 174.965 274.756 174.965 275.197V279.562H173.945V275.432C173.945 275.119 173.896 274.861 173.799 274.658C173.705 274.451 173.561 274.297 173.365 274.195C173.17 274.09 172.924 274.037 172.627 274.037C172.334 274.037 172.078 274.104 171.859 274.236C171.641 274.369 171.471 274.547 171.35 274.77C171.229 274.988 171.168 275.232 171.168 275.502V279.562H170.148V275.273C170.148 275.023 170.094 274.807 169.984 274.623C169.879 274.436 169.727 274.291 169.527 274.189C169.332 274.088 169.102 274.037 168.836 274.037C168.562 274.037 168.314 274.109 168.092 274.254C167.873 274.398 167.699 274.594 167.57 274.84C167.445 275.082 167.383 275.352 167.383 275.648V279.562H166.363ZM179.383 279.674C178.781 279.674 178.264 279.541 177.83 279.275C177.4 279.01 177.068 278.635 176.834 278.15C176.604 277.662 176.488 277.088 176.488 276.428V276.422C176.488 275.77 176.604 275.197 176.834 274.705C177.068 274.213 177.398 273.828 177.824 273.551C178.25 273.273 178.748 273.135 179.318 273.135C179.893 273.135 180.385 273.268 180.795 273.533C181.209 273.799 181.525 274.17 181.744 274.646C181.967 275.119 182.078 275.67 182.078 276.299V276.697H177.016V275.883H181.557L181.053 276.627V276.223C181.053 275.727 180.979 275.318 180.83 274.998C180.682 274.678 180.477 274.439 180.215 274.283C179.953 274.123 179.652 274.043 179.312 274.043C178.973 274.043 178.668 274.127 178.398 274.295C178.133 274.459 177.922 274.703 177.766 275.027C177.609 275.352 177.531 275.75 177.531 276.223V276.627C177.531 277.076 177.607 277.461 177.76 277.781C177.912 278.098 178.129 278.342 178.41 278.514C178.691 278.682 179.023 278.766 179.406 278.766C179.691 278.766 179.939 278.727 180.15 278.648C180.361 278.57 180.535 278.471 180.672 278.35C180.809 278.229 180.904 278.105 180.959 277.98L180.982 277.928H182.002L181.99 277.975C181.936 278.189 181.838 278.398 181.697 278.602C181.561 278.801 181.383 278.982 181.164 279.146C180.945 279.307 180.686 279.436 180.385 279.533C180.088 279.627 179.754 279.674 179.383 279.674ZM183.66 279.562V273.246H184.68V274.195H184.773C184.934 273.859 185.164 273.6 185.465 273.416C185.766 273.229 186.148 273.135 186.613 273.135C187.324 273.135 187.869 273.338 188.248 273.744C188.631 274.146 188.822 274.723 188.822 275.473V279.562H187.803V275.719C187.803 275.148 187.682 274.727 187.439 274.453C187.201 274.176 186.83 274.037 186.326 274.037C185.99 274.037 185.699 274.109 185.453 274.254C185.207 274.398 185.016 274.604 184.879 274.869C184.746 275.135 184.68 275.453 184.68 275.824V279.562H183.66ZM192.912 279.609C192.264 279.609 191.793 279.479 191.5 279.217C191.211 278.955 191.066 278.523 191.066 277.922V274.09H190.07V273.246H191.066V271.611H192.121V273.246H193.504V274.09H192.121V277.664C192.121 278.035 192.191 278.303 192.332 278.467C192.473 278.627 192.707 278.707 193.035 278.707C193.125 278.707 193.201 278.705 193.264 278.701C193.33 278.697 193.41 278.691 193.504 278.684V279.551C193.406 279.566 193.309 279.58 193.211 279.592C193.113 279.604 193.014 279.609 192.912 279.609ZM196.381 276.949V276.41C196.381 276.152 196.422 275.92 196.504 275.713C196.586 275.502 196.715 275.309 196.891 275.133C197.066 274.957 197.287 274.789 197.553 274.629C197.779 274.488 197.961 274.352 198.098 274.219C198.238 274.082 198.34 273.934 198.402 273.773C198.465 273.613 198.496 273.43 198.496 273.223V273.211C198.496 272.969 198.438 272.754 198.32 272.566C198.203 272.379 198.037 272.23 197.822 272.121C197.607 272.012 197.354 271.957 197.061 271.957C196.768 271.957 196.512 272.012 196.293 272.121C196.074 272.23 195.9 272.387 195.771 272.59C195.646 272.793 195.574 273.033 195.555 273.311L195.543 273.316L194.547 273.322V273.311C194.57 272.893 194.68 272.512 194.875 272.168C195.07 271.824 195.354 271.551 195.725 271.348C196.096 271.145 196.555 271.043 197.102 271.043C197.594 271.043 198.025 271.137 198.396 271.324C198.771 271.508 199.062 271.76 199.27 272.08C199.48 272.396 199.586 272.756 199.586 273.158V273.17C199.586 273.475 199.535 273.752 199.434 274.002C199.336 274.248 199.195 274.469 199.012 274.664C198.828 274.859 198.611 275.033 198.361 275.186C198.115 275.33 197.922 275.469 197.781 275.602C197.645 275.734 197.547 275.877 197.488 276.029C197.434 276.182 197.406 276.361 197.406 276.568V276.949H196.381ZM196.973 279.668C196.734 279.668 196.539 279.592 196.387 279.439C196.234 279.287 196.158 279.092 196.158 278.854C196.158 278.611 196.234 278.414 196.387 278.262C196.539 278.109 196.734 278.033 196.973 278.033C197.211 278.033 197.404 278.109 197.553 278.262C197.705 278.414 197.781 278.611 197.781 278.854C197.781 279.092 197.705 279.287 197.553 279.439C197.404 279.592 197.211 279.668 196.973 279.668Z" fill="#465AE1"/>
<g opacity="0.45">
<path d="M57 308.88C57 307.223 58.3431 305.88 60 305.88C61.6569 305.88 63 307.223 63 308.88C63 310.537 61.6569 311.88 60 311.88C58.3431 311.88 57 310.537 57 308.88Z" fill="#4A2E6E"/>
</g>
<g opacity="0.45">
<path d="M67 308.718C67 307.061 68.3431 305.718 70 305.718C71.6569 305.718 73 307.061 73 308.718C73 310.375 71.6569 311.718 70 311.718C68.3431 311.718 67 310.375 67 308.718Z" fill="#4A2E6E"/>
</g>
<g opacity="0.45">
<path d="M77 308.726C77 307.069 78.3431 305.726 80 305.726C81.6569 305.726 83 307.069 83 308.726C83 310.382 81.6569 311.726 80 311.726C78.3431 311.726 77 310.382 77 308.726Z" fill="#4A2E6E"/>
</g>
<g filter="url(#filter0_i_828_10767)">
<path d="M350.811 346.811C357.129 340.494 346.609 319.731 327.314 300.436C308.019 281.142 287.256 270.621 280.939 276.939C274.621 283.256 285.141 304.019 304.436 323.314C323.731 342.609 344.494 353.129 350.811 346.811Z" fill="#FF2A69"/>
<path d="M327.314 323.314C346.609 304.019 357.129 283.256 350.811 276.939C344.494 270.621 323.731 281.141 304.436 300.436C285.141 319.731 274.621 340.494 280.939 346.811C287.256 353.129 308.019 342.608 327.314 323.314Z" fill="#FF2A69"/>
</g>
<path d="M312.681 341.272V346.657C312.681 347.09 312.328 347.442 311.893 347.442H305.293C305.036 347.442 304.896 347.252 304.886 347.056C304.887 347.02 304.89 346.984 304.893 346.949C304.893 346.948 304.893 346.947 304.893 346.947C304.928 346.636 305.069 346.359 305.279 346.15C305.522 345.907 305.858 345.757 306.229 345.757H306.364C306.715 345.757 307.034 345.891 307.274 346.11C307.427 346.25 307.632 346.32 307.838 346.292C308.796 346.168 309.548 345.383 309.585 344.42C309.586 344.392 309.587 344.364 309.587 344.337V341.272H312.68H312.681Z" fill="#F4CD2A"/>
<path d="M319.083 341.272V346.657C319.083 347.09 319.435 347.442 319.869 347.442H326.458C326.715 347.442 326.854 347.252 326.864 347.056C326.864 347.02 326.861 346.984 326.857 346.949C326.857 346.948 326.857 346.947 326.857 346.947C326.823 346.636 326.682 346.359 326.473 346.15C326.23 345.907 325.894 345.757 325.523 345.757H325.389C325.038 345.757 324.719 345.891 324.481 346.11C324.328 346.25 324.123 346.32 323.918 346.292C322.962 346.168 322.21 345.383 322.173 344.42C322.172 344.392 322.172 344.364 322.172 344.337V341.272H319.084H319.083Z" fill="#F4CD2A"/>
<path d="M332.283 304.986H299.466V300.175C299.466 292.654 306.536 284.101 315.598 284.101H316.152C325.214 284.101 332.283 292.654 332.283 300.175V304.986Z" fill="#FFC2E6"/>
<path d="M303.858 308.457C303.858 309.577 303.292 310.011 302.594 310.011C301.896 310.011 301.331 309.577 301.331 308.457C301.331 307.779 301.794 307.005 302.16 306.5C302.373 306.204 302.815 306.204 303.029 306.5C303.394 307.005 303.858 307.779 303.858 308.457Z" fill="#B20202"/>
<path d="M330.42 308.457C330.42 309.577 329.854 310.011 329.157 310.011C328.459 310.011 327.893 309.577 327.893 308.457C327.893 307.779 328.356 307.005 328.722 306.5C328.936 306.204 329.378 306.204 329.591 306.5C329.957 307.005 330.42 307.779 330.42 308.457Z" fill="#B20202"/>
<path d="M315.875 267.723L318.69 276.361H327.797L320.429 281.7L323.243 290.338L315.875 285L308.507 290.338L311.321 281.7L303.953 276.361H313.061L315.875 267.723Z" fill="#FE87EB"/>
<path d="M315.875 281.848C317.487 281.848 318.795 280.832 318.795 279.579C318.795 278.326 317.487 277.311 315.875 277.311C314.262 277.311 312.955 278.326 312.955 279.579C312.955 280.832 314.262 281.848 315.875 281.848Z" fill="#FFC2E6"/>
<path d="M315.875 278.703C315.875 279.671 315.394 280.456 314.8 280.456C314.206 280.456 313.725 279.671 313.725 278.703" fill="#B20202"/>
<path d="M315.875 291.57C310.365 291.57 305.898 295.573 305.898 300.511V342.494H314.776V311.671C314.776 311.127 315.268 310.687 315.875 310.687C316.482 310.687 316.974 311.127 316.974 311.671V342.494H325.852V300.511C325.852 295.573 321.386 291.57 315.875 291.57Z" fill="#69E093"/>
<mask id="mask0_828_10767" style="mask-type:luminance" maskUnits="userSpaceOnUse" x="305" y="291" width="21" height="52">
<path d="M315.876 291.57C310.365 291.57 305.898 295.573 305.898 300.511V342.494H314.777V311.671C314.777 311.127 315.269 310.687 315.876 310.687C316.482 310.687 316.974 311.127 316.974 311.671V342.494H325.853V300.511C325.853 295.573 321.386 291.57 315.876 291.57Z" fill="white"/>
</mask>
<g mask="url(#mask0_828_10767)">
<path d="M327.893 295.345C329.983 295.345 331.678 293.655 331.678 291.57C331.678 289.485 329.983 287.794 327.893 287.794C325.802 287.794 324.107 289.485 324.107 291.57C324.107 293.655 325.802 295.345 327.893 295.345Z" fill="#465AE1"/>
<path d="M327.893 302.895C329.983 302.895 331.678 301.205 331.678 299.12C331.678 297.035 329.983 295.345 327.893 295.345C325.802 295.345 324.107 297.035 324.107 299.12C324.107 301.205 325.802 302.895 327.893 302.895Z" fill="#465AE1"/>
<path d="M327.893 310.445C329.983 310.445 331.678 308.755 331.678 306.67C331.678 304.585 329.983 302.895 327.893 302.895C325.802 302.895 324.107 304.585 324.107 306.67C324.107 308.755 325.802 310.445 327.893 310.445Z" fill="#465AE1"/>
<path d="M327.893 317.995C329.983 317.995 331.678 316.305 331.678 314.22C331.678 312.135 329.983 310.445 327.893 310.445C325.802 310.445 324.107 312.135 324.107 314.22C324.107 316.305 325.802 317.995 327.893 317.995Z" fill="#465AE1"/>
<path d="M327.893 325.545C329.983 325.545 331.678 323.855 331.678 321.77C331.678 319.685 329.983 317.995 327.893 317.995C325.802 317.995 324.107 319.685 324.107 321.77C324.107 323.855 325.802 325.545 327.893 325.545Z" fill="#465AE1"/>
<path d="M320.361 328.577C322.451 328.577 324.146 326.887 324.146 324.802C324.146 322.717 322.451 321.027 320.361 321.027C318.27 321.027 316.575 322.717 316.575 324.802C316.575 326.887 318.27 328.577 320.361 328.577Z" fill="#465AE1"/>
<path d="M320.361 336.128C322.451 336.128 324.146 334.437 324.146 332.353C324.146 330.268 322.451 328.577 320.361 328.577C318.27 328.577 316.575 330.268 316.575 332.353C316.575 334.437 318.27 336.128 320.361 336.128Z" fill="#465AE1"/>
<path d="M320.361 343.678C322.451 343.678 324.146 341.988 324.146 339.903C324.146 337.818 322.451 336.128 320.361 336.128C318.27 336.128 316.575 337.818 316.575 339.903C316.575 341.988 318.27 343.678 320.361 343.678Z" fill="#465AE1"/>
<path d="M327.893 333.031C329.984 333.031 331.678 331.341 331.678 329.256C331.678 327.171 329.984 325.481 327.893 325.481C325.802 325.481 324.107 327.171 324.107 329.256C324.107 331.341 325.802 333.031 327.893 333.031Z" fill="#465AE1"/>
<path d="M327.893 340.582C329.984 340.582 331.678 338.892 331.678 336.807C331.678 334.722 329.984 333.031 327.893 333.031C325.802 333.031 324.107 334.722 324.107 336.807C324.107 338.892 325.802 340.582 327.893 340.582Z" fill="#465AE1"/>
<path d="M327.893 348.132C329.984 348.132 331.678 346.442 331.678 344.357C331.678 342.272 329.984 340.582 327.893 340.582C325.802 340.582 324.107 342.272 324.107 344.357C324.107 346.442 325.802 348.132 327.893 348.132Z" fill="#465AE1"/>
<path d="M312.954 336.116C315.045 336.116 316.74 334.426 316.74 332.341C316.74 330.256 315.045 328.566 312.954 328.566C310.864 328.566 309.169 330.256 309.169 332.341C309.169 334.426 310.864 336.116 312.954 336.116Z" fill="#465AE1"/>
<path d="M312.954 343.666C315.045 343.666 316.74 341.976 316.74 339.891C316.74 337.806 315.045 336.116 312.954 336.116C310.864 336.116 309.169 337.806 309.169 339.891C309.169 341.976 310.864 343.666 312.954 343.666Z" fill="#465AE1"/>
<path d="M304.886 332.353C306.976 332.353 308.671 330.662 308.671 328.577C308.671 326.492 306.976 324.802 304.886 324.802C302.795 324.802 301.1 326.492 301.1 328.577C301.1 330.662 302.795 332.353 304.886 332.353Z" fill="#465AE1"/>
<path d="M304.886 339.903C306.976 339.903 308.671 338.213 308.671 336.128C308.671 334.043 306.976 332.353 304.886 332.353C302.795 332.353 301.1 334.043 301.1 336.128C301.1 338.213 302.795 339.903 304.886 339.903Z" fill="#465AE1"/>
<path d="M304.886 347.453C306.976 347.453 308.671 345.763 308.671 343.678C308.671 341.593 306.976 339.903 304.886 339.903C302.795 339.903 301.1 341.593 301.1 343.678C301.1 345.763 302.795 347.453 304.886 347.453Z" fill="#465AE1"/>
<path d="M320.361 298.377C322.451 298.377 324.146 296.687 324.146 294.602C324.146 292.517 322.451 290.827 320.361 290.827C318.27 290.827 316.575 292.517 316.575 294.602C316.575 296.687 318.27 298.377 320.361 298.377Z" fill="#465AE1"/>
<path d="M320.361 305.927C322.451 305.927 324.146 304.237 324.146 302.152C324.146 300.067 322.451 298.377 320.361 298.377C318.27 298.377 316.575 300.067 316.575 302.152C316.575 304.237 318.27 305.927 320.361 305.927Z" fill="#465AE1"/>
<path d="M320.361 313.477C322.451 313.477 324.146 311.787 324.146 309.702C324.146 307.617 322.451 305.927 320.361 305.927C318.27 305.927 316.575 307.617 316.575 309.702C316.575 311.787 318.27 313.477 320.361 313.477Z" fill="#465AE1"/>
<path d="M320.361 321.028C322.451 321.028 324.146 319.337 324.146 317.252C324.146 315.167 322.451 313.477 320.361 313.477C318.27 313.477 316.575 315.167 316.575 317.252C316.575 319.337 318.27 321.028 320.361 321.028Z" fill="#465AE1"/>
<path d="M304.886 294.602C306.976 294.602 308.671 292.912 308.671 290.827C308.671 288.742 306.976 287.052 304.886 287.052C302.795 287.052 301.1 288.742 301.1 290.827C301.1 292.912 302.795 294.602 304.886 294.602Z" fill="#465AE1"/>
<path d="M304.886 302.152C306.976 302.152 308.671 300.462 308.671 298.377C308.671 296.292 306.976 294.602 304.886 294.602C302.795 294.602 301.1 296.292 301.1 298.377C301.1 300.462 302.795 302.152 304.886 302.152Z" fill="#465AE1"/>
<path d="M304.886 309.702C306.976 309.702 308.671 308.012 308.671 305.927C308.671 303.842 306.976 302.152 304.886 302.152C302.795 302.152 301.1 303.842 301.1 305.927C301.1 308.012 302.795 309.702 304.886 309.702Z" fill="#465AE1"/>
<path d="M304.886 317.252C306.976 317.252 308.671 315.562 308.671 313.477C308.671 311.392 306.976 309.702 304.886 309.702C302.795 309.702 301.1 311.392 301.1 313.477C301.1 315.562 302.795 317.252 304.886 317.252Z" fill="#465AE1"/>
<path d="M304.886 324.803C306.976 324.803 308.671 323.113 308.671 321.028C308.671 318.943 306.976 317.252 304.886 317.252C302.795 317.252 301.1 318.943 301.1 321.028C301.1 323.113 302.795 324.803 304.886 324.803Z" fill="#465AE1"/>
<path d="M312.68 298.377C314.771 298.377 316.466 296.687 316.466 294.602C316.466 292.517 314.771 290.827 312.68 290.827C310.59 290.827 308.895 292.517 308.895 294.602C308.895 296.687 310.59 298.377 312.68 298.377Z" fill="#465AE1"/>
<path d="M312.68 305.927C314.771 305.927 316.466 304.237 316.466 302.152C316.466 300.067 314.771 298.377 312.68 298.377C310.59 298.377 308.895 300.067 308.895 302.152C308.895 304.237 310.59 305.927 312.68 305.927Z" fill="#465AE1"/>
<path d="M312.68 313.477C314.771 313.477 316.466 311.787 316.466 309.702C316.466 307.617 314.771 305.927 312.68 305.927C310.59 305.927 308.895 307.617 308.895 309.702C308.895 311.787 310.59 313.477 312.68 313.477Z" fill="#465AE1"/>
<path d="M312.68 321.028C314.771 321.028 316.466 319.337 316.466 317.252C316.466 315.167 314.771 313.477 312.68 313.477C310.59 313.477 308.895 315.167 308.895 317.252C308.895 319.337 310.59 321.028 312.68 321.028Z" fill="#465AE1"/>
<path d="M312.68 328.577C314.771 328.577 316.466 326.887 316.466 324.802C316.466 322.717 314.771 321.027 312.68 321.027C310.59 321.027 308.895 322.717 308.895 324.802C308.895 326.887 310.59 328.577 312.68 328.577Z" fill="#465AE1"/>
</g>
<path d="M338 0L347.043 7.55358L357.021 13.8197L352.632 24.7541L349.756 36.1803L338 35.3846L326.244 36.1803L323.368 24.7541L318.979 13.8197L328.957 7.55358L338 0Z" fill="#FF87EB"/>
<g clip-path="url(#clip0_828_10767)">
<path d="M12 100L15.5325 103.472L20.4853 103.515L20.5281 108.468L24 112L20.5281 115.532L20.4853 120.485L15.5325 120.528L12 124L8.46754 120.528L3.51472 120.485L3.47188 115.532L0 112L3.47188 108.468L3.51472 103.515L8.46754 103.472L12 100Z" fill="#FFD719"/>
</g>
<g clip-path="url(#clip1_828_10767)">
<path d="M325 420.5L329.895 424.605L334 429.5L329.895 434.395L325 438.5L320.105 434.395L316 429.5L320.105 424.605L325 420.5Z" fill="#465AE1"/>
</g>
<defs>
<filter id="filter0_i_828_10767" x="269.5" y="265.5" width="92.75" height="93.1" filterUnits="userSpaceOnUse" color-interpolation-filters="sRGB">
<feFlood flood-opacity="0" result="BackgroundImageFix"/>
<feBlend mode="normal" in="SourceGraphic" in2="BackgroundImageFix" result="shape"/>
<feColorMatrix in="SourceAlpha" type="matrix" values="0 0 0 0 0 0 0 0 0 0 0 0 0 0 0 0 0 0 127 0" result="hardAlpha"/>
<feOffset dy="1"/>
<feGaussianBlur stdDeviation="0.175"/>
<feComposite in2="hardAlpha" operator="arithmetic" k2="-1" k3="1"/>
<feColorMatrix type="matrix" values="0 0 0 0 0 0 0 0 0 0 0 0 0 0 0 0 0 0 0.25 0"/>
<feBlend mode="normal" in2="shape" result="effect1_innerShadow_828_10767"/>
</filter>
<clipPath id="clip0_828_10767">
<rect width="24" height="24" fill="white" transform="translate(0 100)"/>
</clipPath>
<clipPath id="clip1_828_10767">
<rect width="18" height="18" fill="white" transform="translate(316 420.5)"/>
</clipPath>
</defs>
</svg>
