<svg width="19" height="19" viewBox="0 0 19 19" fill="none" xmlns="http://www.w3.org/2000/svg">
<path d="M0.339844 1.81641C0.207031 1.68359 0.117188 1.52734 0.0703125 1.34766C0.03125 1.16797 0.03125 0.988281 0.0703125 0.808594C0.117188 0.628906 0.207031 0.472656 0.339844 0.339844C0.472656 0.199219 0.628906 0.109375 0.808594 0.0703125C0.988281 0.0234375 1.16797 0.0234375 1.34766 0.0703125C1.53516 0.109375 1.69531 0.199219 1.82812 0.339844L18.3164 16.8281C18.4492 16.9609 18.5352 17.1172 18.5742 17.2969C18.6211 17.4766 18.6211 17.6562 18.5742 17.8359C18.5352 18.0156 18.4492 18.1719 18.3164 18.3047C18.1836 18.4453 18.0234 18.5352 17.8359 18.5742C17.6562 18.6211 17.4766 18.6211 17.2969 18.5742C17.1172 18.5273 16.9609 18.4375 16.8281 18.3047L0.339844 1.81641ZM0.339844 16.8281L16.8281 0.339844C16.9609 0.199219 17.1172 0.109375 17.2969 0.0703125C17.4766 0.0234375 17.6562 0.0234375 17.8359 0.0703125C18.0156 0.109375 18.1758 0.199219 18.3164 0.339844C18.4492 0.472656 18.5391 0.628906 18.5859 0.808594C18.6328 0.988281 18.6328 1.16797 18.5859 1.34766C18.5391 1.52734 18.4492 1.68359 18.3164 1.81641L1.82812 18.3047C1.69531 18.4375 1.53906 18.5273 1.35938 18.5742C1.17969 18.6211 1 18.6211 0.820312 18.5742C0.640625 18.5273 0.480469 18.4375 0.339844 18.3047C0.199219 18.1719 0.105469 18.0156 0.0585938 17.8359C0.0195312 17.6562 0.0234375 17.4766 0.0703125 17.2969C0.117188 17.1172 0.207031 16.9609 0.339844 16.8281Z" fill="#B496A0"/>
</svg>
