<svg width="362" height="240" viewBox="0 0 362 240" fill="none" xmlns="http://www.w3.org/2000/svg">
<g clip-path="url(#clip0_612_7167)">
<path d="M0 30C0 13.4315 13.4315 0 30 0H332C348.569 0 362 13.4315 362 30V210C362 226.569 348.569 240 332 240H30C13.4315 240 0 226.569 0 210V30Z" fill="#FF87EB"/>
<g opacity="0.55">
<path d="M-32 48C-32 3.81722 3.81722 -32 48 -32C92.1828 -32 128 3.81722 128 48C128 92.1828 92.1828 128 48 128C3.81722 128 -32 92.1828 -32 48Z" fill="#465AE1"/>
</g>
<g opacity="0.7">
<path d="M262 208C262 177.072 287.072 152 318 152C348.928 152 374 177.072 374 208C374 238.928 348.928 264 318 264C287.072 264 262 238.928 262 208Z" fill="#465AE1"/>
</g>
<path d="M306 34C306 28.4772 310.477 24 316 24C321.523 24 326 28.4772 326 34C326 39.5228 321.523 44 316 44C310.477 44 306 39.5228 306 34Z" fill="#465AE1"/>
<path d="M24.9883 141.5V133.75H25.9551V137.101H30.209V133.75H31.1758V141.5H30.209V137.971H25.9551V141.5H24.9883ZM35.9023 141.5V133.75H40.7041V134.62H36.8691V137.106H40.5054V137.966H36.8691V140.63H40.7041V141.5H35.9023ZM45.2051 141.5V133.75H46.1719V140.63H49.9102V141.5H45.2051ZM54.6904 138.734V137.875H56.8818C57.4368 137.875 57.8665 137.731 58.1709 137.445C58.4753 137.155 58.6274 136.756 58.6274 136.247V136.236C58.6274 135.724 58.4753 135.325 58.1709 135.039C57.8665 134.752 57.4368 134.609 56.8818 134.609H54.6904V133.75H57.1289C57.6159 133.75 58.0456 133.853 58.418 134.061C58.7904 134.269 59.0822 134.559 59.2935 134.931C59.5083 135.304 59.6157 135.735 59.6157 136.226V136.236C59.6157 136.727 59.5083 137.16 59.2935 137.536C59.0822 137.912 58.7904 138.206 58.418 138.417C58.0456 138.628 57.6159 138.734 57.1289 138.734H54.6904ZM54.207 141.5V133.75H55.1738V141.5H54.207ZM63.9502 141.5V133.75H64.917V140.63H68.6553V141.5H63.9502ZM72.9521 141.5V133.75H73.9189V141.5H72.9521ZM78.6455 141.5V133.75H79.5854L84.0273 140.12L83.3828 139.781H83.877V133.75H84.833V141.5H83.8931L79.4512 135.151L80.0957 135.49H79.6016V141.5H78.6455ZM89.5596 141.5V133.75H94.3613V134.62H90.5264V137.106H94.1626V137.966H90.5264V140.63H94.3613V141.5H89.5596Z" fill="#FFFCF5" fill-opacity="0.85"/>
<path d="M31.296 186.25C28.928 184.17 25.056 180.714 24.96 174.186C24.832 162.922 34.176 160.298 39.232 160.298C48 160.298 52.416 164.042 52.48 168.714C52.48 171.562 50.944 173.258 50.4 173.962H41.792C44.704 168.234 43.744 163.626 38.848 163.626C36.032 163.626 33.6 165.706 33.6 170.154C33.6 174.73 33.696 181.674 52.352 179.754L47.2 186.25H31.296ZM54.4125 186.25V165.45H63.3725L63.4685 167.402C62.5725 168.65 60.9725 172.618 60.3005 176.554L61.8045 176.714C63.0205 169.066 65.9005 164.938 70.1885 164.938C74.3485 164.938 75.8525 168.586 75.8525 173.994H66.8925C66.8925 171.818 67.2445 169.994 66.1885 169.994C64.6845 169.994 63.3725 175.786 63.3725 186.25H54.4125ZM77.4438 172.49C77.9878 172.842 78.8838 173.162 79.6518 173.162C83.2998 173.162 85.3478 170.442 86.4038 168.938V186.25H77.4438V172.49ZM76.7718 168.138C76.7718 164.778 80.1958 160.17 83.5238 160.17C85.2517 160.17 86.6278 161.418 86.6278 163.594C86.6278 166.986 83.2038 171.562 79.8758 171.562C78.1158 171.562 76.7718 170.282 76.7718 168.138ZM88 178.058C90.112 178.826 93.216 179.498 95.616 179.498C97.152 179.498 100.128 179.082 100.128 177.834C100.128 175.434 88.64 176.522 88.64 170.538C88.64 167.434 91.104 164.97 97.216 164.97C102.496 164.97 106.272 166.218 107.2 166.57V174.026C105.376 173.29 103.296 172.266 100.832 172.266C99.072 172.266 97.056 172.586 97.056 173.45C97.056 175.594 108.48 174.73 108.48 181.034C108.48 183.306 107.36 184.778 105.6 186.25H92.96L88 178.058ZM110.413 172.49C110.957 172.842 111.853 173.162 112.621 173.162C116.269 173.162 118.317 170.442 119.373 168.938V186.25H110.413V172.49ZM109.741 168.138C109.741 164.778 113.165 160.17 116.493 160.17C118.22 160.17 119.597 161.418 119.597 163.594C119.597 166.986 116.173 171.562 112.845 171.562C111.085 171.562 109.741 170.282 109.741 168.138ZM120.969 178.058C123.081 178.826 126.185 179.498 128.585 179.498C130.121 179.498 133.097 179.082 133.097 177.834C133.097 175.434 121.609 176.522 121.609 170.538C121.609 167.434 124.073 164.97 130.185 164.97C135.465 164.97 139.241 166.218 140.169 166.57V174.026C138.345 173.29 136.265 172.266 133.801 172.266C132.041 172.266 130.025 172.586 130.025 173.45C130.025 175.594 141.449 174.73 141.449 181.034C141.449 183.306 140.329 184.778 138.569 186.25H125.929L120.969 178.058ZM154.569 186.25V160.65H163.401V186.25H154.569ZM166.6 172.49C167.144 172.842 168.04 173.162 168.808 173.162C172.456 173.162 174.504 170.442 175.56 168.938V186.25H166.6V172.49ZM165.928 168.138C165.928 164.778 169.352 160.17 172.68 160.17C174.408 160.17 175.784 161.418 175.784 163.594C175.784 166.986 172.36 171.562 169.032 171.562C167.272 171.562 165.928 170.282 165.928 168.138ZM182.372 186.25C185.572 181.738 181.124 176.234 177.476 176.234V174.154H180.58C180.324 173.898 179.332 171.914 179.332 170.378C179.332 164.778 184.484 160.234 190.852 160.234C193.508 160.234 195.94 161.002 197.892 162.346V171.402C196.74 170.986 195.364 170.57 193.828 170.25C192.644 169.994 189.028 169.61 188.132 170.666C187.268 171.658 188.324 174.026 188.612 174.154H197.892V176.234H190.052C188.42 175.562 187.172 174.986 184.932 174.378L184.42 175.882C190.276 177.45 197.7 182.634 197.7 186.25H182.372ZM205.676 186.25C203.724 184.522 200.524 181.674 200.46 176.266C200.332 166.954 208.076 164.778 212.236 164.778C219.532 164.778 223.18 167.914 223.18 171.786C223.18 175.626 219.532 178.794 215.052 178.794C211.98 178.794 209.324 177.322 207.916 175.146L206.796 176.202C209.644 181.258 218.54 180.33 223.084 180.074L218.828 186.25H205.676ZM209.74 174.762C210.764 175.37 212.556 174.314 213.708 172.33C214.828 170.41 214.86 168.33 213.772 167.722C212.684 167.082 210.892 168.138 209.772 170.09C208.652 172.074 208.62 174.154 209.74 174.762ZM225.725 186.25V160.65H234.557V186.25H225.725ZM237.756 172.49C238.3 172.842 239.196 173.162 239.964 173.162C243.612 173.162 245.66 170.442 246.716 168.938V186.25H237.756V172.49ZM237.084 168.138C237.084 164.778 240.508 160.17 243.836 160.17C245.564 160.17 246.94 161.418 246.94 163.594C246.94 166.986 243.516 171.562 240.188 171.562C238.428 171.562 237.084 170.282 237.084 168.138ZM249.913 186.25V165.45H258.873L258.969 167.722C258.073 168.97 256.473 172.618 255.801 176.554L257.401 176.714C258.809 169.066 262.041 164.938 266.329 164.938C270.489 164.938 272.633 167.946 272.633 173.354V186.25H263.673V173.354C263.673 171.178 263.385 169.994 262.297 169.994C260.185 169.994 258.873 175.786 258.873 186.25H249.913ZM280.239 186.25C278.286 184.522 275.087 181.674 275.023 176.266C274.895 166.954 282.639 164.778 286.799 164.778C294.095 164.778 297.743 167.914 297.743 171.786C297.743 175.626 294.095 178.794 289.615 178.794C286.543 178.794 283.887 177.322 282.479 175.146L281.359 176.202C284.207 181.258 293.103 180.33 297.647 180.074L293.391 186.25H280.239ZM284.303 174.762C285.327 175.37 287.119 174.314 288.271 172.33C289.391 170.41 289.423 168.33 288.335 167.722C287.247 167.082 285.455 168.138 284.335 170.09C283.215 172.074 283.183 174.154 284.303 174.762Z" fill="#FFFCF5"/>
<path d="M28.0181 202.375C28.437 202.375 28.8496 202.455 29.2559 202.616C29.6663 202.777 30.0366 203.037 30.3667 203.396C30.701 203.756 30.9676 204.232 31.1665 204.825C31.3654 205.413 31.4648 206.139 31.4648 207.002V207.015C31.4648 208.056 31.3252 208.946 31.0459 209.687C30.7666 210.423 30.3646 210.988 29.8398 211.382C29.3151 211.771 28.6825 211.966 27.9419 211.966C27.4299 211.966 26.9665 211.873 26.5518 211.687C26.1413 211.496 25.7985 211.232 25.5234 210.893C25.2484 210.555 25.0579 210.161 24.9521 209.712L24.9331 209.63H26.082L26.1074 209.7C26.2005 209.954 26.3317 210.174 26.501 210.36C26.6745 210.546 26.8818 210.69 27.123 210.792C27.3685 210.893 27.6457 210.944 27.9546 210.944C28.509 210.944 28.9596 210.783 29.3066 210.461C29.6536 210.136 29.9118 209.704 30.0811 209.167C30.2503 208.629 30.3455 208.043 30.3667 207.408C30.3709 207.349 30.373 207.292 30.373 207.237C30.373 207.178 30.373 207.12 30.373 207.065L30.1001 205.542C30.1001 205.14 30.007 204.776 29.8208 204.45C29.6388 204.124 29.3913 203.866 29.0781 203.676C28.7692 203.481 28.4201 203.384 28.0308 203.384C27.6499 203.384 27.3029 203.479 26.9897 203.669C26.6766 203.856 26.4269 204.11 26.2407 204.431C26.0545 204.749 25.9614 205.106 25.9614 205.504V205.517C25.9614 205.923 26.0503 206.285 26.228 206.602C26.4058 206.915 26.6491 207.163 26.958 207.345C27.2669 207.522 27.6182 207.611 28.0117 207.611C28.4095 207.611 28.765 207.522 29.0781 207.345C29.3913 207.167 29.6388 206.924 29.8208 206.615C30.007 206.302 30.1001 205.946 30.1001 205.548V205.542H30.4746V207.192H30.2524C30.1424 207.442 29.9731 207.675 29.7446 207.891C29.5203 208.106 29.2453 208.28 28.9194 208.411C28.5978 208.542 28.2297 208.608 27.8149 208.608C27.2437 208.608 26.7316 208.475 26.2788 208.208C25.826 207.941 25.4684 207.577 25.2061 207.116C24.9437 206.651 24.8125 206.126 24.8125 205.542V205.529C24.8125 204.92 24.95 204.378 25.2251 203.904C25.5044 203.426 25.8853 203.052 26.3677 202.781C26.8543 202.51 27.4045 202.375 28.0181 202.375ZM36.4287 211.902C35.7812 211.902 35.2078 211.79 34.7085 211.566C34.2091 211.342 33.8156 211.033 33.5278 210.639C33.2443 210.241 33.1025 209.786 33.1025 209.274V209.262C33.1025 208.885 33.1851 208.536 33.3501 208.214C33.5151 207.893 33.7458 207.62 34.042 207.396C34.3382 207.167 34.681 207.008 35.0703 206.919V206.894C34.571 206.737 34.1732 206.479 33.877 206.12C33.5807 205.76 33.4326 205.339 33.4326 204.856V204.844C33.4326 204.382 33.5617 203.972 33.8198 203.612C34.078 203.248 34.4334 202.963 34.8862 202.755C35.339 202.544 35.8532 202.438 36.4287 202.438C37.0085 202.438 37.5226 202.544 37.9712 202.755C38.424 202.963 38.7795 203.248 39.0376 203.612C39.2957 203.972 39.4248 204.382 39.4248 204.844V204.856C39.4248 205.339 39.2767 205.76 38.9805 206.12C38.6885 206.479 38.2907 206.737 37.7871 206.894V206.919C38.1807 207.008 38.5234 207.167 38.8154 207.396C39.1117 207.62 39.3423 207.893 39.5073 208.214C39.6724 208.536 39.7549 208.885 39.7549 209.262V209.274C39.7549 209.786 39.6131 210.241 39.3296 210.639C39.0461 211.033 38.6525 211.342 38.1489 211.566C37.6496 211.79 37.0762 211.902 36.4287 211.902ZM36.4287 210.906C36.8519 210.906 37.2243 210.834 37.5459 210.69C37.8717 210.542 38.1278 210.341 38.314 210.087C38.5002 209.829 38.5933 209.535 38.5933 209.205V209.192C38.5933 208.858 38.5002 208.561 38.314 208.303C38.132 208.045 37.8781 207.842 37.5522 207.694C37.2264 207.546 36.8519 207.472 36.4287 207.472C36.0055 207.472 35.631 207.546 35.3052 207.694C34.9793 207.842 34.7233 208.045 34.5371 208.303C34.3551 208.561 34.2642 208.858 34.2642 209.192V209.205C34.2642 209.535 34.3573 209.829 34.5435 210.087C34.7297 210.341 34.9857 210.542 35.3115 210.69C35.6374 210.834 36.0098 210.906 36.4287 210.906ZM36.4287 206.469C36.7969 206.469 37.1206 206.405 37.3999 206.278C37.6792 206.147 37.8971 205.967 38.0537 205.739C38.2103 205.51 38.2886 205.248 38.2886 204.952V204.939C38.2886 204.643 38.2103 204.38 38.0537 204.152C37.8971 203.923 37.6792 203.746 37.3999 203.619C37.1206 203.487 36.7969 203.422 36.4287 203.422C36.0605 203.422 35.7368 203.487 35.4575 203.619C35.1782 203.746 34.9603 203.923 34.8037 204.152C34.6471 204.38 34.5688 204.643 34.5688 204.939V204.952C34.5688 205.248 34.6471 205.51 34.8037 205.739C34.9603 205.967 35.1782 206.147 35.4575 206.278C35.7368 206.405 36.0605 206.469 36.4287 206.469ZM44.7314 211.902C44.084 211.902 43.5106 211.79 43.0112 211.566C42.5119 211.342 42.1183 211.033 41.8306 210.639C41.547 210.241 41.4053 209.786 41.4053 209.274V209.262C41.4053 208.885 41.4878 208.536 41.6528 208.214C41.8179 207.893 42.0485 207.62 42.3447 207.396C42.641 207.167 42.9837 207.008 43.373 206.919V206.894C42.8737 206.737 42.4759 206.479 42.1797 206.12C41.8835 205.76 41.7354 205.339 41.7354 204.856V204.844C41.7354 204.382 41.8644 203.972 42.1226 203.612C42.3807 203.248 42.7362 202.963 43.189 202.755C43.6418 202.544 44.1559 202.438 44.7314 202.438C45.3112 202.438 45.8254 202.544 46.2739 202.755C46.7267 202.963 47.0822 203.248 47.3403 203.612C47.5985 203.972 47.7275 204.382 47.7275 204.844V204.856C47.7275 205.339 47.5794 205.76 47.2832 206.12C46.9912 206.479 46.5934 206.737 46.0898 206.894V206.919C46.4834 207.008 46.8262 207.167 47.1182 207.396C47.4144 207.62 47.645 207.893 47.8101 208.214C47.9751 208.536 48.0576 208.885 48.0576 209.262V209.274C48.0576 209.786 47.9159 210.241 47.6323 210.639C47.3488 211.033 46.9552 211.342 46.4517 211.566C45.9523 211.79 45.3789 211.902 44.7314 211.902ZM44.7314 210.906C45.1546 210.906 45.527 210.834 45.8486 210.69C46.1745 210.542 46.4305 210.341 46.6167 210.087C46.8029 209.829 46.896 209.535 46.896 209.205V209.192C46.896 208.858 46.8029 208.561 46.6167 208.303C46.4347 208.045 46.1808 207.842 45.855 207.694C45.5291 207.546 45.1546 207.472 44.7314 207.472C44.3083 207.472 43.9338 207.546 43.6079 207.694C43.2821 207.842 43.026 208.045 42.8398 208.303C42.6579 208.561 42.5669 208.858 42.5669 209.192V209.205C42.5669 209.535 42.66 209.829 42.8462 210.087C43.0324 210.341 43.2884 210.542 43.6143 210.69C43.9401 210.834 44.3125 210.906 44.7314 210.906ZM44.7314 206.469C45.0996 206.469 45.4233 206.405 45.7026 206.278C45.9819 206.147 46.1999 205.967 46.3564 205.739C46.513 205.51 46.5913 205.248 46.5913 204.952V204.939C46.5913 204.643 46.513 204.38 46.3564 204.152C46.1999 203.923 45.9819 203.746 45.7026 203.619C45.4233 203.487 45.0996 203.422 44.7314 203.422C44.3633 203.422 44.0396 203.487 43.7603 203.619C43.481 203.746 43.263 203.923 43.1064 204.152C42.9499 204.38 42.8716 204.643 42.8716 204.939V204.952C42.8716 205.248 42.9499 205.51 43.1064 205.739C43.263 205.967 43.481 206.147 43.7603 206.278C44.0396 206.405 44.3633 206.469 44.7314 206.469ZM53.4722 208.576V207.548H57.7378V208.576H53.4722ZM65.2344 211.871C64.8027 211.871 64.4134 211.788 64.0664 211.623C63.7236 211.458 63.4507 211.223 63.2476 210.918C63.0487 210.614 62.9492 210.254 62.9492 209.839V209.827C62.9492 209.42 63.0465 209.073 63.2412 208.786C63.4359 208.494 63.7194 208.265 64.0918 208.1C64.4642 207.935 64.9149 207.838 65.4438 207.808L67.9575 207.656V208.538L65.5771 208.69C65.0566 208.72 64.6758 208.828 64.4346 209.014C64.1976 209.2 64.0791 209.463 64.0791 209.801V209.814C64.0791 210.161 64.2103 210.432 64.4727 210.626C64.735 210.817 65.0651 210.912 65.4629 210.912C65.8395 210.912 66.1738 210.838 66.4658 210.69C66.7578 210.538 66.9863 210.332 67.1514 210.074C67.3206 209.816 67.4053 209.524 67.4053 209.198V207.065C67.4053 206.642 67.2762 206.321 67.0181 206.101C66.7642 205.876 66.3812 205.764 65.8691 205.764C65.4587 205.764 65.1222 205.838 64.8599 205.986C64.5975 206.13 64.4219 206.335 64.333 206.602L64.3267 206.621H63.2222L63.2285 206.583C63.2878 206.223 63.4359 205.91 63.6729 205.644C63.9141 205.373 64.2251 205.163 64.606 205.015C64.9868 204.863 65.4206 204.787 65.9072 204.787C66.4658 204.787 66.9377 204.878 67.3228 205.06C67.7121 205.242 68.0062 205.504 68.2051 205.847C68.4082 206.185 68.5098 206.591 68.5098 207.065V211.75H67.4053V210.741H67.3037C67.1598 210.982 66.9842 211.187 66.7769 211.356C66.5737 211.526 66.3431 211.655 66.085 211.744C65.8268 211.828 65.5433 211.871 65.2344 211.871ZM70.5283 211.75V204.907H71.6328V205.936H71.7344C71.9079 205.572 72.1576 205.29 72.4834 205.091C72.8092 204.888 73.224 204.787 73.7275 204.787C74.4977 204.787 75.0881 205.007 75.4985 205.447C75.9132 205.883 76.1206 206.507 76.1206 207.319V211.75H75.0161V207.586C75.0161 206.968 74.8849 206.511 74.6226 206.215C74.3644 205.914 73.9624 205.764 73.4165 205.764C73.0526 205.764 72.7373 205.842 72.4707 205.999C72.2041 206.156 71.9967 206.378 71.8486 206.666C71.7048 206.953 71.6328 207.298 71.6328 207.7V211.75H70.5283ZM78.4502 214.149C78.3783 214.149 78.2979 214.145 78.209 214.137C78.1201 214.132 78.0376 214.124 77.9614 214.111V213.204C78.0291 213.216 78.1032 213.225 78.1836 213.229C78.264 213.233 78.3423 213.235 78.4185 213.235C78.7316 213.235 78.9876 213.155 79.1865 212.994C79.3896 212.833 79.5526 212.556 79.6753 212.163L79.8022 211.756L77.2695 204.907H78.4502L80.5576 211.229L80.1196 210.538H80.6401L80.2021 211.229L82.3032 204.907H83.4648L80.7925 212.169C80.6063 212.681 80.4095 213.081 80.2021 213.369C79.9948 213.656 79.7515 213.857 79.4722 213.972C79.1971 214.09 78.8564 214.149 78.4502 214.149ZM87.356 211.801C86.6535 211.801 86.1436 211.659 85.8262 211.375C85.513 211.092 85.3564 210.624 85.3564 209.973V205.821H84.2773V204.907H85.3564V203.136H86.499V204.907H87.9971V205.821H86.499V209.693C86.499 210.095 86.5752 210.385 86.7275 210.563C86.8799 210.736 87.1338 210.823 87.4893 210.823C87.5866 210.823 87.6691 210.821 87.7368 210.817C87.8088 210.813 87.8955 210.806 87.9971 210.798V211.737C87.8913 211.754 87.7855 211.769 87.6797 211.782C87.5739 211.794 87.466 211.801 87.356 211.801ZM89.6729 211.75V204.907H90.7773V211.75H89.6729ZM90.2314 203.587C90.0241 203.587 89.8442 203.513 89.6919 203.365C89.5438 203.212 89.4697 203.033 89.4697 202.825C89.4697 202.614 89.5438 202.434 89.6919 202.286C89.8442 202.138 90.0241 202.063 90.2314 202.063C90.443 202.063 90.6229 202.138 90.771 202.286C90.9191 202.434 90.9932 202.614 90.9932 202.825C90.9932 203.033 90.9191 203.212 90.771 203.365C90.6229 203.513 90.443 203.587 90.2314 203.587ZM92.8594 211.75V204.907H93.9639V205.948H94.0654C94.2178 205.58 94.4505 205.294 94.7637 205.091C95.0811 204.888 95.464 204.787 95.9126 204.787C96.2215 204.787 96.4987 204.837 96.7441 204.939C96.9896 205.041 97.2012 205.182 97.3789 205.364C97.5566 205.542 97.6984 205.749 97.8042 205.986H97.9058C98.0285 205.745 98.1935 205.536 98.4009 205.358C98.6082 205.176 98.8473 205.036 99.1182 204.939C99.3932 204.837 99.6873 204.787 100 204.787C100.466 204.787 100.86 204.873 101.181 205.047C101.507 205.22 101.755 205.474 101.924 205.809C102.093 206.139 102.178 206.543 102.178 207.021V211.75H101.073V207.275C101.073 206.936 101.02 206.657 100.915 206.437C100.813 206.213 100.656 206.046 100.445 205.936C100.233 205.821 99.9666 205.764 99.645 205.764C99.3276 205.764 99.0505 205.836 98.8135 205.98C98.5765 206.124 98.3924 206.316 98.2612 206.558C98.13 206.795 98.0645 207.059 98.0645 207.351V211.75H96.96V207.104C96.96 206.833 96.9007 206.598 96.7822 206.399C96.668 206.196 96.5029 206.039 96.2871 205.929C96.0755 205.819 95.8258 205.764 95.5381 205.764C95.2419 205.764 94.9731 205.842 94.7319 205.999C94.495 206.156 94.3066 206.367 94.167 206.634C94.0316 206.896 93.9639 207.188 93.9639 207.51V211.75H92.8594ZM106.964 211.871C106.312 211.871 105.751 211.727 105.282 211.439C104.816 211.151 104.457 210.745 104.203 210.22C103.953 209.691 103.828 209.069 103.828 208.354V208.348C103.828 207.641 103.953 207.021 104.203 206.488C104.457 205.955 104.814 205.538 105.275 205.237C105.737 204.937 106.276 204.787 106.894 204.787C107.516 204.787 108.049 204.931 108.494 205.218C108.942 205.506 109.285 205.908 109.522 206.424C109.763 206.936 109.884 207.533 109.884 208.214V208.646H104.399V207.764H109.319L108.773 208.57V208.132C108.773 207.594 108.693 207.152 108.532 206.805C108.371 206.458 108.149 206.2 107.865 206.031C107.582 205.857 107.256 205.771 106.888 205.771C106.52 205.771 106.189 205.861 105.897 206.043C105.61 206.221 105.381 206.486 105.212 206.837C105.043 207.188 104.958 207.62 104.958 208.132V208.57C104.958 209.056 105.041 209.473 105.206 209.82C105.371 210.163 105.605 210.428 105.91 210.614C106.215 210.796 106.575 210.887 106.989 210.887C107.298 210.887 107.567 210.844 107.795 210.76C108.024 210.675 108.212 210.567 108.36 210.436C108.508 210.305 108.612 210.172 108.671 210.036L108.697 209.979H109.801L109.789 210.03C109.729 210.263 109.624 210.489 109.471 210.709C109.323 210.925 109.131 211.122 108.894 211.299C108.657 211.473 108.375 211.612 108.049 211.718C107.728 211.82 107.366 211.871 106.964 211.871ZM111.318 214.08L111.871 210.468H113.134L112.137 214.08H111.318ZM121.64 211.871C121.064 211.871 120.561 211.725 120.129 211.433C119.697 211.141 119.363 210.73 119.126 210.201C118.889 209.668 118.771 209.046 118.771 208.335V208.322C118.771 207.607 118.889 206.985 119.126 206.456C119.363 205.927 119.695 205.517 120.123 205.225C120.554 204.933 121.06 204.787 121.64 204.787C121.953 204.787 122.247 204.837 122.522 204.939C122.801 205.036 123.049 205.174 123.265 205.352C123.48 205.529 123.65 205.741 123.772 205.986H123.874V202.19H124.979V211.75H123.874V210.658H123.772C123.633 210.912 123.457 211.13 123.246 211.312C123.034 211.49 122.793 211.627 122.522 211.725C122.251 211.822 121.957 211.871 121.64 211.871ZM121.894 210.893C122.308 210.893 122.666 210.789 122.966 210.582C123.267 210.375 123.497 210.081 123.658 209.7C123.819 209.315 123.899 208.86 123.899 208.335V208.322C123.899 207.793 123.819 207.338 123.658 206.958C123.497 206.577 123.267 206.283 122.966 206.075C122.666 205.868 122.308 205.764 121.894 205.764C121.479 205.764 121.121 205.868 120.821 206.075C120.525 206.278 120.296 206.57 120.135 206.951C119.979 207.332 119.9 207.789 119.9 208.322V208.335C119.9 208.864 119.979 209.321 120.135 209.706C120.296 210.087 120.525 210.381 120.821 210.588C121.121 210.792 121.479 210.893 121.894 210.893ZM128.978 211.871C128.546 211.871 128.157 211.788 127.81 211.623C127.467 211.458 127.194 211.223 126.991 210.918C126.792 210.614 126.692 210.254 126.692 209.839V209.827C126.692 209.42 126.79 209.073 126.984 208.786C127.179 208.494 127.463 208.265 127.835 208.1C128.207 207.935 128.658 207.838 129.187 207.808L131.701 207.656V208.538L129.32 208.69C128.8 208.72 128.419 208.828 128.178 209.014C127.941 209.2 127.822 209.463 127.822 209.801V209.814C127.822 210.161 127.953 210.432 128.216 210.626C128.478 210.817 128.808 210.912 129.206 210.912C129.583 210.912 129.917 210.838 130.209 210.69C130.501 210.538 130.729 210.332 130.895 210.074C131.064 209.816 131.148 209.524 131.148 209.198V207.065C131.148 206.642 131.019 206.321 130.761 206.101C130.507 205.876 130.124 205.764 129.612 205.764C129.202 205.764 128.865 205.838 128.603 205.986C128.341 206.13 128.165 206.335 128.076 206.602L128.07 206.621H126.965L126.972 206.583C127.031 206.223 127.179 205.91 127.416 205.644C127.657 205.373 127.968 205.163 128.349 205.015C128.73 204.863 129.164 204.787 129.65 204.787C130.209 204.787 130.681 204.878 131.066 205.06C131.455 205.242 131.749 205.504 131.948 205.847C132.151 206.185 132.253 206.591 132.253 207.065V211.75H131.148V210.741H131.047C130.903 210.982 130.727 211.187 130.52 211.356C130.317 211.526 130.086 211.655 129.828 211.744C129.57 211.828 129.286 211.871 128.978 211.871ZM134.602 214.149C134.53 214.149 134.449 214.145 134.36 214.137C134.271 214.132 134.189 214.124 134.113 214.111V213.204C134.181 213.216 134.255 213.225 134.335 213.229C134.415 213.233 134.494 213.235 134.57 213.235C134.883 213.235 135.139 213.155 135.338 212.994C135.541 212.833 135.704 212.556 135.827 212.163L135.954 211.756L133.421 204.907H134.602L136.709 211.229L136.271 210.538H136.792L136.354 211.229L138.455 204.907H139.616L136.944 212.169C136.758 212.681 136.561 213.081 136.354 213.369C136.146 213.656 135.903 213.857 135.624 213.972C135.348 214.09 135.008 214.149 134.602 214.149ZM147.544 211.871C146.897 211.871 146.336 211.729 145.862 211.445C145.393 211.158 145.029 210.749 144.771 210.22C144.517 209.691 144.39 209.063 144.39 208.335V208.322C144.39 207.59 144.517 206.96 144.771 206.431C145.029 205.902 145.393 205.495 145.862 205.212C146.336 204.928 146.897 204.787 147.544 204.787C148.196 204.787 148.757 204.928 149.227 205.212C149.696 205.495 150.058 205.902 150.312 206.431C150.57 206.96 150.699 207.59 150.699 208.322V208.335C150.699 209.063 150.57 209.691 150.312 210.22C150.058 210.749 149.696 211.158 149.227 211.445C148.757 211.729 148.196 211.871 147.544 211.871ZM147.544 210.893C147.976 210.893 148.342 210.792 148.643 210.588C148.943 210.385 149.172 210.093 149.328 209.712C149.489 209.332 149.569 208.872 149.569 208.335V208.322C149.569 207.781 149.489 207.319 149.328 206.938C149.172 206.558 148.943 206.268 148.643 206.069C148.342 205.866 147.976 205.764 147.544 205.764C147.113 205.764 146.747 205.866 146.446 206.069C146.146 206.268 145.915 206.558 145.754 206.938C145.598 207.319 145.52 207.781 145.52 208.322V208.335C145.52 208.872 145.598 209.332 145.754 209.712C145.915 210.093 146.146 210.385 146.446 210.588C146.747 210.792 147.113 210.893 147.544 210.893ZM152.413 211.75V204.907H153.518V205.923H153.619C153.75 205.563 153.972 205.284 154.286 205.085C154.599 204.886 154.986 204.787 155.447 204.787C155.553 204.787 155.657 204.793 155.758 204.806C155.864 204.814 155.944 204.823 156 204.831V205.904C155.885 205.883 155.773 205.868 155.663 205.859C155.557 205.847 155.443 205.84 155.32 205.84C154.969 205.84 154.658 205.91 154.387 206.05C154.116 206.189 153.903 206.384 153.746 206.634C153.594 206.883 153.518 207.175 153.518 207.51V211.75H152.413ZM161.021 211.75V204.907H162.125V205.936H162.227C162.4 205.572 162.65 205.29 162.976 205.091C163.301 204.888 163.716 204.787 164.22 204.787C164.99 204.787 165.58 205.007 165.991 205.447C166.405 205.883 166.613 206.507 166.613 207.319V211.75H165.508V207.586C165.508 206.968 165.377 206.511 165.115 206.215C164.857 205.914 164.455 205.764 163.909 205.764C163.545 205.764 163.229 205.842 162.963 205.999C162.696 206.156 162.489 206.378 162.341 206.666C162.197 206.953 162.125 207.298 162.125 207.7V211.75H161.021ZM168.638 211.75V204.907H169.742V211.75H168.638ZM169.196 203.587C168.989 203.587 168.809 203.513 168.657 203.365C168.509 203.212 168.435 203.033 168.435 202.825C168.435 202.614 168.509 202.434 168.657 202.286C168.809 202.138 168.989 202.063 169.196 202.063C169.408 202.063 169.588 202.138 169.736 202.286C169.884 202.434 169.958 202.614 169.958 202.825C169.958 203.033 169.884 203.212 169.736 203.365C169.588 203.513 169.408 203.587 169.196 203.587ZM174.643 214.162C174.092 214.162 173.612 214.084 173.202 213.927C172.791 213.775 172.463 213.557 172.218 213.273C171.977 212.994 171.826 212.668 171.767 212.296L171.78 212.29H172.922L172.929 212.296C172.988 212.554 173.166 212.766 173.462 212.931C173.758 213.1 174.152 213.185 174.643 213.185C175.256 213.185 175.734 213.045 176.077 212.766C176.424 212.491 176.598 212.101 176.598 211.598V210.214H176.496C176.352 210.464 176.172 210.677 175.957 210.855C175.741 211.033 175.497 211.168 175.227 211.261C174.956 211.35 174.664 211.395 174.351 211.395C173.762 211.395 173.252 211.255 172.821 210.976C172.393 210.692 172.063 210.303 171.831 209.808C171.598 209.312 171.481 208.745 171.481 208.106V208.094C171.481 207.455 171.598 206.888 171.831 206.393C172.068 205.893 172.402 205.502 172.833 205.218C173.265 204.931 173.779 204.787 174.376 204.787C174.698 204.787 174.994 204.837 175.265 204.939C175.535 205.041 175.775 205.184 175.982 205.371C176.194 205.557 176.369 205.779 176.509 206.037H176.585V204.907H177.689V211.655C177.689 212.163 177.565 212.605 177.315 212.981C177.069 213.358 176.718 213.648 176.261 213.851C175.804 214.058 175.265 214.162 174.643 214.162ZM174.592 210.417C175.015 210.417 175.377 210.32 175.677 210.125C175.982 209.926 176.215 209.653 176.375 209.306C176.541 208.959 176.623 208.559 176.623 208.106V208.094C176.623 207.641 176.541 207.239 176.375 206.888C176.215 206.536 175.982 206.261 175.677 206.062C175.377 205.864 175.015 205.764 174.592 205.764C174.169 205.764 173.809 205.864 173.513 206.062C173.221 206.261 172.996 206.536 172.84 206.888C172.688 207.239 172.611 207.641 172.611 208.094V208.106C172.611 208.559 172.688 208.959 172.84 209.306C172.996 209.653 173.221 209.926 173.513 210.125C173.809 210.32 174.169 210.417 174.592 210.417ZM179.81 211.75V202.19H180.914V205.936H181.016C181.189 205.572 181.439 205.29 181.765 205.091C182.09 204.888 182.505 204.787 183.009 204.787C183.521 204.787 183.955 204.886 184.31 205.085C184.666 205.28 184.936 205.565 185.123 205.942C185.309 206.319 185.402 206.778 185.402 207.319V211.75H184.297V207.586C184.297 206.968 184.166 206.511 183.904 206.215C183.646 205.914 183.244 205.764 182.698 205.764C182.334 205.764 182.019 205.842 181.752 205.999C181.485 206.156 181.278 206.378 181.13 206.666C180.986 206.953 180.914 207.298 180.914 207.7V211.75H179.81ZM189.833 211.801C189.13 211.801 188.62 211.659 188.303 211.375C187.99 211.092 187.833 210.624 187.833 209.973V205.821H186.754V204.907H187.833V203.136H188.976V204.907H190.474V205.821H188.976V209.693C188.976 210.095 189.052 210.385 189.204 210.563C189.356 210.736 189.61 210.823 189.966 210.823C190.063 210.823 190.146 210.821 190.213 210.817C190.285 210.813 190.372 210.806 190.474 210.798V211.737C190.368 211.754 190.262 211.769 190.156 211.782C190.05 211.794 189.943 211.801 189.833 211.801Z" fill="#FFFCF5" fill-opacity="0.9"/>
</g>
<defs>
<clipPath id="clip0_612_7167">
<path d="M0 30C0 13.4315 13.4315 0 30 0H332C348.569 0 362 13.4315 362 30V210C362 226.569 348.569 240 332 240H30C13.4315 240 0 226.569 0 210V30Z" fill="white"/>
</clipPath>
</defs>
</svg>
