<svg width="177" height="115" viewBox="0 0 177 115" fill="none" xmlns="http://www.w3.org/2000/svg">
<path d="M95.5 97.5001L32.377 138.739V122.221C32.377 96.3993 56.5571 67.0354 87.5518 67.0354H89.4463C120.441 67.0354 144 91.6783 144 117.5L95.5 97.5001Z" fill="#FFC2E6"/>
<path d="M88.4999 10.8062L98.1267 40.4637H129.277L104.076 58.7928L113.701 88.4504L88.4999 70.1213L63.2987 88.4504L72.9238 58.7928L47.7227 40.4637H78.873L88.4999 10.8062Z" fill="#FE87EB"/>
<path d="M88.4991 59.2997C94.015 59.2997 98.4865 55.8129 98.4865 51.5117C98.4865 47.2105 94.015 43.7236 88.4991 43.7236C82.9832 43.7236 78.5117 47.2105 78.5117 51.5117C78.5117 55.8129 82.9832 59.2997 88.4991 59.2997Z" fill="#FFC2E6"/>
<path d="M88.4995 48.5027C88.4995 51.8266 86.8541 54.5205 84.8235 54.5205C82.7929 54.5205 81.1475 51.8266 81.1475 48.5027" fill="#B20202"/>
<path d="M88.5009 92.678C69.6537 92.678 54.376 106.421 54.376 123.376V267.513H84.743V161.691C84.743 159.824 86.4261 158.311 88.5009 158.311C90.5758 158.311 92.2589 159.824 92.2589 161.691V267.513H122.626V123.376C122.626 106.421 107.348 92.678 88.5009 92.678Z" fill="#69E093"/>
<mask id="mask0_881_7858" style="mask-type:luminance" maskUnits="userSpaceOnUse" x="54" y="92" width="69" height="176">
<path d="M88.5029 92.6775C69.6557 92.6775 54.3779 106.421 54.3779 123.375V267.512H84.7449V161.69C84.7449 159.823 86.428 158.311 88.5029 158.311C90.5777 158.311 92.2608 159.823 92.2608 161.69V267.512H122.628V123.375C122.628 106.421 107.35 92.6775 88.5029 92.6775Z" fill="white"/>
</mask>
<g mask="url(#mask0_881_7858)">
<path d="M129.603 105.639C136.754 105.639 142.551 99.8359 142.551 92.6777C142.551 85.5196 136.754 79.7168 129.603 79.7168C122.453 79.7168 116.656 85.5196 116.656 92.6777C116.656 99.8359 122.453 105.639 129.603 105.639Z" fill="#465AE1"/>
<path d="M129.603 131.561C136.754 131.561 142.551 125.758 142.551 118.6C142.551 111.441 136.754 105.639 129.603 105.639C122.453 105.639 116.656 111.441 116.656 118.6C116.656 125.758 122.453 131.561 129.603 131.561Z" fill="#465AE1"/>
<path d="M103.842 116.048C110.992 116.048 116.789 110.246 116.789 103.087C116.789 95.9293 110.992 90.1265 103.842 90.1265C96.6912 90.1265 90.8945 95.9293 90.8945 103.087C90.8945 110.246 96.6912 116.048 103.842 116.048Z" fill="#465AE1"/>
<path d="M50.913 103.089C58.0636 103.089 63.8603 97.2863 63.8603 90.1282C63.8603 82.97 58.0636 77.1672 50.913 77.1672C43.7625 77.1672 37.9658 82.97 37.9658 90.1282C37.9658 97.2863 43.7625 103.089 50.913 103.089Z" fill="#465AE1"/>
<path d="M50.913 129.009C58.0636 129.009 63.8603 123.206 63.8603 116.048C63.8603 108.89 58.0636 103.087 50.913 103.087C43.7625 103.087 37.9658 108.89 37.9658 116.048C37.9658 123.206 43.7625 129.009 50.913 129.009Z" fill="#465AE1"/>
<path d="M77.5732 116.049C84.7238 116.049 90.5204 110.246 90.5204 103.088C90.5204 95.9295 84.7238 90.1267 77.5732 90.1267C70.4226 90.1267 64.626 95.9295 64.626 103.088C64.626 110.246 70.4226 116.049 77.5732 116.049Z" fill="#465AE1"/>
</g>
<path d="M136.201 108.258L101.464 77.3733L104.581 93.9265C105.723 107.401 119.663 121.651 135.865 120.277L140.187 119.91C156.389 118.536 114.274 97.1377 113.131 83.6637L136.201 108.258Z" fill="#FFC2E6"/>
<path d="M60.7813 98.9936L40.5935 123.12L52.3509 106.684L64.1084 90.2475C63.6488 92.9134 62.4533 95.8774 60.7813 98.9936L75.0004 82.0001L69.6695 104.471C66.5095 122.801 55.3167 125.624 52.3509 129.5L34.5541 140.096C24.6804 140.869 50.9571 117.304 60.7813 98.9936Z" fill="#FFC2E6"/>
<path d="M80.8633 111.246C79.1836 111.246 77.8229 110.751 76.7812 109.762C75.7526 108.785 75.2383 107.483 75.2383 105.855V73.9023C75.2383 72.2878 75.7526 70.9857 76.7812 69.9961C77.8229 69.0065 79.1836 68.5117 80.8633 68.5117H96.2344C97.901 68.5117 99.2357 69.0065 100.238 69.9961C101.254 70.9857 101.762 72.2878 101.762 73.9023V105.855C101.762 107.47 101.254 108.772 100.238 109.762C99.2357 110.751 97.901 111.246 96.2344 111.246H80.8633ZM81.2344 81.3047H85.6094C86.3385 81.3047 86.9049 81.1094 87.3086 80.7188C87.7253 80.3281 87.9336 79.8008 87.9336 79.1367V74.4688C87.9336 73.7917 87.7253 73.2578 87.3086 72.8672C86.9049 72.4766 86.3385 72.2812 85.6094 72.2812H81.2344C80.5182 72.2812 79.9518 72.4766 79.5352 72.8672C79.1315 73.2578 78.9297 73.7917 78.9297 74.4688V79.1367C78.9297 79.8008 79.1315 80.3281 79.5352 80.7188C79.9518 81.1094 80.5182 81.3047 81.2344 81.3047Z" fill="#4A2E6E"/>
<path d="M97.5719 82.8416C95.7186 79.4739 96.6953 77.2342 98.7859 76.0837C100.877 74.9333 103.291 75.3067 105.145 78.6744C106.267 80.714 106.16 83.8066 105.9 85.9288C105.749 87.1695 104.425 87.898 103.296 87.3621C101.364 86.4457 98.6943 84.8812 97.5719 82.8416Z" fill="#B20202"/>
<path d="M69.2629 89.0917C71.7408 86.153 74.1819 86.2606 76.0062 87.7988C77.8304 89.337 78.3488 91.7248 75.8709 94.6635C74.3702 96.4433 71.4453 97.4536 69.3714 97.9733C68.1591 98.2772 67.0038 97.3032 67.0986 96.0569C67.2605 93.925 67.7622 90.8715 69.2629 89.0917Z" fill="#B20202"/>
<rect x="79" y="72" width="9" height="10" rx="2" fill="#F0F0F0"/>
</svg>
