<svg width="173" height="115" viewBox="0 0 173 115" fill="none" xmlns="http://www.w3.org/2000/svg">
<path d="M93.342 101.889L31.6455 142.211V126.06C31.6455 100.812 55.2792 72.1011 85.5734 72.1011H87.4252C117.719 72.1011 143.19 100.812 143.19 126.06L93.342 101.889Z" fill="#FFC2E6"/>
<path d="M86.5002 17.1216L95.9095 46.1201H126.356L101.724 64.0418L111.132 93.0404L86.5002 75.1186L61.8685 93.0404L71.2762 64.0418L46.6445 46.1201H77.0909L86.5002 17.1216Z" fill="#FE87EB"/>
<path d="M86.499 64.5376C91.8902 64.5376 96.2607 61.1282 96.2607 56.9226C96.2607 52.717 91.8902 49.3076 86.499 49.3076C81.1078 49.3076 76.7373 52.717 76.7373 56.9226C76.7373 61.1282 81.1078 64.5376 86.499 64.5376Z" fill="#FFC2E6"/>
<path d="M86.4994 53.9805C86.4994 57.2305 84.8911 59.8646 82.9064 59.8646C80.9217 59.8646 79.3135 57.2305 79.3135 53.9805" fill="#B20202"/>
<path d="M86.5002 97.1741C68.0789 97.1741 53.1465 110.612 53.1465 127.19V268.124H82.8272V164.653C82.8272 162.828 84.4723 161.349 86.5002 161.349C88.5282 161.349 90.1733 162.828 90.1733 164.653V268.124H119.854V127.19C119.854 110.612 104.922 97.1741 86.5002 97.1741Z" fill="#69E093"/>
<mask id="mask0_881_8364" style="mask-type:luminance" maskUnits="userSpaceOnUse" x="53" y="97" width="67" height="172">
<path d="M86.5022 97.1736C68.0809 97.1736 53.1484 110.612 53.1484 127.189V268.123H82.8291V164.653C82.8291 162.827 84.4743 161.348 86.5022 161.348C88.5301 161.348 90.1752 162.827 90.1752 164.653V268.123H119.856V127.189C119.856 110.612 104.923 97.1736 86.5022 97.1736Z" fill="white"/>
</mask>
<g mask="url(#mask0_881_8364)">
<path d="M126.674 109.847C133.663 109.847 139.329 104.173 139.329 97.1736C139.329 90.1746 133.663 84.5007 126.674 84.5007C119.685 84.5007 114.02 90.1746 114.02 97.1736C114.02 104.173 119.685 109.847 126.674 109.847Z" fill="#465AE1"/>
<path d="M126.674 135.193C133.663 135.193 139.329 129.519 139.329 122.52C139.329 115.521 133.663 109.847 126.674 109.847C119.685 109.847 114.02 115.521 114.02 122.52C114.02 129.519 119.685 135.193 126.674 135.193Z" fill="#465AE1"/>
<path d="M101.494 120.025C108.483 120.025 114.149 114.351 114.149 107.352C114.149 100.353 108.483 94.6792 101.494 94.6792C94.5055 94.6792 88.8398 100.353 88.8398 107.352C88.8398 114.351 94.5055 120.025 101.494 120.025Z" fill="#465AE1"/>
<path d="M49.7621 107.354C56.751 107.354 62.4167 101.68 62.4167 94.6807C62.4167 87.6817 56.751 82.0078 49.7621 82.0078C42.7731 82.0078 37.1074 87.6817 37.1074 94.6807C37.1074 101.68 42.7731 107.354 49.7621 107.354Z" fill="#465AE1"/>
<path d="M49.7621 132.698C56.751 132.698 62.4167 127.024 62.4167 120.025C62.4167 113.026 56.751 107.352 49.7621 107.352C42.7731 107.352 37.1074 113.026 37.1074 120.025C37.1074 127.024 42.7731 132.698 49.7621 132.698Z" fill="#465AE1"/>
<path d="M75.8197 120.025C82.8086 120.025 88.4743 114.351 88.4743 107.352C88.4743 100.353 82.8086 94.6792 75.8197 94.6792C68.8307 94.6792 63.165 100.353 63.165 107.352C63.165 114.351 68.8307 120.025 75.8197 120.025Z" fill="#465AE1"/>
</g>
<path d="M137.167 104.032L117.289 83.311L113.379 80.3777C113.379 104.703 132.927 118.511 138.791 120.467L143.19 126.333C157.362 123.889 134.723 89.5478 134.723 65.2221L129.995 76.4666C129.995 76.4666 130.483 82.3333 131.461 90.1555C132.438 97.9777 137.167 104.032 137.167 104.032Z" fill="#FFC2E6"/>
<g clip-path="url(#clip0_881_8364)">
<path d="M130.378 47.9229C140.974 41.6457 151.902 52.9614 162.52 47.9022C162.644 47.8442 162.781 47.8181 162.917 47.8263C163.053 47.8346 163.186 47.8768 163.302 47.9493C163.418 48.0218 163.514 48.1222 163.581 48.2413C163.648 48.3605 163.685 48.4945 163.687 48.6314L164.072 69.0117C164.076 69.1604 164.039 69.3073 163.965 69.4366C163.892 69.5659 163.784 69.6727 163.655 69.7454C152.812 75.6871 141.631 63.7137 130.798 70.1319L130.378 47.9229Z" fill="#FF4D4D"/>
<path d="M130.447 51.6244C141.423 45.1219 152.755 57.4971 163.731 50.9947L164.071 69.0116C164.075 69.1604 164.038 69.3073 163.965 69.4366C163.891 69.5659 163.784 69.6726 163.654 69.7454C152.812 75.6871 141.631 63.7136 130.797 70.1318L130.447 51.6244Z" fill="#FF9100"/>
<path d="M130.518 55.3258C141.493 48.8233 152.826 61.1985 163.801 54.6961L164.072 69.0116C164.075 69.1603 164.039 69.3072 163.965 69.4365C163.891 69.5658 163.784 69.6725 163.654 69.7453C152.812 75.687 141.631 63.7135 130.798 70.1318L130.518 55.3258Z" fill="#FABE2C"/>
<path d="M130.588 59.0272C141.564 52.5248 152.896 64.8999 163.871 58.3975L164.072 69.0115C164.076 69.1602 164.039 69.3071 163.965 69.4364C163.892 69.5657 163.784 69.6725 163.655 69.7452C152.812 75.687 141.631 63.7135 130.798 70.1317L130.588 59.0272Z" fill="#59C36A"/>
<path d="M130.657 62.7289C141.633 56.2264 152.965 68.6016 163.941 62.0991L164.071 69.0116C164.075 69.1604 164.038 69.3073 163.965 69.4366C163.891 69.5659 163.784 69.6726 163.654 69.7454C152.812 75.6871 141.631 63.7136 130.797 70.1318L130.657 62.7289Z" fill="#6AA8FF"/>
<path d="M130.728 66.4303C141.703 59.9278 153.036 72.303 164.011 65.8006L164.072 69.0116C164.075 69.1603 164.039 69.3072 163.965 69.4365C163.891 69.5658 163.784 69.6726 163.654 69.7453C152.812 75.687 141.631 63.7136 130.798 70.1318L130.728 66.4303Z" fill="#7984EC"/>
<path d="M131.935 44.2077L132.346 44.1999C132.781 44.1917 133.203 44.3571 133.517 44.6598C133.831 44.9624 134.012 45.3776 134.02 45.8139L134.533 72.9582C134.538 73.1764 134.455 73.3872 134.304 73.5444C134.153 73.7016 133.945 73.7922 133.727 73.7963L131.673 73.8352C131.455 73.8393 131.244 73.7566 131.087 73.6052C130.93 73.4539 130.839 73.2463 130.835 73.0282L130.322 45.8839C130.314 45.4476 130.479 45.0259 130.782 44.7115C131.084 44.3972 131.499 44.2159 131.935 44.2077Z" fill="#BC572A"/>
</g>
<path d="M129.433 75.5275C128.658 71.8498 130.209 70.0327 132.492 69.5516C134.774 69.0704 136.926 70.107 137.7 73.7846C138.169 76.012 137.189 78.8743 136.342 80.7856C135.847 81.903 134.402 82.2077 133.498 81.385C131.953 79.9781 129.902 77.7548 129.433 75.5275Z" fill="#B20202"/>
<defs>
<clipPath id="clip0_881_8364">
<rect width="33.3066" height="29.6172" fill="white" transform="matrix(0.999821 -0.0189162 0.0189016 0.999821 129.994 44.3411)"/>
</clipPath>
</defs>
</svg>
