<svg width="177" height="115" viewBox="0 0 177 115" fill="none" xmlns="http://www.w3.org/2000/svg">
<path d="M95.5 100.5L32.377 141.739V125.221C32.377 99.3992 56.5571 70.0353 87.5518 70.0353H89.4463C120.441 70.0353 144 94.6782 144 120.5L95.5 100.5Z" fill="#FFC2E6"/>
<path d="M88.4999 13.8062L98.1267 43.4637H129.277L104.076 61.7928L113.701 91.4504L88.4999 73.1213L63.2987 91.4504L72.9238 61.7928L47.7227 43.4637H78.873L88.4999 13.8062Z" fill="#FE87EB"/>
<path d="M88.4991 62.2997C94.015 62.2997 98.4865 58.8129 98.4865 54.5117C98.4865 50.2105 94.015 46.7236 88.4991 46.7236C82.9832 46.7236 78.5117 50.2105 78.5117 54.5117C78.5117 58.8129 82.9832 62.2997 88.4991 62.2997Z" fill="#FFC2E6"/>
<path d="M88.4995 51.5028C88.4995 54.8267 86.8541 57.5206 84.8235 57.5206C82.7929 57.5206 81.1475 54.8267 81.1475 51.5028" fill="#B20202"/>
<path d="M88.5009 95.6779C69.6537 95.6779 54.376 109.421 54.376 126.376V270.513H84.743V164.691C84.743 162.824 86.4261 161.311 88.5009 161.311C90.5758 161.311 92.2589 162.824 92.2589 164.691V270.513H122.626V126.376C122.626 109.421 107.348 95.6779 88.5009 95.6779Z" fill="#69E093"/>
<mask id="mask0_881_7579" style="mask-type:luminance" maskUnits="userSpaceOnUse" x="54" y="95" width="69" height="176">
<path d="M88.5029 95.6775C69.6557 95.6775 54.3779 109.421 54.3779 126.375V270.512H84.7449V164.69C84.7449 162.823 86.428 161.311 88.5029 161.311C90.5777 161.311 92.2608 162.823 92.2608 164.69V270.512H122.628V126.375C122.628 109.421 107.35 95.6775 88.5029 95.6775Z" fill="white"/>
</mask>
<g mask="url(#mask0_881_7579)">
<path d="M129.603 108.639C136.754 108.639 142.551 102.836 142.551 95.6777C142.551 88.5196 136.754 82.7168 129.603 82.7168C122.453 82.7168 116.656 88.5196 116.656 95.6777C116.656 102.836 122.453 108.639 129.603 108.639Z" fill="#465AE1"/>
<path d="M129.603 134.561C136.754 134.561 142.551 128.758 142.551 121.6C142.551 114.441 136.754 108.639 129.603 108.639C122.453 108.639 116.656 114.441 116.656 121.6C116.656 128.758 122.453 134.561 129.603 134.561Z" fill="#465AE1"/>
<path d="M103.842 119.048C110.992 119.048 116.789 113.246 116.789 106.088C116.789 98.9294 110.992 93.1266 103.842 93.1266C96.6912 93.1266 90.8945 98.9294 90.8945 106.088C90.8945 113.246 96.6912 119.048 103.842 119.048Z" fill="#465AE1"/>
<path d="M50.913 106.089C58.0636 106.089 63.8603 100.286 63.8603 93.1282C63.8603 85.97 58.0636 80.1672 50.913 80.1672C43.7625 80.1672 37.9658 85.97 37.9658 93.1282C37.9658 100.286 43.7625 106.089 50.913 106.089Z" fill="#465AE1"/>
<path d="M50.913 132.009C58.0636 132.009 63.8603 126.207 63.8603 119.048C63.8603 111.89 58.0636 106.088 50.913 106.088C43.7625 106.088 37.9658 111.89 37.9658 119.048C37.9658 126.207 43.7625 132.009 50.913 132.009Z" fill="#465AE1"/>
<path d="M77.5732 119.048C84.7238 119.048 90.5204 113.246 90.5204 106.088C90.5204 98.9294 84.7238 93.1266 77.5732 93.1266C70.4226 93.1266 64.626 98.9294 64.626 106.088C64.626 113.246 70.4226 119.048 77.5732 119.048Z" fill="#465AE1"/>
</g>
<path d="M106.655 70.6621C108.603 68.4514 110.33 66.1634 111.837 63.7979C113.332 61.4332 114.489 59.0965 115.308 56.7875C116.115 54.4795 116.454 52.3183 116.327 50.3041C116.242 48.9656 115.936 47.7325 115.408 46.6047C114.866 45.4647 114.126 44.4939 113.189 43.6921C112.527 43.1338 111.785 42.6458 110.963 42.2281C110.128 41.8112 109.359 41.6249 108.657 41.6693C108.073 41.7063 107.539 41.9292 107.056 42.3381C106.573 42.747 106.101 43.3313 105.64 44.0911L102.369 49.3079C101.989 49.893 101.735 50.4244 101.609 50.9021C101.482 51.3667 101.431 51.8005 101.456 52.2033C101.48 52.5802 101.56 52.9209 101.697 53.2253C101.821 53.5306 102.027 53.9025 102.315 54.3409L104.438 57.5728C104.525 57.7108 104.599 57.8496 104.66 57.9893C104.721 58.1289 104.756 58.2702 104.765 58.4132C104.776 58.5951 104.761 58.7657 104.719 58.9249C104.676 59.0711 104.632 59.1979 104.586 59.3051C103.789 61.1429 102.454 63.1387 100.581 65.2925C99.6309 66.3572 98.6553 67.3321 97.6545 68.2174C96.6537 69.1026 95.7554 69.753 94.9598 70.1686C94.7584 70.2857 94.5814 70.3752 94.4288 70.4371C94.2753 70.4859 94.1011 70.5165 93.9062 70.5288C93.7632 70.5379 93.6325 70.5331 93.5139 70.5145C93.3814 70.4837 93.2011 70.4168 92.9728 70.3139L89.5652 68.7289C88.9867 68.4523 88.5321 68.2788 88.2015 68.2084C87.8579 68.1388 87.5171 68.1147 87.1793 68.1361C86.7894 68.1607 86.4167 68.2495 86.061 68.4025C85.7054 68.5554 85.2171 68.8799 84.5961 69.3758L79.6283 73.4474C78.9708 73.9847 78.5061 74.4773 78.2344 74.925C77.9496 75.3735 77.822 75.8317 77.8516 76.2995C77.8878 76.8713 78.1234 77.5022 78.5584 78.1923C78.9804 78.8832 79.6023 79.6397 80.4241 80.4619C81.2995 81.3068 82.3514 81.9513 83.5798 82.3955C84.809 82.8527 86.1318 83.0365 87.5482 82.947C89.5625 82.8196 91.6758 82.1967 93.8883 81.0783C96.0886 79.9737 98.2793 78.5109 100.46 76.69C102.629 74.8828 104.694 72.8735 106.655 70.6621Z" fill="#68655E"/>
<path d="M138.5 108L101 68.5L103 88.136C103 103.981 117.864 122 136.918 122H142C161.053 122 114 92.8452 114 77L138.5 108Z" fill="#FFC2E6"/>
<path d="M100.572 72.8415C98.7186 69.4738 99.6953 67.234 101.786 66.0836C103.877 64.9331 106.291 65.3065 108.145 68.6743C109.267 70.7139 109.16 73.8065 108.9 75.9286C108.749 77.1693 107.425 77.8978 106.296 77.362C104.364 76.4456 101.694 74.8811 100.572 72.8415Z" fill="#B20202"/>
</svg>
