<svg width="173" height="115" viewBox="0 0 173 115" fill="none" xmlns="http://www.w3.org/2000/svg">
<path d="M140.338 106.692L120 85.5L116 82.5C116 107.379 136 121.5 142 123.5L146.5 129.5C161 127 137.838 91.8785 137.838 67L133 78.5C133 78.5 133.5 84.5 134.5 92.5C135.5 100.5 140.338 106.692 140.338 106.692Z" fill="#FFC2E6"/>
<path d="M95.5 104.5L32.377 145.739V129.221C32.377 103.399 56.5571 74.0354 87.5518 74.0354H89.4463C120.441 74.0354 146.5 103.399 146.5 129.221L95.5 104.5Z" fill="#FFC2E6"/>
<path d="M88.4999 17.8062L98.1267 47.4637H129.277L104.076 65.7928L113.701 95.4504L88.4999 77.1213L63.2987 95.4504L72.9238 65.7928L47.7227 47.4637H78.873L88.4999 17.8062Z" fill="#FE87EB"/>
<path d="M88.4991 66.2997C94.015 66.2997 98.4865 62.8129 98.4865 58.5117C98.4865 54.2105 94.015 50.7236 88.4991 50.7236C82.9832 50.7236 78.5117 54.2105 78.5117 58.5117C78.5117 62.8129 82.9832 66.2997 88.4991 66.2997Z" fill="#FFC2E6"/>
<path d="M88.4995 55.5027C88.4995 58.8266 86.8541 61.5205 84.8235 61.5205C82.7929 61.5205 81.1475 58.8266 81.1475 55.5027" fill="#B20202"/>
<path d="M150.986 61.4806L150.363 61.4329C143.264 60.88 135.939 56.2798 135.87 56.2389L135.5 56L135.13 56.2389C135.061 56.2798 127.736 60.88 120.637 61.4329L120.014 61.4806L120 62.1018C120 62.2792 119.911 79.7586 135.151 88.7953L135.5 89L135.849 88.7953C151.089 79.7586 151 62.2792 151 62.1018L150.986 61.4806Z" fill="#FFD719"/>
<path d="M88.5009 99.678C69.6537 99.678 54.376 113.421 54.376 130.376V274.513H84.743V168.691C84.743 166.824 86.4261 165.311 88.5009 165.311C90.5758 165.311 92.2589 166.824 92.2589 168.691V274.513H122.626V130.376C122.626 113.421 107.348 99.678 88.5009 99.678Z" fill="#69E093"/>
<mask id="mask0_881_8604" style="mask-type:luminance" maskUnits="userSpaceOnUse" x="54" y="99" width="69" height="176">
<path d="M88.5029 99.6775C69.6557 99.6775 54.3779 113.421 54.3779 130.375V274.512H84.7449V168.69C84.7449 166.823 86.428 165.311 88.5029 165.311C90.5777 165.311 92.2608 166.823 92.2608 168.69V274.512H122.628V130.375C122.628 113.421 107.35 99.6775 88.5029 99.6775Z" fill="white"/>
</mask>
<g mask="url(#mask0_881_8604)">
<path d="M129.603 112.639C136.754 112.639 142.551 106.836 142.551 99.6777C142.551 92.5196 136.754 86.7168 129.603 86.7168C122.453 86.7168 116.656 92.5196 116.656 99.6777C116.656 106.836 122.453 112.639 129.603 112.639Z" fill="#465AE1"/>
<path d="M129.603 138.561C136.754 138.561 142.551 132.758 142.551 125.6C142.551 118.441 136.754 112.639 129.603 112.639C122.453 112.639 116.656 118.441 116.656 125.6C116.656 132.758 122.453 138.561 129.603 138.561Z" fill="#465AE1"/>
<path d="M103.842 123.048C110.992 123.048 116.789 117.246 116.789 110.087C116.789 102.929 110.992 97.1265 103.842 97.1265C96.6912 97.1265 90.8945 102.929 90.8945 110.087C90.8945 117.246 96.6912 123.048 103.842 123.048Z" fill="#465AE1"/>
<path d="M50.913 110.089C58.0636 110.089 63.8603 104.286 63.8603 97.1282C63.8603 89.97 58.0636 84.1672 50.913 84.1672C43.7625 84.1672 37.9658 89.97 37.9658 97.1282C37.9658 104.286 43.7625 110.089 50.913 110.089Z" fill="#465AE1"/>
<path d="M50.913 136.009C58.0636 136.009 63.8603 130.206 63.8603 123.048C63.8603 115.89 58.0636 110.087 50.913 110.087C43.7625 110.087 37.9658 115.89 37.9658 123.048C37.9658 130.206 43.7625 136.009 50.913 136.009Z" fill="#465AE1"/>
<path d="M77.5732 123.049C84.7238 123.049 90.5204 117.246 90.5204 110.088C90.5204 102.93 84.7238 97.1267 77.5732 97.1267C70.4226 97.1267 64.626 102.93 64.626 110.088C64.626 117.246 70.4226 123.049 77.5732 123.049Z" fill="#465AE1"/>
</g>
<path d="M132.1 85.0027C131.307 81.2413 132.894 79.383 135.229 78.891C137.564 78.3991 139.765 79.4594 140.557 83.2208C141.037 85.4988 140.035 88.4263 139.168 90.3809C138.662 91.5238 137.184 91.8353 136.259 90.9938C134.678 89.5547 132.58 87.2807 132.1 85.0027Z" fill="#B20202"/>
</svg>
