<svg width="402" height="249" viewBox="0 0 402 249" fill="none" xmlns="http://www.w3.org/2000/svg">
<path d="M49.5 121L57.9135 154.121L89.1932 140.017L68.4088 167.207L99 182.735L64.6628 183.528L71.5313 217L49.5 190.791L27.4687 217L34.3372 183.528L0 182.735L30.5912 167.207L9.80134 140.017L41.0865 154.121L49.5 121Z" fill="#7385FF"/>
<path d="M390.16 237.16C396.699 230.622 385.81 209.131 365.84 189.16C345.869 169.19 324.378 158.301 317.84 164.84C311.301 171.378 322.19 192.869 342.16 212.84C362.131 232.81 383.622 243.699 390.16 237.16Z" fill="#7385FF"/>
<path d="M365.84 212.84C385.81 192.869 396.699 171.378 390.16 164.84C383.622 158.301 362.131 169.19 342.16 189.16C322.19 209.131 311.301 230.622 317.84 237.16C324.378 243.699 345.869 232.81 365.84 212.84Z" fill="#7385FF"/>
<path d="M206.16 52.1604C212.699 45.6216 201.81 24.1313 181.84 4.16042C161.869 -15.8104 140.378 -26.6992 133.84 -20.1604C127.301 -13.6216 138.19 7.86873 158.16 27.8396C178.131 47.8104 199.622 58.6992 206.16 52.1604Z" fill="#7385FF"/>
<path d="M181.84 27.8396C201.81 7.86873 212.699 -13.6216 206.16 -20.1604C199.622 -26.6992 178.131 -15.8104 158.16 4.16042C138.19 24.1313 127.301 45.6216 133.84 52.1604C140.378 58.6992 161.869 47.8104 181.84 27.8396Z" fill="#7385FF"/>
<path d="M369.5 -24L377.914 9.12148L409.193 -4.98332L388.409 22.2072L419 37.7355L384.663 38.5281L391.531 72L369.5 45.7907L347.469 72L354.337 38.5281L320 37.7355L350.591 22.2072L329.801 -4.98332L361.086 9.12148L369.5 -24Z" fill="#7385FF"/>
</svg>
