<svg width="402" height="217" viewBox="0 0 402 217" fill="none" xmlns="http://www.w3.org/2000/svg">
<path d="M49.5 121L57.9135 154.121L89.1932 140.017L68.4088 167.207L99 182.735L64.6628 183.528L71.5313 217L49.5 190.791L27.4687 217L34.3372 183.528L0 182.735L30.5912 167.207L9.80134 140.017L41.0865 154.121L49.5 121Z" fill="#FFE567"/>
<path d="M206.16 52.1605C212.699 45.6216 201.81 24.1313 181.84 4.16046C161.869 -15.8104 140.378 -26.6992 133.84 -20.1604C127.301 -13.6216 138.19 7.86877 158.16 27.8396C178.131 47.8105 199.622 58.6993 206.16 52.1605Z" fill="#FFE567"/>
<path d="M181.84 27.8395C201.81 7.86868 212.699 -13.6216 206.16 -20.1605C199.622 -26.6993 178.131 -15.8105 158.16 4.16038C138.19 24.1312 127.301 45.6216 133.84 52.1604C140.378 58.6992 161.869 47.8104 181.84 27.8395Z" fill="#FFE567"/>
<path d="M369.5 -24L377.914 9.12148L409.193 -4.98332L388.409 22.2072L419 37.7355L384.663 38.5281L391.531 72L369.5 45.7907L347.469 72L354.337 38.5281L320 37.7355L350.591 22.2072L329.801 -4.98332L361.086 9.12148L369.5 -24Z" fill="#FFE567"/>
</svg>
