<svg width="72" height="72" viewBox="0 0 72 72" fill="none" xmlns="http://www.w3.org/2000/svg">
<rect x="0.5" y="0.5" width="71" height="71" rx="11.5" stroke="#3E3C3D" stroke-opacity="0.78" stroke-dasharray="4 4"/>
<path d="M28.8125 36.8184C28.5781 36.8184 28.373 36.7337 28.1973 36.5645C28.028 36.3952 27.9434 36.1901 27.9434 35.9492C27.9434 35.7083 28.028 35.5033 28.1973 35.334C28.373 35.1582 28.5781 35.0703 28.8125 35.0703H43.1875C43.4219 35.0703 43.6237 35.1582 43.793 35.334C43.9688 35.5033 44.0566 35.7083 44.0566 35.9492C44.0566 36.1901 43.9688 36.3952 43.793 36.5645C43.6237 36.7337 43.4219 36.8184 43.1875 36.8184H28.8125ZM36 44.0059C35.7591 44.0059 35.554 43.918 35.3848 43.7422C35.2155 43.5729 35.1309 43.3711 35.1309 43.1367V28.7617C35.1309 28.5273 35.2155 28.3255 35.3848 28.1562C35.554 27.9805 35.7591 27.8926 36 27.8926C36.2409 27.8926 36.446 27.9805 36.6152 28.1562C36.791 28.3255 36.8789 28.5273 36.8789 28.7617V43.1367C36.8789 43.3711 36.791 43.5729 36.6152 43.7422C36.446 43.918 36.2409 44.0059 36 44.0059Z" fill="#3E3C3D"/>
</svg>
