<svg width="175" height="393" viewBox="0 0 175 393" fill="none" xmlns="http://www.w3.org/2000/svg">
<g clip-path="url(#clip0_718_13137)">
<rect width="175" height="393" rx="30" fill="#FFAAC3"/>
<path d="M112.512 37.4872L113.921 42.4513L119.175 41.1349C144.014 34.8846 161.527 65.041 143.753 83.4604L139.858 87.5L143.753 91.5396C161.527 109.959 144.024 140.115 119.175 133.865L113.921 132.549L112.512 137.513C105.497 162.162 70.5028 162.162 63.4878 137.513L62.0788 132.549L56.8251 133.865C31.9858 140.115 14.4735 109.959 32.2475 91.5396L36.1424 87.5L32.2475 83.4604C14.4735 65.041 31.9757 34.8846 56.8251 41.1349L62.0788 42.4513L63.4878 37.4872C70.5028 12.8376 105.497 12.8376 112.512 37.4872Z" fill="#FF7B02"/>
<rect width="175" height="393" fill="#755D7B" fill-opacity="0.24"/>
<path d="M76.416 205.959C76.416 202.431 77.16 199.719 78.168 197.943H84.984C83.544 199.551 82.152 201.279 82.176 204.975C82.2 208.695 84.84 211.263 87.6 211.791L88.224 210.735C86.28 209.487 84.24 208.047 84.24 204.327C84.24 200.295 87.792 197.247 91.248 197.247C94.728 197.247 97.56 200.295 97.56 205.839C97.56 210.039 95.616 215.655 86.352 215.487C82.344 215.487 76.416 212.415 76.416 205.959ZM86.952 204.639C86.376 205.599 87.648 207.495 89.808 208.887C91.992 210.231 94.176 210.543 94.776 209.583C95.352 208.575 94.104 206.679 91.92 205.335C89.76 203.943 87.552 203.655 86.952 204.639ZM78 217.415H93.6V224.135L92.136 224.207C91.2 223.535 88.224 222.335 85.272 221.831L85.152 222.959C90.888 223.871 93.984 226.031 93.984 229.247C93.984 232.367 91.248 233.495 87.192 233.495V226.775C88.824 226.775 90.192 227.039 90.192 226.247C90.192 225.119 85.848 224.135 78 224.135V217.415ZM78.912 246.544C76.608 243.064 77.88 238.216 81.768 235.672C85.632 233.176 90.6 233.968 92.88 237.472C95.16 240.952 93.888 245.8 90.024 248.344C86.16 250.84 81.192 250.048 78.912 246.544ZM79.776 240.784C79.128 241.84 80.544 243.928 82.92 245.44C85.32 246.928 87.72 247.264 88.368 246.208C89.016 245.104 87.648 243.016 85.224 241.552C82.848 240.016 80.424 239.704 79.776 240.784ZM93.6 268.647H78V261.927L79.704 261.855C80.64 262.527 83.376 263.727 86.328 264.231L86.448 263.031C80.712 261.975 77.616 259.551 77.616 256.335C77.616 253.215 79.872 251.607 83.928 251.607H93.6V258.327H83.928C82.296 258.327 81.408 258.543 81.408 259.359C81.408 260.943 85.752 261.927 93.6 261.927V268.647ZM78 271.04H93.6V277.76L91.896 277.832C90.96 277.16 88.224 275.96 85.272 275.456L85.152 276.656C90.888 277.712 93.984 280.136 93.984 283.352C93.984 286.472 91.728 288.08 87.672 288.08H78V281.36H87.672C89.304 281.36 90.192 281.144 90.192 280.328C90.192 278.744 85.848 277.76 78 277.76V271.04ZM78 304.44H81.24C80.352 303.912 79.488 303.072 78.912 302.208C76.608 298.728 77.88 293.88 81.768 291.336C85.632 288.84 90.6 289.632 92.88 293.136C95.16 296.616 93.84 301.44 90.024 304.008C87.96 305.4 85.68 305.496 85.104 305.496L85.272 306.744C88.392 306.744 91.032 305.328 91.896 304.368L97.2 304.44V311.16H78V304.44ZM79.848 296.184C79.2 297.288 80.568 299.376 82.992 300.84C85.368 302.376 87.792 302.688 88.44 301.608C89.088 300.552 87.672 298.464 85.296 296.952C82.896 295.464 80.496 295.128 79.848 296.184ZM88.32 313.555C88.056 313.963 87.816 314.635 87.816 315.211C87.816 317.947 89.856 319.483 90.984 320.275H78V313.555H88.32ZM91.584 313.051C94.104 313.051 97.56 315.619 97.56 318.115C97.56 319.411 96.624 320.443 94.992 320.443C92.448 320.443 89.016 317.875 89.016 315.379C89.016 314.059 89.976 313.051 91.584 313.051ZM78 322.673H93.6V329.393L91.896 329.465C90.96 328.793 88.224 327.593 85.272 327.089L85.152 328.289C90.888 329.345 93.984 331.769 93.984 334.985C93.984 338.105 91.728 339.713 87.672 339.713H78V332.993H87.672C89.304 332.993 90.192 332.777 90.192 331.961C90.192 330.377 85.848 329.393 78 329.393V322.673ZM72.816 350.217C72.816 346.689 73.56 343.977 74.568 342.201H81.384C79.944 343.809 78.552 345.537 78.576 349.233C78.6 352.953 81.24 355.521 84 356.049L84.624 354.993C82.68 353.745 80.64 352.305 80.64 348.585C80.64 344.553 84.192 341.505 87.648 341.505C91.128 341.505 93.96 344.553 93.96 350.097C93.96 354.297 92.016 359.913 82.752 359.745C78.744 359.745 72.816 356.673 72.816 350.217ZM83.352 348.897C82.776 349.857 84.048 351.753 86.208 353.145C88.392 354.489 90.576 354.801 91.176 353.841C91.752 352.833 90.504 350.937 88.32 349.593C86.16 348.201 83.952 347.913 83.352 348.897Z" fill="#FFFCF5"/>
</g>
<defs>
<clipPath id="clip0_718_13137">
<rect width="175" height="393" rx="30" fill="white"/>
</clipPath>
</defs>
</svg>
