<svg width="362" height="175" viewBox="0 0 362 175" fill="none" xmlns="http://www.w3.org/2000/svg">
<g clip-path="url(#clip0_630_15048)">
<rect y="175" width="175" height="362" rx="30" transform="rotate(-90 0 175)" fill="#FFAAC3"/>
<path d="M232.847 0.284576L241.398 -2.14215L239.13 -11.1901C228.363 -53.9689 280.311 -84.129 312.041 -53.5182L319 -46.8102L325.959 -53.5182C357.689 -84.129 409.637 -53.9862 398.87 -11.1901L396.602 -2.14215L405.153 0.284576C447.616 12.3659 447.616 72.6341 405.153 84.7154L396.602 87.1421L398.87 96.1901C409.637 138.969 357.689 169.129 325.959 138.518L319 131.81L312.041 138.518C280.311 169.129 228.363 138.986 239.13 96.1901L241.398 87.1421L232.847 84.7154C190.384 72.6341 190.384 12.3659 232.847 0.284576Z" fill="#FF7B02"/>
<g clip-path="url(#clip1_630_15048)">
<rect width="175" height="364" transform="matrix(0 -1 1 0 0 175)" fill="#755D7B" fill-opacity="0.24"/>
<path d="M28.7354 99.166C28.0973 99.166 27.5456 99.0163 27.0801 98.7168C26.6146 98.4173 26.2549 97.9925 26.001 97.4424C25.7503 96.8923 25.625 96.2396 25.625 95.4844V95.4746C25.625 94.7161 25.7503 94.0618 26.001 93.5117C26.2549 92.9616 26.613 92.5368 27.0752 92.2373C27.5407 91.9378 28.0924 91.7881 28.7305 91.7881C29.2253 91.7881 29.6745 91.8857 30.0781 92.0811C30.485 92.2731 30.8203 92.5417 31.084 92.8867C31.3477 93.2285 31.5137 93.624 31.582 94.0732L31.5771 94.083H30.6934L30.6885 94.0732C30.6104 93.7705 30.4785 93.5101 30.293 93.292C30.1074 93.0706 29.8812 92.8997 29.6143 92.7793C29.3506 92.6589 29.056 92.5986 28.7305 92.5986C28.2812 92.5986 27.8906 92.7158 27.5586 92.9502C27.2298 93.1846 26.9759 93.5166 26.7969 93.9463C26.6178 94.376 26.5283 94.8854 26.5283 95.4746V95.4844C26.5283 96.0703 26.6178 96.5781 26.7969 97.0078C26.9759 97.4375 27.2298 97.7695 27.5586 98.0039C27.8906 98.2383 28.2829 98.3555 28.7354 98.3555C29.0641 98.3555 29.362 98.3034 29.6289 98.1992C29.8958 98.0918 30.1204 97.9404 30.3027 97.7451C30.485 97.5465 30.612 97.3122 30.6836 97.042L30.6934 97.0322H31.582V97.042C31.5039 97.4717 31.3346 97.846 31.0742 98.165C30.8138 98.4808 30.4834 98.7266 30.083 98.9023C29.6859 99.0781 29.2367 99.166 28.7354 99.166ZM34.7998 99L37.3975 91.9541H38.0713V93.0918H37.793L35.7227 99H34.7998ZM35.9766 96.9834L36.25 96.2363H39.4336L39.707 96.9834H35.9766ZM39.9414 99L37.8711 93.0918V91.9541H38.2666L40.8643 99H39.9414ZM45.6006 99V92.7451H43.3301V91.9541H48.75V92.7451H46.4795V99H45.6006ZM52.6074 99V91.9541H56.9727V92.7451H53.4863V95.0059H56.792V95.7871H53.4863V98.209H56.9727V99H52.6074ZM63.9844 99.166C63.3366 99.166 62.7734 99.0163 62.2949 98.7168C61.8164 98.4141 61.4453 97.986 61.1816 97.4326C60.9212 96.8792 60.791 96.2282 60.791 95.4795V95.4697C60.791 94.7275 60.9229 94.0814 61.1865 93.5312C61.4502 92.9779 61.8213 92.5498 62.2998 92.2471C62.7816 91.9411 63.3431 91.7881 63.9844 91.7881C64.5052 91.7881 64.9691 91.8809 65.376 92.0664C65.7861 92.2487 66.123 92.5059 66.3867 92.8379C66.6536 93.1699 66.8327 93.5589 66.9238 94.0049L66.9336 94.0537H66.0449L66.0303 94.0049C65.887 93.5492 65.6413 93.2008 65.293 92.96C64.9447 92.7191 64.5085 92.5986 63.9844 92.5986C63.5189 92.5986 63.1136 92.7174 62.7686 92.9551C62.4268 93.1895 62.1615 93.5215 61.9727 93.9512C61.7839 94.3809 61.6895 94.887 61.6895 95.4697V95.4795C61.6895 96.0687 61.7822 96.5798 61.9678 97.0127C62.1566 97.4424 62.4219 97.7744 62.7637 98.0088C63.1087 98.2399 63.5173 98.3555 63.9893 98.3555C64.4092 98.3555 64.777 98.2725 65.0928 98.1064C65.4118 97.9372 65.6592 97.7028 65.835 97.4033C66.0107 97.1038 66.0986 96.7555 66.0986 96.3584V96.1875H64.1211V95.416H66.9775V96.2754C66.9775 96.8548 66.8522 97.361 66.6016 97.7939C66.3542 98.2269 66.0059 98.5638 65.5566 98.8047C65.1107 99.0456 64.5866 99.166 63.9844 99.166ZM73.9941 99.166C73.3203 99.166 72.7425 99.0163 72.2607 98.7168C71.779 98.4141 71.4079 97.986 71.1475 97.4326C70.8903 96.8792 70.7617 96.2282 70.7617 95.4795V95.4697C70.7617 94.7145 70.8919 94.0618 71.1523 93.5117C71.416 92.9616 71.7887 92.5368 72.2705 92.2373C72.7555 91.9378 73.3301 91.7881 73.9941 91.7881C74.6615 91.7881 75.236 91.9378 75.7178 92.2373C76.2028 92.5368 76.5755 92.9632 76.8359 93.5166C77.0964 94.0667 77.2266 94.7178 77.2266 95.4697V95.4795C77.2266 96.2282 77.0964 96.8792 76.8359 97.4326C76.5788 97.9827 76.2077 98.4092 75.7227 98.7119C75.2409 99.0146 74.6647 99.166 73.9941 99.166ZM73.9941 98.3555C74.4759 98.3555 74.891 98.2367 75.2393 97.999C75.5876 97.7614 75.8561 97.4277 76.0449 96.998C76.2337 96.5651 76.3281 96.0589 76.3281 95.4795V95.4697C76.3281 94.8838 76.2337 94.376 76.0449 93.9463C75.8561 93.5166 75.5876 93.1846 75.2393 92.9502C74.891 92.7158 74.4759 92.5986 73.9941 92.5986C73.5156 92.5986 73.1022 92.7158 72.7539 92.9502C72.4056 93.1846 72.1354 93.5166 71.9434 93.9463C71.7546 94.376 71.6602 94.8838 71.6602 95.4697V95.4795C71.6602 96.0589 71.7529 96.5651 71.9385 96.998C72.124 97.4277 72.391 97.7614 72.7393 97.999C73.0876 98.2367 73.5059 98.3555 73.9941 98.3555ZM81.25 99V91.9541H83.9404C84.3929 91.9541 84.7868 92.042 85.1221 92.2178C85.4606 92.3903 85.7227 92.6328 85.9082 92.9453C86.0938 93.2578 86.1865 93.6257 86.1865 94.0488V94.0586C86.1865 94.5469 86.0612 94.9701 85.8105 95.3281C85.5599 95.6862 85.2132 95.9352 84.7705 96.0752L86.4014 99H85.3711L83.8623 96.2119C83.8558 96.2119 83.8477 96.2119 83.8379 96.2119C83.8281 96.2119 83.82 96.2119 83.8135 96.2119H82.1289V99H81.25ZM82.1289 95.4307H83.8623C84.3148 95.4307 84.6631 95.3151 84.9072 95.084C85.1546 94.8496 85.2783 94.5176 85.2783 94.0879V94.0781C85.2783 93.6582 85.1497 93.3294 84.8926 93.0918C84.6354 92.8542 84.279 92.7354 83.8232 92.7354H82.1289V95.4307ZM92.0264 99V95.9678L89.5264 91.9541H90.5273L92.4268 95.084H92.5049L94.4043 91.9541H95.4053L92.9053 95.9678V99H92.0264ZM105.039 96.7979C104.867 96.7979 104.717 96.736 104.59 96.6123C104.466 96.4854 104.404 96.3356 104.404 96.1631C104.404 95.9873 104.466 95.8376 104.59 95.7139C104.717 95.5902 104.867 95.5283 105.039 95.5283C105.215 95.5283 105.365 95.5902 105.488 95.7139C105.612 95.8376 105.674 95.9873 105.674 96.1631C105.674 96.3356 105.612 96.4854 105.488 96.6123C105.365 96.736 105.215 96.7979 105.039 96.7979ZM117.52 99.1172C117.035 99.1172 116.611 99.0342 116.25 98.8682C115.889 98.7021 115.602 98.4743 115.391 98.1846C115.182 97.8949 115.062 97.5645 115.029 97.1934L115.024 97.1348H115.869L115.874 97.1836C115.91 97.5286 116.076 97.8102 116.372 98.0283C116.668 98.2464 117.051 98.3555 117.52 98.3555C117.829 98.3555 118.099 98.3018 118.33 98.1943C118.564 98.0869 118.747 97.9388 118.877 97.75C119.007 97.5579 119.072 97.3382 119.072 97.0908V97.0811C119.072 96.6481 118.927 96.3161 118.638 96.085C118.351 95.8506 117.961 95.7334 117.466 95.7334H116.582V94.9912H117.427C117.707 94.9912 117.954 94.9391 118.169 94.835C118.384 94.7275 118.551 94.5827 118.672 94.4004C118.792 94.2148 118.853 94.0049 118.853 93.7705V93.7607C118.853 93.5133 118.8 93.3034 118.696 93.1309C118.592 92.9583 118.439 92.8265 118.237 92.7354C118.039 92.6442 117.796 92.5986 117.51 92.5986C117.233 92.5986 116.986 92.6458 116.768 92.7402C116.553 92.8314 116.38 92.9632 116.25 93.1357C116.12 93.3083 116.042 93.5133 116.016 93.751L116.011 93.7998H115.166L115.171 93.751C115.21 93.3669 115.33 93.0316 115.532 92.7451C115.737 92.4587 116.007 92.2357 116.343 92.0762C116.681 91.9167 117.07 91.8369 117.51 91.8369C117.959 91.8369 118.35 91.915 118.682 92.0713C119.017 92.2243 119.276 92.4375 119.458 92.7109C119.644 92.9811 119.736 93.2952 119.736 93.6533V93.6631C119.736 93.9528 119.673 94.21 119.546 94.4346C119.419 94.6592 119.243 94.8464 119.019 94.9961C118.794 95.1458 118.535 95.2516 118.242 95.3135V95.333C118.757 95.3753 119.172 95.5495 119.487 95.8555C119.806 96.1582 119.966 96.5602 119.966 97.0615V97.0713C119.966 97.4619 119.86 97.8118 119.648 98.1211C119.437 98.4303 119.147 98.6745 118.779 98.8535C118.411 99.0293 117.992 99.1172 117.52 99.1172ZM131.147 99V92.7451H128.877V91.9541H134.297V92.7451H132.026V99H131.147ZM140.82 99.166C140.146 99.166 139.569 99.0163 139.087 98.7168C138.605 98.4141 138.234 97.986 137.974 97.4326C137.716 96.8792 137.588 96.2282 137.588 95.4795V95.4697C137.588 94.7145 137.718 94.0618 137.979 93.5117C138.242 92.9616 138.615 92.5368 139.097 92.2373C139.582 91.9378 140.156 91.7881 140.82 91.7881C141.488 91.7881 142.062 91.9378 142.544 92.2373C143.029 92.5368 143.402 92.9632 143.662 93.5166C143.923 94.0667 144.053 94.7178 144.053 95.4697V95.4795C144.053 96.2282 143.923 96.8792 143.662 97.4326C143.405 97.9827 143.034 98.4092 142.549 98.7119C142.067 99.0146 141.491 99.166 140.82 99.166ZM140.82 98.3555C141.302 98.3555 141.717 98.2367 142.065 97.999C142.414 97.7614 142.682 97.4277 142.871 96.998C143.06 96.5651 143.154 96.0589 143.154 95.4795V95.4697C143.154 94.8838 143.06 94.376 142.871 93.9463C142.682 93.5166 142.414 93.1846 142.065 92.9502C141.717 92.7158 141.302 92.5986 140.82 92.5986C140.342 92.5986 139.928 92.7158 139.58 92.9502C139.232 93.1846 138.962 93.5166 138.77 93.9463C138.581 94.376 138.486 94.8838 138.486 95.4697V95.4795C138.486 96.0589 138.579 96.5651 138.765 96.998C138.95 97.4277 139.217 97.7614 139.565 97.999C139.914 98.2367 140.332 98.3555 140.82 98.3555ZM151.035 99.166C150.361 99.166 149.784 99.0163 149.302 98.7168C148.82 98.4141 148.449 97.986 148.188 97.4326C147.931 96.8792 147.803 96.2282 147.803 95.4795V95.4697C147.803 94.7145 147.933 94.0618 148.193 93.5117C148.457 92.9616 148.83 92.5368 149.312 92.2373C149.797 91.9378 150.371 91.7881 151.035 91.7881C151.702 91.7881 152.277 91.9378 152.759 92.2373C153.244 92.5368 153.617 92.9632 153.877 93.5166C154.137 94.0667 154.268 94.7178 154.268 95.4697V95.4795C154.268 96.2282 154.137 96.8792 153.877 97.4326C153.62 97.9827 153.249 98.4092 152.764 98.7119C152.282 99.0146 151.706 99.166 151.035 99.166ZM151.035 98.3555C151.517 98.3555 151.932 98.2367 152.28 97.999C152.629 97.7614 152.897 97.4277 153.086 96.998C153.275 96.5651 153.369 96.0589 153.369 95.4795V95.4697C153.369 94.8838 153.275 94.376 153.086 93.9463C152.897 93.5166 152.629 93.1846 152.28 92.9502C151.932 92.7158 151.517 92.5986 151.035 92.5986C150.557 92.5986 150.143 92.7158 149.795 92.9502C149.447 93.1846 149.176 93.5166 148.984 93.9463C148.796 94.376 148.701 94.8838 148.701 95.4697V95.4795C148.701 96.0589 148.794 96.5651 148.979 96.998C149.165 97.4277 149.432 97.7614 149.78 97.999C150.129 98.2367 150.547 98.3555 151.035 98.3555ZM158.291 99V91.9541H159.17V98.209H162.568V99H158.291ZM168.784 99.166C168.27 99.166 167.821 99.083 167.437 98.917C167.056 98.7477 166.753 98.5166 166.528 98.2236C166.307 97.9274 166.178 97.5889 166.143 97.208L166.138 97.1543H167.017L167.021 97.208C167.044 97.4424 167.134 97.6458 167.29 97.8184C167.45 97.9876 167.661 98.1195 167.925 98.2139C168.192 98.3083 168.494 98.3555 168.833 98.3555C169.152 98.3555 169.435 98.305 169.683 98.2041C169.933 98.0999 170.13 97.9567 170.273 97.7744C170.417 97.5921 170.488 97.3822 170.488 97.1445V97.1396C170.488 96.8467 170.381 96.6009 170.166 96.4023C169.951 96.2005 169.601 96.0459 169.116 95.9385L168.335 95.7676C167.629 95.6113 167.114 95.3704 166.792 95.0449C166.473 94.7161 166.313 94.2962 166.313 93.7852V93.7803C166.317 93.3896 166.423 93.0446 166.631 92.7451C166.842 92.4456 167.134 92.2113 167.505 92.042C167.879 91.8727 168.309 91.7881 168.794 91.7881C169.263 91.7881 169.678 91.8727 170.039 92.042C170.4 92.208 170.687 92.4326 170.898 92.7158C171.113 92.999 171.232 93.3164 171.255 93.668L171.26 93.7363H170.381L170.371 93.6729C170.339 93.4645 170.254 93.2806 170.117 93.1211C169.98 92.9583 169.798 92.8298 169.57 92.7354C169.342 92.641 169.076 92.5954 168.77 92.5986C168.477 92.5986 168.213 92.6442 167.979 92.7354C167.744 92.8265 167.557 92.9583 167.417 93.1309C167.28 93.3001 167.212 93.5085 167.212 93.7559V93.7607C167.212 94.0407 167.316 94.2767 167.524 94.4688C167.733 94.6608 168.076 94.8089 168.555 94.9131L169.336 95.0889C170.072 95.2516 170.597 95.4876 170.913 95.7969C171.229 96.1061 171.387 96.5146 171.387 97.0225V97.0273C171.387 97.4668 171.279 97.846 171.064 98.165C170.85 98.484 170.547 98.7314 170.156 98.9072C169.766 99.0798 169.308 99.166 168.784 99.166Z" fill="#FFFCF5"/>
<path d="M34.432 132.584C30.904 132.584 28.192 131.84 26.416 130.832V124.016C28.024 125.456 29.752 126.848 33.448 126.824C37.168 126.8 39.736 124.16 40.264 121.4L39.208 120.776C37.96 122.72 36.52 124.76 32.8 124.76C28.768 124.76 25.72 121.208 25.72 117.752C25.72 114.272 28.768 111.44 34.312 111.44C38.512 111.44 44.128 113.384 43.96 122.648C43.96 126.656 40.888 132.584 34.432 132.584ZM33.112 122.048C34.072 122.624 35.968 121.352 37.36 119.192C38.704 117.008 39.016 114.824 38.056 114.224C37.048 113.648 35.152 114.896 33.808 117.08C32.416 119.24 32.128 121.448 33.112 122.048ZM45.8875 131V115.4H52.6075L52.6795 116.864C52.0075 117.8 50.8075 120.776 50.3035 123.728L51.4315 123.848C52.3435 118.112 54.5035 115.016 57.7195 115.016C60.8395 115.016 61.9675 117.752 61.9675 121.808H55.2475C55.2475 120.176 55.5115 118.808 54.7195 118.808C53.5915 118.808 52.6075 123.152 52.6075 131H45.8875ZM75.0169 130.088C71.5369 132.392 66.6889 131.12 64.1449 127.232C61.6489 123.368 62.4409 118.4 65.9449 116.12C69.4249 113.84 74.2729 115.112 76.8169 118.976C79.3129 122.84 78.5209 127.808 75.0169 130.088ZM69.2569 129.224C70.3129 129.872 72.4009 128.456 73.9129 126.08C75.4009 123.68 75.7369 121.28 74.6809 120.632C73.5769 119.984 71.4889 121.352 70.0249 123.776C68.4889 126.152 68.1769 128.576 69.2569 129.224ZM97.12 115.4V131H90.4L90.328 129.296C91 128.36 92.2 125.624 92.704 122.672L91.504 122.552C90.448 128.288 88.024 131.384 84.808 131.384C81.688 131.384 80.08 129.128 80.08 125.072V115.4H86.8V125.072C86.8 126.704 87.016 127.592 87.832 127.592C89.416 127.592 90.4 123.248 90.4 115.4H97.12ZM99.5125 131V115.4H106.233L106.305 117.104C105.633 118.04 104.433 120.776 103.929 123.728L105.129 123.848C106.185 118.112 108.609 115.016 111.825 115.016C114.945 115.016 116.553 117.272 116.553 121.328V131H109.833V121.328C109.833 119.696 109.617 118.808 108.801 118.808C107.217 118.808 106.233 123.152 106.233 131H99.5125ZM132.913 131V127.76C132.385 128.648 131.545 129.512 130.681 130.088C127.201 132.392 122.353 131.12 119.809 127.232C117.313 123.368 118.105 118.4 121.609 116.12C125.089 113.84 129.913 115.16 132.481 118.976C133.873 121.04 133.969 123.32 133.969 123.896L135.217 123.728C135.217 120.608 133.801 117.968 132.841 117.104L132.913 111.8H139.633V131H132.913ZM124.657 129.152C125.761 129.8 127.849 128.432 129.313 126.008C130.849 123.632 131.161 121.208 130.081 120.56C129.025 119.912 126.937 121.328 125.425 123.704C123.937 126.104 123.601 128.504 124.657 129.152ZM142.028 120.68C142.436 120.944 143.108 121.184 143.684 121.184C146.42 121.184 147.956 119.144 148.748 118.016V131H142.028V120.68ZM141.524 117.416C141.524 114.896 144.092 111.44 146.588 111.44C147.884 111.44 148.916 112.376 148.916 114.008C148.916 116.552 146.348 119.984 143.852 119.984C142.532 119.984 141.524 119.024 141.524 117.416ZM151.145 131V115.4H157.865L157.937 117.104C157.265 118.04 156.065 120.776 155.561 123.728L156.761 123.848C157.817 118.112 160.241 115.016 163.457 115.016C166.577 115.016 168.185 117.272 168.185 121.328V131H161.465V121.328C161.465 119.696 161.249 118.808 160.433 118.808C158.849 118.808 157.865 123.152 157.865 131H151.145ZM178.69 136.184C175.162 136.184 172.45 135.44 170.674 134.432V127.616C172.282 129.056 174.01 130.448 177.706 130.424C181.426 130.4 183.994 127.76 184.522 125L183.466 124.376C182.218 126.32 180.778 128.36 177.058 128.36C173.026 128.36 169.978 124.808 169.978 121.352C169.978 117.872 173.026 115.04 178.57 115.04C182.77 115.04 188.386 116.984 188.218 126.248C188.218 130.256 185.146 136.184 178.69 136.184ZM177.37 125.648C178.33 126.224 180.226 124.952 181.618 122.792C182.962 120.608 183.274 118.424 182.314 117.824C181.306 117.248 179.41 118.496 178.066 120.68C176.674 122.84 176.386 125.048 177.37 125.648Z" fill="#FFFCF5"/>
<path d="M30.2295 150.232C29.3363 150.232 28.5638 150.023 27.9121 149.604C27.2604 149.184 26.7568 148.59 26.4014 147.819C26.0505 147.049 25.875 146.135 25.875 145.078V145.064C25.875 144.003 26.0505 143.087 26.4014 142.316C26.7568 141.546 27.2581 140.951 27.9053 140.532C28.557 140.113 29.3294 139.903 30.2227 139.903C30.9154 139.903 31.5443 140.04 32.1094 140.313C32.679 140.582 33.1484 140.958 33.5176 141.441C33.8867 141.92 34.1191 142.474 34.2148 143.103L34.208 143.116H32.9707L32.9639 143.103C32.8545 142.679 32.6699 142.314 32.4102 142.009C32.1504 141.699 31.8337 141.46 31.46 141.291C31.0908 141.122 30.6784 141.038 30.2227 141.038C29.5938 141.038 29.0469 141.202 28.582 141.53C28.1217 141.858 27.7663 142.323 27.5156 142.925C27.265 143.526 27.1396 144.24 27.1396 145.064V145.078C27.1396 145.898 27.265 146.609 27.5156 147.211C27.7663 147.812 28.1217 148.277 28.582 148.605C29.0469 148.934 29.596 149.098 30.2295 149.098C30.6898 149.098 31.1068 149.025 31.4805 148.879C31.8542 148.729 32.1686 148.517 32.4238 148.243C32.679 147.965 32.8568 147.637 32.957 147.259L32.9707 147.245H34.2148V147.259C34.1055 147.86 33.8685 148.384 33.5039 148.831C33.1393 149.273 32.6768 149.617 32.1162 149.863C31.5602 150.109 30.9313 150.232 30.2295 150.232ZM39.1572 150.13C38.46 150.13 37.8561 149.977 37.3457 149.672C36.8398 149.362 36.4479 148.922 36.1699 148.353C35.8965 147.783 35.7598 147.106 35.7598 146.322V146.309C35.7598 145.52 35.8965 144.841 36.1699 144.271C36.4479 143.702 36.8398 143.264 37.3457 142.959C37.8561 142.654 38.46 142.501 39.1572 142.501C39.859 142.501 40.4629 142.654 40.9688 142.959C41.4746 143.264 41.8643 143.702 42.1377 144.271C42.4157 144.841 42.5547 145.52 42.5547 146.309V146.322C42.5547 147.106 42.4157 147.783 42.1377 148.353C41.8643 148.922 41.4746 149.362 40.9688 149.672C40.4629 149.977 39.859 150.13 39.1572 150.13ZM39.1572 149.077C39.6221 149.077 40.0163 148.968 40.3398 148.749C40.6634 148.53 40.9095 148.216 41.0781 147.806C41.2513 147.396 41.3379 146.901 41.3379 146.322V146.309C41.3379 145.725 41.2513 145.229 41.0781 144.818C40.9095 144.408 40.6634 144.096 40.3398 143.882C40.0163 143.663 39.6221 143.554 39.1572 143.554C38.6924 143.554 38.2982 143.663 37.9746 143.882C37.651 144.096 37.4027 144.408 37.2295 144.818C37.0609 145.229 36.9766 145.725 36.9766 146.309V146.322C36.9766 146.901 37.0609 147.396 37.2295 147.806C37.4027 148.216 37.651 148.53 37.9746 148.749C38.2982 148.968 38.6924 149.077 39.1572 149.077ZM44.4004 150V142.631H45.5898V143.752H45.6992C45.8633 143.355 46.1139 143.048 46.4512 142.829C46.793 142.61 47.2054 142.501 47.6885 142.501C48.0212 142.501 48.3197 142.556 48.584 142.665C48.8483 142.774 49.0762 142.927 49.2676 143.123C49.459 143.314 49.6117 143.538 49.7256 143.793H49.835C49.9671 143.533 50.1449 143.308 50.3682 143.116C50.5915 142.92 50.849 142.77 51.1406 142.665C51.4368 142.556 51.7536 142.501 52.0908 142.501C52.5921 142.501 53.016 142.594 53.3623 142.781C53.7132 142.968 53.9798 143.242 54.1621 143.602C54.3444 143.957 54.4355 144.392 54.4355 144.907V150H53.2461V145.181C53.2461 144.816 53.1891 144.515 53.0752 144.278C52.9658 144.037 52.7972 143.857 52.5693 143.738C52.3415 143.615 52.0544 143.554 51.708 143.554C51.3662 143.554 51.0677 143.631 50.8125 143.786C50.5573 143.941 50.359 144.148 50.2178 144.408C50.0765 144.663 50.0059 144.948 50.0059 145.263V150H48.8164V144.996C48.8164 144.704 48.7526 144.451 48.625 144.237C48.502 144.019 48.3242 143.85 48.0918 143.731C47.8639 143.613 47.5951 143.554 47.2852 143.554C46.9661 143.554 46.6768 143.638 46.417 143.807C46.1618 143.975 45.959 144.203 45.8086 144.49C45.6628 144.773 45.5898 145.087 45.5898 145.434V150H44.4004ZM59.5898 150.13C58.888 150.13 58.2842 149.975 57.7783 149.665C57.277 149.355 56.8896 148.918 56.6162 148.353C56.3473 147.783 56.2129 147.113 56.2129 146.343V146.336C56.2129 145.575 56.3473 144.907 56.6162 144.333C56.8896 143.759 57.2747 143.31 57.7715 142.986C58.2682 142.663 58.8493 142.501 59.5146 142.501C60.1846 142.501 60.7588 142.656 61.2373 142.966C61.7204 143.276 62.0895 143.709 62.3447 144.265C62.6045 144.816 62.7344 145.459 62.7344 146.192V146.657H56.8281V145.707H62.126L61.5381 146.575V146.104C61.5381 145.525 61.4515 145.049 61.2783 144.675C61.1051 144.301 60.8659 144.023 60.5605 143.841C60.2552 143.654 59.9043 143.561 59.5078 143.561C59.1113 143.561 58.7559 143.659 58.4414 143.854C58.1315 144.046 57.8854 144.331 57.7031 144.709C57.5208 145.087 57.4297 145.552 57.4297 146.104V146.575C57.4297 147.099 57.5186 147.548 57.6963 147.922C57.874 148.291 58.127 148.576 58.4551 148.776C58.7832 148.972 59.1706 149.07 59.6172 149.07C59.9499 149.07 60.2393 149.025 60.4854 148.934C60.7314 148.842 60.9342 148.726 61.0938 148.585C61.2533 148.444 61.3649 148.3 61.4287 148.154L61.4561 148.093H62.6455L62.6318 148.147C62.568 148.398 62.4541 148.642 62.29 148.879C62.1305 149.111 61.9232 149.323 61.668 149.515C61.4128 149.701 61.1097 149.852 60.7588 149.966C60.4124 150.075 60.0228 150.13 59.5898 150.13ZM72.1816 150.13C71.8398 150.13 71.5231 150.077 71.2314 149.973C70.9398 149.868 70.68 149.72 70.4521 149.528C70.2243 149.332 70.0352 149.098 69.8848 148.824H69.7754V150H68.5859V139.705H69.7754V143.793H69.8848C70.0215 143.529 70.2038 143.301 70.4316 143.109C70.6641 142.918 70.9284 142.77 71.2246 142.665C71.5254 142.556 71.8444 142.501 72.1816 142.501C72.806 142.501 73.3483 142.658 73.8086 142.973C74.2734 143.287 74.6335 143.729 74.8887 144.299C75.1439 144.868 75.2715 145.538 75.2715 146.309V146.322C75.2715 147.088 75.1439 147.758 74.8887 148.332C74.6335 148.902 74.2734 149.344 73.8086 149.658C73.3483 149.973 72.806 150.13 72.1816 150.13ZM71.9082 149.077C72.3594 149.077 72.7445 148.968 73.0635 148.749C73.3825 148.526 73.6263 148.209 73.7949 147.799C73.9681 147.384 74.0547 146.892 74.0547 146.322V146.309C74.0547 145.734 73.9681 145.242 73.7949 144.832C73.6263 144.422 73.3825 144.107 73.0635 143.889C72.7445 143.665 72.3594 143.554 71.9082 143.554C71.4616 143.554 71.0765 143.665 70.7529 143.889C70.4294 144.112 70.181 144.429 70.0078 144.839C69.8346 145.249 69.748 145.739 69.748 146.309V146.322C69.748 146.887 69.8346 147.377 70.0078 147.792C70.181 148.202 70.4294 148.519 70.7529 148.742C71.0765 148.965 71.4616 149.077 71.9082 149.077ZM79.1406 150.13C78.6758 150.13 78.2565 150.041 77.8828 149.863C77.5137 149.686 77.2197 149.433 77.001 149.104C76.7868 148.776 76.6797 148.389 76.6797 147.942V147.929C76.6797 147.491 76.7845 147.118 76.9941 146.808C77.2038 146.493 77.5091 146.247 77.9102 146.069C78.3112 145.892 78.7965 145.787 79.3662 145.755L82.0732 145.591V146.541L79.5098 146.705C78.9492 146.737 78.5391 146.853 78.2793 147.054C78.0241 147.254 77.8965 147.537 77.8965 147.901V147.915C77.8965 148.289 78.0378 148.58 78.3203 148.79C78.6029 148.995 78.9583 149.098 79.3867 149.098C79.7923 149.098 80.1523 149.018 80.4668 148.858C80.7812 148.694 81.0273 148.473 81.2051 148.195C81.3874 147.917 81.4785 147.603 81.4785 147.252V144.955C81.4785 144.499 81.3395 144.153 81.0615 143.916C80.7881 143.674 80.3757 143.554 79.8242 143.554C79.3822 143.554 79.0199 143.633 78.7373 143.793C78.4548 143.948 78.2656 144.169 78.1699 144.456L78.1631 144.477H76.9736L76.9805 144.436C77.0443 144.048 77.2038 143.711 77.459 143.424C77.7188 143.132 78.0537 142.907 78.4639 142.747C78.874 142.583 79.3411 142.501 79.8652 142.501C80.4668 142.501 80.9749 142.599 81.3896 142.795C81.8089 142.991 82.1257 143.273 82.3398 143.643C82.5586 144.007 82.668 144.445 82.668 144.955V150H81.4785V148.913H81.3691C81.2142 149.173 81.0251 149.394 80.8018 149.576C80.583 149.758 80.3346 149.897 80.0566 149.993C79.7786 150.084 79.4733 150.13 79.1406 150.13ZM87.8564 150.13C87.1683 150.13 86.5713 149.973 86.0654 149.658C85.5596 149.344 85.1676 148.899 84.8896 148.325C84.6117 147.751 84.4727 147.074 84.4727 146.295V146.281C84.4727 145.516 84.6094 144.85 84.8828 144.285C85.1608 143.72 85.5527 143.283 86.0586 142.973C86.5645 142.658 87.1615 142.501 87.8496 142.501C88.4466 142.501 88.9616 142.606 89.3945 142.815C89.8275 143.025 90.1738 143.308 90.4336 143.663C90.6934 144.014 90.8597 144.408 90.9326 144.846L90.9395 144.887H89.7568L89.75 144.866C89.6589 144.502 89.4515 144.192 89.1279 143.937C88.8044 143.681 88.3783 143.554 87.8496 143.554C87.4076 143.554 87.0247 143.665 86.7012 143.889C86.3776 144.112 86.127 144.429 85.9492 144.839C85.776 145.244 85.6895 145.725 85.6895 146.281V146.295C85.6895 146.86 85.7783 147.352 85.9561 147.771C86.1338 148.186 86.3844 148.507 86.708 148.735C87.0316 148.963 87.4121 149.077 87.8496 149.077C88.3464 149.077 88.752 148.97 89.0664 148.756C89.3809 148.542 89.6064 148.229 89.7432 147.819L89.7568 147.778L90.9326 147.771L90.9189 147.847C90.8187 148.289 90.641 148.683 90.3857 149.029C90.1305 149.371 89.7933 149.64 89.374 149.836C88.9548 150.032 88.4489 150.13 87.8564 150.13ZM92.7441 150V139.705H93.9336V150H92.7441ZM97.3857 150L94.5078 146.391L95.3828 145.632L98.8828 150H97.3857ZM93.7832 147.348L93.7285 145.851H94.043L97.2285 142.631H98.6709L95.1709 146.008L94.8838 146.288L93.7832 147.348ZM106.833 150.055C106.076 150.055 105.527 149.902 105.186 149.597C104.848 149.291 104.68 148.788 104.68 148.086V143.615H103.518V142.631H104.68V140.724H105.91V142.631H107.523V143.615H105.91V147.785C105.91 148.218 105.992 148.53 106.156 148.722C106.32 148.909 106.594 149.002 106.977 149.002C107.081 149.002 107.17 149 107.243 148.995C107.321 148.991 107.414 148.984 107.523 148.975V149.986C107.41 150.005 107.296 150.021 107.182 150.034C107.068 150.048 106.951 150.055 106.833 150.055ZM112.233 150.13C111.536 150.13 110.932 149.977 110.422 149.672C109.916 149.362 109.524 148.922 109.246 148.353C108.973 147.783 108.836 147.106 108.836 146.322V146.309C108.836 145.52 108.973 144.841 109.246 144.271C109.524 143.702 109.916 143.264 110.422 142.959C110.932 142.654 111.536 142.501 112.233 142.501C112.935 142.501 113.539 142.654 114.045 142.959C114.551 143.264 114.94 143.702 115.214 144.271C115.492 144.841 115.631 145.52 115.631 146.309V146.322C115.631 147.106 115.492 147.783 115.214 148.353C114.94 148.922 114.551 149.362 114.045 149.672C113.539 149.977 112.935 150.13 112.233 150.13ZM112.233 149.077C112.698 149.077 113.092 148.968 113.416 148.749C113.74 148.53 113.986 148.216 114.154 147.806C114.327 147.396 114.414 146.901 114.414 146.322V146.309C114.414 145.725 114.327 145.229 114.154 144.818C113.986 144.408 113.74 144.096 113.416 143.882C113.092 143.663 112.698 143.554 112.233 143.554C111.769 143.554 111.374 143.663 111.051 143.882C110.727 144.096 110.479 144.408 110.306 144.818C110.137 145.229 110.053 145.725 110.053 146.309V146.322C110.053 146.901 110.137 147.396 110.306 147.806C110.479 148.216 110.727 148.53 111.051 148.749C111.374 148.968 111.769 149.077 112.233 149.077ZM122.836 150L120.771 142.631H121.961L123.41 148.523H123.52L125.167 142.631H126.295L127.942 148.523H128.052L129.501 142.631H130.684L128.619 150H127.423L125.775 144.299H125.666L124.025 150H122.836ZM132.324 150V139.705H133.514V143.738H133.623C133.81 143.346 134.079 143.043 134.43 142.829C134.781 142.61 135.227 142.501 135.77 142.501C136.321 142.501 136.788 142.608 137.171 142.822C137.554 143.032 137.845 143.34 138.046 143.745C138.246 144.151 138.347 144.645 138.347 145.229V150H137.157V145.516C137.157 144.85 137.016 144.358 136.733 144.039C136.455 143.715 136.022 143.554 135.435 143.554C135.043 143.554 134.703 143.638 134.416 143.807C134.129 143.975 133.906 144.215 133.746 144.524C133.591 144.834 133.514 145.206 133.514 145.639V150H132.324ZM143.508 150.13C142.806 150.13 142.202 149.975 141.696 149.665C141.195 149.355 140.808 148.918 140.534 148.353C140.265 147.783 140.131 147.113 140.131 146.343V146.336C140.131 145.575 140.265 144.907 140.534 144.333C140.808 143.759 141.193 143.31 141.689 142.986C142.186 142.663 142.767 142.501 143.433 142.501C144.103 142.501 144.677 142.656 145.155 142.966C145.638 143.276 146.007 143.709 146.263 144.265C146.522 144.816 146.652 145.459 146.652 146.192V146.657H140.746V145.707H146.044L145.456 146.575V146.104C145.456 145.525 145.369 145.049 145.196 144.675C145.023 144.301 144.784 144.023 144.479 143.841C144.173 143.654 143.822 143.561 143.426 143.561C143.029 143.561 142.674 143.659 142.359 143.854C142.049 144.046 141.803 144.331 141.621 144.709C141.439 145.087 141.348 145.552 141.348 146.104V146.575C141.348 147.099 141.437 147.548 141.614 147.922C141.792 148.291 142.045 148.576 142.373 148.776C142.701 148.972 143.089 149.07 143.535 149.07C143.868 149.07 144.157 149.025 144.403 148.934C144.649 148.842 144.852 148.726 145.012 148.585C145.171 148.444 145.283 148.3 145.347 148.154L145.374 148.093H146.563L146.55 148.147C146.486 148.398 146.372 148.642 146.208 148.879C146.049 149.111 145.841 149.323 145.586 149.515C145.331 149.701 145.028 149.852 144.677 149.966C144.33 150.075 143.941 150.13 143.508 150.13ZM148.498 150V142.631H149.688V143.725H149.797C149.938 143.337 150.177 143.036 150.515 142.822C150.852 142.608 151.269 142.501 151.766 142.501C151.88 142.501 151.991 142.508 152.101 142.521C152.215 142.531 152.301 142.54 152.36 142.549V143.704C152.237 143.681 152.117 143.665 151.998 143.656C151.884 143.643 151.761 143.636 151.629 143.636C151.251 143.636 150.916 143.711 150.624 143.861C150.332 144.012 150.102 144.221 149.934 144.49C149.77 144.759 149.688 145.074 149.688 145.434V150H148.498ZM156.633 150.13C155.931 150.13 155.327 149.975 154.821 149.665C154.32 149.355 153.933 148.918 153.659 148.353C153.39 147.783 153.256 147.113 153.256 146.343V146.336C153.256 145.575 153.39 144.907 153.659 144.333C153.933 143.759 154.318 143.31 154.814 142.986C155.311 142.663 155.892 142.501 156.558 142.501C157.228 142.501 157.802 142.656 158.28 142.966C158.763 143.276 159.132 143.709 159.388 144.265C159.647 144.816 159.777 145.459 159.777 146.192V146.657H153.871V145.707H159.169L158.581 146.575V146.104C158.581 145.525 158.494 145.049 158.321 144.675C158.148 144.301 157.909 144.023 157.604 143.841C157.298 143.654 156.947 143.561 156.551 143.561C156.154 143.561 155.799 143.659 155.484 143.854C155.174 144.046 154.928 144.331 154.746 144.709C154.564 145.087 154.473 145.552 154.473 146.104V146.575C154.473 147.099 154.562 147.548 154.739 147.922C154.917 148.291 155.17 148.576 155.498 148.776C155.826 148.972 156.214 149.07 156.66 149.07C156.993 149.07 157.282 149.025 157.528 148.934C157.774 148.842 157.977 148.726 158.137 148.585C158.296 148.444 158.408 148.3 158.472 148.154L158.499 148.093H159.688L159.675 148.147C159.611 148.398 159.497 148.642 159.333 148.879C159.174 149.111 158.966 149.323 158.711 149.515C158.456 149.701 158.153 149.852 157.802 149.966C157.455 150.075 157.066 150.13 156.633 150.13ZM166.189 152.584C166.112 152.584 166.025 152.579 165.93 152.57C165.834 152.566 165.745 152.557 165.663 152.543V151.565C165.736 151.579 165.816 151.588 165.902 151.593C165.989 151.597 166.073 151.6 166.155 151.6C166.493 151.6 166.768 151.513 166.982 151.34C167.201 151.167 167.377 150.868 167.509 150.444L167.646 150.007L164.918 142.631H166.189L168.459 149.439L167.987 148.694H168.548L168.076 149.439L170.339 142.631H171.59L168.712 150.451C168.511 151.003 168.299 151.433 168.076 151.743C167.853 152.053 167.591 152.27 167.29 152.393C166.994 152.52 166.627 152.584 166.189 152.584ZM175.917 150.13C175.22 150.13 174.616 149.977 174.105 149.672C173.6 149.362 173.208 148.922 172.93 148.353C172.656 147.783 172.52 147.106 172.52 146.322V146.309C172.52 145.52 172.656 144.841 172.93 144.271C173.208 143.702 173.6 143.264 174.105 142.959C174.616 142.654 175.22 142.501 175.917 142.501C176.619 142.501 177.223 142.654 177.729 142.959C178.234 143.264 178.624 143.702 178.897 144.271C179.175 144.841 179.314 145.52 179.314 146.309V146.322C179.314 147.106 179.175 147.783 178.897 148.353C178.624 148.922 178.234 149.362 177.729 149.672C177.223 149.977 176.619 150.13 175.917 150.13ZM175.917 149.077C176.382 149.077 176.776 148.968 177.1 148.749C177.423 148.53 177.669 148.216 177.838 147.806C178.011 147.396 178.098 146.901 178.098 146.322V146.309C178.098 145.725 178.011 145.229 177.838 144.818C177.669 144.408 177.423 144.096 177.1 143.882C176.776 143.663 176.382 143.554 175.917 143.554C175.452 143.554 175.058 143.663 174.734 143.882C174.411 144.096 174.162 144.408 173.989 144.818C173.821 145.229 173.736 145.725 173.736 146.309V146.322C173.736 146.901 173.821 147.396 173.989 147.806C174.162 148.216 174.411 148.53 174.734 148.749C175.058 148.968 175.452 149.077 175.917 149.077ZM183.628 150.13C183.072 150.13 182.605 150.025 182.227 149.815C181.848 149.601 181.563 149.291 181.372 148.886C181.185 148.476 181.092 147.981 181.092 147.402V142.631H182.281V147.115C182.281 147.776 182.409 148.268 182.664 148.592C182.924 148.915 183.348 149.077 183.936 149.077C184.259 149.077 184.544 149.029 184.79 148.934C185.041 148.838 185.25 148.701 185.419 148.523C185.588 148.341 185.713 148.122 185.795 147.867C185.882 147.607 185.925 147.316 185.925 146.992V142.631H187.114V150H185.925V148.899H185.815C185.697 149.159 185.535 149.382 185.33 149.569C185.125 149.752 184.879 149.891 184.592 149.986C184.309 150.082 183.988 150.13 183.628 150.13ZM195.297 150.13C194.832 150.13 194.413 150.041 194.039 149.863C193.67 149.686 193.376 149.433 193.157 149.104C192.943 148.776 192.836 148.389 192.836 147.942V147.929C192.836 147.491 192.941 147.118 193.15 146.808C193.36 146.493 193.665 146.247 194.066 146.069C194.467 145.892 194.953 145.787 195.522 145.755L198.229 145.591V146.541L195.666 146.705C195.105 146.737 194.695 146.853 194.436 147.054C194.18 147.254 194.053 147.537 194.053 147.901V147.915C194.053 148.289 194.194 148.58 194.477 148.79C194.759 148.995 195.115 149.098 195.543 149.098C195.949 149.098 196.309 149.018 196.623 148.858C196.938 148.694 197.184 148.473 197.361 148.195C197.544 147.917 197.635 147.603 197.635 147.252V144.955C197.635 144.499 197.496 144.153 197.218 143.916C196.944 143.674 196.532 143.554 195.98 143.554C195.538 143.554 195.176 143.633 194.894 143.793C194.611 143.948 194.422 144.169 194.326 144.456L194.319 144.477H193.13L193.137 144.436C193.201 144.048 193.36 143.711 193.615 143.424C193.875 143.132 194.21 142.907 194.62 142.747C195.03 142.583 195.497 142.501 196.021 142.501C196.623 142.501 197.131 142.599 197.546 142.795C197.965 142.991 198.282 143.273 198.496 143.643C198.715 144.007 198.824 144.445 198.824 144.955V150H197.635V148.913H197.525C197.37 149.173 197.181 149.394 196.958 149.576C196.739 149.758 196.491 149.897 196.213 149.993C195.935 150.084 195.63 150.13 195.297 150.13ZM200.998 150V142.631H202.188V143.725H202.297C202.438 143.337 202.677 143.036 203.015 142.822C203.352 142.608 203.769 142.501 204.266 142.501C204.38 142.501 204.491 142.508 204.601 142.521C204.715 142.531 204.801 142.54 204.86 142.549V143.704C204.737 143.681 204.617 143.665 204.498 143.656C204.384 143.643 204.261 143.636 204.129 143.636C203.751 143.636 203.416 143.711 203.124 143.861C202.832 144.012 202.602 144.221 202.434 144.49C202.27 144.759 202.188 145.074 202.188 145.434V150H200.998ZM209.133 150.13C208.431 150.13 207.827 149.975 207.321 149.665C206.82 149.355 206.433 148.918 206.159 148.353C205.89 147.783 205.756 147.113 205.756 146.343V146.336C205.756 145.575 205.89 144.907 206.159 144.333C206.433 143.759 206.818 143.31 207.314 142.986C207.811 142.663 208.392 142.501 209.058 142.501C209.728 142.501 210.302 142.656 210.78 142.966C211.263 143.276 211.632 143.709 211.888 144.265C212.147 144.816 212.277 145.459 212.277 146.192V146.657H206.371V145.707H211.669L211.081 146.575V146.104C211.081 145.525 210.994 145.049 210.821 144.675C210.648 144.301 210.409 144.023 210.104 143.841C209.798 143.654 209.447 143.561 209.051 143.561C208.654 143.561 208.299 143.659 207.984 143.854C207.674 144.046 207.428 144.331 207.246 144.709C207.064 145.087 206.973 145.552 206.973 146.104V146.575C206.973 147.099 207.062 147.548 207.239 147.922C207.417 148.291 207.67 148.576 207.998 148.776C208.326 148.972 208.714 149.07 209.16 149.07C209.493 149.07 209.782 149.025 210.028 148.934C210.274 148.842 210.477 148.726 210.637 148.585C210.796 148.444 210.908 148.3 210.972 148.154L210.999 148.093H212.188L212.175 148.147C212.111 148.398 211.997 148.642 211.833 148.879C211.674 149.111 211.466 149.323 211.211 149.515C210.956 149.701 210.653 149.852 210.302 149.966C209.955 150.075 209.566 150.13 209.133 150.13ZM215.094 150.068C214.852 150.068 214.643 149.982 214.465 149.809C214.292 149.631 214.205 149.421 214.205 149.18C214.205 148.934 214.292 148.724 214.465 148.551C214.643 148.378 214.852 148.291 215.094 148.291C215.34 148.291 215.549 148.378 215.723 148.551C215.896 148.724 215.982 148.934 215.982 149.18C215.982 149.421 215.896 149.631 215.723 149.809C215.549 149.982 215.34 150.068 215.094 150.068Z" fill="#FFFCF5"/>
</g>
</g>
<defs>
<clipPath id="clip0_630_15048">
<rect y="175" width="175" height="362" rx="30" transform="rotate(-90 0 175)" fill="white"/>
</clipPath>
<clipPath id="clip1_630_15048">
<rect width="175" height="364" fill="white" transform="matrix(0 -1 1 0 0 175)"/>
</clipPath>
</defs>
</svg>
