<svg width="169" height="208" viewBox="0 0 169 208" fill="none" xmlns="http://www.w3.org/2000/svg">
<g clip-path="url(#clip0_612_6132)">
<path d="M0 24C0 10.7452 10.7452 0 24 0H145C158.255 0 169 10.7452 169 24V184C169 197.255 158.255 208 145 208H24C10.7452 208 0 197.255 0 184V24Z" fill="#465AE1"/>
<g opacity="0.55">
<path d="M-32 88C-32 52.6538 -3.34622 24 32 24C67.3462 24 96 52.6538 96 88C96 123.346 67.3462 152 32 152C-3.34622 152 -32 123.346 -32 88Z" fill="#FFD719"/>
</g>
<path d="M137 22C137 16.4772 141.477 12 147 12C152.523 12 157 16.4772 157 22C157 27.5228 152.523 32 147 32C141.477 32 137 27.5228 137 22Z" fill="#FFD719"/>
<path d="M16.9722 68.5V60.7495H18.1753V64.0259H22.1499V60.7495H23.3584V68.5H22.1499V65.0679H18.1753V68.5H16.9722ZM27.2881 68.5V60.7495H32.208V61.7915H28.4912V64.0527H32.0093V65.0518H28.4912V67.458H32.208V68.5H27.2881ZM35.9283 68.5V60.7495H37.1314V67.458H40.7676V68.5H35.9283ZM44.8692 65.8521V64.8423H46.9854C47.5082 64.8423 47.9128 64.708 48.1993 64.4395C48.4893 64.1673 48.6343 63.7913 48.6343 63.3115V63.3008C48.6343 62.8138 48.4893 62.436 48.1993 62.1675C47.9128 61.8989 47.5082 61.7646 46.9854 61.7646H44.8692V60.7495H47.2862C47.7947 60.7495 48.2405 60.8569 48.6236 61.0718C49.0103 61.283 49.3129 61.5802 49.5313 61.9634C49.7497 62.3429 49.8589 62.7852 49.8589 63.29V63.3008C49.8589 63.8057 49.7497 64.2515 49.5313 64.6382C49.3129 65.0213 49.0103 65.3203 48.6236 65.5352C48.2405 65.7464 47.7947 65.8521 47.2862 65.8521H44.8692ZM44.2676 68.5V60.7495H45.4708V68.5H44.2676ZM53.3912 68.5V60.7495H54.5943V67.458H58.2305V68.5H53.3912ZM61.7306 68.5V60.7495H62.9337V68.5H61.7306ZM66.858 68.5V60.7495H67.9484L72.2238 66.8027L71.402 66.3784H72.0089V60.7495H73.1852V68.5H72.0948L67.8141 62.4521L68.6412 62.8765H68.0289V68.5H66.858ZM77.1095 68.5V60.7495H82.0294V61.7915H78.3126V64.0527H81.8307V65.0518H78.3126V67.458H82.0294V68.5H77.1095Z" fill="#FFFCF5" fill-opacity="0.85"/>
<path d="M17 101.25V85.25H24.32L25.46 89.93V96.25H26.46V89.93L27.6 85.25H34.92V101.25H29.6V96.03L30.88 89.07L29.92 88.93L27.6 101.25H24.32L22 88.93L21.04 89.07L22.32 96.03V101.25H17ZM39.7819 101.25C38.5619 100.17 36.5619 98.39 36.5219 95.01C36.4419 89.19 41.2819 87.83 43.8819 87.83C48.4419 87.83 50.7219 89.79 50.7219 92.21C50.7219 94.61 48.4419 96.59 45.6419 96.59C43.7219 96.59 42.0619 95.67 41.1819 94.31L40.4819 94.97C42.2619 98.13 47.8219 97.55 50.6619 97.39L48.0019 101.25H39.7819ZM42.3219 94.07C42.9619 94.45 44.0819 93.79 44.8019 92.55C45.5019 91.35 45.5219 90.05 44.8419 89.67C44.1619 89.27 43.0419 89.93 42.3419 91.15C41.6419 92.39 41.6219 93.69 42.3219 94.07ZM52.3125 101.25V88.25H57.9125L57.9725 89.67C57.4125 90.45 56.4125 92.73 55.9925 95.19L56.9925 95.29C57.8725 90.51 59.8925 87.93 62.5725 87.93C65.1725 87.93 66.5125 89.81 66.5125 93.19V101.25H60.9125V93.19C60.9125 91.83 60.7325 91.09 60.0525 91.09C58.7325 91.09 57.9125 94.71 57.9125 101.25H52.3125ZM75.9663 101.57C71.9863 101.57 68.7663 98.73 68.7663 95.23C68.7663 94.27 69.3863 93.73 69.5463 93.57H67.6063V91.57C69.8863 91.57 73.6663 89.33 71.6663 86.51H78.6063C78.6063 88.77 75.6063 90.81 71.9463 91.79L72.2663 92.73C73.6663 92.35 74.4463 91.99 75.4663 91.57H80.3663V93.57H74.5663C74.3863 93.65 73.7263 94.43 74.2663 95.05C74.8263 95.71 77.0863 95.47 77.8263 95.31C78.7863 95.11 79.6463 94.85 80.3663 94.59V100.25C79.1463 101.09 77.6263 101.57 75.9663 101.57ZM94.0511 99.83C94.8511 99.11 96.0311 96.91 96.0311 94.31L94.9911 94.17C94.9911 94.65 94.9111 96.55 93.7511 98.27C91.6111 101.45 87.5911 102.55 84.6911 100.65C81.7711 98.75 81.1111 94.61 83.1911 91.39C85.3111 88.15 89.3511 87.09 92.2511 89.01C92.9711 89.49 93.6711 90.21 94.1111 90.95V88.25H99.7111V101.25H94.1111L94.0511 99.83ZM87.4511 99.69C88.3711 100.23 90.1111 99.09 91.3311 97.07C92.6111 95.09 92.8711 93.07 91.9711 92.53C91.0911 91.99 89.3511 93.17 88.0911 95.15C86.8511 97.15 86.5711 99.15 87.4511 99.69ZM101.707 101.25V85.25H107.227V101.25H101.707ZM17 131.25V115.25H22.6L22.66 119.67C22.1 120.45 21.1 122.73 20.68 125.19L21.68 125.29C22.56 120.51 24.58 117.93 27.26 117.93C29.86 117.93 31.2 119.81 31.2 123.19V131.25H25.6V123.19C25.6 121.83 25.42 121.09 24.74 121.09C23.42 121.09 22.6 124.71 22.6 131.25H17ZM35.9538 131.25C34.7337 130.17 32.7338 128.39 32.6938 125.01C32.6138 119.19 37.4538 117.83 40.0538 117.83C44.6138 117.83 46.8938 119.79 46.8938 122.21C46.8938 124.61 44.6138 126.59 41.8138 126.59C39.8938 126.59 38.2338 125.67 37.3538 124.31L36.6538 124.97C38.4338 128.13 43.9938 127.55 46.8338 127.39L44.1738 131.25H35.9538ZM38.4938 124.07C39.1338 124.45 40.2538 123.79 40.9738 122.55C41.6738 121.35 41.6938 120.05 41.0138 119.67C40.3338 119.27 39.2138 119.93 38.5138 121.15C37.8138 122.39 37.7938 123.69 38.4938 124.07ZM60.1644 129.83C60.9644 129.11 62.1444 126.91 62.1444 124.31L61.1044 124.17C61.1044 124.65 61.0244 126.55 59.8644 128.27C57.7244 131.45 53.7044 132.55 50.8044 130.65C47.8844 128.75 47.2244 124.61 49.3044 121.39C51.4244 118.15 55.4644 117.09 58.3644 119.01C59.0844 119.49 59.7844 120.21 60.2244 120.95V118.25H65.8244V131.25H60.2244L60.1644 129.83ZM53.5644 129.69C54.4844 130.23 56.2244 129.09 57.4444 127.07C58.7244 125.09 58.9844 123.07 58.0844 122.53C57.2044 121.99 55.4644 123.17 54.2044 125.15C52.9644 127.15 52.6844 129.15 53.5644 129.69ZM67.8203 131.25V115.25H73.3403V131.25H67.8203ZM82.8998 131.57C78.9198 131.57 75.6998 128.73 75.6998 125.23C75.6998 124.27 76.3198 123.73 76.4798 123.57H74.5398V121.57C76.8198 121.57 80.5998 119.33 78.5998 116.51H85.5398C85.5398 118.77 82.5398 120.81 78.8798 121.79L79.1998 122.73C80.5998 122.35 81.3798 121.99 82.3998 121.57H87.2998V123.57H81.4998C81.3198 123.65 80.6598 124.43 81.1998 125.05C81.7598 125.71 84.0198 125.47 84.7598 125.31C85.7198 125.11 86.5798 124.85 87.2998 124.59V130.25C86.0798 131.09 84.5598 131.57 82.8998 131.57ZM89.3047 131.25V115.25H94.9047L94.9647 119.67C94.4047 120.45 93.4047 122.73 92.9847 125.19L93.9847 125.29C94.8647 120.51 96.8847 117.93 99.5647 117.93C102.165 117.93 103.505 119.81 103.505 123.19V131.25H97.9047V123.19C97.9047 121.83 97.7247 121.09 97.0447 121.09C95.7247 121.09 94.9047 124.71 94.9047 131.25H89.3047ZM16 156.13C17.32 156.61 19.26 157.03 20.76 157.03C21.72 157.03 23.58 156.77 23.58 155.99C23.58 154.49 16.4 155.17 16.4 151.43C16.4 149.49 17.94 147.95 21.76 147.95C25.06 147.95 27.42 148.73 28 148.95V153.61C26.86 153.15 25.56 152.51 24.02 152.51C22.92 152.51 21.66 152.71 21.66 153.25C21.66 154.59 28.8 154.05 28.8 157.99C28.8 159.41 28.1 160.33 27 161.25H19.1L16 156.13ZM44.1078 148.25V161.25H38.5078L38.4478 159.83C39.0078 159.05 40.0078 156.77 40.4278 154.31L39.4278 154.21C38.5478 158.99 36.5278 161.57 33.8478 161.57C31.2478 161.57 29.9078 159.69 29.9078 156.31V148.25H35.5078V156.31C35.5078 157.67 35.6878 158.41 36.3678 158.41C37.6878 158.41 38.5078 154.79 38.5078 148.25H44.1078ZM46.1016 165.25V148.25H51.7016L51.7616 149.67C50.9616 150.39 49.7816 152.59 49.7816 155.19L50.8216 155.33C50.8216 154.85 50.9016 152.95 52.0616 151.23C54.2016 148.05 58.2216 146.95 61.1216 148.85C64.0416 150.75 64.7016 154.89 62.6216 158.11C60.5016 161.35 56.4616 162.41 53.5616 160.49C52.8416 160.01 52.1416 159.29 51.7016 158.55V165.25H46.1016ZM54.1816 157.17C55.0616 157.71 56.8016 156.53 58.0616 154.55C59.3016 152.55 59.5816 150.55 58.7016 150.01C57.7816 149.47 56.0416 150.61 54.8216 152.63C53.5416 154.61 53.2816 156.63 54.1816 157.17ZM65.4375 165.25V148.25H71.0375L71.0975 149.67C70.2975 150.39 69.1175 152.59 69.1175 155.19L70.1575 155.33C70.1575 154.85 70.2375 152.95 71.3975 151.23C73.5375 148.05 77.5575 146.95 80.4575 148.85C83.3775 150.75 84.0375 154.89 81.9575 158.11C79.8375 161.35 75.7975 162.41 72.8975 160.49C72.1775 160.01 71.4775 159.29 71.0375 158.55V165.25H65.4375ZM73.5175 157.17C74.3975 157.71 76.1375 156.53 77.3975 154.55C78.6375 152.55 78.9175 150.55 78.0375 150.01C77.1175 149.47 75.3775 150.61 74.1575 152.63C72.8775 154.61 72.6175 156.63 73.5175 157.17ZM94.6534 160.49C91.7534 162.41 87.7134 161.35 85.5934 158.11C83.5134 154.89 84.1734 150.75 87.0934 148.85C89.9934 146.95 94.0334 148.01 96.1534 151.23C98.2334 154.45 97.5734 158.59 94.6534 160.49ZM89.8534 159.77C90.7334 160.31 92.4734 159.13 93.7334 157.15C94.9734 155.15 95.2534 153.15 94.3734 152.61C93.4534 152.07 91.7134 153.21 90.4934 155.23C89.2134 157.21 88.9534 159.23 89.8534 159.77ZM98.9727 161.25V148.25H104.573L104.633 149.47C104.073 150.25 103.073 152.73 102.653 155.19L103.593 155.29C104.353 150.51 106.153 147.93 108.833 147.93C111.433 147.93 112.373 150.21 112.373 153.59H106.773C106.773 152.23 106.993 151.09 106.333 151.09C105.393 151.09 104.573 154.71 104.573 161.25H98.9727ZM120.927 161.57C116.947 161.57 113.727 158.73 113.727 155.23C113.727 154.27 114.347 153.73 114.507 153.57H112.567V151.57C114.847 151.57 118.627 149.33 116.627 146.51H123.567C123.567 148.77 120.567 150.81 116.907 151.79L117.227 152.73C118.627 152.35 119.407 151.99 120.427 151.57H125.327V153.57H119.527C119.347 153.65 118.687 154.43 119.227 155.05C119.787 155.71 122.047 155.47 122.787 155.31C123.747 155.11 124.607 154.85 125.327 154.59V160.25C124.107 161.09 122.587 161.57 120.927 161.57Z" fill="#FFFCF5"/>
<g clip-path="url(#clip1_612_6132)">
<path d="M18.7285 183.5V176.99H18.6426L16.6929 178.381V177.2L18.7339 175.75H19.937V183.5H18.7285ZM22.1177 180.911V179.842H25.7109V180.911H22.1177ZM30.1636 183.645C29.5871 183.645 29.0786 183.55 28.6382 183.36C28.1978 183.171 27.8522 182.907 27.6016 182.571C27.3509 182.231 27.2256 181.842 27.2256 181.405V181.395C27.2256 181.069 27.2972 180.77 27.4404 180.498C27.5872 180.225 27.7896 179.996 28.0474 179.81C28.3088 179.62 28.6077 179.49 28.9443 179.418V179.391C28.5111 179.266 28.1619 179.051 27.897 178.747C27.6356 178.442 27.5049 178.084 27.5049 177.672V177.662C27.5049 177.264 27.6177 176.911 27.8433 176.604C28.0724 176.296 28.3875 176.052 28.7886 175.873C29.1896 175.694 29.6479 175.604 30.1636 175.604C30.6792 175.604 31.1357 175.694 31.5332 175.873C31.9342 176.052 32.2476 176.296 32.4731 176.604C32.7023 176.911 32.8169 177.264 32.8169 177.662V177.672C32.8169 178.084 32.6862 178.442 32.4248 178.747C32.1634 179.051 31.8161 179.266 31.3828 179.391V179.418C31.723 179.49 32.0202 179.62 32.2744 179.81C32.5322 179.996 32.7327 180.225 32.876 180.498C33.0228 180.77 33.0962 181.069 33.0962 181.395V181.405C33.0962 181.842 32.9709 182.231 32.7202 182.571C32.4731 182.907 32.1276 183.171 31.6836 183.36C31.2432 183.55 30.7365 183.645 30.1636 183.645ZM30.1636 182.678C30.493 182.678 30.7848 182.621 31.0391 182.506C31.2933 182.388 31.492 182.229 31.6353 182.028C31.7821 181.824 31.8555 181.591 31.8555 181.33V181.319C31.8555 181.054 31.7839 180.82 31.6406 180.616C31.4974 180.408 31.2969 180.247 31.0391 180.132C30.7848 180.014 30.493 179.955 30.1636 179.955C29.8306 179.955 29.5369 180.014 29.2827 180.132C29.0285 180.247 28.8298 180.408 28.6865 180.616C28.5433 180.82 28.4717 181.054 28.4717 181.319V181.33C28.4717 181.591 28.5433 181.824 28.6865 182.028C28.8333 182.229 29.0339 182.388 29.2881 182.506C29.5423 182.621 29.8341 182.678 30.1636 182.678ZM30.1636 178.983C30.45 178.983 30.7025 178.933 30.9209 178.833C31.1429 178.729 31.3148 178.585 31.4365 178.403C31.5583 178.22 31.6191 178.013 31.6191 177.78V177.769C31.6191 177.533 31.5565 177.323 31.4312 177.141C31.3094 176.958 31.1393 176.817 30.9209 176.716C30.7025 176.612 30.45 176.561 30.1636 176.561C29.8771 176.561 29.6229 176.612 29.4009 176.716C29.1825 176.817 29.0106 176.958 28.8853 177.141C28.7635 177.323 28.7026 177.533 28.7026 177.769V177.78C28.7026 178.013 28.7635 178.22 28.8853 178.403C29.0106 178.585 29.1825 178.729 29.4009 178.833C29.6193 178.933 29.8735 178.983 30.1636 178.983ZM37.3394 183.688C36.7414 183.688 36.2293 183.523 35.8032 183.194C35.3771 182.864 35.0495 182.397 34.8203 181.792C34.5911 181.183 34.4766 180.462 34.4766 179.627V179.617C34.4766 178.782 34.5911 178.063 34.8203 177.458C35.0495 176.852 35.3771 176.385 35.8032 176.056C36.2293 175.726 36.7414 175.562 37.3394 175.562C37.9373 175.562 38.4494 175.726 38.8755 176.056C39.3016 176.385 39.6292 176.852 39.8584 177.458C40.0911 178.063 40.2075 178.782 40.2075 179.617V179.627C40.2075 180.462 40.0911 181.183 39.8584 181.792C39.6292 182.397 39.3016 182.864 38.8755 183.194C38.4494 183.523 37.9373 183.688 37.3394 183.688ZM37.3394 182.684C37.6867 182.684 37.9821 182.56 38.2256 182.313C38.4727 182.066 38.6606 181.715 38.7896 181.26C38.922 180.802 38.9883 180.258 38.9883 179.627V179.617C38.9883 178.986 38.922 178.444 38.7896 177.989C38.6606 177.535 38.4727 177.185 38.2256 176.942C37.9821 176.695 37.6867 176.571 37.3394 176.571C36.9956 176.571 36.7002 176.695 36.4531 176.942C36.2096 177.185 36.0216 177.535 35.8892 177.989C35.7603 178.444 35.6958 178.986 35.6958 179.617V179.627C35.6958 180.258 35.7603 180.802 35.8892 181.26C36.0216 181.715 36.2096 182.066 36.4531 182.313C36.7002 182.56 36.9956 182.684 37.3394 182.684ZM44.4937 183.688C43.8957 183.688 43.3836 183.523 42.9575 183.194C42.5314 182.864 42.2038 182.397 41.9746 181.792C41.7454 181.183 41.6309 180.462 41.6309 179.627V179.617C41.6309 178.782 41.7454 178.063 41.9746 177.458C42.2038 176.852 42.5314 176.385 42.9575 176.056C43.3836 175.726 43.8957 175.562 44.4937 175.562C45.0916 175.562 45.6037 175.726 46.0298 176.056C46.4559 176.385 46.7835 176.852 47.0127 177.458C47.2454 178.063 47.3618 178.782 47.3618 179.617V179.627C47.3618 180.462 47.2454 181.183 47.0127 181.792C46.7835 182.397 46.4559 182.864 46.0298 183.194C45.6037 183.523 45.0916 183.688 44.4937 183.688ZM44.4937 182.684C44.841 182.684 45.1364 182.56 45.3799 182.313C45.627 182.066 45.8149 181.715 45.9438 181.26C46.0763 180.802 46.1426 180.258 46.1426 179.627V179.617C46.1426 178.986 46.0763 178.444 45.9438 177.989C45.8149 177.535 45.627 177.185 45.3799 176.942C45.1364 176.695 44.841 176.571 44.4937 176.571C44.1499 176.571 43.8545 176.695 43.6074 176.942C43.3639 177.185 43.1759 177.535 43.0435 177.989C42.9146 178.444 42.8501 178.986 42.8501 179.617V179.627C42.8501 180.258 42.9146 180.802 43.0435 181.26C43.1759 181.715 43.3639 182.066 43.6074 182.313C43.8545 182.56 44.1499 182.684 44.4937 182.684ZM48.8979 180.911V179.842H52.4912V180.911H48.8979ZM57.019 183.688C56.6287 183.688 56.2528 183.616 55.8911 183.473C55.533 183.326 55.2108 183.097 54.9243 182.786C54.6414 182.471 54.4159 182.062 54.2476 181.561C54.0828 181.06 54.0005 180.453 54.0005 179.74V179.729C54.0005 178.856 54.1222 178.109 54.3657 177.49C54.6092 176.867 54.9601 176.39 55.4185 176.061C55.8768 175.728 56.4246 175.562 57.062 175.562C57.5203 175.562 57.9339 175.646 58.3027 175.814C58.6715 175.982 58.9777 176.215 59.2212 176.512C59.4647 176.806 59.6276 177.148 59.71 177.538L59.7261 177.603H58.5283L58.5068 177.549C58.4352 177.348 58.3314 177.178 58.1953 177.039C58.0628 176.895 57.8999 176.784 57.7065 176.706C57.5168 176.623 57.3001 176.582 57.0566 176.582C56.6234 176.582 56.2689 176.711 55.9932 176.969C55.721 177.223 55.5187 177.563 55.3862 177.989C55.2537 178.415 55.1768 178.884 55.1553 179.396C55.1517 179.447 55.1499 179.497 55.1499 179.547C55.1499 179.597 55.1499 179.647 55.1499 179.697L55.3809 180.992C55.3809 181.307 55.4525 181.591 55.5957 181.846C55.7425 182.1 55.9395 182.302 56.1865 182.453C56.4336 182.603 56.7075 182.678 57.0083 182.678C57.3127 182.678 57.5866 182.605 57.8301 182.458C58.0771 182.311 58.2723 182.112 58.4155 181.862C58.5623 181.611 58.6357 181.332 58.6357 181.024V181.013C58.6357 180.694 58.5659 180.413 58.4263 180.17C58.2902 179.923 58.1004 179.729 57.8569 179.59C57.6134 179.447 57.3359 179.375 57.0244 179.375C56.7165 179.375 56.4372 179.445 56.1865 179.584C55.9395 179.724 55.7425 179.916 55.5957 180.159C55.4525 180.399 55.3809 180.675 55.3809 180.986V180.992H55.064V179.579H55.252C55.3486 179.371 55.4883 179.178 55.6709 178.999C55.8571 178.82 56.0863 178.677 56.3584 178.569C56.6305 178.458 56.9421 178.403 57.293 178.403C57.7871 178.403 58.224 178.516 58.6035 178.741C58.9867 178.963 59.2856 179.268 59.5005 179.654C59.7189 180.041 59.8281 180.483 59.8281 180.981V180.992C59.8281 181.511 59.7064 181.975 59.4629 182.383C59.223 182.787 58.8918 183.106 58.4692 183.339C58.0467 183.572 57.5633 183.688 57.019 183.688ZM64.2163 183.688C63.826 183.688 63.45 183.616 63.0884 183.473C62.7303 183.326 62.408 183.097 62.1216 182.786C61.8387 182.471 61.6131 182.062 61.4448 181.561C61.2801 181.06 61.1978 180.453 61.1978 179.74V179.729C61.1978 178.856 61.3195 178.109 61.563 177.49C61.8065 176.867 62.1574 176.39 62.6157 176.061C63.0741 175.728 63.6219 175.562 64.2593 175.562C64.7176 175.562 65.1312 175.646 65.5 175.814C65.8688 175.982 66.175 176.215 66.4185 176.512C66.6619 176.806 66.8249 177.148 66.9072 177.538L66.9233 177.603H65.7256L65.7041 177.549C65.6325 177.348 65.5286 177.178 65.3926 177.039C65.2601 176.895 65.0972 176.784 64.9038 176.706C64.714 176.623 64.4974 176.582 64.2539 176.582C63.8206 176.582 63.4661 176.711 63.1904 176.969C62.9183 177.223 62.716 177.563 62.5835 177.989C62.451 178.415 62.374 178.884 62.3525 179.396C62.349 179.447 62.3472 179.497 62.3472 179.547C62.3472 179.597 62.3472 179.647 62.3472 179.697L62.5781 180.992C62.5781 181.307 62.6497 181.591 62.793 181.846C62.9398 182.1 63.1367 182.302 63.3838 182.453C63.6309 182.603 63.9048 182.678 64.2056 182.678C64.5099 182.678 64.7839 182.605 65.0273 182.458C65.2744 182.311 65.4696 182.112 65.6128 181.862C65.7596 181.611 65.833 181.332 65.833 181.024V181.013C65.833 180.694 65.7632 180.413 65.6235 180.17C65.4875 179.923 65.2977 179.729 65.0542 179.59C64.8107 179.447 64.5332 179.375 64.2217 179.375C63.9137 179.375 63.6344 179.445 63.3838 179.584C63.1367 179.724 62.9398 179.916 62.793 180.159C62.6497 180.399 62.5781 180.675 62.5781 180.986V180.992H62.2612V179.579H62.4492C62.5459 179.371 62.6855 179.178 62.8682 178.999C63.0544 178.82 63.2835 178.677 63.5557 178.569C63.8278 178.458 64.1393 178.403 64.4902 178.403C64.9844 178.403 65.4212 178.516 65.8008 178.741C66.1839 178.963 66.4829 179.268 66.6978 179.654C66.9162 180.041 67.0254 180.483 67.0254 180.981V180.992C67.0254 181.511 66.9036 181.975 66.6602 182.383C66.4202 182.787 66.089 183.106 65.6665 183.339C65.244 183.572 64.7606 183.688 64.2163 183.688ZM68.5454 183.5V182.678L71.1235 179.982C71.4673 179.624 71.734 179.33 71.9238 179.101C72.1136 178.868 72.2461 178.661 72.3213 178.478C72.4001 178.295 72.4395 178.098 72.4395 177.887V177.876C72.4395 177.622 72.384 177.397 72.2729 177.2C72.1655 176.999 72.0098 176.843 71.8057 176.732C71.6016 176.618 71.3581 176.561 71.0752 176.561C70.7887 176.561 70.5363 176.62 70.3179 176.738C70.0994 176.856 69.9294 177.021 69.8076 177.232C69.6859 177.443 69.625 177.69 69.625 177.973V177.995L68.4863 177.989L68.481 177.979C68.4845 177.506 68.5991 177.089 68.8247 176.727C69.0503 176.362 69.3636 176.077 69.7646 175.873C70.1657 175.665 70.6258 175.562 71.145 175.562C71.6248 175.562 72.0527 175.656 72.4287 175.846C72.8083 176.032 73.1073 176.292 73.3257 176.625C73.5441 176.954 73.6533 177.332 73.6533 177.758V177.774C73.6533 178.068 73.5996 178.353 73.4922 178.628C73.3848 178.904 73.1986 179.207 72.9336 179.536C72.6722 179.866 72.307 180.263 71.8379 180.729L69.8828 182.678L70.1943 182.136V182.678L69.8882 182.469H73.7769V183.5H68.5454ZM75.3345 180.911V179.842H78.9277V180.911H75.3345ZM84.1484 183.5V181.964H80.3672V180.938C80.5713 180.587 80.779 180.234 80.9902 179.88C81.2051 179.525 81.4199 179.171 81.6348 178.816C81.8532 178.462 82.0716 178.113 82.29 177.769C82.5085 177.422 82.7269 177.08 82.9453 176.743C83.1637 176.403 83.3786 176.072 83.5898 175.75H85.314V180.938H86.3828V181.964H85.314V183.5H84.1484ZM81.5273 180.959H84.1646V176.77H84.0947C83.9264 177.021 83.7563 177.28 83.5845 177.549C83.4126 177.814 83.2371 178.086 83.0581 178.365C82.8826 178.645 82.7072 178.926 82.5317 179.208C82.3563 179.491 82.1844 179.774 82.0161 180.057C81.8478 180.336 81.6849 180.612 81.5273 180.884V180.959ZM90.583 183.645C90.0316 183.645 89.55 183.552 89.1382 183.366C88.7264 183.176 88.4006 182.916 88.1606 182.587C87.9207 182.257 87.7811 181.88 87.7417 181.454L87.7363 181.384H88.8965L88.9019 181.443C88.9269 181.676 89.0111 181.882 89.1543 182.061C89.2975 182.24 89.4909 182.381 89.7344 182.485C89.9814 182.585 90.2643 182.635 90.583 182.635C90.9017 182.635 91.1792 182.582 91.4155 182.474C91.6519 182.363 91.8363 182.211 91.9688 182.018C92.1012 181.821 92.1675 181.597 92.1675 181.346V181.335C92.1675 180.899 92.0189 180.564 91.7217 180.331C91.4245 180.095 91.0181 179.977 90.5024 179.977H89.5625V179.031H90.4648C90.762 179.031 91.0216 178.979 91.2437 178.875C91.4657 178.768 91.6393 178.621 91.7646 178.435C91.89 178.249 91.9526 178.036 91.9526 177.796V177.785C91.9526 177.535 91.8989 177.321 91.7915 177.146C91.6841 176.967 91.5265 176.831 91.3188 176.738C91.1147 176.641 90.8659 176.593 90.5723 176.593C90.2858 176.593 90.0316 176.641 89.8096 176.738C89.5876 176.834 89.4103 176.972 89.2778 177.151C89.1453 177.327 89.0666 177.538 89.0415 177.785L89.0361 177.833H87.8975L87.9028 177.78C87.9458 177.339 88.0819 176.958 88.311 176.636C88.5438 176.31 88.8517 176.057 89.2349 175.878C89.6216 175.696 90.0674 175.604 90.5723 175.604C91.0879 175.604 91.5373 175.69 91.9204 175.862C92.3035 176.034 92.6007 176.272 92.812 176.577C93.0233 176.877 93.1289 177.228 93.1289 177.629V177.64C93.1289 177.962 93.0573 178.247 92.9141 178.494C92.7744 178.738 92.5811 178.942 92.334 179.106C92.0905 179.268 91.8112 179.38 91.4961 179.445V179.472C92.0654 179.518 92.5238 179.706 92.8711 180.036C93.2184 180.365 93.3921 180.802 93.3921 181.346V181.357C93.3921 181.801 93.2721 182.197 93.0322 182.544C92.7923 182.888 92.4611 183.158 92.0386 183.355C91.6196 183.548 91.1344 183.645 90.583 183.645ZM97.6084 183.688C97.1035 183.688 96.6559 183.591 96.2656 183.398C95.8753 183.205 95.5638 182.941 95.3311 182.608C95.0983 182.272 94.9622 181.896 94.9229 181.48L94.9175 181.411H96.0508L96.0562 181.454C96.092 181.679 96.1779 181.885 96.314 182.071C96.4536 182.257 96.6362 182.404 96.8618 182.512C97.0874 182.619 97.3398 182.673 97.6191 182.673C97.9378 182.673 98.2189 182.603 98.4624 182.463C98.7059 182.32 98.8957 182.125 99.0317 181.878C99.1714 181.631 99.2412 181.346 99.2412 181.024V181.013C99.2412 180.694 99.1714 180.412 99.0317 180.165C98.8921 179.917 98.7023 179.726 98.4624 179.59C98.2225 179.45 97.945 179.38 97.6299 179.38C97.3971 179.38 97.1805 179.416 96.98 179.488C96.783 179.556 96.6076 179.66 96.4536 179.799C96.3856 179.864 96.3211 179.934 96.2603 180.009C96.1994 180.08 96.1457 180.161 96.0991 180.25H95.0571L95.4438 175.75H99.9556V176.77H96.3945L96.1582 179.241H96.2441C96.3551 179.065 96.493 178.917 96.6577 178.795C96.826 178.673 97.0158 178.58 97.2271 178.516C97.4383 178.451 97.6621 178.419 97.8984 178.419C98.3854 178.419 98.8151 178.53 99.1875 178.752C99.5635 178.974 99.8589 179.278 100.074 179.665C100.289 180.052 100.396 180.494 100.396 180.992V181.002C100.396 181.529 100.276 181.994 100.036 182.399C99.7998 182.804 99.4722 183.12 99.0532 183.35C98.6379 183.575 98.1562 183.688 97.6084 183.688ZM102.233 183.5L105.649 176.851V176.77H101.588V175.75H106.868V176.797L103.5 183.5H102.233Z" fill="#FFFCF5" fill-opacity="0.85"/>
</g>
<path d="M143 184.25L147 180.25L143 176.25" stroke="#FFFCF5" stroke-width="1.6" stroke-linecap="round" stroke-linejoin="round"/>
</g>
<defs>
<clipPath id="clip0_612_6132">
<path d="M0 24C0 10.7452 10.7452 0 24 0H145C158.255 0 169 10.7452 169 24V184C169 197.255 158.255 208 145 208H24C10.7452 208 0 197.255 0 184V24Z" fill="white"/>
</clipPath>
<clipPath id="clip1_612_6132">
<rect width="91" height="17" fill="white" transform="translate(16.1172 171.75)"/>
</clipPath>
</defs>
</svg>
