<svg width="169" height="208" viewBox="0 0 169 208" fill="none" xmlns="http://www.w3.org/2000/svg">
<g clip-path="url(#clip0_612_6145)">
<path d="M0 24C0 10.7452 10.7452 0 24 0H145C158.255 0 169 10.7452 169 24V184C169 197.255 158.255 208 145 208H24C10.7452 208 0 197.255 0 184V24Z" fill="#FF87EB"/>
<g opacity="0.6">
<path d="M121 82C121 64.3269 135.327 50 153 50C170.673 50 185 64.3269 185 82C185 99.6731 170.673 114 153 114C135.327 114 121 99.6731 121 82Z" fill="#465AE1"/>
</g>
<path d="M16.9722 99.75V91.9995H18.1753V95.2759H22.1499V91.9995H23.3584V99.75H22.1499V96.3179H18.1753V99.75H16.9722ZM27.2881 99.75V91.9995H32.208V93.0415H28.4912V95.3027H32.0093V96.3018H28.4912V98.708H32.208V99.75H27.2881ZM35.9283 99.75V91.9995H37.1314V98.708H40.7676V99.75H35.9283ZM44.8692 97.1021V96.0923H46.9854C47.5082 96.0923 47.9128 95.958 48.1993 95.6895C48.4893 95.4173 48.6343 95.0413 48.6343 94.5615V94.5508C48.6343 94.0638 48.4893 93.686 48.1993 93.4175C47.9128 93.1489 47.5082 93.0146 46.9854 93.0146H44.8692V91.9995H47.2862C47.7947 91.9995 48.2405 92.1069 48.6236 92.3218C49.0103 92.533 49.3129 92.8302 49.5313 93.2134C49.7497 93.5929 49.8589 94.0352 49.8589 94.54V94.5508C49.8589 95.0557 49.7497 95.5015 49.5313 95.8882C49.3129 96.2713 49.0103 96.5703 48.6236 96.7852C48.2405 96.9964 47.7947 97.1021 47.2862 97.1021H44.8692ZM44.2676 99.75V91.9995H45.4708V99.75H44.2676ZM53.3912 99.75V91.9995H54.5943V98.708H58.2305V99.75H53.3912ZM61.7306 99.75V91.9995H62.9337V99.75H61.7306ZM66.858 99.75V91.9995H67.9484L72.2238 98.0527L71.402 97.6284H72.0089V91.9995H73.1852V99.75H72.0948L67.8141 93.7021L68.6412 94.1265H68.0289V99.75H66.858ZM77.1095 99.75V91.9995H82.0294V93.0415H78.3126V95.3027H81.8307V96.3018H78.3126V98.708H82.0294V99.75H77.1095Z" fill="#FFFCF5" fill-opacity="0.85"/>
<path d="M20.56 127.5C19.08 126.2 16.66 124.04 16.6 119.96C16.52 112.92 22.36 111.28 25.52 111.28C31 111.28 33.76 113.62 33.8 116.54C33.8 118.32 32.84 119.38 32.5 119.82H27.12C28.94 116.24 28.34 113.36 25.28 113.36C23.52 113.36 22 114.66 22 117.44C22 120.3 22.06 124.64 33.72 123.44L30.5 127.5H20.56ZM35.0078 127.5V114.5H40.6078L40.6678 115.72C40.1078 116.5 39.1078 118.98 38.6878 121.44L39.6278 121.54C40.3878 116.76 42.1878 114.18 44.8678 114.18C47.4678 114.18 48.4078 116.46 48.4078 119.84H42.8078C42.8078 118.48 43.0278 117.34 42.3678 117.34C41.4278 117.34 40.6078 120.96 40.6078 127.5H35.0078ZM49.4023 118.9C49.7423 119.12 50.3023 119.32 50.7823 119.32C53.0623 119.32 54.3423 117.62 55.0023 116.68V127.5H49.4023V118.9ZM48.9823 116.18C48.9823 114.08 51.1223 111.2 53.2023 111.2C54.2823 111.2 55.1423 111.98 55.1423 113.34C55.1423 115.46 53.0023 118.32 50.9223 118.32C49.8223 118.32 48.9823 117.52 48.9823 116.18ZM56 122.38C57.32 122.86 59.26 123.28 60.76 123.28C61.72 123.28 63.58 123.02 63.58 122.24C63.58 120.74 56.4 121.42 56.4 117.68C56.4 115.74 57.94 114.2 61.76 114.2C65.06 114.2 67.42 114.98 68 115.2V119.86C66.86 119.4 65.56 118.76 64.02 118.76C62.92 118.76 61.66 118.96 61.66 119.5C61.66 120.84 68.8 120.3 68.8 124.24C68.8 125.66 68.1 126.58 67 127.5H59.1L56 122.38ZM70.0078 118.9C70.3478 119.12 70.9078 119.32 71.3878 119.32C73.6678 119.32 74.9478 117.62 75.6078 116.68V127.5H70.0078V118.9ZM69.5878 116.18C69.5878 114.08 71.7278 111.2 73.8078 111.2C74.8878 111.2 75.7478 111.98 75.7478 113.34C75.7478 115.46 73.6078 118.32 71.5278 118.32C70.4278 118.32 69.5878 117.52 69.5878 116.18ZM76.6055 122.38C77.9255 122.86 79.8655 123.28 81.3655 123.28C82.3255 123.28 84.1855 123.02 84.1855 122.24C84.1855 120.74 77.0055 121.42 77.0055 117.68C77.0055 115.74 78.5455 114.2 82.3655 114.2C85.6655 114.2 88.0255 114.98 88.6055 115.2V119.86C87.4655 119.4 86.1655 118.76 84.6255 118.76C83.5255 118.76 82.2655 118.96 82.2655 119.5C82.2655 120.84 89.4055 120.3 89.4055 124.24C89.4055 125.66 88.7055 126.58 87.6055 127.5H79.7055L76.6055 122.38ZM17 147.5V131.5H22.52V147.5H17ZM24.5195 138.9C24.8595 139.12 25.4195 139.32 25.8995 139.32C28.1795 139.32 29.4595 137.62 30.1195 136.68V147.5H24.5195V138.9ZM24.0995 136.18C24.0995 134.08 26.2395 131.2 28.3195 131.2C29.3995 131.2 30.2595 131.98 30.2595 133.34C30.2595 135.46 28.1195 138.32 26.0395 138.32C24.9395 138.32 24.0995 137.52 24.0995 136.18ZM34.3772 147.5C36.3772 144.68 33.5972 141.24 31.3172 141.24V139.94H33.2572C33.0972 139.78 32.4772 138.54 32.4772 137.58C32.4772 134.08 35.6972 131.24 39.6772 131.24C41.3372 131.24 42.8572 131.72 44.0772 132.56V138.22C43.3572 137.96 42.4972 137.7 41.5372 137.5C40.7972 137.34 38.5372 137.1 37.9772 137.76C37.4372 138.38 38.0972 139.86 38.2772 139.94H44.0772V141.24H39.1772C38.1572 140.82 37.3772 140.46 35.9772 140.08L35.6572 141.02C39.3172 142 43.9572 145.24 43.9572 147.5H34.3772ZM48.942 147.5C47.722 146.42 45.722 144.64 45.682 141.26C45.602 135.44 50.442 134.08 53.042 134.08C57.602 134.08 59.882 136.04 59.882 138.46C59.882 140.86 57.602 142.84 54.802 142.84C52.882 142.84 51.222 141.92 50.342 140.56L49.642 141.22C51.422 144.38 56.982 143.8 59.822 143.64L57.162 147.5H48.942ZM51.482 140.32C52.122 140.7 53.242 140.04 53.962 138.8C54.662 137.6 54.682 136.3 54.002 135.92C53.322 135.52 52.202 136.18 51.502 137.4C50.802 138.64 50.782 139.94 51.482 140.32ZM61.4727 147.5V131.5H66.9927V147.5H61.4727ZM68.9922 138.9C69.3322 139.12 69.8922 139.32 70.3722 139.32C72.6522 139.32 73.9322 137.62 74.5922 136.68V147.5H68.9922V138.9ZM68.5722 136.18C68.5722 134.08 70.7122 131.2 72.7922 131.2C73.8722 131.2 74.7322 131.98 74.7322 133.34C74.7322 135.46 72.5922 138.32 70.5122 138.32C69.4122 138.32 68.5722 137.52 68.5722 136.18ZM76.5898 147.5V134.5H82.1898L82.2498 135.92C81.6898 136.7 80.6898 138.98 80.2698 141.44L81.2698 141.54C82.1498 136.76 84.1698 134.18 86.8498 134.18C89.4498 134.18 90.7898 136.06 90.7898 139.44V147.5H85.1898V139.44C85.1898 138.08 85.0098 137.34 84.3298 137.34C83.0098 137.34 82.1898 140.96 82.1898 147.5H76.5898ZM95.5436 147.5C94.3236 146.42 92.3236 144.64 92.2836 141.26C92.2036 135.44 97.0436 134.08 99.6436 134.08C104.204 134.08 106.484 136.04 106.484 138.46C106.484 140.86 104.204 142.84 101.404 142.84C99.4836 142.84 97.8236 141.92 96.9436 140.56L96.2436 141.22C98.0236 144.38 103.584 143.8 106.424 143.64L103.764 147.5H95.5436ZM98.0836 140.32C98.7236 140.7 99.8436 140.04 100.564 138.8C101.264 137.6 101.284 136.3 100.604 135.92C99.9236 135.52 98.8036 136.18 98.1036 137.4C97.4036 138.64 97.3836 139.94 98.0836 140.32Z" fill="#FFFCF5"/>
<path d="M19.4912 157.062C19.8815 157.062 20.2557 157.135 20.6138 157.282C20.9754 157.425 21.2995 157.654 21.5859 157.969C21.8724 158.281 22.098 158.687 22.2627 159.188C22.4274 159.69 22.5098 160.297 22.5098 161.009V161.02C22.5098 161.894 22.388 162.642 22.1445 163.265C21.901 163.885 21.5501 164.361 21.0918 164.694C20.637 165.023 20.0892 165.188 19.4482 165.188C18.9899 165.188 18.5763 165.104 18.2075 164.936C17.8423 164.767 17.5379 164.535 17.2944 164.237C17.0509 163.94 16.8862 163.598 16.8003 163.211L16.7842 163.147H17.9819L18.0034 163.201C18.075 163.398 18.1789 163.568 18.3149 163.711C18.451 163.854 18.6139 163.967 18.8037 164.049C18.9935 164.128 19.2101 164.167 19.4536 164.167C19.8869 164.167 20.2396 164.04 20.5117 163.786C20.7874 163.528 20.9933 163.186 21.1294 162.76C21.2655 162.334 21.3424 161.865 21.3604 161.353C21.3639 161.299 21.3657 161.247 21.3657 161.197C21.3657 161.147 21.3657 161.099 21.3657 161.052L21.1294 159.758C21.1294 159.443 21.056 159.158 20.9092 158.904C20.766 158.65 20.5708 158.447 20.3237 158.297C20.0802 158.146 19.8063 158.071 19.502 158.071C19.2012 158.071 18.9272 158.145 18.6802 158.292C18.4367 158.438 18.2415 158.637 18.0947 158.888C17.9479 159.135 17.8745 159.414 17.8745 159.726V159.736C17.8745 160.051 17.9443 160.333 18.084 160.58C18.2236 160.827 18.4152 161.022 18.6587 161.165C18.9022 161.305 19.1779 161.375 19.4858 161.375C19.7974 161.375 20.0767 161.305 20.3237 161.165C20.5708 161.025 20.766 160.836 20.9092 160.596C21.056 160.352 21.1294 160.075 21.1294 159.763V159.758H21.4463V161.17H21.2583C21.1652 161.378 21.0256 161.571 20.8394 161.75C20.6532 161.93 20.424 162.075 20.1519 162.186C19.8833 162.293 19.5736 162.347 19.2227 162.347C18.7321 162.347 18.2952 162.236 17.9121 162.014C17.529 161.788 17.2282 161.482 17.0098 161.095C16.7913 160.705 16.6821 160.263 16.6821 159.769V159.758C16.6821 159.239 16.8021 158.777 17.042 158.372C17.2855 157.964 17.6185 157.643 18.041 157.411C18.4671 157.178 18.9505 157.062 19.4912 157.062ZM26.8228 165.145C26.2463 165.145 25.7378 165.05 25.2974 164.86C24.8569 164.671 24.5114 164.407 24.2607 164.071C24.0101 163.731 23.8848 163.342 23.8848 162.905V162.895C23.8848 162.569 23.9564 162.27 24.0996 161.998C24.2464 161.725 24.4487 161.496 24.7065 161.31C24.9679 161.12 25.2669 160.99 25.6035 160.918V160.891C25.1702 160.766 24.8211 160.551 24.5562 160.247C24.2948 159.942 24.1641 159.584 24.1641 159.172V159.162C24.1641 158.764 24.2769 158.411 24.5024 158.104C24.7316 157.796 25.0467 157.552 25.4478 157.373C25.8488 157.194 26.3071 157.104 26.8228 157.104C27.3384 157.104 27.7949 157.194 28.1924 157.373C28.5934 157.552 28.9067 157.796 29.1323 158.104C29.3615 158.411 29.4761 158.764 29.4761 159.162V159.172C29.4761 159.584 29.3454 159.942 29.084 160.247C28.8226 160.551 28.4753 160.766 28.042 160.891V160.918C28.3822 160.99 28.6794 161.12 28.9336 161.31C29.1914 161.496 29.3919 161.725 29.5352 161.998C29.682 162.27 29.7554 162.569 29.7554 162.895V162.905C29.7554 163.342 29.63 163.731 29.3794 164.071C29.1323 164.407 28.7868 164.671 28.3428 164.86C27.9023 165.05 27.3957 165.145 26.8228 165.145ZM26.8228 164.178C27.1522 164.178 27.444 164.121 27.6982 164.006C27.9525 163.888 28.1512 163.729 28.2944 163.528C28.4412 163.324 28.5146 163.091 28.5146 162.83V162.819C28.5146 162.554 28.443 162.32 28.2998 162.116C28.1566 161.908 27.9561 161.747 27.6982 161.632C27.444 161.514 27.1522 161.455 26.8228 161.455C26.4897 161.455 26.1961 161.514 25.9419 161.632C25.6877 161.747 25.4889 161.908 25.3457 162.116C25.2025 162.32 25.1309 162.554 25.1309 162.819V162.83C25.1309 163.091 25.2025 163.324 25.3457 163.528C25.4925 163.729 25.693 163.888 25.9473 164.006C26.2015 164.121 26.4933 164.178 26.8228 164.178ZM26.8228 160.483C27.1092 160.483 27.3617 160.433 27.5801 160.333C27.8021 160.229 27.974 160.085 28.0957 159.903C28.2174 159.72 28.2783 159.513 28.2783 159.28V159.269C28.2783 159.033 28.2157 158.823 28.0903 158.641C27.9686 158.458 27.7985 158.317 27.5801 158.216C27.3617 158.112 27.1092 158.061 26.8228 158.061C26.5363 158.061 26.2821 158.112 26.0601 158.216C25.8416 158.317 25.6698 158.458 25.5444 158.641C25.4227 158.823 25.3618 159.033 25.3618 159.269V159.28C25.3618 159.513 25.4227 159.72 25.5444 159.903C25.6698 160.085 25.8416 160.229 26.0601 160.333C26.2785 160.433 26.5327 160.483 26.8228 160.483ZM34.0737 165.145C33.4972 165.145 32.9888 165.05 32.5483 164.86C32.1079 164.671 31.7624 164.407 31.5117 164.071C31.2611 163.731 31.1357 163.342 31.1357 162.905V162.895C31.1357 162.569 31.2074 162.27 31.3506 161.998C31.4974 161.725 31.6997 161.496 31.9575 161.31C32.2189 161.12 32.5179 160.99 32.8545 160.918V160.891C32.4212 160.766 32.0721 160.551 31.8071 160.247C31.5457 159.942 31.415 159.584 31.415 159.172V159.162C31.415 158.764 31.5278 158.411 31.7534 158.104C31.9826 157.796 32.2977 157.552 32.6987 157.373C33.0998 157.194 33.5581 157.104 34.0737 157.104C34.5894 157.104 35.0459 157.194 35.4434 157.373C35.8444 157.552 36.1577 157.796 36.3833 158.104C36.6125 158.411 36.7271 158.764 36.7271 159.162V159.172C36.7271 159.584 36.5964 159.942 36.335 160.247C36.0736 160.551 35.7262 160.766 35.293 160.891V160.918C35.6331 160.99 35.9303 161.12 36.1846 161.31C36.4424 161.496 36.6429 161.725 36.7861 161.998C36.9329 162.27 37.0063 162.569 37.0063 162.895V162.905C37.0063 163.342 36.881 163.731 36.6304 164.071C36.3833 164.407 36.0378 164.671 35.5938 164.86C35.1533 165.05 34.6466 165.145 34.0737 165.145ZM34.0737 164.178C34.4032 164.178 34.695 164.121 34.9492 164.006C35.2035 163.888 35.4022 163.729 35.5454 163.528C35.6922 163.324 35.7656 163.091 35.7656 162.83V162.819C35.7656 162.554 35.694 162.32 35.5508 162.116C35.4076 161.908 35.207 161.747 34.9492 161.632C34.695 161.514 34.4032 161.455 34.0737 161.455C33.7407 161.455 33.4471 161.514 33.1929 161.632C32.9386 161.747 32.7399 161.908 32.5967 162.116C32.4535 162.32 32.3818 162.554 32.3818 162.819V162.83C32.3818 163.091 32.4535 163.324 32.5967 163.528C32.7435 163.729 32.944 163.888 33.1982 164.006C33.4525 164.121 33.7443 164.178 34.0737 164.178ZM34.0737 160.483C34.3602 160.483 34.6126 160.433 34.8311 160.333C35.0531 160.229 35.2249 160.085 35.3467 159.903C35.4684 159.72 35.5293 159.513 35.5293 159.28V159.269C35.5293 159.033 35.4666 158.823 35.3413 158.641C35.2196 158.458 35.0495 158.317 34.8311 158.216C34.6126 158.112 34.3602 158.061 34.0737 158.061C33.7873 158.061 33.533 158.112 33.311 158.216C33.0926 158.317 32.9207 158.458 32.7954 158.641C32.6737 158.823 32.6128 159.033 32.6128 159.269V159.28C32.6128 159.513 32.6737 159.72 32.7954 159.903C32.9207 160.085 33.0926 160.229 33.311 160.333C33.5295 160.433 33.7837 160.483 34.0737 160.483ZM41.5181 162.411V161.342H45.1113V162.411H41.5181ZM51.374 165.097C51.0052 165.097 50.674 165.027 50.3804 164.887C50.0903 164.744 49.8612 164.542 49.6929 164.28C49.5246 164.019 49.4404 163.713 49.4404 163.362V163.351C49.4404 163 49.5246 162.701 49.6929 162.454C49.8647 162.207 50.1118 162.014 50.4341 161.874C50.7599 161.731 51.1538 161.645 51.6157 161.616L53.7695 161.487V162.309L51.7769 162.438C51.3758 162.463 51.0804 162.549 50.8906 162.696C50.7008 162.839 50.606 163.041 50.606 163.303V163.313C50.606 163.578 50.708 163.788 50.9121 163.942C51.1162 164.092 51.374 164.167 51.6855 164.167C51.9756 164.167 52.2334 164.11 52.459 163.996C52.6882 163.877 52.8672 163.72 52.9961 163.523C53.125 163.322 53.1895 163.097 53.1895 162.846V161.009C53.1895 160.687 53.0892 160.442 52.8887 160.273C52.6917 160.102 52.3981 160.016 52.0078 160.016C51.682 160.016 51.4152 160.073 51.2075 160.188C51.0034 160.302 50.8674 160.463 50.7993 160.671L50.7886 160.687H49.666L49.6714 160.649C49.7179 160.327 49.8451 160.048 50.0527 159.812C50.264 159.572 50.5397 159.385 50.8799 159.253C51.2236 159.12 51.6157 159.054 52.0562 159.054C52.5467 159.054 52.9621 159.133 53.3022 159.291C53.646 159.444 53.9056 159.668 54.0811 159.962C54.2601 160.252 54.3496 160.601 54.3496 161.009V165H53.1895V164.173H53.1035C52.9889 164.37 52.8457 164.538 52.6738 164.678C52.502 164.814 52.3068 164.918 52.0884 164.989C51.87 165.061 51.6318 165.097 51.374 165.097ZM55.9932 165V159.167H57.1587V160.048H57.25C57.3932 159.736 57.6045 159.493 57.8838 159.317C58.1631 159.142 58.5158 159.054 58.9419 159.054C59.5972 159.054 60.0985 159.242 60.4458 159.618C60.7931 159.994 60.9668 160.529 60.9668 161.224V165H59.7959V161.498C59.7959 161.011 59.6938 160.649 59.4897 160.413C59.2892 160.173 58.9741 160.053 58.5444 160.053C58.2616 160.053 58.0163 160.116 57.8086 160.241C57.6009 160.363 57.4398 160.538 57.3252 160.768C57.2142 160.993 57.1587 161.264 57.1587 161.579V165H55.9932ZM62.9648 167.052C62.8932 167.052 62.8162 167.048 62.7339 167.041C62.6515 167.037 62.5728 167.032 62.4976 167.025V166.106C62.5549 166.114 62.6175 166.119 62.6855 166.123C62.7572 166.126 62.8252 166.128 62.8896 166.128C63.1618 166.128 63.382 166.063 63.5503 165.935C63.7186 165.809 63.8457 165.6 63.9316 165.306L64.0176 165.005L61.9014 159.167H63.1636L64.8125 164.425L64.4473 163.824H64.8931L64.5332 164.425L66.1768 159.167H67.4067L65.2368 165.22C65.0721 165.686 64.8895 166.051 64.689 166.316C64.4884 166.584 64.2503 166.774 63.9746 166.885C63.6989 166.996 63.3623 167.052 62.9648 167.052ZM70.7959 165.038C70.1585 165.038 69.6966 164.916 69.4102 164.672C69.1273 164.425 68.9858 164.022 68.9858 163.464V160.085H68.0728V159.167H68.9858V157.695H70.1782V159.167H71.4297V160.085H70.1782V163.179C70.1782 163.494 70.2409 163.722 70.3662 163.861C70.4915 163.997 70.6992 164.065 70.9893 164.065C71.0752 164.065 71.1486 164.064 71.2095 164.06C71.2739 164.056 71.3473 164.051 71.4297 164.044V164.979C71.3366 164.993 71.2363 165.005 71.1289 165.016C71.0215 165.03 70.9105 165.038 70.7959 165.038ZM72.8101 165V159.167H73.981V165H72.8101ZM73.4009 158.125C73.2004 158.125 73.0285 158.053 72.8853 157.91C72.742 157.767 72.6704 157.595 72.6704 157.395C72.6704 157.194 72.742 157.024 72.8853 156.884C73.0285 156.741 73.2004 156.669 73.4009 156.669C73.6014 156.669 73.7733 156.741 73.9165 156.884C74.0597 157.024 74.1313 157.194 74.1313 157.395C74.1313 157.595 74.0597 157.767 73.9165 157.91C73.7733 158.053 73.6014 158.125 73.4009 158.125ZM75.6729 165V159.167H76.8384V160.064H76.9297C77.0586 159.742 77.2591 159.493 77.5312 159.317C77.807 159.142 78.1364 159.054 78.5195 159.054C78.7845 159.054 79.0226 159.097 79.2339 159.183C79.4451 159.269 79.626 159.391 79.7764 159.548C79.9303 159.702 80.0503 159.885 80.1362 160.096H80.2275C80.3242 159.885 80.4603 159.702 80.6357 159.548C80.8112 159.391 81.0153 159.269 81.248 159.183C81.4844 159.097 81.735 159.054 82 159.054C82.3939 159.054 82.7305 159.131 83.0098 159.285C83.2891 159.436 83.5021 159.654 83.6489 159.94C83.7957 160.227 83.8691 160.572 83.8691 160.977V165H82.7036V161.256C82.7036 160.988 82.6624 160.766 82.5801 160.59C82.4977 160.411 82.3724 160.277 82.2041 160.188C82.0394 160.098 81.8317 160.053 81.5811 160.053C81.334 160.053 81.1174 160.111 80.9312 160.225C80.7485 160.336 80.6053 160.486 80.5015 160.676C80.4012 160.862 80.3511 161.074 80.3511 161.31V165H79.1855V161.138C79.1855 160.916 79.139 160.725 79.0459 160.563C78.9564 160.399 78.8275 160.273 78.6592 160.188C78.4909 160.098 78.2922 160.053 78.063 160.053C77.8302 160.053 77.6208 160.114 77.4346 160.236C77.252 160.358 77.1069 160.522 76.9995 160.73C76.8921 160.934 76.8384 161.163 76.8384 161.417V165H75.6729ZM87.9512 165.113C87.3818 165.113 86.8931 164.991 86.4849 164.748C86.0767 164.5 85.7616 164.151 85.5396 163.7C85.3211 163.249 85.2119 162.715 85.2119 162.1V162.094C85.2119 161.486 85.3211 160.954 85.5396 160.499C85.7616 160.044 86.0731 159.69 86.4741 159.436C86.8787 159.181 87.3514 159.054 87.8921 159.054C88.4364 159.054 88.9036 159.176 89.2939 159.419C89.6878 159.663 89.9904 160.005 90.2017 160.445C90.4129 160.882 90.5186 161.394 90.5186 161.981V162.39H85.8027V161.557H89.9385L89.3799 162.331V161.863C89.3799 161.448 89.3154 161.104 89.1865 160.832C89.0612 160.556 88.8875 160.35 88.6655 160.214C88.4435 160.078 88.1875 160.01 87.8975 160.01C87.6074 160.01 87.3478 160.082 87.1187 160.225C86.8931 160.365 86.714 160.572 86.5815 160.848C86.4526 161.124 86.3882 161.462 86.3882 161.863V162.331C86.3882 162.714 86.4526 163.041 86.5815 163.313C86.7104 163.586 86.8931 163.793 87.1294 163.937C87.3693 164.08 87.6522 164.151 87.978 164.151C88.2287 164.151 88.4435 164.117 88.6226 164.049C88.8052 163.978 88.9538 163.89 89.0684 163.786C89.1865 163.682 89.2671 163.58 89.3101 163.48L89.3315 163.437H90.4595L90.4487 163.485C90.3986 163.679 90.3109 163.872 90.1855 164.065C90.0602 164.255 89.8937 164.429 89.686 164.586C89.4819 164.744 89.2349 164.871 88.9448 164.968C88.6584 165.064 88.3271 165.113 87.9512 165.113Z" fill="#FFFCF5" fill-opacity="0.85"/>
<path d="M143 165.5L147 161.5L143 157.5" stroke="#FFFCF5" stroke-width="1.6" stroke-linecap="round" stroke-linejoin="round"/>
</g>
<defs>
<clipPath id="clip0_612_6145">
<path d="M0 24C0 10.7452 10.7452 0 24 0H145C158.255 0 169 10.7452 169 24V184C169 197.255 158.255 208 145 208H24C10.7452 208 0 197.255 0 184V24Z" fill="white"/>
</clipPath>
</defs>
</svg>
