<svg width="22" height="18" viewBox="0 0 22 18" fill="none" xmlns="http://www.w3.org/2000/svg">
<g clip-path="url(#clip0_1479_6503)">
<path d="M2.24609 17.998H18.8574C20.3516 17.998 21.1035 17.2754 21.1035 15.7715V12.0312C21.1035 10.5469 20.3516 9.81445 18.8574 9.81445H2.24609C0.751953 9.81445 0 10.5469 0 12.0312V15.7715C0 17.2754 0.751953 17.998 2.24609 17.998ZM2.36328 16.5234C1.78711 16.5234 1.47461 16.2207 1.47461 15.6152V12.1973C1.47461 11.582 1.78711 11.2891 2.36328 11.2891H18.7305C19.3164 11.2891 19.6289 11.582 19.6289 12.1973V15.6152C19.6289 16.2207 19.3164 16.5234 18.7305 16.5234H2.36328Z" fill="#465AE1"/>
<path d="M2.24609 8.20312H18.8574C20.3516 8.20312 21.1035 7.4707 21.1035 5.9668V2.23633C21.1035 0.742188 20.3516 0.0195312 18.8574 0.0195312H2.24609C0.751953 0.0195312 0 0.742188 0 2.23633V5.9668C0 7.4707 0.751953 8.20312 2.24609 8.20312ZM2.36328 6.72852C1.78711 6.72852 1.47461 6.42578 1.47461 5.82031V2.40234C1.47461 1.78711 1.78711 1.49414 2.36328 1.49414H18.7305C19.3164 1.49414 19.6289 1.78711 19.6289 2.40234V5.82031C19.6289 6.42578 19.3164 6.72852 18.7305 6.72852H2.36328Z" fill="#465AE1"/>
</g>
<defs>
<clipPath id="clip0_1479_6503">
<rect width="21.4648" height="17.998" fill="white"/>
</clipPath>
</defs>
</svg>
