<svg width="362" height="175" viewBox="0 0 362 175" fill="none" xmlns="http://www.w3.org/2000/svg">
<g clip-path="url(#clip0_630_14950)">
<rect width="362" height="175" rx="30" fill="#69E093"/>
<g clip-path="url(#clip1_630_14950)">
<rect width="362" height="207" transform="translate(0 -16)" fill="#755D7B" fill-opacity="0.24"/>
<path d="M27.7354 92.166C27.0973 92.166 26.5456 92.0163 26.0801 91.7168C25.6146 91.4173 25.2549 90.9925 25.001 90.4424C24.7503 89.8923 24.625 89.2396 24.625 88.4844V88.4746C24.625 87.7161 24.7503 87.0618 25.001 86.5117C25.2549 85.9616 25.613 85.5368 26.0752 85.2373C26.5407 84.9378 27.0924 84.7881 27.7305 84.7881C28.2253 84.7881 28.6745 84.8857 29.0781 85.0811C29.485 85.2731 29.8203 85.5417 30.084 85.8867C30.3477 86.2285 30.5137 86.624 30.582 87.0732L30.5771 87.083H29.6934L29.6885 87.0732C29.6104 86.7705 29.4785 86.5101 29.293 86.292C29.1074 86.0706 28.8812 85.8997 28.6143 85.7793C28.3506 85.6589 28.056 85.5986 27.7305 85.5986C27.2812 85.5986 26.8906 85.7158 26.5586 85.9502C26.2298 86.1846 25.9759 86.5166 25.7969 86.9463C25.6178 87.376 25.5283 87.8854 25.5283 88.4746V88.4844C25.5283 89.0703 25.6178 89.5781 25.7969 90.0078C25.9759 90.4375 26.2298 90.7695 26.5586 91.0039C26.8906 91.2383 27.2829 91.3555 27.7354 91.3555C28.0641 91.3555 28.362 91.3034 28.6289 91.1992C28.8958 91.0918 29.1204 90.9404 29.3027 90.7451C29.485 90.5465 29.612 90.3122 29.6836 90.042L29.6934 90.0322H30.582V90.042C30.5039 90.4717 30.3346 90.846 30.0742 91.165C29.8138 91.4808 29.4834 91.7266 29.083 91.9023C28.6859 92.0781 28.2367 92.166 27.7354 92.166ZM33.7998 92L36.3975 84.9541H37.0713V86.0918H36.793L34.7227 92H33.7998ZM34.9766 89.9834L35.25 89.2363H38.4336L38.707 89.9834H34.9766ZM38.9414 92L36.8711 86.0918V84.9541H37.2666L39.8643 92H38.9414ZM44.6006 92V85.7451H42.3301V84.9541H47.75V85.7451H45.4795V92H44.6006ZM51.6074 92V84.9541H55.9727V85.7451H52.4863V88.0059H55.792V88.7871H52.4863V91.209H55.9727V92H51.6074ZM62.9844 92.166C62.3366 92.166 61.7734 92.0163 61.2949 91.7168C60.8164 91.4141 60.4453 90.986 60.1816 90.4326C59.9212 89.8792 59.791 89.2282 59.791 88.4795V88.4697C59.791 87.7275 59.9229 87.0814 60.1865 86.5312C60.4502 85.9779 60.8213 85.5498 61.2998 85.2471C61.7816 84.9411 62.3431 84.7881 62.9844 84.7881C63.5052 84.7881 63.9691 84.8809 64.376 85.0664C64.7861 85.2487 65.123 85.5059 65.3867 85.8379C65.6536 86.1699 65.8327 86.5589 65.9238 87.0049L65.9336 87.0537H65.0449L65.0303 87.0049C64.887 86.5492 64.6413 86.2008 64.293 85.96C63.9447 85.7191 63.5085 85.5986 62.9844 85.5986C62.5189 85.5986 62.1136 85.7174 61.7686 85.9551C61.4268 86.1895 61.1615 86.5215 60.9727 86.9512C60.7839 87.3809 60.6895 87.887 60.6895 88.4697V88.4795C60.6895 89.0687 60.7822 89.5798 60.9678 90.0127C61.1566 90.4424 61.4219 90.7744 61.7637 91.0088C62.1087 91.2399 62.5173 91.3555 62.9893 91.3555C63.4092 91.3555 63.777 91.2725 64.0928 91.1064C64.4118 90.9372 64.6592 90.7028 64.835 90.4033C65.0107 90.1038 65.0986 89.7555 65.0986 89.3584V89.1875H63.1211V88.416H65.9775V89.2754C65.9775 89.8548 65.8522 90.361 65.6016 90.7939C65.3542 91.2269 65.0059 91.5638 64.5566 91.8047C64.1107 92.0456 63.5866 92.166 62.9844 92.166ZM72.9941 92.166C72.3203 92.166 71.7425 92.0163 71.2607 91.7168C70.779 91.4141 70.4079 90.986 70.1475 90.4326C69.8903 89.8792 69.7617 89.2282 69.7617 88.4795V88.4697C69.7617 87.7145 69.8919 87.0618 70.1523 86.5117C70.416 85.9616 70.7887 85.5368 71.2705 85.2373C71.7555 84.9378 72.3301 84.7881 72.9941 84.7881C73.6615 84.7881 74.236 84.9378 74.7178 85.2373C75.2028 85.5368 75.5755 85.9632 75.8359 86.5166C76.0964 87.0667 76.2266 87.7178 76.2266 88.4697V88.4795C76.2266 89.2282 76.0964 89.8792 75.8359 90.4326C75.5788 90.9827 75.2077 91.4092 74.7227 91.7119C74.2409 92.0146 73.6647 92.166 72.9941 92.166ZM72.9941 91.3555C73.4759 91.3555 73.891 91.2367 74.2393 90.999C74.5876 90.7614 74.8561 90.4277 75.0449 89.998C75.2337 89.5651 75.3281 89.0589 75.3281 88.4795V88.4697C75.3281 87.8838 75.2337 87.376 75.0449 86.9463C74.8561 86.5166 74.5876 86.1846 74.2393 85.9502C73.891 85.7158 73.4759 85.5986 72.9941 85.5986C72.5156 85.5986 72.1022 85.7158 71.7539 85.9502C71.4056 86.1846 71.1354 86.5166 70.9434 86.9463C70.7546 87.376 70.6602 87.8838 70.6602 88.4697V88.4795C70.6602 89.0589 70.7529 89.5651 70.9385 89.998C71.124 90.4277 71.391 90.7614 71.7393 90.999C72.0876 91.2367 72.5059 91.3555 72.9941 91.3555ZM80.25 92V84.9541H82.9404C83.3929 84.9541 83.7868 85.042 84.1221 85.2178C84.4606 85.3903 84.7227 85.6328 84.9082 85.9453C85.0938 86.2578 85.1865 86.6257 85.1865 87.0488V87.0586C85.1865 87.5469 85.0612 87.9701 84.8105 88.3281C84.5599 88.6862 84.2132 88.9352 83.7705 89.0752L85.4014 92H84.3711L82.8623 89.2119C82.8558 89.2119 82.8477 89.2119 82.8379 89.2119C82.8281 89.2119 82.82 89.2119 82.8135 89.2119H81.1289V92H80.25ZM81.1289 88.4307H82.8623C83.3148 88.4307 83.6631 88.3151 83.9072 88.084C84.1546 87.8496 84.2783 87.5176 84.2783 87.0879V87.0781C84.2783 86.6582 84.1497 86.3294 83.8926 86.0918C83.6354 85.8542 83.279 85.7354 82.8232 85.7354H81.1289V88.4307ZM91.0264 92V88.9678L88.5264 84.9541H89.5273L91.4268 88.084H91.5049L93.4043 84.9541H94.4053L91.9053 88.9678V92H91.0264ZM104.039 89.7979C103.867 89.7979 103.717 89.736 103.59 89.6123C103.466 89.4854 103.404 89.3356 103.404 89.1631C103.404 88.9873 103.466 88.8376 103.59 88.7139C103.717 88.5902 103.867 88.5283 104.039 88.5283C104.215 88.5283 104.365 88.5902 104.488 88.7139C104.612 88.8376 104.674 88.9873 104.674 89.1631C104.674 89.3356 104.612 89.4854 104.488 89.6123C104.365 89.736 104.215 89.7979 104.039 89.7979ZM116.437 92.166C116 92.166 115.611 92.0798 115.27 91.9072C114.928 91.7347 114.653 91.5003 114.444 91.2041C114.239 90.9046 114.119 90.5677 114.083 90.1934L114.078 90.1396H114.923L114.928 90.1787C114.957 90.4033 115.038 90.6084 115.172 90.7939C115.309 90.9762 115.486 91.1211 115.704 91.2285C115.925 91.3359 116.173 91.3896 116.446 91.3896C116.759 91.3896 117.034 91.3213 117.271 91.1846C117.509 91.0446 117.695 90.8525 117.828 90.6084C117.962 90.3643 118.028 90.0843 118.028 89.7686V89.7588C118.028 89.4463 117.96 89.1696 117.823 88.9287C117.69 88.6846 117.506 88.4941 117.271 88.3574C117.037 88.2207 116.767 88.1523 116.461 88.1523C116.227 88.1523 116.01 88.1882 115.812 88.2598C115.616 88.3314 115.442 88.4388 115.289 88.582C115.227 88.6406 115.169 88.7041 115.113 88.7725C115.061 88.8408 115.012 88.9173 114.967 89.002H114.205L114.576 84.9541H118.497V85.7402H115.27L115.03 88.123H115.108C115.265 87.8854 115.475 87.7048 115.738 87.5811C116.002 87.4541 116.293 87.3906 116.612 87.3906C117.055 87.3906 117.447 87.4932 117.789 87.6982C118.131 87.9001 118.399 88.1784 118.595 88.5332C118.79 88.8848 118.888 89.2884 118.888 89.7441V89.7539C118.888 90.2259 118.782 90.6442 118.57 91.0088C118.362 91.3701 118.074 91.6533 117.706 91.8584C117.338 92.0635 116.915 92.166 116.437 92.166ZM130.06 92V85.7451H127.789V84.9541H133.209V85.7451H130.938V92H130.06ZM139.732 92.166C139.059 92.166 138.481 92.0163 137.999 91.7168C137.517 91.4141 137.146 90.986 136.886 90.4326C136.629 89.8792 136.5 89.2282 136.5 88.4795V88.4697C136.5 87.7145 136.63 87.0618 136.891 86.5117C137.154 85.9616 137.527 85.5368 138.009 85.2373C138.494 84.9378 139.068 84.7881 139.732 84.7881C140.4 84.7881 140.974 84.9378 141.456 85.2373C141.941 85.5368 142.314 85.9632 142.574 86.5166C142.835 87.0667 142.965 87.7178 142.965 88.4697V88.4795C142.965 89.2282 142.835 89.8792 142.574 90.4326C142.317 90.9827 141.946 91.4092 141.461 91.7119C140.979 92.0146 140.403 92.166 139.732 92.166ZM139.732 91.3555C140.214 91.3555 140.629 91.2367 140.978 90.999C141.326 90.7614 141.594 90.4277 141.783 89.998C141.972 89.5651 142.066 89.0589 142.066 88.4795V88.4697C142.066 87.8838 141.972 87.376 141.783 86.9463C141.594 86.5166 141.326 86.1846 140.978 85.9502C140.629 85.7158 140.214 85.5986 139.732 85.5986C139.254 85.5986 138.84 85.7158 138.492 85.9502C138.144 86.1846 137.874 86.5166 137.682 86.9463C137.493 87.376 137.398 87.8838 137.398 88.4697V88.4795C137.398 89.0589 137.491 89.5651 137.677 89.998C137.862 90.4277 138.129 90.7614 138.478 90.999C138.826 91.2367 139.244 91.3555 139.732 91.3555ZM149.947 92.166C149.273 92.166 148.696 92.0163 148.214 91.7168C147.732 91.4141 147.361 90.986 147.101 90.4326C146.843 89.8792 146.715 89.2282 146.715 88.4795V88.4697C146.715 87.7145 146.845 87.0618 147.105 86.5117C147.369 85.9616 147.742 85.5368 148.224 85.2373C148.709 84.9378 149.283 84.7881 149.947 84.7881C150.615 84.7881 151.189 84.9378 151.671 85.2373C152.156 85.5368 152.529 85.9632 152.789 86.5166C153.049 87.0667 153.18 87.7178 153.18 88.4697V88.4795C153.18 89.2282 153.049 89.8792 152.789 90.4326C152.532 90.9827 152.161 91.4092 151.676 91.7119C151.194 92.0146 150.618 92.166 149.947 92.166ZM149.947 91.3555C150.429 91.3555 150.844 91.2367 151.192 90.999C151.541 90.7614 151.809 90.4277 151.998 89.998C152.187 89.5651 152.281 89.0589 152.281 88.4795V88.4697C152.281 87.8838 152.187 87.376 151.998 86.9463C151.809 86.5166 151.541 86.1846 151.192 85.9502C150.844 85.7158 150.429 85.5986 149.947 85.5986C149.469 85.5986 149.055 85.7158 148.707 85.9502C148.359 86.1846 148.089 86.5166 147.896 86.9463C147.708 87.376 147.613 87.8838 147.613 88.4697V88.4795C147.613 89.0589 147.706 89.5651 147.892 89.998C148.077 90.4277 148.344 90.7614 148.692 90.999C149.041 91.2367 149.459 91.3555 149.947 91.3555ZM157.203 92V84.9541H158.082V91.209H161.48V92H157.203ZM167.696 92.166C167.182 92.166 166.733 92.083 166.349 91.917C165.968 91.7477 165.665 91.5166 165.44 91.2236C165.219 90.9274 165.09 90.5889 165.055 90.208L165.05 90.1543H165.929L165.934 90.208C165.956 90.4424 166.046 90.6458 166.202 90.8184C166.362 90.9876 166.573 91.1195 166.837 91.2139C167.104 91.3083 167.407 91.3555 167.745 91.3555C168.064 91.3555 168.347 91.305 168.595 91.2041C168.845 91.0999 169.042 90.9567 169.186 90.7744C169.329 90.5921 169.4 90.3822 169.4 90.1445V90.1396C169.4 89.8467 169.293 89.6009 169.078 89.4023C168.863 89.2005 168.513 89.0459 168.028 88.9385L167.247 88.7676C166.541 88.6113 166.026 88.3704 165.704 88.0449C165.385 87.7161 165.226 87.2962 165.226 86.7852V86.7803C165.229 86.3896 165.335 86.0446 165.543 85.7451C165.755 85.4456 166.046 85.2113 166.417 85.042C166.791 84.8727 167.221 84.7881 167.706 84.7881C168.175 84.7881 168.59 84.8727 168.951 85.042C169.312 85.208 169.599 85.4326 169.811 85.7158C170.025 85.999 170.144 86.3164 170.167 86.668L170.172 86.7363H169.293L169.283 86.6729C169.251 86.4645 169.166 86.2806 169.029 86.1211C168.893 85.9583 168.71 85.8298 168.482 85.7354C168.255 85.641 167.988 85.5954 167.682 85.5986C167.389 85.5986 167.125 85.6442 166.891 85.7354C166.656 85.8265 166.469 85.9583 166.329 86.1309C166.192 86.3001 166.124 86.5085 166.124 86.7559V86.7607C166.124 87.0407 166.228 87.2767 166.437 87.4688C166.645 87.6608 166.988 87.8089 167.467 87.9131L168.248 88.0889C168.984 88.2516 169.509 88.4876 169.825 88.7969C170.141 89.1061 170.299 89.5146 170.299 90.0225V90.0273C170.299 90.4668 170.191 90.846 169.977 91.165C169.762 91.484 169.459 91.7314 169.068 91.9072C168.678 92.0798 168.22 92.166 167.696 92.166Z" fill="#FFFCF5"/>
<path d="M32.856 124.384C28.56 124.384 25.176 123.448 24.48 122.944V117.04C26.064 117.856 27.912 118.84 30.912 118.84C32.064 118.84 34.296 118.984 34.296 116.848C34.296 113.848 24.96 114.304 24.96 109.816C24.96 107.488 26.808 104.44 32.112 104.44C36.072 104.44 39.624 105.376 40.32 105.64V111.232C38.952 110.68 36.672 109.912 34.824 109.912C33.504 109.912 31.992 110.224 31.992 111.352C31.992 114.4 41.28 113.584 41.28 118.312C41.28 120.016 40.44 124.384 32.856 124.384ZM54.8216 123.088C51.3416 125.392 46.4936 124.12 43.9496 120.232C41.4536 116.368 42.2456 111.4 45.7496 109.12C49.2296 106.84 54.0776 108.112 56.6216 111.976C59.1176 115.84 58.3256 120.808 54.8216 123.088ZM49.0616 122.224C50.1176 122.872 52.2056 121.456 53.7176 119.08C55.2056 116.68 55.5416 114.28 54.4856 113.632C53.3816 112.984 51.2936 114.352 49.8296 116.776C48.2936 119.152 47.9816 121.576 49.0616 122.224ZM76.9247 108.4V124H70.2047L70.1327 122.296C70.8047 121.36 72.0047 118.624 72.5087 115.672L71.3087 115.552C70.2527 121.288 67.8287 124.384 64.6127 124.384C61.4927 124.384 59.8847 122.128 59.8847 118.072V108.4H66.6047V118.072C66.6047 119.704 66.8207 120.592 67.6367 120.592C69.2207 120.592 70.2047 116.248 70.2047 108.4H76.9247ZM79.3172 124V108.4H86.0372L86.1092 110.104C85.4372 111.04 84.2372 113.776 83.7332 116.728L84.9332 116.848C85.9892 111.112 88.4132 108.016 91.6292 108.016C94.7492 108.016 96.3572 110.272 96.3572 114.328V124H89.6372V114.328C89.6372 112.696 89.4212 111.808 88.6052 111.808C87.0212 111.808 86.0372 116.152 86.0372 124H79.3172ZM112.718 124V120.76C112.19 121.648 111.35 122.512 110.486 123.088C107.006 125.392 102.158 124.12 99.6137 120.232C97.1177 116.368 97.9097 111.4 101.414 109.12C104.894 106.84 109.718 108.16 112.286 111.976C113.678 114.04 113.774 116.32 113.774 116.896L115.022 116.728C115.022 113.608 113.606 110.968 112.646 110.104L112.718 104.8H119.438V124H112.718ZM104.462 122.152C105.566 122.8 107.654 121.432 109.118 119.008C110.654 116.632 110.966 114.208 109.886 113.56C108.83 112.912 106.742 114.328 105.23 116.704C103.742 119.104 103.406 121.504 104.462 122.152ZM120.633 117.856C122.217 118.432 124.545 118.936 126.345 118.936C127.497 118.936 129.729 118.624 129.729 117.688C129.729 115.888 121.113 116.704 121.113 112.216C121.113 109.888 122.961 108.04 127.545 108.04C131.505 108.04 134.337 108.976 135.033 109.24V114.832C133.665 114.28 132.105 113.512 130.257 113.512C128.937 113.512 127.425 113.752 127.425 114.4C127.425 116.008 135.993 115.36 135.993 120.088C135.993 121.792 135.153 122.896 133.833 124H124.353L120.633 117.856Z" fill="#FFFCF5"/>
<path d="M28.4912 143.232C27.7712 143.232 27.1423 143.116 26.6045 142.884C26.0713 142.647 25.6475 142.323 25.333 141.913C25.0231 141.498 24.8431 141.024 24.793 140.491L24.7861 140.416H26.0166L26.0234 140.491C26.0553 140.819 26.1807 141.104 26.3994 141.346C26.6227 141.583 26.9189 141.767 27.2881 141.899C27.6618 142.032 28.0856 142.098 28.5596 142.098C29.0062 142.098 29.4027 142.027 29.749 141.886C30.0999 141.74 30.3757 141.539 30.5762 141.284C30.7767 141.029 30.877 140.735 30.877 140.402V140.396C30.877 139.985 30.7266 139.641 30.4258 139.363C30.125 139.081 29.6351 138.864 28.9561 138.714L27.8623 138.475C26.8734 138.256 26.1533 137.919 25.7021 137.463C25.2555 137.003 25.0322 136.415 25.0322 135.699V135.692C25.0368 135.146 25.1849 134.662 25.4766 134.243C25.7728 133.824 26.1807 133.496 26.7002 133.259C27.2243 133.022 27.8258 132.903 28.5049 132.903C29.1611 132.903 29.7422 133.022 30.248 133.259C30.7539 133.491 31.1549 133.806 31.4512 134.202C31.752 134.599 31.9183 135.043 31.9502 135.535L31.957 135.631H30.7266L30.7129 135.542C30.6673 135.25 30.5488 134.993 30.3574 134.77C30.166 134.542 29.9108 134.362 29.5918 134.229C29.2728 134.097 28.8991 134.034 28.4707 134.038C28.0605 134.038 27.6914 134.102 27.3633 134.229C27.0352 134.357 26.7731 134.542 26.5771 134.783C26.3857 135.02 26.29 135.312 26.29 135.658V135.665C26.29 136.057 26.4359 136.387 26.7275 136.656C27.0192 136.925 27.5 137.132 28.1699 137.278L29.2637 137.524C29.9518 137.675 30.5055 137.871 30.9248 138.112C31.3441 138.354 31.6494 138.65 31.8408 139.001C32.0368 139.347 32.1348 139.757 32.1348 140.231V140.238C32.1348 140.854 31.9844 141.384 31.6836 141.831C31.3828 142.278 30.959 142.624 30.4121 142.87C29.8652 143.112 29.2249 143.232 28.4912 143.232ZM37.0635 143.13C36.3662 143.13 35.7624 142.977 35.252 142.672C34.7461 142.362 34.3542 141.922 34.0762 141.353C33.8027 140.783 33.666 140.106 33.666 139.322V139.309C33.666 138.52 33.8027 137.841 34.0762 137.271C34.3542 136.702 34.7461 136.264 35.252 135.959C35.7624 135.654 36.3662 135.501 37.0635 135.501C37.7653 135.501 38.3691 135.654 38.875 135.959C39.3809 136.264 39.7705 136.702 40.0439 137.271C40.3219 137.841 40.4609 138.52 40.4609 139.309V139.322C40.4609 140.106 40.3219 140.783 40.0439 141.353C39.7705 141.922 39.3809 142.362 38.875 142.672C38.3691 142.977 37.7653 143.13 37.0635 143.13ZM37.0635 142.077C37.5283 142.077 37.9225 141.968 38.2461 141.749C38.5697 141.53 38.8158 141.216 38.9844 140.806C39.1576 140.396 39.2441 139.901 39.2441 139.322V139.309C39.2441 138.725 39.1576 138.229 38.9844 137.818C38.8158 137.408 38.5697 137.096 38.2461 136.882C37.9225 136.663 37.5283 136.554 37.0635 136.554C36.5986 136.554 36.2044 136.663 35.8809 136.882C35.5573 137.096 35.3089 137.408 35.1357 137.818C34.9671 138.229 34.8828 138.725 34.8828 139.309V139.322C34.8828 139.901 34.9671 140.396 35.1357 140.806C35.3089 141.216 35.5573 141.53 35.8809 141.749C36.2044 141.968 36.5986 142.077 37.0635 142.077ZM42.7988 143V136.615H41.5752V135.631H42.7988V134.811C42.7988 134.318 42.8786 133.913 43.0381 133.594C43.2021 133.27 43.4437 133.031 43.7627 132.876C44.0817 132.716 44.4736 132.637 44.9385 132.637C45.0843 132.637 45.221 132.644 45.3486 132.657C45.4808 132.666 45.6084 132.682 45.7314 132.705V133.655C45.6585 133.642 45.5742 133.632 45.4785 133.628C45.3828 133.623 45.2826 133.621 45.1777 133.621C44.7539 133.621 44.4486 133.724 44.2617 133.929C44.0794 134.134 43.9883 134.439 43.9883 134.845V135.631H45.6631V136.615H43.9883V143H42.7988ZM49.9971 143.055C49.2406 143.055 48.6914 142.902 48.3496 142.597C48.0124 142.291 47.8438 141.788 47.8438 141.086V136.615H46.6816V135.631H47.8438V133.724H49.0742V135.631H50.6875V136.615H49.0742V140.785C49.0742 141.218 49.1562 141.53 49.3203 141.722C49.4844 141.909 49.7578 142.002 50.1406 142.002C50.2454 142.002 50.3343 142 50.4072 141.995C50.4847 141.991 50.5781 141.984 50.6875 141.975V142.986C50.5736 143.005 50.4596 143.021 50.3457 143.034C50.2318 143.048 50.1156 143.055 49.9971 143.055ZM56.4023 143V135.631H57.5918V136.738H57.7012C57.888 136.346 58.1569 136.043 58.5078 135.829C58.8587 135.61 59.3053 135.501 59.8477 135.501C60.6771 135.501 61.3128 135.738 61.7549 136.212C62.2015 136.681 62.4248 137.354 62.4248 138.229V143H61.2354V138.516C61.2354 137.85 61.0941 137.358 60.8115 137.039C60.5335 136.715 60.1006 136.554 59.5127 136.554C59.1208 136.554 58.7812 136.638 58.4941 136.807C58.207 136.975 57.9837 137.215 57.8242 137.524C57.6693 137.834 57.5918 138.206 57.5918 138.639V143H56.4023ZM67.6064 143.13C66.9092 143.13 66.3053 142.977 65.7949 142.672C65.2891 142.362 64.8971 141.922 64.6191 141.353C64.3457 140.783 64.209 140.106 64.209 139.322V139.309C64.209 138.52 64.3457 137.841 64.6191 137.271C64.8971 136.702 65.2891 136.264 65.7949 135.959C66.3053 135.654 66.9092 135.501 67.6064 135.501C68.3083 135.501 68.9121 135.654 69.418 135.959C69.9238 136.264 70.3135 136.702 70.5869 137.271C70.8649 137.841 71.0039 138.52 71.0039 139.309V139.322C71.0039 140.106 70.8649 140.783 70.5869 141.353C70.3135 141.922 69.9238 142.362 69.418 142.672C68.9121 142.977 68.3083 143.13 67.6064 143.13ZM67.6064 142.077C68.0713 142.077 68.4655 141.968 68.7891 141.749C69.1126 141.53 69.3587 141.216 69.5273 140.806C69.7005 140.396 69.7871 139.901 69.7871 139.322V139.309C69.7871 138.725 69.7005 138.229 69.5273 137.818C69.3587 137.408 69.1126 137.096 68.7891 136.882C68.4655 136.663 68.0713 136.554 67.6064 136.554C67.1416 136.554 66.7474 136.663 66.4238 136.882C66.1003 137.096 65.8519 137.408 65.6787 137.818C65.5101 138.229 65.4258 138.725 65.4258 139.309V139.322C65.4258 139.901 65.5101 140.396 65.6787 140.806C65.8519 141.216 66.1003 141.53 66.4238 141.749C66.7474 141.968 67.1416 142.077 67.6064 142.077ZM72.877 143V135.631H74.0664V143H72.877ZM73.4785 134.209C73.2552 134.209 73.0615 134.129 72.8975 133.97C72.738 133.806 72.6582 133.612 72.6582 133.389C72.6582 133.161 72.738 132.967 72.8975 132.808C73.0615 132.648 73.2552 132.568 73.4785 132.568C73.7064 132.568 73.9001 132.648 74.0596 132.808C74.2191 132.967 74.2988 133.161 74.2988 133.389C74.2988 133.612 74.2191 133.806 74.0596 133.97C73.9001 134.129 73.7064 134.209 73.4785 134.209ZM78.8379 143.13C78.291 143.13 77.8079 143.048 77.3887 142.884C76.9694 142.715 76.6322 142.48 76.377 142.18C76.1263 141.879 75.9782 141.526 75.9326 141.12H77.1494C77.2497 141.425 77.4456 141.672 77.7373 141.858C78.029 142.045 78.4095 142.139 78.8789 142.139C79.2116 142.139 79.5033 142.091 79.7539 141.995C80.0091 141.895 80.2096 141.76 80.3555 141.592C80.5013 141.419 80.5742 141.22 80.5742 140.997V140.983C80.5742 140.733 80.474 140.521 80.2734 140.348C80.0729 140.17 79.7448 140.026 79.2891 139.917L78.1475 139.644C77.6872 139.534 77.3089 139.393 77.0127 139.22C76.7165 139.042 76.4977 138.826 76.3564 138.57C76.2152 138.311 76.1445 138.005 76.1445 137.654V137.647C76.1445 137.237 76.263 136.87 76.5 136.547C76.7415 136.223 77.0697 135.968 77.4844 135.781C77.8991 135.594 78.3662 135.501 78.8857 135.501C79.4007 135.501 79.8564 135.583 80.2529 135.747C80.654 135.907 80.9753 136.134 81.2168 136.431C81.4629 136.727 81.6133 137.076 81.668 137.477H80.499C80.4215 137.185 80.2438 136.948 79.9658 136.766C79.6878 136.583 79.3255 136.492 78.8789 136.492C78.5872 136.492 78.3275 136.54 78.0996 136.636C77.8717 136.727 77.6917 136.854 77.5596 137.019C77.4274 137.183 77.3613 137.374 77.3613 137.593V137.606C77.3613 137.771 77.4046 137.916 77.4912 138.044C77.5778 138.172 77.7122 138.283 77.8945 138.379C78.0768 138.475 78.3115 138.559 78.5986 138.632L79.7334 138.905C80.4261 139.074 80.9411 139.315 81.2783 139.63C81.6201 139.944 81.791 140.366 81.791 140.895V140.908C81.791 141.346 81.6611 141.733 81.4014 142.07C81.1416 142.403 80.7884 142.663 80.3418 142.85C79.8997 143.036 79.3984 143.13 78.8379 143.13ZM86.6445 143.13C85.9427 143.13 85.3389 142.975 84.833 142.665C84.3317 142.355 83.9443 141.918 83.6709 141.353C83.402 140.783 83.2676 140.113 83.2676 139.343V139.336C83.2676 138.575 83.402 137.907 83.6709 137.333C83.9443 136.759 84.3294 136.31 84.8262 135.986C85.3229 135.663 85.904 135.501 86.5693 135.501C87.2393 135.501 87.8135 135.656 88.292 135.966C88.7751 136.276 89.1442 136.709 89.3994 137.265C89.6592 137.816 89.7891 138.459 89.7891 139.192V139.657H83.8828V138.707H89.1807L88.5928 139.575V139.104C88.5928 138.525 88.5062 138.049 88.333 137.675C88.1598 137.301 87.9206 137.023 87.6152 136.841C87.3099 136.654 86.959 136.561 86.5625 136.561C86.166 136.561 85.8105 136.659 85.4961 136.854C85.1862 137.046 84.9401 137.331 84.7578 137.709C84.5755 138.087 84.4844 138.552 84.4844 139.104V139.575C84.4844 140.099 84.5732 140.548 84.751 140.922C84.9287 141.291 85.1816 141.576 85.5098 141.776C85.8379 141.972 86.2253 142.07 86.6719 142.07C87.0046 142.07 87.2939 142.025 87.54 141.934C87.7861 141.842 87.9889 141.726 88.1484 141.585C88.3079 141.444 88.4196 141.3 88.4834 141.154L88.5107 141.093H89.7002L89.6865 141.147C89.6227 141.398 89.5088 141.642 89.3447 141.879C89.1852 142.111 88.9779 142.323 88.7227 142.515C88.4674 142.701 88.1644 142.852 87.8135 142.966C87.4671 143.075 87.0775 143.13 86.6445 143.13ZM95.5996 143V135.631H96.7891V143H95.5996ZM96.2012 134.209C95.9779 134.209 95.7842 134.129 95.6201 133.97C95.4606 133.806 95.3809 133.612 95.3809 133.389C95.3809 133.161 95.4606 132.967 95.6201 132.808C95.7842 132.648 95.9779 132.568 96.2012 132.568C96.429 132.568 96.6227 132.648 96.7822 132.808C96.9417 132.967 97.0215 133.161 97.0215 133.389C97.0215 133.612 96.9417 133.806 96.7822 133.97C96.6227 134.129 96.429 134.209 96.2012 134.209ZM99.0312 143V135.631H100.221V136.738H100.33C100.517 136.346 100.786 136.043 101.137 135.829C101.488 135.61 101.934 135.501 102.477 135.501C103.306 135.501 103.942 135.738 104.384 136.212C104.83 136.681 105.054 137.354 105.054 138.229V143H103.864V138.516C103.864 137.85 103.723 137.358 103.44 137.039C103.162 136.715 102.729 136.554 102.142 136.554C101.75 136.554 101.41 136.638 101.123 136.807C100.836 136.975 100.613 137.215 100.453 137.524C100.298 137.834 100.221 138.206 100.221 138.639V143H99.0312ZM113.763 143.055C113.006 143.055 112.457 142.902 112.115 142.597C111.778 142.291 111.609 141.788 111.609 141.086V136.615H110.447V135.631H111.609V133.724H112.84V135.631H114.453V136.615H112.84V140.785C112.84 141.218 112.922 141.53 113.086 141.722C113.25 141.909 113.523 142.002 113.906 142.002C114.011 142.002 114.1 142 114.173 141.995C114.25 141.991 114.344 141.984 114.453 141.975V142.986C114.339 143.005 114.225 143.021 114.111 143.034C113.997 143.048 113.881 143.055 113.763 143.055ZM116.299 143V132.705H117.488V136.738H117.598C117.785 136.346 118.053 136.043 118.404 135.829C118.755 135.61 119.202 135.501 119.744 135.501C120.296 135.501 120.763 135.608 121.146 135.822C121.528 136.032 121.82 136.34 122.021 136.745C122.221 137.151 122.321 137.645 122.321 138.229V143H121.132V138.516C121.132 137.85 120.991 137.358 120.708 137.039C120.43 136.715 119.997 136.554 119.409 136.554C119.017 136.554 118.678 136.638 118.391 136.807C118.104 136.975 117.88 137.215 117.721 137.524C117.566 137.834 117.488 138.206 117.488 138.639V143H116.299ZM127.482 143.13C126.781 143.13 126.177 142.975 125.671 142.665C125.17 142.355 124.782 141.918 124.509 141.353C124.24 140.783 124.105 140.113 124.105 139.343V139.336C124.105 138.575 124.24 137.907 124.509 137.333C124.782 136.759 125.167 136.31 125.664 135.986C126.161 135.663 126.742 135.501 127.407 135.501C128.077 135.501 128.651 135.656 129.13 135.966C129.613 136.276 129.982 136.709 130.237 137.265C130.497 137.816 130.627 138.459 130.627 139.192V139.657H124.721V138.707H130.019L129.431 139.575V139.104C129.431 138.525 129.344 138.049 129.171 137.675C128.998 137.301 128.758 137.023 128.453 136.841C128.148 136.654 127.797 136.561 127.4 136.561C127.004 136.561 126.648 136.659 126.334 136.854C126.024 137.046 125.778 137.331 125.596 137.709C125.413 138.087 125.322 138.552 125.322 139.104V139.575C125.322 140.099 125.411 140.548 125.589 140.922C125.767 141.291 126.02 141.576 126.348 141.776C126.676 141.972 127.063 142.07 127.51 142.07C127.842 142.07 128.132 142.025 128.378 141.934C128.624 141.842 128.827 141.726 128.986 141.585C129.146 141.444 129.257 141.3 129.321 141.154L129.349 141.093H130.538L130.524 141.147C130.461 141.398 130.347 141.642 130.183 141.879C130.023 142.111 129.816 142.323 129.561 142.515C129.305 142.701 129.002 142.852 128.651 142.966C128.305 143.075 127.915 143.13 127.482 143.13ZM140.074 143.13C139.732 143.13 139.416 143.077 139.124 142.973C138.832 142.868 138.573 142.72 138.345 142.528C138.117 142.332 137.928 142.098 137.777 141.824H137.668V143H136.479V132.705H137.668V136.793H137.777C137.914 136.529 138.096 136.301 138.324 136.109C138.557 135.918 138.821 135.77 139.117 135.665C139.418 135.556 139.737 135.501 140.074 135.501C140.699 135.501 141.241 135.658 141.701 135.973C142.166 136.287 142.526 136.729 142.781 137.299C143.036 137.868 143.164 138.538 143.164 139.309V139.322C143.164 140.088 143.036 140.758 142.781 141.332C142.526 141.902 142.166 142.344 141.701 142.658C141.241 142.973 140.699 143.13 140.074 143.13ZM139.801 142.077C140.252 142.077 140.637 141.968 140.956 141.749C141.275 141.526 141.519 141.209 141.688 140.799C141.861 140.384 141.947 139.892 141.947 139.322V139.309C141.947 138.734 141.861 138.242 141.688 137.832C141.519 137.422 141.275 137.107 140.956 136.889C140.637 136.665 140.252 136.554 139.801 136.554C139.354 136.554 138.969 136.665 138.646 136.889C138.322 137.112 138.074 137.429 137.9 137.839C137.727 138.249 137.641 138.739 137.641 139.309V139.322C137.641 139.887 137.727 140.377 137.9 140.792C138.074 141.202 138.322 141.519 138.646 141.742C138.969 141.965 139.354 142.077 139.801 142.077ZM147.033 143.13C146.568 143.13 146.149 143.041 145.775 142.863C145.406 142.686 145.112 142.433 144.894 142.104C144.679 141.776 144.572 141.389 144.572 140.942V140.929C144.572 140.491 144.677 140.118 144.887 139.808C145.096 139.493 145.402 139.247 145.803 139.069C146.204 138.892 146.689 138.787 147.259 138.755L149.966 138.591V139.541L147.402 139.705C146.842 139.737 146.432 139.853 146.172 140.054C145.917 140.254 145.789 140.537 145.789 140.901V140.915C145.789 141.289 145.93 141.58 146.213 141.79C146.495 141.995 146.851 142.098 147.279 142.098C147.685 142.098 148.045 142.018 148.359 141.858C148.674 141.694 148.92 141.473 149.098 141.195C149.28 140.917 149.371 140.603 149.371 140.252V137.955C149.371 137.499 149.232 137.153 148.954 136.916C148.681 136.674 148.268 136.554 147.717 136.554C147.275 136.554 146.912 136.633 146.63 136.793C146.347 136.948 146.158 137.169 146.062 137.456L146.056 137.477H144.866L144.873 137.436C144.937 137.048 145.096 136.711 145.352 136.424C145.611 136.132 145.946 135.907 146.356 135.747C146.767 135.583 147.234 135.501 147.758 135.501C148.359 135.501 148.868 135.599 149.282 135.795C149.701 135.991 150.018 136.273 150.232 136.643C150.451 137.007 150.561 137.445 150.561 137.955V143H149.371V141.913H149.262C149.107 142.173 148.918 142.394 148.694 142.576C148.476 142.758 148.227 142.897 147.949 142.993C147.671 143.084 147.366 143.13 147.033 143.13ZM155.749 143.13C155.061 143.13 154.464 142.973 153.958 142.658C153.452 142.344 153.06 141.899 152.782 141.325C152.504 140.751 152.365 140.074 152.365 139.295V139.281C152.365 138.516 152.502 137.85 152.775 137.285C153.053 136.72 153.445 136.283 153.951 135.973C154.457 135.658 155.054 135.501 155.742 135.501C156.339 135.501 156.854 135.606 157.287 135.815C157.72 136.025 158.066 136.308 158.326 136.663C158.586 137.014 158.752 137.408 158.825 137.846L158.832 137.887H157.649L157.643 137.866C157.551 137.502 157.344 137.192 157.021 136.937C156.697 136.681 156.271 136.554 155.742 136.554C155.3 136.554 154.917 136.665 154.594 136.889C154.27 137.112 154.02 137.429 153.842 137.839C153.669 138.244 153.582 138.725 153.582 139.281V139.295C153.582 139.86 153.671 140.352 153.849 140.771C154.026 141.186 154.277 141.507 154.601 141.735C154.924 141.963 155.305 142.077 155.742 142.077C156.239 142.077 156.645 141.97 156.959 141.756C157.273 141.542 157.499 141.229 157.636 140.819L157.649 140.778L158.825 140.771L158.812 140.847C158.711 141.289 158.534 141.683 158.278 142.029C158.023 142.371 157.686 142.64 157.267 142.836C156.847 143.032 156.341 143.13 155.749 143.13ZM160.637 143V132.705H161.826V143H160.637ZM165.278 143L162.4 139.391L163.275 138.632L166.775 143H165.278ZM161.676 140.348L161.621 138.851H161.936L165.121 135.631H166.563L163.063 139.008L162.776 139.288L161.676 140.348ZM170.863 145.598C170.271 145.598 169.754 145.513 169.312 145.345C168.869 145.181 168.516 144.946 168.252 144.641C167.992 144.34 167.83 143.989 167.767 143.588L167.78 143.581H169.011L169.018 143.588C169.081 143.866 169.273 144.094 169.592 144.271C169.911 144.454 170.335 144.545 170.863 144.545C171.524 144.545 172.039 144.395 172.408 144.094C172.782 143.798 172.969 143.378 172.969 142.836V141.346H172.859C172.704 141.615 172.511 141.845 172.278 142.036C172.046 142.228 171.784 142.373 171.492 142.474C171.201 142.569 170.886 142.617 170.549 142.617C169.915 142.617 169.366 142.467 168.901 142.166C168.441 141.861 168.086 141.441 167.835 140.908C167.584 140.375 167.459 139.764 167.459 139.076V139.062C167.459 138.374 167.584 137.764 167.835 137.23C168.09 136.693 168.45 136.271 168.915 135.966C169.38 135.656 169.934 135.501 170.576 135.501C170.923 135.501 171.242 135.556 171.533 135.665C171.825 135.774 172.082 135.929 172.306 136.13C172.534 136.33 172.723 136.57 172.873 136.848H172.955V135.631H174.145V142.897C174.145 143.444 174.01 143.921 173.741 144.326C173.477 144.732 173.099 145.044 172.606 145.263C172.114 145.486 171.533 145.598 170.863 145.598ZM170.809 141.564C171.264 141.564 171.654 141.46 171.978 141.25C172.306 141.036 172.556 140.742 172.729 140.368C172.907 139.994 172.996 139.564 172.996 139.076V139.062C172.996 138.575 172.907 138.142 172.729 137.764C172.556 137.385 172.306 137.089 171.978 136.875C171.654 136.661 171.264 136.554 170.809 136.554C170.353 136.554 169.965 136.661 169.646 136.875C169.332 137.089 169.09 137.385 168.922 137.764C168.758 138.142 168.676 138.575 168.676 139.062V139.076C168.676 139.564 168.758 139.994 168.922 140.368C169.09 140.742 169.332 141.036 169.646 141.25C169.965 141.46 170.353 141.564 170.809 141.564ZM176.359 143V135.631H177.549V136.725H177.658C177.799 136.337 178.039 136.036 178.376 135.822C178.713 135.608 179.13 135.501 179.627 135.501C179.741 135.501 179.853 135.508 179.962 135.521C180.076 135.531 180.162 135.54 180.222 135.549V136.704C180.099 136.681 179.978 136.665 179.859 136.656C179.745 136.643 179.622 136.636 179.49 136.636C179.112 136.636 178.777 136.711 178.485 136.861C178.194 137.012 177.964 137.221 177.795 137.49C177.631 137.759 177.549 138.074 177.549 138.434V143H176.359ZM184.515 143.13C183.817 143.13 183.214 142.977 182.703 142.672C182.197 142.362 181.805 141.922 181.527 141.353C181.254 140.783 181.117 140.106 181.117 139.322V139.309C181.117 138.52 181.254 137.841 181.527 137.271C181.805 136.702 182.197 136.264 182.703 135.959C183.214 135.654 183.817 135.501 184.515 135.501C185.216 135.501 185.82 135.654 186.326 135.959C186.832 136.264 187.222 136.702 187.495 137.271C187.773 137.841 187.912 138.52 187.912 139.309V139.322C187.912 140.106 187.773 140.783 187.495 141.353C187.222 141.922 186.832 142.362 186.326 142.672C185.82 142.977 185.216 143.13 184.515 143.13ZM184.515 142.077C184.979 142.077 185.374 141.968 185.697 141.749C186.021 141.53 186.267 141.216 186.436 140.806C186.609 140.396 186.695 139.901 186.695 139.322V139.309C186.695 138.725 186.609 138.229 186.436 137.818C186.267 137.408 186.021 137.096 185.697 136.882C185.374 136.663 184.979 136.554 184.515 136.554C184.05 136.554 183.656 136.663 183.332 136.882C183.008 137.096 182.76 137.408 182.587 137.818C182.418 138.229 182.334 138.725 182.334 139.309V139.322C182.334 139.901 182.418 140.396 182.587 140.806C182.76 141.216 183.008 141.53 183.332 141.749C183.656 141.968 184.05 142.077 184.515 142.077ZM192.226 143.13C191.67 143.13 191.202 143.025 190.824 142.815C190.446 142.601 190.161 142.291 189.97 141.886C189.783 141.476 189.689 140.981 189.689 140.402V135.631H190.879V140.115C190.879 140.776 191.007 141.268 191.262 141.592C191.521 141.915 191.945 142.077 192.533 142.077C192.857 142.077 193.142 142.029 193.388 141.934C193.638 141.838 193.848 141.701 194.017 141.523C194.185 141.341 194.311 141.122 194.393 140.867C194.479 140.607 194.522 140.316 194.522 139.992V135.631H195.712V143H194.522V141.899H194.413C194.295 142.159 194.133 142.382 193.928 142.569C193.723 142.752 193.477 142.891 193.189 142.986C192.907 143.082 192.586 143.13 192.226 143.13ZM197.934 143V135.631H199.123V136.738H199.232C199.419 136.346 199.688 136.043 200.039 135.829C200.39 135.61 200.837 135.501 201.379 135.501C202.208 135.501 202.844 135.738 203.286 136.212C203.733 136.681 203.956 137.354 203.956 138.229V143H202.767V138.516C202.767 137.85 202.625 137.358 202.343 137.039C202.065 136.715 201.632 136.554 201.044 136.554C200.652 136.554 200.312 136.638 200.025 136.807C199.738 136.975 199.515 137.215 199.355 137.524C199.201 137.834 199.123 138.206 199.123 138.639V143H197.934ZM208.83 143.13C208.21 143.13 207.668 142.973 207.203 142.658C206.738 142.344 206.378 141.902 206.123 141.332C205.868 140.758 205.74 140.088 205.74 139.322V139.309C205.74 138.538 205.868 137.868 206.123 137.299C206.378 136.729 206.736 136.287 207.196 135.973C207.661 135.658 208.206 135.501 208.83 135.501C209.167 135.501 209.484 135.556 209.78 135.665C210.081 135.77 210.348 135.918 210.58 136.109C210.812 136.301 210.995 136.529 211.127 136.793H211.236V132.705H212.426V143H211.236V141.824H211.127C210.977 142.098 210.787 142.332 210.56 142.528C210.332 142.72 210.072 142.868 209.78 142.973C209.489 143.077 209.172 143.13 208.83 143.13ZM209.104 142.077C209.55 142.077 209.935 141.965 210.259 141.742C210.582 141.519 210.831 141.202 211.004 140.792C211.177 140.377 211.264 139.887 211.264 139.322V139.309C211.264 138.739 211.177 138.249 211.004 137.839C210.831 137.429 210.582 137.112 210.259 136.889C209.935 136.665 209.55 136.554 209.104 136.554C208.657 136.554 208.272 136.665 207.948 136.889C207.629 137.107 207.383 137.422 207.21 137.832C207.041 138.242 206.957 138.734 206.957 139.309V139.322C206.957 139.892 207.041 140.384 207.21 140.799C207.383 141.209 207.629 141.526 207.948 141.749C208.272 141.968 208.657 142.077 209.104 142.077ZM215.68 143.068C215.438 143.068 215.229 142.982 215.051 142.809C214.878 142.631 214.791 142.421 214.791 142.18C214.791 141.934 214.878 141.724 215.051 141.551C215.229 141.378 215.438 141.291 215.68 141.291C215.926 141.291 216.135 141.378 216.309 141.551C216.482 141.724 216.568 141.934 216.568 142.18C216.568 142.421 216.482 142.631 216.309 142.809C216.135 142.982 215.926 143.068 215.68 143.068Z" fill="#FFFCF5"/>
<path d="M396.868 170.991C411.852 156.074 386.899 107.049 341.132 61.491C295.366 15.9325 246.117 -8.90765 231.132 6.00903C216.148 20.9257 241.101 69.9505 286.868 115.509C332.634 161.068 381.883 185.908 396.868 170.991Z" fill="#63A7F7"/>
<path d="M341.132 115.509C386.899 69.9505 411.852 20.9257 396.868 6.00905C381.883 -8.90763 332.634 15.9325 286.868 61.491C241.101 107.049 216.148 156.074 231.132 170.991C246.117 185.908 295.366 161.068 341.132 115.509Z" fill="#63A7F7"/>
</g>
</g>
<defs>
<clipPath id="clip0_630_14950">
<rect width="362" height="175" rx="30" fill="white"/>
</clipPath>
<clipPath id="clip1_630_14950">
<rect width="362" height="207" fill="white" transform="translate(0 -16)"/>
</clipPath>
</defs>
</svg>
