<svg width="362" height="175" viewBox="0 0 362 175" fill="none" xmlns="http://www.w3.org/2000/svg">
<g clip-path="url(#clip0_630_14353)">
<rect width="362" height="175" rx="30" fill="#465AE1"/>
<path d="M270.164 38.8366C268.598 37.27 263.449 39.8788 258.664 44.6634C253.879 49.4481 251.271 54.5968 252.837 56.1634C254.404 57.73 259.553 55.1212 264.337 50.3366C269.122 45.5519 271.731 40.4032 270.164 38.8366Z" fill="#FFD719"/>
<path d="M264.336 44.6634C259.551 39.8788 254.402 37.27 252.836 38.8366C251.269 40.4032 253.878 45.5519 258.663 50.3366C263.447 55.1212 268.596 57.73 270.163 56.1634C271.729 54.5968 269.121 49.4481 264.336 44.6634Z" fill="#FFD719"/>
<path d="M245.559 4.43984C243.107 1.98779 235.048 6.07109 227.559 13.5602C220.07 21.0492 215.987 29.1081 218.439 31.5602C220.891 34.0122 228.95 29.9289 236.439 22.4398C243.928 14.9508 248.011 6.8919 245.559 4.43984Z" fill="#FFD719"/>
<path d="M236.441 13.5602C228.952 6.07109 220.893 1.98779 218.441 4.43984C215.989 6.8919 220.072 14.9508 227.561 22.4398C235.05 29.9289 243.109 34.0122 245.561 31.5602C248.013 29.1081 243.93 21.0492 236.441 13.5602Z" fill="#FFD719"/>
<path d="M244.273 37.7266C243.32 36.773 240.186 38.361 237.273 41.2734C234.361 44.1858 232.773 47.3198 233.727 48.2734C234.68 49.227 237.814 47.639 240.727 44.7266C243.639 41.8142 245.227 38.6802 244.273 37.7266Z" fill="#FFD719"/>
<path d="M240.727 41.2734C237.814 38.361 234.68 36.773 233.727 37.7266C232.773 38.6802 234.361 41.8142 237.273 44.7266C240.186 47.639 243.32 49.227 244.273 48.2734C245.227 47.3198 243.639 44.1858 240.727 41.2734Z" fill="#FFD719"/>
<path d="M405.58 -28.5809C392.094 -42.0672 347.77 -19.609 306.58 21.5809C265.391 62.7708 242.932 107.095 256.419 120.581C269.905 134.067 314.229 111.609 355.419 70.4191C396.609 29.2293 419.067 -15.0945 405.58 -28.5809Z" fill="#FFD719"/>
<path d="M355.419 21.5809C314.23 -19.609 269.906 -42.0672 256.42 -28.5808C242.933 -15.0945 265.391 29.2293 306.581 70.4191C347.771 111.609 392.095 134.067 405.581 120.581C419.068 107.095 396.609 62.7708 355.419 21.5809Z" fill="#FFD719"/>
<rect width="362" height="175" fill="#755D7B" fill-opacity="0.24"/>
<path d="M27.7354 108.166C27.0973 108.166 26.5456 108.016 26.0801 107.717C25.6146 107.417 25.2549 106.993 25.001 106.442C24.7503 105.892 24.625 105.24 24.625 104.484V104.475C24.625 103.716 24.7503 103.062 25.001 102.512C25.2549 101.962 25.613 101.537 26.0752 101.237C26.5407 100.938 27.0924 100.788 27.7305 100.788C28.2253 100.788 28.6745 100.886 29.0781 101.081C29.485 101.273 29.8203 101.542 30.084 101.887C30.3477 102.229 30.5137 102.624 30.582 103.073L30.5771 103.083H29.6934L29.6885 103.073C29.6104 102.771 29.4785 102.51 29.293 102.292C29.1074 102.071 28.8812 101.9 28.6143 101.779C28.3506 101.659 28.056 101.599 27.7305 101.599C27.2812 101.599 26.8906 101.716 26.5586 101.95C26.2298 102.185 25.9759 102.517 25.7969 102.946C25.6178 103.376 25.5283 103.885 25.5283 104.475V104.484C25.5283 105.07 25.6178 105.578 25.7969 106.008C25.9759 106.438 26.2298 106.77 26.5586 107.004C26.8906 107.238 27.2829 107.355 27.7354 107.355C28.0641 107.355 28.362 107.303 28.6289 107.199C28.8958 107.092 29.1204 106.94 29.3027 106.745C29.485 106.547 29.612 106.312 29.6836 106.042L29.6934 106.032H30.582V106.042C30.5039 106.472 30.3346 106.846 30.0742 107.165C29.8138 107.481 29.4834 107.727 29.083 107.902C28.6859 108.078 28.2367 108.166 27.7354 108.166ZM33.7998 108L36.3975 100.954H37.0713V102.092H36.793L34.7227 108H33.7998ZM34.9766 105.983L35.25 105.236H38.4336L38.707 105.983H34.9766ZM38.9414 108L36.8711 102.092V100.954H37.2666L39.8643 108H38.9414ZM44.6006 108V101.745H42.3301V100.954H47.75V101.745H45.4795V108H44.6006ZM51.6074 108V100.954H55.9727V101.745H52.4863V104.006H55.792V104.787H52.4863V107.209H55.9727V108H51.6074ZM62.9844 108.166C62.3366 108.166 61.7734 108.016 61.2949 107.717C60.8164 107.414 60.4453 106.986 60.1816 106.433C59.9212 105.879 59.791 105.228 59.791 104.479V104.47C59.791 103.728 59.9229 103.081 60.1865 102.531C60.4502 101.978 60.8213 101.55 61.2998 101.247C61.7816 100.941 62.3431 100.788 62.9844 100.788C63.5052 100.788 63.9691 100.881 64.376 101.066C64.7861 101.249 65.123 101.506 65.3867 101.838C65.6536 102.17 65.8327 102.559 65.9238 103.005L65.9336 103.054H65.0449L65.0303 103.005C64.887 102.549 64.6413 102.201 64.293 101.96C63.9447 101.719 63.5085 101.599 62.9844 101.599C62.5189 101.599 62.1136 101.717 61.7686 101.955C61.4268 102.189 61.1615 102.521 60.9727 102.951C60.7839 103.381 60.6895 103.887 60.6895 104.47V104.479C60.6895 105.069 60.7822 105.58 60.9678 106.013C61.1566 106.442 61.4219 106.774 61.7637 107.009C62.1087 107.24 62.5173 107.355 62.9893 107.355C63.4092 107.355 63.777 107.272 64.0928 107.106C64.4118 106.937 64.6592 106.703 64.835 106.403C65.0107 106.104 65.0986 105.756 65.0986 105.358V105.188H63.1211V104.416H65.9775V105.275C65.9775 105.855 65.8522 106.361 65.6016 106.794C65.3542 107.227 65.0059 107.564 64.5566 107.805C64.1107 108.046 63.5866 108.166 62.9844 108.166ZM72.9941 108.166C72.3203 108.166 71.7425 108.016 71.2607 107.717C70.779 107.414 70.4079 106.986 70.1475 106.433C69.8903 105.879 69.7617 105.228 69.7617 104.479V104.47C69.7617 103.715 69.8919 103.062 70.1523 102.512C70.416 101.962 70.7887 101.537 71.2705 101.237C71.7555 100.938 72.3301 100.788 72.9941 100.788C73.6615 100.788 74.236 100.938 74.7178 101.237C75.2028 101.537 75.5755 101.963 75.8359 102.517C76.0964 103.067 76.2266 103.718 76.2266 104.47V104.479C76.2266 105.228 76.0964 105.879 75.8359 106.433C75.5788 106.983 75.2077 107.409 74.7227 107.712C74.2409 108.015 73.6647 108.166 72.9941 108.166ZM72.9941 107.355C73.4759 107.355 73.891 107.237 74.2393 106.999C74.5876 106.761 74.8561 106.428 75.0449 105.998C75.2337 105.565 75.3281 105.059 75.3281 104.479V104.47C75.3281 103.884 75.2337 103.376 75.0449 102.946C74.8561 102.517 74.5876 102.185 74.2393 101.95C73.891 101.716 73.4759 101.599 72.9941 101.599C72.5156 101.599 72.1022 101.716 71.7539 101.95C71.4056 102.185 71.1354 102.517 70.9434 102.946C70.7546 103.376 70.6602 103.884 70.6602 104.47V104.479C70.6602 105.059 70.7529 105.565 70.9385 105.998C71.124 106.428 71.391 106.761 71.7393 106.999C72.0876 107.237 72.5059 107.355 72.9941 107.355ZM80.25 108V100.954H82.9404C83.3929 100.954 83.7868 101.042 84.1221 101.218C84.4606 101.39 84.7227 101.633 84.9082 101.945C85.0938 102.258 85.1865 102.626 85.1865 103.049V103.059C85.1865 103.547 85.0612 103.97 84.8105 104.328C84.5599 104.686 84.2132 104.935 83.7705 105.075L85.4014 108H84.3711L82.8623 105.212C82.8558 105.212 82.8477 105.212 82.8379 105.212C82.8281 105.212 82.82 105.212 82.8135 105.212H81.1289V108H80.25ZM81.1289 104.431H82.8623C83.3148 104.431 83.6631 104.315 83.9072 104.084C84.1546 103.85 84.2783 103.518 84.2783 103.088V103.078C84.2783 102.658 84.1497 102.329 83.8926 102.092C83.6354 101.854 83.279 101.735 82.8232 101.735H81.1289V104.431ZM91.0264 108V104.968L88.5264 100.954H89.5273L91.4268 104.084H91.5049L93.4043 100.954H94.4053L91.9053 104.968V108H91.0264ZM104.039 105.798C103.867 105.798 103.717 105.736 103.59 105.612C103.466 105.485 103.404 105.336 103.404 105.163C103.404 104.987 103.466 104.838 103.59 104.714C103.717 104.59 103.867 104.528 104.039 104.528C104.215 104.528 104.365 104.59 104.488 104.714C104.612 104.838 104.674 104.987 104.674 105.163C104.674 105.336 104.612 105.485 104.488 105.612C104.365 105.736 104.215 105.798 104.039 105.798ZM116.52 108.117C116.035 108.117 115.611 108.034 115.25 107.868C114.889 107.702 114.602 107.474 114.391 107.185C114.182 106.895 114.062 106.564 114.029 106.193L114.024 106.135H114.869L114.874 106.184C114.91 106.529 115.076 106.81 115.372 107.028C115.668 107.246 116.051 107.355 116.52 107.355C116.829 107.355 117.099 107.302 117.33 107.194C117.564 107.087 117.747 106.939 117.877 106.75C118.007 106.558 118.072 106.338 118.072 106.091V106.081C118.072 105.648 117.927 105.316 117.638 105.085C117.351 104.851 116.961 104.733 116.466 104.733H115.582V103.991H116.427C116.707 103.991 116.954 103.939 117.169 103.835C117.384 103.728 117.551 103.583 117.672 103.4C117.792 103.215 117.853 103.005 117.853 102.771V102.761C117.853 102.513 117.8 102.303 117.696 102.131C117.592 101.958 117.439 101.826 117.237 101.735C117.039 101.644 116.796 101.599 116.51 101.599C116.233 101.599 115.986 101.646 115.768 101.74C115.553 101.831 115.38 101.963 115.25 102.136C115.12 102.308 115.042 102.513 115.016 102.751L115.011 102.8H114.166L114.171 102.751C114.21 102.367 114.33 102.032 114.532 101.745C114.737 101.459 115.007 101.236 115.343 101.076C115.681 100.917 116.07 100.837 116.51 100.837C116.959 100.837 117.35 100.915 117.682 101.071C118.017 101.224 118.276 101.438 118.458 101.711C118.644 101.981 118.736 102.295 118.736 102.653V102.663C118.736 102.953 118.673 103.21 118.546 103.435C118.419 103.659 118.243 103.846 118.019 103.996C117.794 104.146 117.535 104.252 117.242 104.313V104.333C117.757 104.375 118.172 104.549 118.487 104.855C118.806 105.158 118.966 105.56 118.966 106.062V106.071C118.966 106.462 118.86 106.812 118.648 107.121C118.437 107.43 118.147 107.674 117.779 107.854C117.411 108.029 116.992 108.117 116.52 108.117ZM130.147 108V101.745H127.877V100.954H133.297V101.745H131.026V108H130.147ZM139.82 108.166C139.146 108.166 138.569 108.016 138.087 107.717C137.605 107.414 137.234 106.986 136.974 106.433C136.716 105.879 136.588 105.228 136.588 104.479V104.47C136.588 103.715 136.718 103.062 136.979 102.512C137.242 101.962 137.615 101.537 138.097 101.237C138.582 100.938 139.156 100.788 139.82 100.788C140.488 100.788 141.062 100.938 141.544 101.237C142.029 101.537 142.402 101.963 142.662 102.517C142.923 103.067 143.053 103.718 143.053 104.47V104.479C143.053 105.228 142.923 105.879 142.662 106.433C142.405 106.983 142.034 107.409 141.549 107.712C141.067 108.015 140.491 108.166 139.82 108.166ZM139.82 107.355C140.302 107.355 140.717 107.237 141.065 106.999C141.414 106.761 141.682 106.428 141.871 105.998C142.06 105.565 142.154 105.059 142.154 104.479V104.47C142.154 103.884 142.06 103.376 141.871 102.946C141.682 102.517 141.414 102.185 141.065 101.95C140.717 101.716 140.302 101.599 139.82 101.599C139.342 101.599 138.928 101.716 138.58 101.95C138.232 102.185 137.962 102.517 137.77 102.946C137.581 103.376 137.486 103.884 137.486 104.47V104.479C137.486 105.059 137.579 105.565 137.765 105.998C137.95 106.428 138.217 106.761 138.565 106.999C138.914 107.237 139.332 107.355 139.82 107.355ZM150.035 108.166C149.361 108.166 148.784 108.016 148.302 107.717C147.82 107.414 147.449 106.986 147.188 106.433C146.931 105.879 146.803 105.228 146.803 104.479V104.47C146.803 103.715 146.933 103.062 147.193 102.512C147.457 101.962 147.83 101.537 148.312 101.237C148.797 100.938 149.371 100.788 150.035 100.788C150.702 100.788 151.277 100.938 151.759 101.237C152.244 101.537 152.617 101.963 152.877 102.517C153.137 103.067 153.268 103.718 153.268 104.47V104.479C153.268 105.228 153.137 105.879 152.877 106.433C152.62 106.983 152.249 107.409 151.764 107.712C151.282 108.015 150.706 108.166 150.035 108.166ZM150.035 107.355C150.517 107.355 150.932 107.237 151.28 106.999C151.629 106.761 151.897 106.428 152.086 105.998C152.275 105.565 152.369 105.059 152.369 104.479V104.47C152.369 103.884 152.275 103.376 152.086 102.946C151.897 102.517 151.629 102.185 151.28 101.95C150.932 101.716 150.517 101.599 150.035 101.599C149.557 101.599 149.143 101.716 148.795 101.95C148.447 102.185 148.176 102.517 147.984 102.946C147.796 103.376 147.701 103.884 147.701 104.47V104.479C147.701 105.059 147.794 105.565 147.979 105.998C148.165 106.428 148.432 106.761 148.78 106.999C149.129 107.237 149.547 107.355 150.035 107.355ZM157.291 108V100.954H158.17V107.209H161.568V108H157.291ZM167.784 108.166C167.27 108.166 166.821 108.083 166.437 107.917C166.056 107.748 165.753 107.517 165.528 107.224C165.307 106.927 165.178 106.589 165.143 106.208L165.138 106.154H166.017L166.021 106.208C166.044 106.442 166.134 106.646 166.29 106.818C166.45 106.988 166.661 107.119 166.925 107.214C167.192 107.308 167.494 107.355 167.833 107.355C168.152 107.355 168.435 107.305 168.683 107.204C168.933 107.1 169.13 106.957 169.273 106.774C169.417 106.592 169.488 106.382 169.488 106.145V106.14C169.488 105.847 169.381 105.601 169.166 105.402C168.951 105.201 168.601 105.046 168.116 104.938L167.335 104.768C166.629 104.611 166.114 104.37 165.792 104.045C165.473 103.716 165.313 103.296 165.313 102.785V102.78C165.317 102.39 165.423 102.045 165.631 101.745C165.842 101.446 166.134 101.211 166.505 101.042C166.879 100.873 167.309 100.788 167.794 100.788C168.263 100.788 168.678 100.873 169.039 101.042C169.4 101.208 169.687 101.433 169.898 101.716C170.113 101.999 170.232 102.316 170.255 102.668L170.26 102.736H169.381L169.371 102.673C169.339 102.465 169.254 102.281 169.117 102.121C168.98 101.958 168.798 101.83 168.57 101.735C168.342 101.641 168.076 101.595 167.77 101.599C167.477 101.599 167.213 101.644 166.979 101.735C166.744 101.826 166.557 101.958 166.417 102.131C166.28 102.3 166.212 102.508 166.212 102.756V102.761C166.212 103.041 166.316 103.277 166.524 103.469C166.733 103.661 167.076 103.809 167.555 103.913L168.336 104.089C169.072 104.252 169.597 104.488 169.913 104.797C170.229 105.106 170.387 105.515 170.387 106.022V106.027C170.387 106.467 170.279 106.846 170.064 107.165C169.85 107.484 169.547 107.731 169.156 107.907C168.766 108.08 168.308 108.166 167.784 108.166Z" fill="#FFFCF5"/>
<path d="M25.2 140V120.8H36.024C38.952 120.8 41.16 122.696 41.16 125.24C41.16 127.784 40.008 129.68 35.424 129.68V130.4C40.44 130.4 41.904 132.464 41.904 135.2C41.904 137.936 39.408 140 36.072 140H25.2ZM31.824 133.76H35.784C36.744 133.76 37.272 133.328 37.272 132.536C37.272 131.864 36.744 131.48 35.784 131.48H31.824V133.76ZM31.824 128.6H35.544C36.36 128.6 36.816 128.168 36.816 127.376C36.816 126.704 36.36 126.32 35.544 126.32H31.824V128.6ZM43.3406 140V124.4H50.0606L50.1326 125.864C49.4606 126.8 48.2606 129.776 47.7566 132.728L48.8846 132.848C49.7966 127.112 51.9566 124.016 55.1726 124.016C58.2926 124.016 59.4206 126.752 59.4206 130.808H52.7006C52.7006 129.176 52.9646 127.808 52.1726 127.808C51.0446 127.808 50.0606 132.152 50.0606 140H43.3406ZM64.0461 140C62.5821 138.704 60.1821 136.568 60.1341 132.512C60.0381 125.528 65.8461 123.896 68.9661 123.896C74.4381 123.896 77.1741 126.248 77.1741 129.152C77.1741 132.032 74.4381 134.408 71.0781 134.408C68.7741 134.408 66.7821 133.304 65.7261 131.672L64.8861 132.464C67.0221 136.256 73.6941 135.56 77.1021 135.368L73.9101 140H64.0461ZM67.0941 131.384C67.8621 131.84 69.2061 131.048 70.0701 129.56C70.9101 128.12 70.9341 126.56 70.1181 126.104C69.3021 125.624 67.9581 126.416 67.1181 127.88C66.2781 129.368 66.2541 130.928 67.0941 131.384ZM93.0988 138.296C94.0588 137.432 95.4748 134.792 95.4748 131.672L94.2268 131.504C94.2268 132.08 94.1308 134.36 92.7388 136.424C90.1708 140.24 85.3468 141.56 81.8668 139.28C78.3628 137 77.5708 132.032 80.0668 128.168C82.6108 124.28 87.4588 123.008 90.9388 125.312C91.8028 125.888 92.6428 126.752 93.1708 127.64V124.4H99.8908V140H93.1708L93.0988 138.296ZM85.1788 138.128C86.2828 138.776 88.3708 137.408 89.8348 134.984C91.3708 132.608 91.6828 130.184 90.6028 129.536C89.5468 128.888 87.4588 130.304 85.9468 132.68C84.4588 135.08 84.1228 137.48 85.1788 138.128ZM111.358 140.384C106.582 140.384 102.718 136.976 102.718 132.776C102.718 131.624 103.462 130.976 103.654 130.784H101.326V128.384C104.062 128.384 108.598 125.696 106.198 122.312H114.526C114.526 125.024 110.926 127.472 106.534 128.648L106.918 129.776C108.598 129.32 109.534 128.888 110.758 128.384H116.638V130.784H109.678C109.462 130.88 108.67 131.816 109.318 132.56C109.99 133.352 112.702 133.064 113.59 132.872C114.742 132.632 115.774 132.32 116.638 132.008V138.8C115.174 139.808 113.35 140.384 111.358 140.384ZM119.044 140V120.8H125.764L125.836 126.104C125.164 127.04 123.964 129.776 123.46 132.728L124.66 132.848C125.716 127.112 128.14 124.016 131.356 124.016C134.476 124.016 136.084 126.272 136.084 130.328V140H129.364V130.328C129.364 128.696 129.148 127.808 128.332 127.808C126.748 127.808 125.764 132.152 125.764 140H119.044ZM138.356 129.68C138.764 129.944 139.436 130.184 140.012 130.184C142.748 130.184 144.284 128.144 145.076 127.016V140H138.356V129.68ZM137.852 126.416C137.852 123.896 140.42 120.44 142.916 120.44C144.212 120.44 145.244 121.376 145.244 123.008C145.244 125.552 142.676 128.984 140.18 128.984C138.86 128.984 137.852 128.024 137.852 126.416ZM147.473 140V124.4H154.193L154.265 126.104C153.593 127.04 152.393 129.776 151.889 132.728L153.089 132.848C154.145 127.112 156.569 124.016 159.785 124.016C162.905 124.016 164.513 126.272 164.513 130.328V140H157.793V130.328C157.793 128.696 157.577 127.808 156.761 127.808C155.177 127.808 154.193 132.152 154.193 140H147.473ZM175.018 145.184C171.49 145.184 168.778 144.44 167.002 143.432V136.616C168.61 138.056 170.338 139.448 174.034 139.424C177.754 139.4 180.322 136.76 180.85 134L179.794 133.376C178.546 135.32 177.106 137.36 173.386 137.36C169.354 137.36 166.306 133.808 166.306 130.352C166.306 126.872 169.354 124.04 174.898 124.04C179.098 124.04 184.714 125.984 184.546 135.248C184.546 139.256 181.474 145.184 175.018 145.184ZM173.698 134.648C174.658 135.224 176.554 133.952 177.946 131.792C179.29 129.608 179.602 127.424 178.642 126.824C177.634 126.248 175.738 127.496 174.394 129.68C173.002 131.84 172.714 134.048 173.698 134.648Z" fill="#FFFCF5"/>
<path d="M28.4912 159.232C27.7712 159.232 27.1423 159.116 26.6045 158.884C26.0713 158.647 25.6475 158.323 25.333 157.913C25.0231 157.498 24.8431 157.024 24.793 156.491L24.7861 156.416H26.0166L26.0234 156.491C26.0553 156.819 26.1807 157.104 26.3994 157.346C26.6227 157.583 26.9189 157.767 27.2881 157.899C27.6618 158.032 28.0856 158.098 28.5596 158.098C29.0062 158.098 29.4027 158.027 29.749 157.886C30.0999 157.74 30.3757 157.539 30.5762 157.284C30.7767 157.029 30.877 156.735 30.877 156.402V156.396C30.877 155.985 30.7266 155.641 30.4258 155.363C30.125 155.081 29.6351 154.864 28.9561 154.714L27.8623 154.475C26.8734 154.256 26.1533 153.919 25.7021 153.463C25.2555 153.003 25.0322 152.415 25.0322 151.699V151.692C25.0368 151.146 25.1849 150.662 25.4766 150.243C25.7728 149.824 26.1807 149.496 26.7002 149.259C27.2243 149.022 27.8258 148.903 28.5049 148.903C29.1611 148.903 29.7422 149.022 30.248 149.259C30.7539 149.491 31.1549 149.806 31.4512 150.202C31.752 150.599 31.9183 151.043 31.9502 151.535L31.957 151.631H30.7266L30.7129 151.542C30.6673 151.25 30.5488 150.993 30.3574 150.77C30.166 150.542 29.9108 150.362 29.5918 150.229C29.2728 150.097 28.8991 150.034 28.4707 150.038C28.0605 150.038 27.6914 150.102 27.3633 150.229C27.0352 150.357 26.7731 150.542 26.5771 150.783C26.3857 151.02 26.29 151.312 26.29 151.658V151.665C26.29 152.057 26.4359 152.387 26.7275 152.656C27.0192 152.925 27.5 153.132 28.1699 153.278L29.2637 153.524C29.9518 153.675 30.5055 153.871 30.9248 154.112C31.3441 154.354 31.6494 154.65 31.8408 155.001C32.0368 155.347 32.1348 155.757 32.1348 156.231V156.238C32.1348 156.854 31.9844 157.384 31.6836 157.831C31.3828 158.278 30.959 158.624 30.4121 158.87C29.8652 159.112 29.2249 159.232 28.4912 159.232ZM34.1035 159V148.705H35.293V159H34.1035ZM40.6045 159.13C39.9072 159.13 39.3034 158.977 38.793 158.672C38.2871 158.362 37.8952 157.922 37.6172 157.353C37.3438 156.783 37.207 156.106 37.207 155.322V155.309C37.207 154.52 37.3438 153.841 37.6172 153.271C37.8952 152.702 38.2871 152.264 38.793 151.959C39.3034 151.654 39.9072 151.501 40.6045 151.501C41.3063 151.501 41.9102 151.654 42.416 151.959C42.9219 152.264 43.3115 152.702 43.585 153.271C43.863 153.841 44.002 154.52 44.002 155.309V155.322C44.002 156.106 43.863 156.783 43.585 157.353C43.3115 157.922 42.9219 158.362 42.416 158.672C41.9102 158.977 41.3063 159.13 40.6045 159.13ZM40.6045 158.077C41.0693 158.077 41.4635 157.968 41.7871 157.749C42.1107 157.53 42.3568 157.216 42.5254 156.806C42.6986 156.396 42.7852 155.901 42.7852 155.322V155.309C42.7852 154.725 42.6986 154.229 42.5254 153.818C42.3568 153.408 42.1107 153.096 41.7871 152.882C41.4635 152.663 41.0693 152.554 40.6045 152.554C40.1396 152.554 39.7454 152.663 39.4219 152.882C39.0983 153.096 38.8499 153.408 38.6768 153.818C38.5081 154.229 38.4238 154.725 38.4238 155.309V155.322C38.4238 155.901 38.5081 156.396 38.6768 156.806C38.8499 157.216 39.0983 157.53 39.4219 157.749C39.7454 157.968 40.1396 158.077 40.6045 158.077ZM46.9961 159L44.9316 151.631H46.1211L47.5703 157.523H47.6797L49.3271 151.631H50.4551L52.1025 157.523H52.2119L53.6611 151.631H54.8438L52.7793 159H51.583L49.9355 153.299H49.8262L48.1855 159H46.9961ZM60.3809 159V151.631H61.5703V159H60.3809ZM60.9824 150.209C60.7591 150.209 60.5654 150.129 60.4014 149.97C60.2419 149.806 60.1621 149.612 60.1621 149.389C60.1621 149.161 60.2419 148.967 60.4014 148.808C60.5654 148.648 60.7591 148.568 60.9824 148.568C61.2103 148.568 61.404 148.648 61.5635 148.808C61.723 148.967 61.8027 149.161 61.8027 149.389C61.8027 149.612 61.723 149.806 61.5635 149.97C61.404 150.129 61.2103 150.209 60.9824 150.209ZM66.4307 159.055C65.6742 159.055 65.125 158.902 64.7832 158.597C64.446 158.291 64.2773 157.788 64.2773 157.086V152.615H63.1152V151.631H64.2773V149.724H65.5078V151.631H67.1211V152.615H65.5078V156.785C65.5078 157.218 65.5898 157.53 65.7539 157.722C65.918 157.909 66.1914 158.002 66.5742 158.002C66.679 158.002 66.7679 158 66.8408 157.995C66.9183 157.991 67.0117 157.984 67.1211 157.975V158.986C67.0072 159.005 66.8932 159.021 66.7793 159.034C66.6654 159.048 66.5492 159.055 66.4307 159.055ZM75.5566 159.13C74.9368 159.13 74.3945 158.973 73.9297 158.658C73.4648 158.344 73.1048 157.902 72.8496 157.332C72.5944 156.758 72.4668 156.088 72.4668 155.322V155.309C72.4668 154.538 72.5944 153.868 72.8496 153.299C73.1048 152.729 73.4626 152.287 73.9229 151.973C74.3877 151.658 74.9323 151.501 75.5566 151.501C75.8939 151.501 76.2106 151.556 76.5068 151.665C76.8076 151.77 77.0742 151.918 77.3066 152.109C77.5391 152.301 77.7214 152.529 77.8535 152.793H77.9629V148.705H79.1523V159H77.9629V157.824H77.8535C77.7031 158.098 77.514 158.332 77.2861 158.528C77.0583 158.72 76.7985 158.868 76.5068 158.973C76.2152 159.077 75.8984 159.13 75.5566 159.13ZM75.8301 158.077C76.2767 158.077 76.6618 157.965 76.9854 157.742C77.3089 157.519 77.5573 157.202 77.7305 156.792C77.9036 156.377 77.9902 155.887 77.9902 155.322V155.309C77.9902 154.739 77.9036 154.249 77.7305 153.839C77.5573 153.429 77.3089 153.112 76.9854 152.889C76.6618 152.665 76.2767 152.554 75.8301 152.554C75.3835 152.554 74.9984 152.665 74.6748 152.889C74.3558 153.107 74.1097 153.422 73.9365 153.832C73.7679 154.242 73.6836 154.734 73.6836 155.309V155.322C73.6836 155.892 73.7679 156.384 73.9365 156.799C74.1097 157.209 74.3558 157.526 74.6748 157.749C74.9984 157.968 75.3835 158.077 75.8301 158.077ZM84.4639 159.13C83.7666 159.13 83.1628 158.977 82.6523 158.672C82.1465 158.362 81.7546 157.922 81.4766 157.353C81.2031 156.783 81.0664 156.106 81.0664 155.322V155.309C81.0664 154.52 81.2031 153.841 81.4766 153.271C81.7546 152.702 82.1465 152.264 82.6523 151.959C83.1628 151.654 83.7666 151.501 84.4639 151.501C85.1657 151.501 85.7695 151.654 86.2754 151.959C86.7812 152.264 87.1709 152.702 87.4443 153.271C87.7223 153.841 87.8613 154.52 87.8613 155.309V155.322C87.8613 156.106 87.7223 156.783 87.4443 157.353C87.1709 157.922 86.7812 158.362 86.2754 158.672C85.7695 158.977 85.1657 159.13 84.4639 159.13ZM84.4639 158.077C84.9287 158.077 85.3229 157.968 85.6465 157.749C85.9701 157.53 86.2161 157.216 86.3848 156.806C86.5579 156.396 86.6445 155.901 86.6445 155.322V155.309C86.6445 154.725 86.5579 154.229 86.3848 153.818C86.2161 153.408 85.9701 153.096 85.6465 152.882C85.3229 152.663 84.9287 152.554 84.4639 152.554C83.999 152.554 83.6048 152.663 83.2812 152.882C82.9577 153.096 82.7093 153.408 82.5361 153.818C82.3675 154.229 82.2832 154.725 82.2832 155.309V155.322C82.2832 155.901 82.3675 156.396 82.5361 156.806C82.7093 157.216 82.9577 157.53 83.2812 157.749C83.6048 157.968 83.999 158.077 84.4639 158.077ZM90.8555 159L88.791 151.631H89.9805L91.4297 157.523H91.5391L93.1865 151.631H94.3145L95.9619 157.523H96.0713L97.5205 151.631H98.7031L96.6387 159H95.4424L93.7949 153.299H93.6855L92.0449 159H90.8555ZM100.275 159V151.631H101.465V152.738H101.574C101.761 152.346 102.03 152.043 102.381 151.829C102.732 151.61 103.178 151.501 103.721 151.501C104.55 151.501 105.186 151.738 105.628 152.212C106.075 152.681 106.298 153.354 106.298 154.229V159H105.108V154.516C105.108 153.85 104.967 153.358 104.685 153.039C104.407 152.715 103.974 152.554 103.386 152.554C102.994 152.554 102.654 152.638 102.367 152.807C102.08 152.975 101.857 153.215 101.697 153.524C101.542 153.834 101.465 154.206 101.465 154.639V159H100.275ZM113.811 159L111.746 151.631H112.936L114.385 157.523H114.494L116.142 151.631H117.27L118.917 157.523H119.026L120.476 151.631H121.658L119.594 159H118.397L116.75 153.299H116.641L115 159H113.811ZM123.258 159V151.631H124.447V159H123.258ZM123.859 150.209C123.636 150.209 123.442 150.129 123.278 149.97C123.119 149.806 123.039 149.612 123.039 149.389C123.039 149.161 123.119 148.967 123.278 148.808C123.442 148.648 123.636 148.568 123.859 148.568C124.087 148.568 124.281 148.648 124.44 148.808C124.6 148.967 124.68 149.161 124.68 149.389C124.68 149.612 124.6 149.806 124.44 149.97C124.281 150.129 124.087 150.209 123.859 150.209ZM129.308 159.055C128.551 159.055 128.002 158.902 127.66 158.597C127.323 158.291 127.154 157.788 127.154 157.086V152.615H125.992V151.631H127.154V149.724H128.385V151.631H129.998V152.615H128.385V156.785C128.385 157.218 128.467 157.53 128.631 157.722C128.795 157.909 129.068 158.002 129.451 158.002C129.556 158.002 129.645 158 129.718 157.995C129.795 157.991 129.889 157.984 129.998 157.975V158.986C129.884 159.005 129.77 159.021 129.656 159.034C129.542 159.048 129.426 159.055 129.308 159.055ZM131.844 159V148.705H133.033V152.738H133.143C133.329 152.346 133.598 152.043 133.949 151.829C134.3 151.61 134.747 151.501 135.289 151.501C135.84 151.501 136.308 151.608 136.69 151.822C137.073 152.032 137.365 152.34 137.565 152.745C137.766 153.151 137.866 153.645 137.866 154.229V159H136.677V154.516C136.677 153.85 136.535 153.358 136.253 153.039C135.975 152.715 135.542 152.554 134.954 152.554C134.562 152.554 134.223 152.638 133.936 152.807C133.648 152.975 133.425 153.215 133.266 153.524C133.111 153.834 133.033 154.206 133.033 154.639V159H131.844ZM144.586 161.584C144.508 161.584 144.422 161.579 144.326 161.57C144.23 161.566 144.142 161.557 144.06 161.543V160.565C144.132 160.579 144.212 160.588 144.299 160.593C144.385 160.597 144.47 160.6 144.552 160.6C144.889 160.6 145.165 160.513 145.379 160.34C145.598 160.167 145.773 159.868 145.905 159.444L146.042 159.007L143.314 151.631H144.586L146.855 158.439L146.384 157.694H146.944L146.473 158.439L148.735 151.631H149.986L147.108 159.451C146.908 160.003 146.696 160.433 146.473 160.743C146.249 161.053 145.987 161.27 145.687 161.393C145.39 161.52 145.023 161.584 144.586 161.584ZM154.313 159.13C153.616 159.13 153.012 158.977 152.502 158.672C151.996 158.362 151.604 157.922 151.326 157.353C151.053 156.783 150.916 156.106 150.916 155.322V155.309C150.916 154.52 151.053 153.841 151.326 153.271C151.604 152.702 151.996 152.264 152.502 151.959C153.012 151.654 153.616 151.501 154.313 151.501C155.015 151.501 155.619 151.654 156.125 151.959C156.631 152.264 157.021 152.702 157.294 153.271C157.572 153.841 157.711 154.52 157.711 155.309V155.322C157.711 156.106 157.572 156.783 157.294 157.353C157.021 157.922 156.631 158.362 156.125 158.672C155.619 158.977 155.015 159.13 154.313 159.13ZM154.313 158.077C154.778 158.077 155.173 157.968 155.496 157.749C155.82 157.53 156.066 157.216 156.234 156.806C156.408 156.396 156.494 155.901 156.494 155.322V155.309C156.494 154.725 156.408 154.229 156.234 153.818C156.066 153.408 155.82 153.096 155.496 152.882C155.173 152.663 154.778 152.554 154.313 152.554C153.849 152.554 153.454 152.663 153.131 152.882C152.807 153.096 152.559 153.408 152.386 153.818C152.217 154.229 152.133 154.725 152.133 155.309V155.322C152.133 155.901 152.217 156.396 152.386 156.806C152.559 157.216 152.807 157.53 153.131 157.749C153.454 157.968 153.849 158.077 154.313 158.077ZM162.024 159.13C161.468 159.13 161.001 159.025 160.623 158.815C160.245 158.601 159.96 158.291 159.769 157.886C159.582 157.476 159.488 156.981 159.488 156.402V151.631H160.678V156.115C160.678 156.776 160.805 157.268 161.061 157.592C161.32 157.915 161.744 158.077 162.332 158.077C162.656 158.077 162.94 158.029 163.187 157.934C163.437 157.838 163.647 157.701 163.815 157.523C163.984 157.341 164.109 157.122 164.191 156.867C164.278 156.607 164.321 156.316 164.321 155.992V151.631H165.511V159H164.321V157.899H164.212C164.093 158.159 163.932 158.382 163.727 158.569C163.521 158.752 163.275 158.891 162.988 158.986C162.706 159.082 162.384 159.13 162.024 159.13ZM167.732 159V151.631H168.922V152.725H169.031C169.173 152.337 169.412 152.036 169.749 151.822C170.086 151.608 170.503 151.501 171 151.501C171.114 151.501 171.226 151.508 171.335 151.521C171.449 151.531 171.535 151.54 171.595 151.549V152.704C171.472 152.681 171.351 152.665 171.232 152.656C171.118 152.643 170.995 152.636 170.863 152.636C170.485 152.636 170.15 152.711 169.858 152.861C169.567 153.012 169.337 153.221 169.168 153.49C169.004 153.759 168.922 154.074 168.922 154.434V159H167.732ZM180.666 159.13C180.324 159.13 180.007 159.077 179.716 158.973C179.424 158.868 179.164 158.72 178.937 158.528C178.709 158.332 178.52 158.098 178.369 157.824H178.26V159H177.07V148.705H178.26V152.793H178.369C178.506 152.529 178.688 152.301 178.916 152.109C179.148 151.918 179.413 151.77 179.709 151.665C180.01 151.556 180.329 151.501 180.666 151.501C181.29 151.501 181.833 151.658 182.293 151.973C182.758 152.287 183.118 152.729 183.373 153.299C183.628 153.868 183.756 154.538 183.756 155.309V155.322C183.756 156.088 183.628 156.758 183.373 157.332C183.118 157.902 182.758 158.344 182.293 158.658C181.833 158.973 181.29 159.13 180.666 159.13ZM180.393 158.077C180.844 158.077 181.229 157.968 181.548 157.749C181.867 157.526 182.111 157.209 182.279 156.799C182.452 156.384 182.539 155.892 182.539 155.322V155.309C182.539 154.734 182.452 154.242 182.279 153.832C182.111 153.422 181.867 153.107 181.548 152.889C181.229 152.665 180.844 152.554 180.393 152.554C179.946 152.554 179.561 152.665 179.237 152.889C178.914 153.112 178.665 153.429 178.492 153.839C178.319 154.249 178.232 154.739 178.232 155.309V155.322C178.232 155.887 178.319 156.377 178.492 156.792C178.665 157.202 178.914 157.519 179.237 157.742C179.561 157.965 179.946 158.077 180.393 158.077ZM185.602 159V151.631H186.791V152.725H186.9C187.042 152.337 187.281 152.036 187.618 151.822C187.955 151.608 188.372 151.501 188.869 151.501C188.983 151.501 189.095 151.508 189.204 151.521C189.318 151.531 189.405 151.54 189.464 151.549V152.704C189.341 152.681 189.22 152.665 189.102 152.656C188.988 152.643 188.865 152.636 188.732 152.636C188.354 152.636 188.019 152.711 187.728 152.861C187.436 153.012 187.206 153.221 187.037 153.49C186.873 153.759 186.791 154.074 186.791 154.434V159H185.602ZM193.736 159.13C193.035 159.13 192.431 158.975 191.925 158.665C191.424 158.355 191.036 157.918 190.763 157.353C190.494 156.783 190.359 156.113 190.359 155.343V155.336C190.359 154.575 190.494 153.907 190.763 153.333C191.036 152.759 191.421 152.31 191.918 151.986C192.415 151.663 192.996 151.501 193.661 151.501C194.331 151.501 194.905 151.656 195.384 151.966C195.867 152.276 196.236 152.709 196.491 153.265C196.751 153.816 196.881 154.459 196.881 155.192V155.657H190.975V154.707H196.272L195.685 155.575V155.104C195.685 154.525 195.598 154.049 195.425 153.675C195.252 153.301 195.012 153.023 194.707 152.841C194.402 152.654 194.051 152.561 193.654 152.561C193.258 152.561 192.902 152.659 192.588 152.854C192.278 153.046 192.032 153.331 191.85 153.709C191.667 154.087 191.576 154.552 191.576 155.104V155.575C191.576 156.099 191.665 156.548 191.843 156.922C192.021 157.291 192.273 157.576 192.602 157.776C192.93 157.972 193.317 158.07 193.764 158.07C194.096 158.07 194.386 158.025 194.632 157.934C194.878 157.842 195.081 157.726 195.24 157.585C195.4 157.444 195.511 157.3 195.575 157.154L195.603 157.093H196.792L196.778 157.147C196.715 157.398 196.601 157.642 196.437 157.879C196.277 158.111 196.07 158.323 195.814 158.515C195.559 158.701 195.256 158.852 194.905 158.966C194.559 159.075 194.169 159.13 193.736 159.13ZM200.75 159.13C200.285 159.13 199.866 159.041 199.492 158.863C199.123 158.686 198.829 158.433 198.61 158.104C198.396 157.776 198.289 157.389 198.289 156.942V156.929C198.289 156.491 198.394 156.118 198.604 155.808C198.813 155.493 199.118 155.247 199.52 155.069C199.921 154.892 200.406 154.787 200.976 154.755L203.683 154.591V155.541L201.119 155.705C200.559 155.737 200.148 155.853 199.889 156.054C199.633 156.254 199.506 156.537 199.506 156.901V156.915C199.506 157.289 199.647 157.58 199.93 157.79C200.212 157.995 200.568 158.098 200.996 158.098C201.402 158.098 201.762 158.018 202.076 157.858C202.391 157.694 202.637 157.473 202.814 157.195C202.997 156.917 203.088 156.603 203.088 156.252V153.955C203.088 153.499 202.949 153.153 202.671 152.916C202.397 152.674 201.985 152.554 201.434 152.554C200.992 152.554 200.629 152.633 200.347 152.793C200.064 152.948 199.875 153.169 199.779 153.456L199.772 153.477H198.583L198.59 153.436C198.654 153.048 198.813 152.711 199.068 152.424C199.328 152.132 199.663 151.907 200.073 151.747C200.483 151.583 200.951 151.501 201.475 151.501C202.076 151.501 202.584 151.599 202.999 151.795C203.418 151.991 203.735 152.273 203.949 152.643C204.168 153.007 204.277 153.445 204.277 153.955V159H203.088V157.913H202.979C202.824 158.173 202.634 158.394 202.411 158.576C202.192 158.758 201.944 158.897 201.666 158.993C201.388 159.084 201.083 159.13 200.75 159.13ZM209.069 159.055C208.313 159.055 207.764 158.902 207.422 158.597C207.085 158.291 206.916 157.788 206.916 157.086V152.615H205.754V151.631H206.916V149.724H208.146V151.631H209.76V152.615H208.146V156.785C208.146 157.218 208.229 157.53 208.393 157.722C208.557 157.909 208.83 158.002 209.213 158.002C209.318 158.002 209.407 158 209.479 157.995C209.557 157.991 209.65 157.984 209.76 157.975V158.986C209.646 159.005 209.532 159.021 209.418 159.034C209.304 159.048 209.188 159.055 209.069 159.055ZM211.605 159V148.705H212.795V152.738H212.904C213.091 152.346 213.36 152.043 213.711 151.829C214.062 151.61 214.508 151.501 215.051 151.501C215.602 151.501 216.069 151.608 216.452 151.822C216.835 152.032 217.127 152.34 217.327 152.745C217.528 153.151 217.628 153.645 217.628 154.229V159H216.438V154.516C216.438 153.85 216.297 153.358 216.015 153.039C215.737 152.715 215.304 152.554 214.716 152.554C214.324 152.554 213.984 152.638 213.697 152.807C213.41 152.975 213.187 153.215 213.027 153.524C212.872 153.834 212.795 154.206 212.795 154.639V159H211.605ZM220.752 159.068C220.51 159.068 220.301 158.982 220.123 158.809C219.95 158.631 219.863 158.421 219.863 158.18C219.863 157.934 219.95 157.724 220.123 157.551C220.301 157.378 220.51 157.291 220.752 157.291C220.998 157.291 221.208 157.378 221.381 157.551C221.554 157.724 221.641 157.934 221.641 158.18C221.641 158.421 221.554 158.631 221.381 158.809C221.208 158.982 220.998 159.068 220.752 159.068Z" fill="#FFFCF5"/>
</g>
<defs>
<clipPath id="clip0_630_14353">
<rect width="362" height="175" rx="30" fill="white"/>
</clipPath>
</defs>
</svg>
