<svg width="131" height="131" viewBox="0 0 131 131" fill="none" xmlns="http://www.w3.org/2000/svg">
<path d="M113.317 8.95293C113.566 9.27956 108.306 14.2973 107.667 14.8661C106.07 16.2909 97.572 23.3586 96.3151 23.8486C91.248 25.8309 84.6579 24.6708 77.8244 27.9822C59.9282 36.6718 66.2635 51.4717 72.4572 66.1984C75.6957 73.8968 84.154 86.8833 84.941 94.3283C87.902 122.323 53.8194 134.335 31.2241 126.637C31.1335 125.995 31.2241 125.544 31.5185 124.964C32.9791 122.092 43.9569 110.716 46.7651 109.156C48.7466 108.058 55.0706 107.726 58.7789 105.901C65.3293 102.686 66.2918 100.033 64.0781 93.1063C58.2637 74.8654 40.7864 52.0292 48.0955 32.2003C56.7974 8.6094 91.3669 -3.07621 113.305 8.94167L113.317 8.95293Z" fill="#FFB619"/>
<path d="M130.994 0.0936927V27.1873C115.052 42.3311 97.1681 55.1022 74.954 58.2222C73.4225 53.1229 70.2699 44.6697 72.525 39.6047C75.1784 33.6441 91.435 31.9215 97.3027 28.8642C103.17 25.8069 112.387 17.502 116.959 12.3457C118.569 10.5261 125.418 0.601347 126.069 0.224889C127.017 -0.32839 129.726 0.34467 131 0.0994022L130.994 0.0936927Z" fill="#FFB619"/>
<path d="M22.6192 131H0.0454959C-0.061729 129.988 0.011634 129.19 0.361526 128.222C1.23626 125.793 6.07267 119.046 7.82213 116.538C18.9961 100.525 34.3011 85.4613 51.395 75.897L59.2619 94.0866C44.5382 103.499 30.7739 115.324 22.6248 131H22.6192Z" fill="#FFB619"/>
<path d="M79.0156 66.2097C81.523 65.7524 84.2267 64.8829 86.5995 63.957C97.4817 59.7113 105.211 53.6646 114.534 46.9065C119.072 43.6149 123.666 40.3516 127.817 36.5576C128.176 36.0269 128.799 36.8907 128.883 37.1956C129.068 37.8957 128.513 43.7956 128.373 45.0264C126.622 60.4114 119.611 69.7383 106.316 77.0271C100.898 79.9968 94.2395 82.6956 88.3665 84.2143L79.0156 66.2097Z" fill="#FFB619"/>
<path d="M42.3906 47.8254L47.8254 67.6305C44.1586 70.1068 39.531 72.3627 36.4042 75.5061C33.5901 78.333 31.7311 82.4716 29.3093 85.4115C27.1035 88.0857 23.6186 90.3359 21.0717 93.0497C17.149 97.2278 13.3798 101.649 9.70729 106.048C-0.0311766 82.6808 21.265 56.3909 42.3906 47.8254Z" fill="#FFB619"/>
</svg>
