<svg width="64" height="64" viewBox="0 0 64 64" fill="none" xmlns="http://www.w3.org/2000/svg">
<path d="M55.3608 4.37396C55.4825 4.53353 52.9129 6.98496 52.6004 7.26285C51.8204 7.95893 47.6687 11.4118 47.0546 11.6512C44.5791 12.6197 41.3595 12.0529 38.021 13.6707C29.2779 17.916 32.3729 25.1465 35.3989 32.3412C36.981 36.1022 41.1134 42.4468 41.4978 46.084C42.9444 59.7609 26.2934 65.6294 15.2545 61.8684C15.2102 61.5547 15.2545 61.3346 15.3983 61.0512C16.1119 59.6481 21.4751 54.0904 22.847 53.3283C23.8151 52.7918 26.9047 52.6294 28.7164 51.738C31.9166 50.167 32.3868 48.8711 31.3053 45.487C28.4647 36.5755 19.9262 25.4188 23.497 15.7314C27.7483 4.20613 44.6372 -1.50287 55.3553 4.36846L55.3608 4.37396Z" fill="#FFB619"/>
<path d="M63.9973 0.0457735V13.2823C56.2086 20.6808 47.4716 26.9201 36.6189 28.4444C35.8707 25.9532 34.3305 21.8234 35.4323 19.3488C36.7286 16.4368 44.6707 15.5952 47.5374 14.1016C50.404 12.6079 54.9068 8.5506 57.1404 6.03148C57.9269 5.14254 61.2731 0.293787 61.591 0.109869C62.0542 -0.160435 63.3779 0.168388 64 0.0485628L63.9973 0.0457735Z" fill="#FFB619"/>
<path d="M11.0506 64H0.022227C-0.0301577 63.5055 0.0056838 63.1154 0.176623 62.6429C0.603972 61.4562 2.9668 58.1598 3.82149 56.9347C9.28053 49.1112 16.7577 41.752 25.109 37.0793L28.9523 45.9659C21.7591 50.5644 15.0346 56.3413 11.0533 64H11.0506Z" fill="#FFB619"/>
<path d="M38.603 32.3467C39.828 32.1233 41.1489 31.6985 42.3081 31.2462C47.6246 29.172 51.401 26.2178 55.9556 22.9162C58.1726 21.3081 60.4171 19.7138 62.445 17.8602C62.6204 17.601 62.9246 18.023 62.9657 18.1719C63.0561 18.514 62.7848 21.3964 62.7163 21.9977C61.8613 29.514 58.4357 34.0707 51.9408 37.6316C49.2935 39.0824 46.0406 40.4009 43.1714 41.1429L38.603 32.3467Z" fill="#FFB619"/>
<path d="M20.7101 23.365L23.3653 33.0407C21.5739 34.2505 19.313 35.3526 17.7855 36.8884C16.4106 38.2694 15.5024 40.2913 14.3192 41.7276C13.2416 43.0341 11.539 44.1334 10.2948 45.4593C8.37834 47.5005 6.53691 49.6605 4.74269 51.8094C-0.0150232 40.3935 10.3892 27.5496 20.7101 23.365Z" fill="#FFB619"/>
</svg>
