<svg width="25" height="24" viewBox="0 0 25 24" fill="none" xmlns="http://www.w3.org/2000/svg">
<path d="M2.41211 9.18555C2.41211 8.31966 2.54883 7.52865 2.82227 6.8125C3.10221 6.08984 3.49284 5.46484 3.99414 4.9375C4.49544 4.41016 5.08138 4.00326 5.75195 3.7168C6.42904 3.43034 7.16146 3.28711 7.94922 3.28711C8.85417 3.28711 9.66471 3.48568 10.3809 3.88281C11.097 4.27995 11.6732 4.80729 12.1094 5.46484C12.5521 4.80729 13.1283 4.27995 13.8379 3.88281C14.554 3.48568 15.3646 3.28711 16.2695 3.28711C17.0638 3.28711 17.7962 3.43034 18.4668 3.7168C19.1439 4.00326 19.7298 4.41016 20.2246 4.9375C20.7259 5.46484 21.1133 6.08984 21.3867 6.8125C21.6667 7.52865 21.8066 8.31966 21.8066 9.18555C21.8066 10.5723 21.4388 11.946 20.7031 13.3066C19.974 14.6608 18.9355 15.9824 17.5879 17.2715C16.2467 18.554 14.6582 19.7812 12.8223 20.9531C12.7181 21.0182 12.5977 21.0768 12.4609 21.1289C12.3307 21.1875 12.2135 21.2168 12.1094 21.2168C12.0117 21.2168 11.8945 21.1875 11.7578 21.1289C11.6276 21.0768 11.5104 21.0182 11.4062 20.9531C9.57031 19.7812 7.97852 18.554 6.63086 17.2715C5.2832 15.9824 4.24154 14.6608 3.50586 13.3066C2.77669 11.946 2.41211 10.5723 2.41211 9.18555ZM3.98438 9.18555C3.98438 10.0905 4.20247 11.0085 4.63867 11.9395C5.07487 12.8639 5.66732 13.7721 6.41602 14.6641C7.16471 15.556 8.01107 16.4089 8.95508 17.2227C9.9056 18.0299 10.8919 18.7721 11.9141 19.4492C12.0182 19.5273 12.0833 19.5664 12.1094 19.5664C12.1354 19.5664 12.2038 19.5273 12.3145 19.4492C13.3366 18.7721 14.3197 18.0299 15.2637 17.2227C16.2142 16.4089 17.0605 15.556 17.8027 14.6641C18.5514 13.7721 19.1439 12.8639 19.5801 11.9395C20.0163 11.0085 20.2344 10.0905 20.2344 9.18555C20.2344 8.31966 20.0618 7.56445 19.7168 6.91992C19.3783 6.26888 18.9095 5.76432 18.3105 5.40625C17.7181 5.04167 17.0443 4.85938 16.2891 4.85938C15.6771 4.85938 15.1497 4.97005 14.707 5.19141C14.2708 5.40625 13.8932 5.67969 13.5742 6.01172C13.2617 6.33724 12.9948 6.65951 12.7734 6.97852C12.6302 7.16732 12.513 7.29753 12.4219 7.36914C12.3307 7.44076 12.2266 7.47656 12.1094 7.47656C11.9922 7.47656 11.8848 7.44401 11.7871 7.37891C11.696 7.30729 11.582 7.17383 11.4453 6.97852C11.237 6.65299 10.9766 6.32747 10.6641 6.00195C10.3516 5.67643 9.9707 5.40625 9.52148 5.19141C9.07227 4.97005 8.54167 4.85938 7.92969 4.85938C7.17448 4.85938 6.4974 5.04167 5.89844 5.40625C5.30599 5.76432 4.83724 6.26888 4.49219 6.91992C4.15365 7.56445 3.98438 8.31966 3.98438 9.18555Z" fill="#FF1D25"/>
<ellipse cx="10.3315" cy="11.9248" rx="8.23369" ry="5.70201" transform="rotate(47.5892 10.3315 11.9248)" fill="#FF1D25"/>
<ellipse cx="8.23369" cy="6.08703" rx="8.23369" ry="6.08703" transform="matrix(-0.674441 0.738328 0.738328 0.674441 15.1055 2)" fill="#FF1D25"/>
<ellipse cx="12.5" cy="19" rx="0.5" ry="1" fill="#FF1D25"/>
</svg>
