<svg width="23" height="22" viewBox="0 0 23 22" fill="none" xmlns="http://www.w3.org/2000/svg">
<path d="M11.4521 21.1729C11.3057 21.1729 11.1299 21.123 10.9248 21.0234C10.7256 20.9297 10.5381 20.8213 10.3623 20.6982C8.79199 19.6846 7.37109 18.6299 6.09961 17.5342C4.82812 16.4443 3.73828 15.3252 2.83008 14.1768C1.92188 13.0225 1.22168 11.8506 0.729492 10.6611C0.243164 9.47168 0 8.27344 0 7.06641C0 6.02344 0.166992 5.07129 0.500977 4.20996C0.834961 3.34277 1.30078 2.5957 1.89844 1.96875C2.49609 1.33594 3.1875 0.849609 3.97266 0.509766C4.75781 0.169922 5.60449 0 6.5127 0C7.25684 0 7.93945 0.131836 8.56055 0.395508C9.1875 0.65332 9.74414 1.01367 10.2305 1.47656C10.7168 1.93945 11.124 2.47852 11.4521 3.09375C11.7861 2.47852 12.1934 1.93945 12.6738 1.47656C13.1602 1.01367 13.7139 0.65332 14.335 0.395508C14.9619 0.131836 15.6475 0 16.3916 0C17.2998 0 18.1465 0.169922 18.9316 0.509766C19.7168 0.849609 20.4053 1.33594 20.9971 1.96875C21.5947 2.5957 22.0605 3.34277 22.3945 4.20996C22.7344 5.07129 22.9043 6.02344 22.9043 7.06641C22.9043 8.27344 22.6582 9.47168 22.166 10.6611C21.6797 11.8506 20.9795 13.0225 20.0654 14.1768C19.1572 15.3252 18.0674 16.4443 16.7959 17.5342C15.5303 18.6299 14.1152 19.6846 12.5508 20.6982C12.3691 20.8213 12.1787 20.9297 11.9795 21.0234C11.7803 21.123 11.6045 21.1729 11.4521 21.1729ZM8.29688 14.1152C8.29688 14.4609 8.37305 14.7158 8.52539 14.8799C8.68359 15.0381 8.9209 15.1172 9.2373 15.1172H13.6846C13.9951 15.1172 14.2266 15.0381 14.3789 14.8799C14.5371 14.7158 14.6162 14.4609 14.6162 14.1152V10.6787C14.6162 10.374 14.5518 10.1426 14.4229 9.98438C14.2998 9.82031 14.1123 9.72656 13.8604 9.70312V8.70117C13.8604 8.16211 13.7578 7.69336 13.5527 7.29492C13.3535 6.89648 13.0723 6.58594 12.709 6.36328C12.3516 6.13477 11.9326 6.02051 11.4521 6.02051C10.9775 6.02051 10.5586 6.13477 10.1953 6.36328C9.83203 6.58594 9.55078 6.89648 9.35156 7.29492C9.15234 7.69336 9.05273 8.16211 9.05273 8.70117V9.70312C8.80078 9.72656 8.61035 9.82031 8.48145 9.98438C8.3584 10.1426 8.29688 10.374 8.29688 10.6787V14.1152ZM10.0723 9.67676V8.62207C10.0723 8.1416 10.1982 7.75488 10.4502 7.46191C10.7021 7.16309 11.0361 7.01367 11.4521 7.01367C11.8682 7.01367 12.2021 7.16016 12.4541 7.45312C12.7061 7.74609 12.832 8.13574 12.832 8.62207V9.67676H10.0723Z" fill="#8B8B90"/>
</svg>
