<svg width="25" height="22" viewBox="0 0 25 22" fill="none" xmlns="http://www.w3.org/2000/svg">
<path d="M0.333984 0.755859C0.392578 0.492188 0.503906 0.301758 0.667969 0.18457C0.837891 0.0615234 1.02539 0.0175781 1.23047 0.0527344C1.43555 0.0820312 1.62305 0.18457 1.79297 0.360352C2.33203 0.94043 2.90918 1.36816 3.52441 1.64355C4.13965 1.91309 4.76953 2.08594 5.41406 2.16211C6.06445 2.23242 6.7002 2.26758 7.32129 2.26758C7.87793 2.26758 8.47266 2.23242 9.10547 2.16211C9.74414 2.08594 10.3887 2.0127 11.0391 1.94238C11.6953 1.87207 12.3281 1.83691 12.9375 1.83691C14.8066 1.83691 16.4473 2.14746 17.8594 2.76855C19.2773 3.38965 20.3789 4.31836 21.1641 5.55469C21.9551 6.78516 22.3506 8.32031 22.3506 10.1602C22.3506 10.4297 22.3418 10.6875 22.3242 10.9336C22.3125 11.1797 22.292 11.3848 22.2627 11.5488C22.2217 11.7891 22.0898 11.9443 21.8672 12.0146C21.6445 12.0791 21.4248 12.0146 21.208 11.8213C20.5107 11.1826 19.8076 10.6846 19.0986 10.3271C18.3955 9.96973 17.6924 9.70898 16.9893 9.54492C16.2861 9.375 15.5889 9.25488 14.8975 9.18457C14.2119 9.11426 13.5322 9.0498 12.8584 8.99121C12.1846 8.92676 11.5254 8.82422 10.8809 8.68359C10.2422 8.54297 9.62109 8.31738 9.01758 8.00684C8.41406 7.69043 7.83398 7.24219 7.27734 6.66211C7.125 6.50391 6.97852 6.47168 6.83789 6.56543C6.70312 6.65332 6.67383 6.78516 6.75 6.96094C7.03125 7.67578 7.41797 8.25293 7.91016 8.69238C8.40234 9.12598 8.97363 9.46582 9.62402 9.71191C10.2744 9.95801 10.9775 10.1572 11.7334 10.3096C12.4951 10.4619 13.2861 10.6113 14.1064 10.7578C14.9326 10.9043 15.7617 11.0918 16.5938 11.3203C17.4316 11.543 18.249 11.8564 19.0459 12.2607C19.8486 12.6592 20.6104 13.1895 21.3311 13.8516C21.6299 14.1328 21.9727 14.499 22.3594 14.9502C22.752 15.4014 23.1328 15.8906 23.502 16.418C23.8711 16.9395 24.1787 17.4551 24.4248 17.9648C24.6709 18.4805 24.7939 18.9404 24.7939 19.3447C24.7939 19.8662 24.6387 20.2998 24.3281 20.6455C24.0176 20.9912 23.6396 21.1641 23.1943 21.1641C22.9717 21.1641 22.7666 21.0996 22.5791 20.9707C22.3916 20.8477 22.2539 20.6484 22.166 20.373C21.9727 19.752 21.7822 19.1807 21.5947 18.6592C21.4131 18.1436 21.2139 17.6602 20.9971 17.209C20.7803 16.7578 20.5283 16.3242 20.2412 15.9082C19.96 15.4863 19.623 15.0645 19.2305 14.6426L20.9092 14.6953C20.7803 14.9238 20.5781 15.2109 20.3027 15.5566C20.0332 15.8965 19.6787 16.251 19.2393 16.6201C18.8057 16.9893 18.2842 17.335 17.6748 17.6572C17.0713 17.9854 16.3711 18.249 15.5742 18.4482C14.7832 18.6533 13.8926 18.7559 12.9023 18.7559C10.9512 18.7559 9.18457 18.416 7.60254 17.7363C6.02051 17.0625 4.66113 16.0986 3.52441 14.8447C2.39355 13.585 1.52344 12.082 0.914062 10.3359C0.304688 8.58398 0 6.63281 0 4.48242C0 3.97852 0.0263672 3.38086 0.0791016 2.68945C0.131836 1.99219 0.216797 1.34766 0.333984 0.755859Z" fill="#8B8B90"/>
</svg>
