<svg width="26" height="26" viewBox="0 0 26 26" fill="none" xmlns="http://www.w3.org/2000/svg">
<path d="M12.709 4.60547C12.4043 4.60547 12.1436 4.49707 11.9268 4.28027C11.7158 4.06348 11.6104 3.80273 11.6104 3.49805V1.10742C11.6104 0.802734 11.7158 0.541992 11.9268 0.325195C12.1436 0.108398 12.4043 0 12.709 0C13.0078 0 13.2656 0.108398 13.4824 0.325195C13.6992 0.541992 13.8076 0.802734 13.8076 1.10742V3.49805C13.8076 3.80273 13.6992 4.06348 13.4824 4.28027C13.2656 4.49707 13.0078 4.60547 12.709 4.60547ZM18.4482 7.00488C18.2373 6.79395 18.1318 6.53613 18.1318 6.23145C18.1318 5.9209 18.2344 5.66016 18.4395 5.44922L20.1445 3.74414C20.3555 3.5332 20.6133 3.42773 20.918 3.42773C21.2227 3.42187 21.4805 3.52441 21.6914 3.73535C21.9023 3.94629 22.0078 4.20703 22.0078 4.51758C22.0137 4.82812 21.9141 5.08887 21.709 5.2998L20.0127 6.99609C19.7959 7.21289 19.5322 7.32129 19.2217 7.32129C18.917 7.32129 18.6592 7.21582 18.4482 7.00488ZM20.8301 12.7266C20.8301 12.4277 20.9385 12.1699 21.1553 11.9531C21.3721 11.7363 21.6299 11.6279 21.9287 11.6279H24.3193C24.6182 11.6279 24.876 11.7363 25.0928 11.9531C25.3096 12.1699 25.418 12.4277 25.418 12.7266C25.418 13.0254 25.3096 13.2832 25.0928 13.5C24.876 13.7109 24.6182 13.8164 24.3193 13.8164H21.9287C21.6299 13.8164 21.3721 13.7109 21.1553 13.5C20.9385 13.2832 20.8301 13.0254 20.8301 12.7266ZM18.4395 18.457C18.6562 18.2461 18.917 18.1406 19.2217 18.1406C19.5264 18.1406 19.7842 18.2432 19.9951 18.4482L21.7002 20.1533C21.9111 20.3584 22.0166 20.6133 22.0166 20.918C22.0225 21.2285 21.9199 21.4893 21.709 21.7002C21.498 21.9111 21.2373 22.0195 20.9268 22.0254C20.6221 22.0312 20.3643 21.9287 20.1533 21.7178L18.4482 20.0127C18.2373 19.8018 18.1318 19.541 18.1318 19.2305C18.1318 18.9258 18.2344 18.668 18.4395 18.457ZM12.709 20.8477C13.0078 20.8477 13.2656 20.9561 13.4824 21.1729C13.6992 21.3896 13.8076 21.6475 13.8076 21.9463V24.3457C13.8076 24.6445 13.6992 24.9023 13.4824 25.1191C13.2656 25.3359 13.0078 25.4443 12.709 25.4443C12.4043 25.4443 12.1436 25.3359 11.9268 25.1191C11.7158 24.9023 11.6104 24.6445 11.6104 24.3457V21.9463C11.6104 21.6475 11.7158 21.3896 11.9268 21.1729C12.1436 20.9561 12.4043 20.8477 12.709 20.8477ZM6.97852 18.457C7.18359 18.668 7.2832 18.9258 7.27734 19.2305C7.27734 19.541 7.17188 19.8018 6.96094 20.0127L5.25586 21.709C5.05078 21.9199 4.79297 22.0225 4.48242 22.0166C4.17188 22.0107 3.91113 21.9023 3.7002 21.6914C3.49512 21.4863 3.39258 21.2285 3.39258 20.918C3.39258 20.6074 3.50098 20.3496 3.71777 20.1445L5.41406 18.4482C5.61914 18.2432 5.87695 18.1406 6.1875 18.1406C6.49805 18.1406 6.76172 18.2461 6.97852 18.457ZM4.58789 12.7266C4.58789 13.0254 4.47949 13.2832 4.2627 13.5C4.0459 13.7109 3.78809 13.8164 3.48926 13.8164H1.09863C0.799805 13.8164 0.541992 13.7109 0.325195 13.5C0.108398 13.2832 0 13.0254 0 12.7266C0 12.4277 0.108398 12.1699 0.325195 11.9531C0.541992 11.7363 0.799805 11.6279 1.09863 11.6279H3.48926C3.78809 11.6279 4.0459 11.7363 4.2627 11.9531C4.47949 12.1699 4.58789 12.4277 4.58789 12.7266ZM6.96094 7.00488C6.75 7.21582 6.48926 7.32129 6.17871 7.32129C5.87402 7.31543 5.61621 7.20703 5.40527 6.99609L3.70898 5.29102C3.50391 5.08594 3.40137 4.82812 3.40137 4.51758C3.40723 4.20703 3.51562 3.94629 3.72656 3.73535C3.9375 3.52441 4.19824 3.42187 4.50879 3.42773C4.81934 3.42773 5.07422 3.5332 5.27344 3.74414L6.97852 5.44922C7.18359 5.6543 7.2832 5.91211 7.27734 6.22266C7.27734 6.5332 7.17188 6.79395 6.96094 7.00488ZM12.7002 18.6328C11.8857 18.6328 11.1211 18.4805 10.4062 18.1758C9.69141 17.8652 9.06152 17.4404 8.5166 16.9014C7.97754 16.3564 7.55566 15.7295 7.25098 15.0205C6.94629 14.3057 6.79395 13.541 6.79395 12.7266C6.79395 11.9121 6.94629 11.1475 7.25098 10.4326C7.55566 9.71777 7.97754 9.09082 8.5166 8.55176C9.06152 8.00684 9.69141 7.58203 10.4062 7.27734C11.1211 6.9668 11.8857 6.81152 12.7002 6.81152C13.5146 6.81152 14.2793 6.9668 14.9941 7.27734C15.709 7.58203 16.3359 8.00684 16.875 8.55176C17.4199 9.09082 17.8447 9.71777 18.1494 10.4326C18.46 11.1475 18.6152 11.9121 18.6152 12.7266C18.6152 13.541 18.46 14.3057 18.1494 15.0205C17.8447 15.7295 17.4199 16.3564 16.875 16.9014C16.3359 17.4404 15.709 17.8652 14.9941 18.1758C14.2793 18.4805 13.5146 18.6328 12.7002 18.6328Z" fill="#8B8B90"/>
</svg>
