<svg width="28" height="25" viewBox="0 0 28 25" fill="none" xmlns="http://www.w3.org/2000/svg">
<path d="M10.7051 22.1572H16.8926V15.5918C16.8926 15.3281 16.8135 15.1201 16.6553 14.9678C16.5029 14.8154 16.2979 14.7393 16.04 14.7393H11.5664C11.3086 14.7393 11.1006 14.8154 10.9424 14.9678C10.7842 15.1201 10.7051 15.3281 10.7051 15.5918V22.1572ZM3.6123 21.7354V12.9023L13.0781 4.96582C13.3008 4.77832 13.5352 4.68457 13.7812 4.68457C14.0332 4.67871 14.2764 4.77246 14.5107 4.96582L23.9766 12.9199V21.7354C23.9766 22.5381 23.7363 23.165 23.2559 23.6162C22.7812 24.0732 22.1309 24.3018 21.3047 24.3018H6.28418C5.45801 24.3018 4.80469 24.0732 4.32422 23.6162C3.84961 23.165 3.6123 22.5381 3.6123 21.7354ZM1.15137 12.4453C0.793945 12.4453 0.512695 12.3428 0.307617 12.1377C0.102539 11.9268 0 11.6748 0 11.3818C0 11.2178 0.0380859 11.0566 0.114258 10.8984C0.19043 10.7402 0.301758 10.5967 0.448242 10.4678L12.1816 0.632812C12.6797 0.210938 13.2158 0 13.79 0C14.376 0 14.918 0.210938 15.416 0.632812L27.1494 10.4678C27.2959 10.5967 27.4072 10.7402 27.4834 10.8984C27.5596 11.0566 27.5977 11.2178 27.5977 11.3818C27.5977 11.6748 27.4951 11.9268 27.29 12.1377C27.085 12.3428 26.8037 12.4453 26.4463 12.4453C26.2764 12.4453 26.1152 12.4102 25.9629 12.3398C25.8164 12.2637 25.6758 12.167 25.541 12.0498L14.3262 2.64551C14.1562 2.50488 13.9775 2.43457 13.79 2.43457C13.6143 2.43457 13.4414 2.50488 13.2715 2.64551L2.05664 12.0498C1.92188 12.167 1.77832 12.2637 1.62598 12.3398C1.47363 12.4102 1.31543 12.4453 1.15137 12.4453ZM20.9883 5.96777V3.30469C20.9883 3.06445 21.0615 2.87402 21.208 2.7334C21.3604 2.58691 21.5566 2.51367 21.7969 2.51367H23.3877C23.6279 2.51367 23.8184 2.58691 23.959 2.7334C24.1055 2.87402 24.1787 3.06445 24.1787 3.30469V8.63965L20.9883 5.96777Z" fill="#465AE1"/>
</svg>
