<svg width="20" height="21" viewBox="0 0 20 21" fill="none" xmlns="http://www.w3.org/2000/svg">
<path d="M2.02148 20.4697C1.39453 20.4697 0.899414 20.3262 0.536133 20.0391C0.178711 19.752 0 19.3594 0 18.8613C0 18.2754 0.143555 17.6631 0.430664 17.0244C0.717773 16.3916 1.13379 15.7764 1.67871 15.1787C2.22363 14.5752 2.88574 14.0332 3.66504 13.5527C4.4502 13.0664 5.33789 12.6797 6.32812 12.3926C7.31836 12.0996 8.40234 11.9531 9.58008 11.9531C10.752 11.9531 11.833 12.0996 12.8232 12.3926C13.8135 12.6797 14.6982 13.0664 15.4775 13.5527C16.2627 14.0332 16.9277 14.5752 17.4727 15.1787C18.0234 15.7764 18.4395 16.3916 18.7207 17.0244C19.0078 17.6631 19.1514 18.2754 19.1514 18.8613C19.1514 19.3594 18.9727 19.752 18.6152 20.0391C18.2578 20.3262 17.7627 20.4697 17.1299 20.4697H2.02148ZM9.58008 9.94922C8.95898 9.94922 8.37305 9.82031 7.82227 9.5625C7.27148 9.30469 6.78516 8.94727 6.36328 8.49023C5.94141 8.0332 5.61035 7.5 5.37012 6.89062C5.13574 6.28125 5.01855 5.62793 5.01855 4.93066C5.01855 4.23926 5.13574 3.59766 5.37012 3.00586C5.61035 2.4082 5.94141 1.88379 6.36328 1.43262C6.79102 0.981445 7.28027 0.629883 7.83105 0.37793C8.38184 0.125977 8.96484 0 9.58008 0C10.2012 0 10.7871 0.125977 11.3379 0.37793C11.8887 0.624023 12.375 0.972656 12.7969 1.42383C13.2188 1.86914 13.5498 2.39062 13.79 2.98828C14.0361 3.58008 14.1592 4.22168 14.1592 4.91309C14.1592 5.85645 13.9512 6.70898 13.5352 7.4707C13.1191 8.22656 12.5625 8.83008 11.8652 9.28125C11.1738 9.72656 10.4121 9.94922 9.58008 9.94922Z" fill="#8B8B90"/>
</svg>
