<svg width="362" height="220" viewBox="0 0 362 220" fill="none" xmlns="http://www.w3.org/2000/svg">
<path d="M44.4159 161.51V172.073C44.4159 172.924 43.7259 173.614 42.8747 173.614H29.9616C29.4581 173.614 29.1844 173.241 29.1656 172.856C29.1675 172.785 29.1722 172.716 29.1797 172.645C29.1797 172.644 29.1797 172.643 29.1797 172.642C29.2481 172.033 29.5228 171.489 29.9334 171.078C30.4097 170.602 31.0669 170.307 31.7934 170.307H32.0569C32.7431 170.307 33.3684 170.571 33.8372 171.001C34.1362 171.276 34.5375 171.412 34.9406 171.358C36.8147 171.114 38.2866 169.573 38.3597 167.684C38.3616 167.63 38.3625 167.575 38.3625 167.521V161.51H44.4141H44.4159Z" fill="#FE87EB"/>
<path d="M56.9419 161.51V172.073C56.9419 172.924 57.6309 173.614 58.4803 173.614H71.3719C71.8753 173.614 72.1472 173.241 72.1669 172.856C72.165 172.785 72.1603 172.716 72.1528 172.645C72.1528 172.644 72.1528 172.643 72.1528 172.642C72.0853 172.033 71.8097 171.489 71.4 171.078C70.9247 170.602 70.2684 170.307 69.5428 170.307H69.2794C68.594 170.307 67.9697 170.571 67.5028 171.001C67.2047 171.276 66.8034 171.412 66.4012 171.358C64.5309 171.114 63.0609 169.573 62.9878 167.684C62.9859 167.63 62.985 167.575 62.985 167.521V161.51H56.9437H56.9419Z" fill="#FE87EB"/>
<path d="M82.77 90.3206H18.5625V80.8819C18.5625 66.1265 32.3944 49.3472 50.1244 49.3472H51.2081C68.9381 49.3472 82.77 66.1265 82.77 80.8819V90.3206Z" fill="#B20202"/>
<path d="M50.6663 64.0002C39.885 64.0002 31.1456 71.8537 31.1456 81.5418V163.906H48.5166V103.436C48.5166 102.369 49.4794 101.505 50.6663 101.505C51.8531 101.505 52.8159 102.369 52.8159 103.436V163.906H70.1869V81.5418C70.1869 71.8537 61.4475 64.0002 50.6663 64.0002Z" fill="#FF87EB"/>
<mask id="mask0_828_9403" style="mask-type:luminance" maskUnits="userSpaceOnUse" x="31" y="64" width="40" height="100">
<path d="M50.6663 64.0002C39.885 64.0002 31.1456 71.8537 31.1456 81.5418V163.906H48.5166V103.436C48.5166 102.369 49.4794 101.505 50.6663 101.505C51.8531 101.505 52.8159 102.369 52.8159 103.436V163.906H70.1869V81.5418C70.1869 71.8537 61.4475 64.0002 50.6663 64.0002Z" fill="white"/>
</mask>
<g mask="url(#mask0_828_9403)">
<path d="M74.1788 69.9497C78.2691 69.9497 81.585 66.6338 81.585 62.5435C81.585 58.4531 78.2691 55.1372 74.1788 55.1372C70.0884 55.1372 66.7725 58.4531 66.7725 62.5435C66.7725 66.6338 70.0884 69.9497 74.1788 69.9497Z" fill="#F55A32"/>
<path d="M74.1788 86.219C78.2691 86.219 81.585 82.9031 81.585 78.8127C81.585 74.7224 78.2691 71.4065 74.1788 71.4065C70.0884 71.4065 66.7725 74.7224 66.7725 78.8127C66.7725 82.9031 70.0884 86.219 74.1788 86.219Z" fill="#F55A32"/>
<path d="M74.1788 101.031C78.2691 101.031 81.585 97.7156 81.585 93.6252C81.585 89.5349 78.2691 86.219 74.1788 86.219C70.0884 86.219 66.7725 89.5349 66.7725 93.6252C66.7725 97.7156 70.0884 101.031 74.1788 101.031Z" fill="#F55A32"/>
<path d="M74.1788 115.843C78.2691 115.843 81.585 112.527 81.585 108.437C81.585 104.347 78.2691 101.031 74.1788 101.031C70.0884 101.031 66.7725 104.347 66.7725 108.437C66.7725 112.527 70.0884 115.843 74.1788 115.843Z" fill="#F55A32"/>
<path d="M74.1788 130.656C78.2691 130.656 81.585 127.34 81.585 123.25C81.585 119.159 78.2691 115.843 74.1788 115.843C70.0884 115.843 66.7725 119.159 66.7725 123.25C66.7725 127.34 70.0884 130.656 74.1788 130.656Z" fill="#F55A32"/>
<path d="M59.4422 136.583C63.5326 136.583 66.8484 133.267 66.8484 129.176C66.8484 125.086 63.5326 121.77 59.4422 121.77C55.3518 121.77 52.0359 125.086 52.0359 129.176C52.0359 133.267 55.3518 136.583 59.4422 136.583Z" fill="#F55A32"/>
<path d="M59.4422 151.395C63.5326 151.395 66.8484 148.079 66.8484 143.989C66.8484 139.898 63.5326 136.583 59.4422 136.583C55.3518 136.583 52.0359 139.898 52.0359 143.989C52.0359 148.079 55.3518 151.395 59.4422 151.395Z" fill="#F55A32"/>
<path d="M59.4422 166.208C63.5326 166.208 66.8484 162.892 66.8484 158.801C66.8484 154.711 63.5326 151.395 59.4422 151.395C55.3518 151.395 52.0359 154.711 52.0359 158.801C52.0359 162.892 55.3518 166.208 59.4422 166.208Z" fill="#F55A32"/>
<path d="M74.1788 145.344C78.2691 145.344 81.585 142.028 81.585 137.937C81.585 133.847 78.2691 130.531 74.1788 130.531C70.0884 130.531 66.7725 133.847 66.7725 137.937C66.7725 142.028 70.0884 145.344 74.1788 145.344Z" fill="#F55A32"/>
<path d="M74.1788 160.155C78.2691 160.155 81.585 156.839 81.585 152.749C81.585 148.658 78.2691 145.343 74.1788 145.343C70.0884 145.343 66.7725 148.658 66.7725 152.749C66.7725 156.839 70.0884 160.155 74.1788 160.155Z" fill="#F55A32"/>
<path d="M74.1788 174.968C78.2691 174.968 81.585 171.652 81.585 167.561C81.585 163.471 78.2691 160.155 74.1788 160.155C70.0884 160.155 66.7725 163.471 66.7725 167.561C66.7725 171.652 70.0884 174.968 74.1788 174.968Z" fill="#F55A32"/>
<path d="M44.9531 151.395C49.0435 151.395 52.3594 148.079 52.3594 143.989C52.3594 139.898 49.0435 136.583 44.9531 136.583C40.8628 136.583 37.5469 139.898 37.5469 143.989C37.5469 148.079 40.8628 151.395 44.9531 151.395Z" fill="#F55A32"/>
<path d="M44.9531 166.208C49.0435 166.208 52.3594 162.892 52.3594 158.801C52.3594 154.711 49.0435 151.395 44.9531 151.395C40.8628 151.395 37.5469 154.711 37.5469 158.801C37.5469 162.892 40.8628 166.208 44.9531 166.208Z" fill="#F55A32"/>
<path d="M29.1656 144.011C33.256 144.011 36.5719 140.695 36.5719 136.605C36.5719 132.515 33.256 129.199 29.1656 129.199C25.0753 129.199 21.7594 132.515 21.7594 136.605C21.7594 140.695 25.0753 144.011 29.1656 144.011Z" fill="#F55A32"/>
<path d="M29.1656 158.823C33.256 158.823 36.5719 155.507 36.5719 151.417C36.5719 147.326 33.256 144.01 29.1656 144.01C25.0753 144.01 21.7594 147.326 21.7594 151.417C21.7594 155.507 25.0753 158.823 29.1656 158.823Z" fill="#F55A32"/>
<path d="M29.1656 173.635C33.256 173.635 36.5719 170.319 36.5719 166.229C36.5719 162.139 33.256 158.823 29.1656 158.823C25.0753 158.823 21.7594 162.139 21.7594 166.229C21.7594 170.319 25.0753 173.635 29.1656 173.635Z" fill="#F55A32"/>
<path d="M59.4422 77.356C63.5326 77.356 66.8484 74.0401 66.8484 69.9497C66.8484 65.8593 63.5326 62.5435 59.4422 62.5435C55.3518 62.5435 52.0359 65.8593 52.0359 69.9497C52.0359 74.0401 55.3518 77.356 59.4422 77.356Z" fill="#F55A32"/>
<path d="M59.4422 92.1685C63.5326 92.1685 66.8484 88.8526 66.8484 84.7622C66.8484 80.6718 63.5326 77.356 59.4422 77.356C55.3518 77.356 52.0359 80.6718 52.0359 84.7622C52.0359 88.8526 55.3518 92.1685 59.4422 92.1685Z" fill="#F55A32"/>
<path d="M59.4422 106.98C63.5326 106.98 66.8484 103.664 66.8484 99.5737C66.8484 95.4834 63.5326 92.1675 59.4422 92.1675C55.3518 92.1675 52.0359 95.4834 52.0359 99.5737C52.0359 103.664 55.3518 106.98 59.4422 106.98Z" fill="#F55A32"/>
<path d="M59.4422 121.792C63.5326 121.792 66.8484 118.477 66.8484 114.386C66.8484 110.296 63.5326 106.98 59.4422 106.98C55.3518 106.98 52.0359 110.296 52.0359 114.386C52.0359 118.477 55.3518 121.792 59.4422 121.792Z" fill="#F55A32"/>
<path d="M29.1656 69.9497C33.256 69.9497 36.5719 66.6338 36.5719 62.5435C36.5719 58.4531 33.256 55.1372 29.1656 55.1372C25.0753 55.1372 21.7594 58.4531 21.7594 62.5435C21.7594 66.6338 25.0753 69.9497 29.1656 69.9497Z" fill="#F55A32"/>
<path d="M29.1656 84.7622C33.256 84.7622 36.5719 81.4463 36.5719 77.356C36.5719 73.2656 33.256 69.9497 29.1656 69.9497C25.0753 69.9497 21.7594 73.2656 21.7594 77.356C21.7594 81.4463 25.0753 84.7622 29.1656 84.7622Z" fill="#F55A32"/>
<path d="M29.1656 99.5737C33.256 99.5737 36.5719 96.2578 36.5719 92.1675C36.5719 88.0771 33.256 84.7612 29.1656 84.7612C25.0753 84.7612 21.7594 88.0771 21.7594 92.1675C21.7594 96.2578 25.0753 99.5737 29.1656 99.5737Z" fill="#F55A32"/>
<path d="M29.1656 114.386C33.256 114.386 36.5719 111.07 36.5719 106.98C36.5719 102.89 33.256 99.5737 29.1656 99.5737C25.0753 99.5737 21.7594 102.89 21.7594 106.98C21.7594 111.07 25.0753 114.386 29.1656 114.386Z" fill="#F55A32"/>
<path d="M29.1656 129.199C33.256 129.199 36.5719 125.883 36.5719 121.792C36.5719 117.702 33.256 114.386 29.1656 114.386C25.0753 114.386 21.7594 117.702 21.7594 121.792C21.7594 125.883 25.0753 129.199 29.1656 129.199Z" fill="#F55A32"/>
<path d="M44.4159 77.356C48.5063 77.356 51.8222 74.0401 51.8222 69.9497C51.8222 65.8593 48.5063 62.5435 44.4159 62.5435C40.3256 62.5435 37.0097 65.8593 37.0097 69.9497C37.0097 74.0401 40.3256 77.356 44.4159 77.356Z" fill="#F55A32"/>
<path d="M44.4159 92.1685C48.5063 92.1685 51.8222 88.8526 51.8222 84.7622C51.8222 80.6718 48.5063 77.356 44.4159 77.356C40.3256 77.356 37.0097 80.6718 37.0097 84.7622C37.0097 88.8526 40.3256 92.1685 44.4159 92.1685Z" fill="#F55A32"/>
<path d="M44.4159 106.98C48.5063 106.98 51.8222 103.664 51.8222 99.5737C51.8222 95.4834 48.5063 92.1675 44.4159 92.1675C40.3256 92.1675 37.0097 95.4834 37.0097 99.5737C37.0097 103.664 40.3256 106.98 44.4159 106.98Z" fill="#F55A32"/>
<path d="M44.4159 121.792C48.5063 121.792 51.8222 118.477 51.8222 114.386C51.8222 110.296 48.5063 106.98 44.4159 106.98C40.3256 106.98 37.0097 110.296 37.0097 114.386C37.0097 118.477 40.3256 121.792 44.4159 121.792Z" fill="#F55A32"/>
<path d="M44.4159 136.605C48.5063 136.605 51.8222 133.289 51.8222 129.199C51.8222 125.108 48.5063 121.792 44.4159 121.792C40.3256 121.792 37.0097 125.108 37.0097 129.199C37.0097 133.289 40.3256 136.605 44.4159 136.605Z" fill="#F55A32"/>
</g>
<path d="M27.1537 97.1305C27.1537 99.3271 26.0466 100.179 24.6816 100.179C23.3166 100.179 22.2094 99.3271 22.2094 97.1305C22.2094 95.8002 23.1159 94.2814 23.8312 93.2905C24.2494 92.7111 25.1137 92.7111 25.5319 93.2905C26.2472 94.2814 27.1537 95.8002 27.1537 97.1305Z" fill="#FF1D25"/>
<path d="M79.124 97.1305C79.124 99.3271 78.0169 100.179 76.6519 100.179C75.2869 100.179 74.1797 99.3271 74.1797 97.1305C74.1797 95.8002 75.0862 94.2814 75.8015 93.2905C76.2197 92.7111 77.084 92.7111 77.5022 93.2905C78.2175 94.2814 79.124 95.8002 79.124 97.1305Z" fill="#FF1D25"/>
<path d="M50.6662 7.875L53.4487 31.9125L69.8287 14.1019L57.9516 35.1844L81.6722 30.4022L59.6719 40.4775L81.6722 50.5519L57.9516 45.7706L69.8287 66.8531L53.4487 49.0416L50.6662 73.0791L47.8837 49.0416L31.5037 66.8531L43.3809 45.7706L19.6603 50.5519L41.6606 40.4775L19.6603 30.4022L43.3809 35.1844L31.5037 14.1019L47.8837 31.9125L50.6662 7.875Z" fill="#FF1D25"/>
<path d="M50.6663 44.9277C53.8215 44.9277 56.3794 42.9353 56.3794 40.4774C56.3794 38.0196 53.8215 36.0271 50.6663 36.0271C47.511 36.0271 44.9531 38.0196 44.9531 40.4774C44.9531 42.9353 47.511 44.9277 50.6663 44.9277Z" fill="#FFC2E6"/>
<path d="M48.7252 39.3267L52.5107 38.2198C53.2054 38.0166 53.9345 38.4158 54.1377 39.1105L54.5289 40.4485C54.5618 40.561 54.4969 40.6796 54.3844 40.7125L48.4906 42.436C48.3781 42.4689 48.2595 42.4039 48.2266 42.2915L47.8353 40.9534C47.6322 40.2588 48.0314 39.5296 48.7261 39.3265L48.7252 39.3267Z" fill="#B20202"/>
<path d="M28.6484 208V199.625H24.4297V196.727H36.7734V199.625H32.5625V208H28.6484ZM38.8203 208V196.305H42.6016V200.898H42.6875C42.974 200.331 43.4089 199.88 43.9922 199.547C44.5807 199.208 45.2995 199.039 46.1484 199.039C46.9609 199.039 47.6484 199.188 48.2109 199.484C48.7786 199.776 49.2109 200.203 49.5078 200.766C49.8099 201.323 49.9609 202.005 49.9609 202.812V208H46.1719V203.648C46.1719 203.018 46.0286 202.539 45.7422 202.211C45.4557 201.883 45.026 201.719 44.4531 201.719C44.0677 201.719 43.737 201.799 43.4609 201.961C43.1849 202.117 42.9714 202.341 42.8203 202.633C42.6745 202.924 42.6016 203.273 42.6016 203.68V208H38.8203ZM57.5391 208.234C56.3411 208.234 55.3047 208.055 54.4297 207.695C53.5599 207.336 52.888 206.815 52.4141 206.133C51.9401 205.451 51.7031 204.63 51.7031 203.672V203.664C51.7031 202.701 51.9427 201.875 52.4219 201.188C52.9062 200.495 53.5755 199.964 54.4297 199.594C55.2891 199.219 56.2917 199.034 57.4375 199.039C58.6042 199.039 59.6146 199.234 60.4688 199.625C61.3229 200.01 61.9818 200.555 62.4453 201.258C62.9141 201.961 63.1484 202.786 63.1484 203.734V204.383L53.6719 204.375V202.648H60.6719L59.6562 203.867V203.281C59.6562 202.87 59.5729 202.516 59.4062 202.219C59.2448 201.922 59.0052 201.695 58.6875 201.539C58.375 201.383 57.9922 201.305 57.5391 201.305C57.0703 201.305 56.6693 201.383 56.3359 201.539C56.0078 201.69 55.7552 201.917 55.5781 202.219C55.4062 202.516 55.3203 202.883 55.3203 203.32V203.891C55.3203 204.38 55.4141 204.781 55.6016 205.094C55.7891 205.401 56.0573 205.628 56.4062 205.773C56.7604 205.914 57.1823 205.984 57.6719 205.984C57.974 205.984 58.2474 205.951 58.4922 205.883C58.7422 205.81 58.9583 205.716 59.1406 205.602C59.3281 205.487 59.4688 205.359 59.5625 205.219L59.5938 205.18H63.0391L63.0234 205.266C62.9141 205.698 62.7083 206.096 62.4062 206.461C62.1042 206.82 61.7161 207.133 61.2422 207.398C60.7734 207.664 60.2266 207.87 59.6016 208.016C58.9818 208.161 58.2943 208.234 57.5391 208.234ZM65.0156 208V199.273H68.7969V200.898H68.8906C69.1719 200.336 69.6042 199.885 70.1875 199.547C70.776 199.208 71.4974 199.039 72.3516 199.039C73.5599 199.039 74.4948 199.367 75.1562 200.023C75.8177 200.674 76.1484 201.604 76.1484 202.812V208H72.3672V203.641C72.3672 203.016 72.2214 202.542 71.9297 202.219C71.6432 201.891 71.2188 201.727 70.6562 201.727C70.2656 201.727 69.9323 201.805 69.6562 201.961C69.3802 202.117 69.1667 202.341 69.0156 202.633C68.8698 202.924 68.7969 203.273 68.7969 203.68V208H65.0156Z" fill="#465AE1"/>
<path d="M174.791 162.723V173.286C174.791 174.137 174.101 174.827 173.25 174.827H160.337C159.833 174.827 159.559 174.454 159.541 174.069C159.542 173.998 159.547 173.929 159.555 173.859C159.555 173.857 159.555 173.856 159.555 173.855C159.623 173.246 159.898 172.702 160.308 172.291C160.785 171.815 161.442 171.52 162.168 171.52H162.432C163.118 171.52 163.743 171.784 164.212 172.214C164.511 172.489 164.912 172.625 165.316 172.571C167.19 172.327 168.662 170.786 168.735 168.897C168.737 168.843 168.737 168.789 168.737 168.734V162.723H174.789H174.791Z" fill="#FF1D25"/>
<path d="M187.317 162.723V173.286C187.317 174.137 188.006 174.827 188.855 174.827H201.747C202.25 174.827 202.522 174.454 202.542 174.069C202.54 173.998 202.535 173.929 202.528 173.859C202.528 173.857 202.528 173.856 202.528 173.855C202.46 173.246 202.185 172.702 201.775 172.291C201.3 171.815 200.643 171.52 199.918 171.52H199.654C198.969 171.52 198.345 171.784 197.878 172.214C197.58 172.489 197.178 172.625 196.776 172.571C194.906 172.327 193.436 170.786 193.363 168.897C193.361 168.843 193.36 168.789 193.36 168.734V162.723H187.319H187.317Z" fill="#FF1D25"/>
<path d="M213.145 91.5337H148.938V82.095C148.938 67.3397 162.769 50.5603 180.499 50.5603H181.583C199.313 50.5603 213.145 67.3397 213.145 82.095V91.5337Z" fill="#FFAAC3"/>
<path d="M157.529 98.3439C157.529 100.54 156.422 101.393 155.057 101.393C153.692 101.393 152.584 100.54 152.584 98.3439C152.584 97.0136 153.491 95.4948 154.206 94.5039C154.624 93.9245 155.489 93.9245 155.907 94.5039C156.622 95.4948 157.529 97.0136 157.529 98.3439Z" fill="#FF7B02"/>
<path d="M209.499 98.3439C209.499 100.54 208.392 101.393 207.027 101.393C205.662 101.393 204.555 100.54 204.555 98.3439C204.555 97.0136 205.461 95.4948 206.177 94.5039C206.595 93.9245 207.459 93.9245 207.877 94.5039C208.593 95.4948 209.499 97.0136 209.499 98.3439Z" fill="#FF7B02"/>
<path d="M181.041 18.1875L186.799 29.8247L199.488 27.0703L193.98 38.8284L204.045 47.0325L191.417 50.0569L191.279 63.0403L181.041 55.0528L170.804 63.0403L170.665 50.0569L158.038 47.0325L168.103 38.8284L162.594 27.0703L175.283 29.8247L181.041 18.1875Z" fill="#B20202"/>
<path d="M181.041 46.1409C184.197 46.1409 186.754 44.1484 186.754 41.6905C186.754 39.2327 184.197 37.2402 181.041 37.2402C177.886 37.2402 175.328 39.2327 175.328 41.6905C175.328 44.1484 177.886 46.1409 181.041 46.1409Z" fill="#FFC2E6"/>
<path d="M184.88 42.0037H178.4V42.6983H184.88V42.0037Z" fill="#B20202"/>
<path d="M181 64.3875C170.219 64.3875 161.479 72.2409 161.479 81.929V164.293H178.85V103.823C178.85 102.757 179.813 101.892 181 101.892C182.187 101.892 183.15 102.757 183.15 103.823V164.293H200.521V81.929C200.521 72.2409 191.781 64.3875 181 64.3875Z" fill="#FF7B02"/>
<mask id="mask1_828_9403" style="mask-type:luminance" maskUnits="userSpaceOnUse" x="161" y="64" width="40" height="101">
<path d="M181 64.3875C170.219 64.3875 161.479 72.2409 161.479 81.929V164.293H178.85V103.823C178.85 102.757 179.813 101.892 181 101.892C182.187 101.892 183.15 102.757 183.15 103.823V164.293H200.521V81.929C200.521 72.2409 191.781 64.3875 181 64.3875Z" fill="white"/>
</mask>
<g mask="url(#mask1_828_9403)">
<path d="M204.512 71.7937C208.603 71.7937 211.919 68.4778 211.919 64.3875C211.919 60.2971 208.603 56.9812 204.512 56.9812C200.422 56.9812 197.106 60.2971 197.106 64.3875C197.106 68.4778 200.422 71.7937 204.512 71.7937Z" fill="#F9CC00"/>
<path d="M204.512 86.6062C208.603 86.6062 211.919 83.2903 211.919 79.2C211.919 75.1096 208.603 71.7937 204.512 71.7937C200.422 71.7937 197.106 75.1096 197.106 79.2C197.106 83.2903 200.422 86.6062 204.512 86.6062Z" fill="#F9CC00"/>
<path d="M204.512 101.418C208.603 101.418 211.919 98.1021 211.919 94.0117C211.919 89.9214 208.603 86.6055 204.512 86.6055C200.422 86.6055 197.106 89.9214 197.106 94.0117C197.106 98.1021 200.422 101.418 204.512 101.418Z" fill="#F9CC00"/>
<path d="M204.512 116.23C208.603 116.23 211.919 112.915 211.919 108.824C211.919 104.734 208.603 101.418 204.512 101.418C200.422 101.418 197.106 104.734 197.106 108.824C197.106 112.915 200.422 116.23 204.512 116.23Z" fill="#F9CC00"/>
<path d="M204.512 131.043C208.603 131.043 211.919 127.727 211.919 123.637C211.919 119.546 208.603 116.23 204.512 116.23C200.422 116.23 197.106 119.546 197.106 123.637C197.106 127.727 200.422 131.043 204.512 131.043Z" fill="#F9CC00"/>
<path d="M189.776 136.991C193.866 136.991 197.182 133.675 197.182 129.585C197.182 125.495 193.866 122.179 189.776 122.179C185.686 122.179 182.37 125.495 182.37 129.585C182.37 133.675 185.686 136.991 189.776 136.991Z" fill="#F9CC00"/>
<path d="M189.776 151.804C193.866 151.804 197.182 148.488 197.182 144.397C197.182 140.307 193.866 136.991 189.776 136.991C185.686 136.991 182.37 140.307 182.37 144.397C182.37 148.488 185.686 151.804 189.776 151.804Z" fill="#F9CC00"/>
<path d="M189.776 166.616C193.866 166.616 197.182 163.3 197.182 159.21C197.182 155.12 193.866 151.804 189.776 151.804C185.686 151.804 182.37 155.12 182.37 159.21C182.37 163.3 185.686 166.616 189.776 166.616Z" fill="#F9CC00"/>
<path d="M204.512 145.73C208.603 145.73 211.919 142.414 211.919 138.323C211.919 134.233 208.603 130.917 204.512 130.917C200.422 130.917 197.106 134.233 197.106 138.323C197.106 142.414 200.422 145.73 204.512 145.73Z" fill="#F9CC00"/>
<path d="M204.512 160.542C208.603 160.542 211.919 157.226 211.919 153.136C211.919 149.046 208.603 145.73 204.512 145.73C200.422 145.73 197.106 149.046 197.106 153.136C197.106 157.226 200.422 160.542 204.512 160.542Z" fill="#F9CC00"/>
<path d="M204.512 175.355C208.603 175.355 211.919 172.039 211.919 167.948C211.919 163.858 208.603 160.542 204.512 160.542C200.422 160.542 197.106 163.858 197.106 167.948C197.106 172.039 200.422 175.355 204.512 175.355Z" fill="#F9CC00"/>
<path d="M175.287 151.781C179.377 151.781 182.693 148.465 182.693 144.375C182.693 140.285 179.377 136.969 175.287 136.969C171.197 136.969 167.881 140.285 167.881 144.375C167.881 148.465 171.197 151.781 175.287 151.781Z" fill="#F9CC00"/>
<path d="M175.287 166.594C179.377 166.594 182.693 163.278 182.693 159.188C182.693 155.097 179.377 151.781 175.287 151.781C171.197 151.781 167.881 155.097 167.881 159.188C167.881 163.278 171.197 166.594 175.287 166.594Z" fill="#F9CC00"/>
<path d="M159.499 144.397C163.59 144.397 166.906 141.082 166.906 136.991C166.906 132.901 163.59 129.585 159.499 129.585C155.409 129.585 152.093 132.901 152.093 136.991C152.093 141.082 155.409 144.397 159.499 144.397Z" fill="#F9CC00"/>
<path d="M159.499 159.21C163.59 159.21 166.906 155.894 166.906 151.804C166.906 147.713 163.59 144.397 159.499 144.397C155.409 144.397 152.093 147.713 152.093 151.804C152.093 155.894 155.409 159.21 159.499 159.21Z" fill="#F9CC00"/>
<path d="M159.499 174.022C163.59 174.022 166.906 170.707 166.906 166.616C166.906 162.526 163.59 159.21 159.499 159.21C155.409 159.21 152.093 162.526 152.093 166.616C152.093 170.707 155.409 174.022 159.499 174.022Z" fill="#F9CC00"/>
<path d="M189.776 77.7422C193.866 77.7422 197.182 74.4263 197.182 70.3359C197.182 66.2456 193.866 62.9297 189.776 62.9297C185.686 62.9297 182.37 66.2456 182.37 70.3359C182.37 74.4263 185.686 77.7422 189.776 77.7422Z" fill="#F9CC00"/>
<path d="M189.776 92.5547C193.866 92.5547 197.182 89.2388 197.182 85.1484C197.182 81.0581 193.866 77.7422 189.776 77.7422C185.686 77.7422 182.37 81.0581 182.37 85.1484C182.37 89.2388 185.686 92.5547 189.776 92.5547Z" fill="#F9CC00"/>
<path d="M189.776 107.367C193.866 107.367 197.182 104.051 197.182 99.9609C197.182 95.8706 193.866 92.5547 189.776 92.5547C185.686 92.5547 182.37 95.8706 182.37 99.9609C182.37 104.051 185.686 107.367 189.776 107.367Z" fill="#F9CC00"/>
<path d="M189.776 122.18C193.866 122.18 197.182 118.864 197.182 114.773C197.182 110.683 193.866 107.367 189.776 107.367C185.686 107.367 182.37 110.683 182.37 114.773C182.37 118.864 185.686 122.18 189.776 122.18Z" fill="#F9CC00"/>
<path d="M159.499 70.3369C163.59 70.3369 166.906 67.021 166.906 62.9307C166.906 58.8403 163.59 55.5244 159.499 55.5244C155.409 55.5244 152.093 58.8403 152.093 62.9307C152.093 67.021 155.409 70.3369 159.499 70.3369Z" fill="#F9CC00"/>
<path d="M159.499 85.1484C163.59 85.1484 166.906 81.8325 166.906 77.7422C166.906 73.6518 163.59 70.3359 159.499 70.3359C155.409 70.3359 152.093 73.6518 152.093 77.7422C152.093 81.8325 155.409 85.1484 159.499 85.1484Z" fill="#F9CC00"/>
<path d="M159.499 99.9609C163.59 99.9609 166.906 96.645 166.906 92.5547C166.906 88.4643 163.59 85.1484 159.499 85.1484C155.409 85.1484 152.093 88.4643 152.093 92.5547C152.093 96.645 155.409 99.9609 159.499 99.9609Z" fill="#F9CC00"/>
<path d="M159.499 114.773C163.59 114.773 166.906 111.458 166.906 107.367C166.906 103.277 163.59 99.9609 159.499 99.9609C155.409 99.9609 152.093 103.277 152.093 107.367C152.093 111.458 155.409 114.773 159.499 114.773Z" fill="#F9CC00"/>
<path d="M159.499 129.586C163.59 129.586 166.906 126.27 166.906 122.18C166.906 118.089 163.59 114.773 159.499 114.773C155.409 114.773 152.093 118.089 152.093 122.18C152.093 126.27 155.409 129.586 159.499 129.586Z" fill="#F9CC00"/>
<path d="M174.75 77.7422C178.84 77.7422 182.156 74.4263 182.156 70.3359C182.156 66.2456 178.84 62.9297 174.75 62.9297C170.659 62.9297 167.343 66.2456 167.343 70.3359C167.343 74.4263 170.659 77.7422 174.75 77.7422Z" fill="#F9CC00"/>
<path d="M174.75 92.5547C178.84 92.5547 182.156 89.2388 182.156 85.1484C182.156 81.0581 178.84 77.7422 174.75 77.7422C170.659 77.7422 167.343 81.0581 167.343 85.1484C167.343 89.2388 170.659 92.5547 174.75 92.5547Z" fill="#F9CC00"/>
<path d="M174.75 107.367C178.84 107.367 182.156 104.051 182.156 99.9609C182.156 95.8706 178.84 92.5547 174.75 92.5547C170.659 92.5547 167.343 95.8706 167.343 99.9609C167.343 104.051 170.659 107.367 174.75 107.367Z" fill="#F9CC00"/>
<path d="M174.75 122.18C178.84 122.18 182.156 118.864 182.156 114.773C182.156 110.683 178.84 107.367 174.75 107.367C170.659 107.367 167.343 110.683 167.343 114.773C167.343 118.864 170.659 122.18 174.75 122.18Z" fill="#F9CC00"/>
<path d="M174.75 136.991C178.84 136.991 182.156 133.675 182.156 129.585C182.156 125.495 178.84 122.179 174.75 122.179C170.659 122.179 167.343 125.495 167.343 129.585C167.343 133.675 170.659 136.991 174.75 136.991Z" fill="#F9CC00"/>
</g>
<path d="M158.445 208V196.727H161.711L169.273 204.336L165.977 202.719H167.68V196.727H171.414V208H168.172L160.594 200.289L163.891 201.93H162.18V208H158.445ZM179.438 208.234C178.229 208.234 177.182 208.049 176.297 207.68C175.417 207.305 174.737 206.773 174.258 206.086C173.784 205.398 173.547 204.583 173.547 203.641V203.625C173.547 202.688 173.786 201.878 174.266 201.195C174.745 200.508 175.424 199.977 176.305 199.602C177.19 199.227 178.234 199.039 179.438 199.039C180.646 199.039 181.69 199.227 182.57 199.602C183.451 199.971 184.13 200.5 184.609 201.188C185.089 201.87 185.328 202.682 185.328 203.625V203.641C185.328 204.583 185.089 205.398 184.609 206.086C184.135 206.773 183.458 207.305 182.578 207.68C181.698 208.049 180.651 208.234 179.438 208.234ZM179.438 205.719C179.854 205.719 180.214 205.638 180.516 205.477C180.818 205.31 181.052 205.073 181.219 204.766C181.385 204.453 181.469 204.081 181.469 203.648V203.625C181.469 203.193 181.385 202.823 181.219 202.516C181.052 202.203 180.815 201.964 180.508 201.797C180.206 201.63 179.849 201.547 179.438 201.547C179.031 201.547 178.674 201.63 178.367 201.797C178.06 201.964 177.82 202.203 177.648 202.516C177.482 202.823 177.398 203.193 177.398 203.625V203.648C177.398 204.081 177.482 204.453 177.648 204.766C177.82 205.073 178.057 205.31 178.359 205.477C178.667 205.638 179.026 205.719 179.438 205.719ZM189.367 208L186.297 199.266H190.039L191.547 204.773H191.641L193.477 199.266H196.875L198.719 204.773H198.805L200.312 199.266H204.039L200.969 208H196.969L195.203 202.867H195.109L193.352 208H189.367Z" fill="#465AE1"/>
<path d="M305.166 161.918V172.481C305.166 173.333 304.476 174.023 303.625 174.023H290.712C290.208 174.023 289.934 173.649 289.916 173.265C289.917 173.194 289.922 173.124 289.93 173.054C289.93 173.052 289.93 173.051 289.93 173.05C289.998 172.442 290.273 171.897 290.683 171.487C291.16 171.01 291.817 170.716 292.543 170.716H292.807C293.493 170.716 294.118 170.979 294.587 171.41C294.886 171.684 295.287 171.82 295.691 171.767C297.565 171.522 299.037 169.982 299.11 168.093C299.112 168.038 299.112 167.984 299.112 167.93V161.918H305.164H305.166Z" fill="#F4CD2A"/>
<path d="M317.692 161.918V172.481C317.692 173.333 318.381 174.023 319.23 174.023H332.122C332.625 174.023 332.897 173.649 332.917 173.265C332.915 173.194 332.91 173.124 332.903 173.054C332.903 173.052 332.903 173.051 332.903 173.05C332.835 172.442 332.56 171.897 332.15 171.487C331.675 171.01 331.018 170.716 330.293 170.716H330.029C329.344 170.716 328.72 170.979 328.253 171.41C327.955 171.684 327.553 171.82 327.151 171.767C325.281 171.522 323.811 169.982 323.738 168.093C323.736 168.038 323.735 167.984 323.735 167.93V161.918H317.694H317.692Z" fill="#F4CD2A"/>
<path d="M343.52 90.7293H279.312V81.2905C279.312 66.5352 293.144 49.7559 310.874 49.7559H311.958C329.688 49.7559 343.52 66.5352 343.52 81.2905V90.7293Z" fill="#FFC2E6"/>
<path d="M287.904 97.5394C287.904 99.736 286.797 100.588 285.432 100.588C284.067 100.588 282.959 99.736 282.959 97.5394C282.959 96.2091 283.866 94.6904 284.581 93.6994C284.999 93.12 285.864 93.12 286.282 93.6994C286.997 94.6904 287.904 96.2091 287.904 97.5394Z" fill="#B20202"/>
<path d="M339.874 97.5394C339.874 99.736 338.767 100.588 337.402 100.588C336.037 100.588 334.93 99.736 334.93 97.5394C334.93 96.2091 335.836 94.6904 336.552 93.6994C336.97 93.12 337.834 93.12 338.252 93.6994C338.968 94.6904 339.874 96.2091 339.874 97.5394Z" fill="#B20202"/>
<path d="M311.416 17.625L316.923 34.5722H334.742L320.326 45.0459L325.832 61.9931L311.416 51.5194L297 61.9931L302.506 45.0459L288.09 34.5722H305.909L311.416 17.625Z" fill="#FE87EB"/>
<path d="M311.416 45.3357C314.572 45.3357 317.129 43.3432 317.129 40.8854C317.129 38.4275 314.572 36.4351 311.416 36.4351C308.261 36.4351 305.703 38.4275 305.703 40.8854C305.703 43.3432 308.261 45.3357 311.416 45.3357Z" fill="#FFC2E6"/>
<path d="M311.416 39.166C311.416 41.0654 310.475 42.6048 309.313 42.6048C308.152 42.6048 307.211 41.0654 307.211 39.166" fill="#B20202"/>
<path d="M311.375 64.3875C300.594 64.3875 291.854 72.2409 291.854 81.929V164.293H309.225V103.823C309.225 102.757 310.188 101.892 311.375 101.892C312.562 101.892 313.525 102.757 313.525 103.823V164.293H330.896V81.929C330.896 72.2409 322.156 64.3875 311.375 64.3875Z" fill="#69E093"/>
<mask id="mask2_828_9403" style="mask-type:luminance" maskUnits="userSpaceOnUse" x="291" y="64" width="40" height="101">
<path d="M311.375 64.3875C300.594 64.3875 291.854 72.2409 291.854 81.929V164.293H309.225V103.823C309.225 102.757 310.188 101.892 311.375 101.892C312.562 101.892 313.525 102.757 313.525 103.823V164.293H330.896V81.929C330.896 72.2409 322.156 64.3875 311.375 64.3875Z" fill="white"/>
</mask>
<g mask="url(#mask2_828_9403)">
<path d="M334.887 71.7937C338.978 71.7937 342.294 68.4778 342.294 64.3875C342.294 60.2971 338.978 56.9812 334.887 56.9812C330.797 56.9812 327.481 60.2971 327.481 64.3875C327.481 68.4778 330.797 71.7937 334.887 71.7937Z" fill="#465AE1"/>
<path d="M334.887 86.6062C338.978 86.6062 342.294 83.2903 342.294 79.2C342.294 75.1096 338.978 71.7937 334.887 71.7937C330.797 71.7937 327.481 75.1096 327.481 79.2C327.481 83.2903 330.797 86.6062 334.887 86.6062Z" fill="#465AE1"/>
<path d="M334.888 101.418C338.978 101.418 342.294 98.1021 342.294 94.0117C342.294 89.9214 338.978 86.6055 334.888 86.6055C330.797 86.6055 327.481 89.9214 327.481 94.0117C327.481 98.1021 330.797 101.418 334.888 101.418Z" fill="#465AE1"/>
<path d="M334.888 116.23C338.978 116.23 342.294 112.915 342.294 108.824C342.294 104.734 338.978 101.418 334.888 101.418C330.797 101.418 327.481 104.734 327.481 108.824C327.481 112.915 330.797 116.23 334.888 116.23Z" fill="#465AE1"/>
<path d="M334.888 131.043C338.978 131.043 342.294 127.727 342.294 123.637C342.294 119.546 338.978 116.23 334.888 116.23C330.797 116.23 327.481 119.546 327.481 123.637C327.481 127.727 330.797 131.043 334.888 131.043Z" fill="#465AE1"/>
<path d="M320.151 136.991C324.241 136.991 327.557 133.675 327.557 129.585C327.557 125.495 324.241 122.179 320.151 122.179C316.061 122.179 312.745 125.495 312.745 129.585C312.745 133.675 316.061 136.991 320.151 136.991Z" fill="#465AE1"/>
<path d="M320.151 151.804C324.241 151.804 327.557 148.488 327.557 144.397C327.557 140.307 324.241 136.991 320.151 136.991C316.061 136.991 312.745 140.307 312.745 144.397C312.745 148.488 316.061 151.804 320.151 151.804Z" fill="#465AE1"/>
<path d="M320.151 166.616C324.241 166.616 327.557 163.3 327.557 159.21C327.557 155.12 324.241 151.804 320.151 151.804C316.061 151.804 312.745 155.12 312.745 159.21C312.745 163.3 316.061 166.616 320.151 166.616Z" fill="#465AE1"/>
<path d="M334.888 145.73C338.978 145.73 342.294 142.414 342.294 138.323C342.294 134.233 338.978 130.917 334.888 130.917C330.797 130.917 327.481 134.233 327.481 138.323C327.481 142.414 330.797 145.73 334.888 145.73Z" fill="#465AE1"/>
<path d="M334.888 160.542C338.978 160.542 342.294 157.226 342.294 153.136C342.294 149.046 338.978 145.73 334.888 145.73C330.797 145.73 327.481 149.046 327.481 153.136C327.481 157.226 330.797 160.542 334.888 160.542Z" fill="#465AE1"/>
<path d="M334.888 175.355C338.978 175.355 342.294 172.039 342.294 167.948C342.294 163.858 338.978 160.542 334.888 160.542C330.797 160.542 327.481 163.858 327.481 167.948C327.481 172.039 330.797 175.355 334.888 175.355Z" fill="#465AE1"/>
<path d="M305.662 151.781C309.752 151.781 313.068 148.465 313.068 144.375C313.068 140.285 309.752 136.969 305.662 136.969C301.572 136.969 298.256 140.285 298.256 144.375C298.256 148.465 301.572 151.781 305.662 151.781Z" fill="#465AE1"/>
<path d="M305.662 166.594C309.752 166.594 313.068 163.278 313.068 159.188C313.068 155.097 309.752 151.781 305.662 151.781C301.572 151.781 298.256 155.097 298.256 159.188C298.256 163.278 301.572 166.594 305.662 166.594Z" fill="#465AE1"/>
<path d="M289.874 144.397C293.965 144.397 297.281 141.082 297.281 136.991C297.281 132.901 293.965 129.585 289.874 129.585C285.784 129.585 282.468 132.901 282.468 136.991C282.468 141.082 285.784 144.397 289.874 144.397Z" fill="#465AE1"/>
<path d="M289.874 159.21C293.965 159.21 297.281 155.894 297.281 151.804C297.281 147.713 293.965 144.397 289.874 144.397C285.784 144.397 282.468 147.713 282.468 151.804C282.468 155.894 285.784 159.21 289.874 159.21Z" fill="#465AE1"/>
<path d="M289.874 174.022C293.965 174.022 297.281 170.707 297.281 166.616C297.281 162.526 293.965 159.21 289.874 159.21C285.784 159.21 282.468 162.526 282.468 166.616C282.468 170.707 285.784 174.022 289.874 174.022Z" fill="#465AE1"/>
<path d="M320.151 77.7422C324.241 77.7422 327.557 74.4263 327.557 70.3359C327.557 66.2456 324.241 62.9297 320.151 62.9297C316.061 62.9297 312.745 66.2456 312.745 70.3359C312.745 74.4263 316.061 77.7422 320.151 77.7422Z" fill="#465AE1"/>
<path d="M320.151 92.5547C324.241 92.5547 327.557 89.2388 327.557 85.1484C327.557 81.0581 324.241 77.7422 320.151 77.7422C316.061 77.7422 312.745 81.0581 312.745 85.1484C312.745 89.2388 316.061 92.5547 320.151 92.5547Z" fill="#465AE1"/>
<path d="M320.151 107.367C324.241 107.367 327.557 104.051 327.557 99.9609C327.557 95.8706 324.241 92.5547 320.151 92.5547C316.061 92.5547 312.745 95.8706 312.745 99.9609C312.745 104.051 316.061 107.367 320.151 107.367Z" fill="#465AE1"/>
<path d="M320.151 122.18C324.241 122.18 327.557 118.864 327.557 114.773C327.557 110.683 324.241 107.367 320.151 107.367C316.061 107.367 312.745 110.683 312.745 114.773C312.745 118.864 316.061 122.18 320.151 122.18Z" fill="#465AE1"/>
<path d="M289.874 70.3369C293.965 70.3369 297.281 67.021 297.281 62.9307C297.281 58.8403 293.965 55.5244 289.874 55.5244C285.784 55.5244 282.468 58.8403 282.468 62.9307C282.468 67.021 285.784 70.3369 289.874 70.3369Z" fill="#465AE1"/>
<path d="M289.874 85.1484C293.965 85.1484 297.281 81.8325 297.281 77.7422C297.281 73.6518 293.965 70.3359 289.874 70.3359C285.784 70.3359 282.468 73.6518 282.468 77.7422C282.468 81.8325 285.784 85.1484 289.874 85.1484Z" fill="#465AE1"/>
<path d="M289.874 99.9609C293.965 99.9609 297.281 96.645 297.281 92.5547C297.281 88.4643 293.965 85.1484 289.874 85.1484C285.784 85.1484 282.468 88.4643 282.468 92.5547C282.468 96.645 285.784 99.9609 289.874 99.9609Z" fill="#465AE1"/>
<path d="M289.874 114.773C293.965 114.773 297.281 111.458 297.281 107.367C297.281 103.277 293.965 99.9609 289.874 99.9609C285.784 99.9609 282.468 103.277 282.468 107.367C282.468 111.458 285.784 114.773 289.874 114.773Z" fill="#465AE1"/>
<path d="M289.874 129.586C293.965 129.586 297.281 126.27 297.281 122.18C297.281 118.089 293.965 114.773 289.874 114.773C285.784 114.773 282.468 118.089 282.468 122.18C282.468 126.27 285.784 129.586 289.874 129.586Z" fill="#465AE1"/>
<path d="M305.125 77.7422C309.215 77.7422 312.531 74.4263 312.531 70.3359C312.531 66.2456 309.215 62.9297 305.125 62.9297C301.034 62.9297 297.718 66.2456 297.718 70.3359C297.718 74.4263 301.034 77.7422 305.125 77.7422Z" fill="#465AE1"/>
<path d="M305.125 92.5547C309.215 92.5547 312.531 89.2388 312.531 85.1484C312.531 81.0581 309.215 77.7422 305.125 77.7422C301.034 77.7422 297.718 81.0581 297.718 85.1484C297.718 89.2388 301.034 92.5547 305.125 92.5547Z" fill="#465AE1"/>
<path d="M305.125 107.367C309.215 107.367 312.531 104.051 312.531 99.9609C312.531 95.8706 309.215 92.5547 305.125 92.5547C301.034 92.5547 297.718 95.8706 297.718 99.9609C297.718 104.051 301.034 107.367 305.125 107.367Z" fill="#465AE1"/>
<path d="M305.125 122.18C309.215 122.18 312.531 118.864 312.531 114.773C312.531 110.683 309.215 107.367 305.125 107.367C301.034 107.367 297.718 110.683 297.718 114.773C297.718 118.864 301.034 122.18 305.125 122.18Z" fill="#465AE1"/>
<path d="M305.125 136.991C309.215 136.991 312.531 133.675 312.531 129.585C312.531 125.495 309.215 122.179 305.125 122.179C301.034 122.179 297.718 125.495 297.718 129.585C297.718 133.675 301.034 136.991 305.125 136.991Z" fill="#465AE1"/>
</g>
<path d="M291.43 208.273C290.117 208.273 288.987 208.133 288.039 207.852C287.091 207.57 286.344 207.159 285.797 206.617C285.25 206.07 284.919 205.406 284.805 204.625L284.789 204.508H288.562L288.578 204.562C288.63 204.786 288.773 204.979 289.008 205.141C289.247 205.297 289.573 205.419 289.984 205.508C290.396 205.591 290.896 205.633 291.484 205.633C291.948 205.633 292.346 205.594 292.68 205.516C293.018 205.432 293.279 205.315 293.461 205.164C293.643 205.013 293.734 204.839 293.734 204.641V204.633C293.734 204.383 293.622 204.201 293.398 204.086C293.174 203.971 292.784 203.883 292.227 203.82L289.352 203.609C287.883 203.469 286.797 203.122 286.094 202.57C285.396 202.013 285.047 201.242 285.047 200.258V200.242C285.047 199.451 285.286 198.773 285.766 198.211C286.25 197.643 286.94 197.208 287.836 196.906C288.732 196.604 289.799 196.453 291.039 196.453C292.284 196.453 293.349 196.596 294.234 196.883C295.125 197.164 295.828 197.57 296.344 198.102C296.859 198.633 297.18 199.271 297.305 200.016L297.328 200.141H293.594L293.578 200.078C293.521 199.859 293.388 199.68 293.18 199.539C292.977 199.393 292.701 199.284 292.352 199.211C292.003 199.133 291.583 199.094 291.094 199.094C290.609 199.094 290.208 199.13 289.891 199.203C289.573 199.271 289.333 199.372 289.172 199.508C289.01 199.638 288.93 199.794 288.93 199.977V199.984C288.93 200.234 289.049 200.422 289.289 200.547C289.534 200.672 289.938 200.763 290.5 200.82L293.43 201.039C294.372 201.133 295.154 201.312 295.773 201.578C296.393 201.839 296.854 202.198 297.156 202.656C297.464 203.109 297.617 203.667 297.617 204.328V204.336C297.617 205.148 297.372 205.852 296.883 206.445C296.393 207.034 295.688 207.487 294.766 207.805C293.844 208.117 292.732 208.273 291.43 208.273ZM305.141 208.234C303.932 208.234 302.885 208.049 302 207.68C301.12 207.305 300.44 206.773 299.961 206.086C299.487 205.398 299.25 204.583 299.25 203.641V203.625C299.25 202.688 299.49 201.878 299.969 201.195C300.448 200.508 301.128 199.977 302.008 199.602C302.893 199.227 303.938 199.039 305.141 199.039C306.349 199.039 307.393 199.227 308.273 199.602C309.154 199.971 309.833 200.5 310.312 201.188C310.792 201.87 311.031 202.682 311.031 203.625V203.641C311.031 204.583 310.792 205.398 310.312 206.086C309.839 206.773 309.161 207.305 308.281 207.68C307.401 208.049 306.354 208.234 305.141 208.234ZM305.141 205.719C305.557 205.719 305.917 205.638 306.219 205.477C306.521 205.31 306.755 205.073 306.922 204.766C307.089 204.453 307.172 204.081 307.172 203.648V203.625C307.172 203.193 307.089 202.823 306.922 202.516C306.755 202.203 306.518 201.964 306.211 201.797C305.909 201.63 305.552 201.547 305.141 201.547C304.734 201.547 304.378 201.63 304.07 201.797C303.763 201.964 303.523 202.203 303.352 202.516C303.185 202.823 303.102 203.193 303.102 203.625V203.648C303.102 204.081 303.185 204.453 303.352 204.766C303.523 205.073 303.76 205.31 304.062 205.477C304.37 205.638 304.729 205.719 305.141 205.719ZM318.297 208.234C317.089 208.234 316.042 208.049 315.156 207.68C314.276 207.305 313.596 206.773 313.117 206.086C312.643 205.398 312.406 204.583 312.406 203.641V203.625C312.406 202.688 312.646 201.878 313.125 201.195C313.604 200.508 314.284 199.977 315.164 199.602C316.049 199.227 317.094 199.039 318.297 199.039C319.505 199.039 320.549 199.227 321.43 199.602C322.31 199.971 322.99 200.5 323.469 201.188C323.948 201.87 324.188 202.682 324.188 203.625V203.641C324.188 204.583 323.948 205.398 323.469 206.086C322.995 206.773 322.318 207.305 321.438 207.68C320.557 208.049 319.51 208.234 318.297 208.234ZM318.297 205.719C318.714 205.719 319.073 205.638 319.375 205.477C319.677 205.31 319.911 205.073 320.078 204.766C320.245 204.453 320.328 204.081 320.328 203.648V203.625C320.328 203.193 320.245 202.823 320.078 202.516C319.911 202.203 319.674 201.964 319.367 201.797C319.065 201.63 318.708 201.547 318.297 201.547C317.891 201.547 317.534 201.63 317.227 201.797C316.919 201.964 316.68 202.203 316.508 202.516C316.341 202.823 316.258 203.193 316.258 203.625V203.648C316.258 204.081 316.341 204.453 316.508 204.766C316.68 205.073 316.917 205.31 317.219 205.477C317.526 205.638 317.885 205.719 318.297 205.719ZM326.047 208V199.273H329.828V200.898H329.922C330.203 200.336 330.635 199.885 331.219 199.547C331.807 199.208 332.529 199.039 333.383 199.039C334.591 199.039 335.526 199.367 336.188 200.023C336.849 200.674 337.18 201.604 337.18 202.812V208H333.398V203.641C333.398 203.016 333.253 202.542 332.961 202.219C332.674 201.891 332.25 201.727 331.688 201.727C331.297 201.727 330.964 201.805 330.688 201.961C330.411 202.117 330.198 202.341 330.047 202.633C329.901 202.924 329.828 203.273 329.828 203.68V208H326.047Z" fill="#465AE1" fill-opacity="0.7"/>
</svg>
