<svg width="371" height="398" viewBox="0 0 371 398" fill="none" xmlns="http://www.w3.org/2000/svg">
<g filter="url(#filter0_i_620_11204)">
<path d="M325.245 352.245C350.515 326.975 308.434 243.924 231.255 166.745C154.076 89.5659 71.0249 47.4851 45.7551 72.7549C20.4852 98.0248 62.5659 181.076 139.745 258.255C216.924 335.434 299.975 377.515 325.245 352.245Z" fill="#FF2A69"/>
<path d="M231.255 258.255C308.434 181.076 350.515 98.0249 325.245 72.7551C299.975 47.4853 216.924 89.566 139.745 166.745C62.566 243.924 20.4852 326.975 45.755 352.245C71.0248 377.515 154.076 335.434 231.255 258.255Z" fill="#FF2A69"/>
</g>
<path d="M172.723 330.09V351.626C172.723 353.362 171.312 354.769 169.572 354.769H143.172C142.143 354.769 141.583 354.008 141.545 353.224C141.549 353.079 141.558 352.937 141.573 352.794C141.573 352.79 141.573 352.788 141.573 352.786C141.713 351.546 142.275 350.435 143.114 349.598C144.088 348.627 145.432 348.027 146.917 348.027H147.456C148.859 348.027 150.137 348.564 151.095 349.441C151.707 350.001 152.527 350.279 153.351 350.17C157.183 349.671 160.192 346.53 160.341 342.679C160.345 342.568 160.347 342.457 160.347 342.346V330.09H172.719H172.723Z" fill="#F4CD2A"/>
<path d="M198.331 330.09V351.626C198.331 353.362 199.74 354.768 201.476 354.768H227.833C228.862 354.768 229.418 354.008 229.458 353.224C229.454 353.079 229.444 352.937 229.429 352.794C229.429 352.79 229.429 352.788 229.429 352.786C229.291 351.546 228.728 350.435 227.89 349.598C226.918 348.627 225.577 348.027 224.093 348.027H223.555C222.153 348.027 220.877 348.564 219.922 349.441C219.313 350.001 218.493 350.278 217.67 350.169C213.847 349.671 210.841 346.53 210.692 342.678C210.688 342.568 210.686 342.457 210.686 342.346V330.09H198.335H198.331Z" fill="#F4CD2A"/>
<path d="M251.133 184.943H119.865V165.699C119.865 135.614 148.143 101.403 184.391 101.403H186.607C222.855 101.403 251.133 135.614 251.133 165.699V184.943Z" fill="#FFC2E6"/>
<path d="M137.431 198.828C137.431 203.307 135.167 205.044 132.376 205.044C129.586 205.044 127.322 203.307 127.322 198.828C127.322 196.116 129.176 193.019 130.638 190.999C131.493 189.817 133.26 189.817 134.115 190.999C135.577 193.019 137.431 196.116 137.431 198.828Z" fill="#B20202"/>
<path d="M243.681 198.828C243.681 203.307 241.417 205.044 238.626 205.044C235.836 205.044 233.572 203.307 233.572 198.828C233.572 196.116 235.425 193.019 236.888 190.999C237.743 189.817 239.51 189.817 240.365 190.999C241.827 193.019 243.681 196.116 243.681 198.828Z" fill="#B20202"/>
<path d="M185.501 35.8914L196.759 70.4448H233.189L203.717 91.7996L214.973 126.353L185.501 104.998L156.028 126.353L167.285 91.7996L137.812 70.4448H174.242L185.501 35.8914Z" fill="#FE87EB"/>
<path d="M185.499 92.3903C191.95 92.3903 197.179 88.3279 197.179 83.3166C197.179 78.3054 191.95 74.2429 185.499 74.2429C179.048 74.2429 173.819 78.3054 173.819 83.3166C173.819 88.3279 179.048 92.3903 185.499 92.3903Z" fill="#FFC2E6"/>
<path d="M185.5 79.811C185.5 83.6836 183.575 86.8223 181.2 86.8223C178.826 86.8223 176.901 83.6836 176.901 79.811" fill="#B20202"/>
<path d="M185.5 131.279C163.459 131.279 145.592 147.291 145.592 167.044V334.975H181.105V211.684C181.105 209.509 183.074 207.746 185.5 207.746C187.927 207.746 189.895 209.509 189.895 211.684V334.975H225.409V167.044C225.409 147.291 207.542 131.279 185.5 131.279Z" fill="#69E093"/>
<mask id="mask0_620_11204" style="mask-type:luminance" maskUnits="userSpaceOnUse" x="145" y="131" width="81" height="204">
<path d="M185.502 131.278C163.46 131.278 145.593 147.291 145.593 167.044V334.975H181.107V211.684C181.107 209.509 183.075 207.746 185.502 207.746C187.928 207.746 189.897 209.509 189.897 211.684V334.975H225.411V167.044C225.411 147.291 207.544 131.278 185.502 131.278Z" fill="white"/>
</mask>
<g mask="url(#mask0_620_11204)">
<path d="M233.57 146.379C241.933 146.379 248.712 139.618 248.712 131.278C248.712 122.938 241.933 116.178 233.57 116.178C225.208 116.178 218.429 122.938 218.429 131.278C218.429 139.618 225.208 146.379 233.57 146.379Z" fill="#465AE1"/>
<path d="M233.57 176.58C241.933 176.58 248.712 169.819 248.712 161.479C248.712 153.14 241.933 146.379 233.57 146.379C225.208 146.379 218.429 153.14 218.429 161.479C218.429 169.819 225.208 176.58 233.57 176.58Z" fill="#465AE1"/>
<path d="M233.57 206.779C241.933 206.779 248.712 200.018 248.712 191.678C248.712 183.339 241.933 176.578 233.57 176.578C225.208 176.578 218.429 183.339 218.429 191.678C218.429 200.018 225.208 206.779 233.57 206.779Z" fill="#465AE1"/>
<path d="M233.57 236.98C241.933 236.98 248.712 230.219 248.712 221.88C248.712 213.54 241.933 206.779 233.57 206.779C225.208 206.779 218.429 213.54 218.429 221.88C218.429 230.219 225.208 236.98 233.57 236.98Z" fill="#465AE1"/>
<path d="M233.57 267.181C241.933 267.181 248.712 260.421 248.712 252.081C248.712 243.741 241.933 236.98 233.57 236.98C225.208 236.98 218.429 243.741 218.429 252.081C218.429 260.421 225.208 267.181 233.57 267.181Z" fill="#465AE1"/>
<path d="M203.442 279.309C211.805 279.309 218.584 272.549 218.584 264.209C218.584 255.869 211.805 249.108 203.442 249.108C195.08 249.108 188.3 255.869 188.3 264.209C188.3 272.549 195.08 279.309 203.442 279.309Z" fill="#465AE1"/>
<path d="M203.442 309.51C211.805 309.51 218.584 302.75 218.584 294.41C218.584 286.07 211.805 279.309 203.442 279.309C195.08 279.309 188.3 286.07 188.3 294.41C188.3 302.75 195.08 309.51 203.442 309.51Z" fill="#465AE1"/>
<path d="M203.442 339.711C211.805 339.711 218.584 332.951 218.584 324.611C218.584 316.271 211.805 309.51 203.442 309.51C195.08 309.51 188.3 316.271 188.3 324.611C188.3 332.951 195.08 339.711 203.442 339.711Z" fill="#465AE1"/>
<path d="M233.572 297.126C241.934 297.126 248.713 290.365 248.713 282.026C248.713 273.686 241.934 266.925 233.572 266.925C225.209 266.925 218.43 273.686 218.43 282.026C218.43 290.365 225.209 297.126 233.572 297.126Z" fill="#465AE1"/>
<path d="M233.572 327.327C241.934 327.327 248.713 320.567 248.713 312.227C248.713 303.887 241.934 297.126 233.572 297.126C225.209 297.126 218.43 303.887 218.43 312.227C218.43 320.567 225.209 327.327 233.572 327.327Z" fill="#465AE1"/>
<path d="M233.572 357.528C241.934 357.528 248.713 350.768 248.713 342.428C248.713 334.088 241.934 327.327 233.572 327.327C225.209 327.327 218.43 334.088 218.43 342.428C218.43 350.768 225.209 357.528 233.572 357.528Z" fill="#465AE1"/>
<path d="M173.817 309.464C182.18 309.464 188.959 302.704 188.959 294.364C188.959 286.024 182.18 279.263 173.817 279.263C165.455 279.263 158.676 286.024 158.676 294.364C158.676 302.704 165.455 309.464 173.817 309.464Z" fill="#465AE1"/>
<path d="M173.817 339.666C182.18 339.666 188.959 332.905 188.959 324.565C188.959 316.225 182.18 309.464 173.817 309.464C165.455 309.464 158.676 316.225 158.676 324.565C158.676 332.905 165.455 339.666 173.817 339.666Z" fill="#465AE1"/>
<path d="M141.543 294.41C149.905 294.41 156.684 287.649 156.684 279.309C156.684 270.969 149.905 264.209 141.543 264.209C133.18 264.209 126.401 270.969 126.401 279.309C126.401 287.649 133.18 294.41 141.543 294.41Z" fill="#465AE1"/>
<path d="M141.543 324.611C149.905 324.611 156.684 317.85 156.684 309.51C156.684 301.17 149.905 294.41 141.543 294.41C133.18 294.41 126.401 301.17 126.401 309.51C126.401 317.85 133.18 324.611 141.543 324.611Z" fill="#465AE1"/>
<path d="M141.543 354.812C149.905 354.812 156.684 348.051 156.684 339.711C156.684 331.371 149.905 324.611 141.543 324.611C133.18 324.611 126.401 331.371 126.401 339.711C126.401 348.051 133.18 354.812 141.543 354.812Z" fill="#465AE1"/>
<path d="M203.442 158.507C211.805 158.507 218.584 151.746 218.584 143.407C218.584 135.067 211.805 128.306 203.442 128.306C195.08 128.306 188.3 135.067 188.3 143.407C188.3 151.746 195.08 158.507 203.442 158.507Z" fill="#465AE1"/>
<path d="M203.442 188.708C211.805 188.708 218.584 181.947 218.584 173.608C218.584 165.268 211.805 158.507 203.442 158.507C195.08 158.507 188.3 165.268 188.3 173.608C188.3 181.947 195.08 188.708 203.442 188.708Z" fill="#465AE1"/>
<path d="M203.442 218.909C211.805 218.909 218.584 212.149 218.584 203.809C218.584 195.469 211.805 188.708 203.442 188.708C195.08 188.708 188.3 195.469 188.3 203.809C188.3 212.149 195.08 218.909 203.442 218.909Z" fill="#465AE1"/>
<path d="M203.442 249.11C211.805 249.11 218.584 242.349 218.584 234.01C218.584 225.67 211.805 218.909 203.442 218.909C195.08 218.909 188.3 225.67 188.3 234.01C188.3 242.349 195.08 249.11 203.442 249.11Z" fill="#465AE1"/>
<path d="M141.543 143.409C149.905 143.409 156.684 136.648 156.684 128.308C156.684 119.968 149.905 113.208 141.543 113.208C133.18 113.208 126.401 119.968 126.401 128.308C126.401 136.648 133.18 143.409 141.543 143.409Z" fill="#465AE1"/>
<path d="M141.543 173.608C149.905 173.608 156.684 166.847 156.684 158.507C156.684 150.167 149.905 143.407 141.543 143.407C133.18 143.407 126.401 150.167 126.401 158.507C126.401 166.847 133.18 173.608 141.543 173.608Z" fill="#465AE1"/>
<path d="M141.543 203.809C149.905 203.809 156.684 197.048 156.684 188.708C156.684 180.368 149.905 173.608 141.543 173.608C133.18 173.608 126.401 180.368 126.401 188.708C126.401 197.048 133.18 203.809 141.543 203.809Z" fill="#465AE1"/>
<path d="M141.543 234.01C149.905 234.01 156.684 227.249 156.684 218.909C156.684 210.57 149.905 203.809 141.543 203.809C133.18 203.809 126.401 210.57 126.401 218.909C126.401 227.249 133.18 234.01 141.543 234.01Z" fill="#465AE1"/>
<path d="M141.543 264.211C149.905 264.211 156.684 257.45 156.684 249.11C156.684 240.77 149.905 234.01 141.543 234.01C133.18 234.01 126.401 240.77 126.401 249.11C126.401 257.45 133.18 264.211 141.543 264.211Z" fill="#465AE1"/>
<path d="M172.721 158.507C181.084 158.507 187.863 151.746 187.863 143.407C187.863 135.067 181.084 128.306 172.721 128.306C164.359 128.306 157.58 135.067 157.58 143.407C157.58 151.746 164.359 158.507 172.721 158.507Z" fill="#465AE1"/>
<path d="M172.721 188.708C181.084 188.708 187.863 181.947 187.863 173.608C187.863 165.268 181.084 158.507 172.721 158.507C164.359 158.507 157.58 165.268 157.58 173.608C157.58 181.947 164.359 188.708 172.721 188.708Z" fill="#465AE1"/>
<path d="M172.721 218.909C181.084 218.909 187.863 212.149 187.863 203.809C187.863 195.469 181.084 188.708 172.721 188.708C164.359 188.708 157.58 195.469 157.58 203.809C157.58 212.149 164.359 218.909 172.721 218.909Z" fill="#465AE1"/>
<path d="M172.721 249.11C181.084 249.11 187.863 242.349 187.863 234.01C187.863 225.67 181.084 218.909 172.721 218.909C164.359 218.909 157.58 225.67 157.58 234.01C157.58 242.349 164.359 249.11 172.721 249.11Z" fill="#465AE1"/>
<path d="M172.721 279.309C181.084 279.309 187.863 272.549 187.863 264.209C187.863 255.869 181.084 249.108 172.721 249.108C164.359 249.108 157.58 255.869 157.58 264.209C157.58 272.549 164.359 279.309 172.721 279.309Z" fill="#465AE1"/>
</g>
<defs>
<filter id="filter0_i_620_11204" x="0" y="27" width="371" height="372.4" filterUnits="userSpaceOnUse" color-interpolation-filters="sRGB">
<feFlood flood-opacity="0" result="BackgroundImageFix"/>
<feBlend mode="normal" in="SourceGraphic" in2="BackgroundImageFix" result="shape"/>
<feColorMatrix in="SourceAlpha" type="matrix" values="0 0 0 0 0 0 0 0 0 0 0 0 0 0 0 0 0 0 127 0" result="hardAlpha"/>
<feOffset dy="4"/>
<feGaussianBlur stdDeviation="0.7"/>
<feComposite in2="hardAlpha" operator="arithmetic" k2="-1" k3="1"/>
<feColorMatrix type="matrix" values="0 0 0 0 0 0 0 0 0 0 0 0 0 0 0 0 0 0 0.25 0"/>
<feBlend mode="normal" in2="shape" result="effect1_innerShadow_620_11204"/>
</filter>
</defs>
</svg>
