<svg width="318" height="91" viewBox="0 0 318 91" fill="none" xmlns="http://www.w3.org/2000/svg">
<path d="M25.1836 70.4263C17.8803 67.6799 11.2853 62.3832 6.44902 54.9776C-4.61588 37.7879 -1.09856 15.7184 14.363 5.56642C29.849 -4.58556 51.2949 1.05443 62.5552 18.2687C72.1301 33.1778 71.0065 52.9669 60.9675 62.4077C60.2591 63.0208 58.2318 65.3994 52.7116 65.3994C49.1942 65.3994 47.0936 63.9771 47.0936 59.8329H43.4786C42.5993 68.7343 48.4859 69.9849 57.9875 68.1213C61.4072 67.4101 64.5825 66.4538 67.2205 65.4729V86.1202C62.7506 89.2099 57.2059 90.9755 51.2216 90.9755C37.6897 90.9755 26.6003 81.976 25.2081 70.4018L25.1836 70.4263ZM47.1669 45.6349C55.0809 32.761 56.9372 19.7645 51.2949 16.3314C45.3105 12.8984 34.1479 20.2059 26.3317 33.2759C18.0757 46.0763 16.3903 59.1463 22.106 62.4813C27.9193 66.0124 39.0819 58.4107 47.1669 45.6103V45.6349Z" fill="#465AE1"/>
<path d="M138.178 71.9466H113.556L113.288 65.6691C115.755 62.2361 120.151 52.1576 121.983 41.3191L117.587 40.8777C113.727 61.9663 104.836 73.3689 93.063 73.3689C81.2898 73.3689 75.7451 65.0806 75.7451 50.1469V14.5659H100.366V50.1469C100.366 56.1547 101.148 59.4161 104.152 59.4161C109.966 59.4161 113.556 43.4524 113.556 14.5659H138.178V71.9466Z" fill="#FF87EB"/>
<path d="M163.678 0C168.417 0 172.203 3.43304 172.203 9.44085C172.203 18.8081 162.799 31.4123 153.639 31.4123C148.803 31.4123 145.115 27.8812 145.115 21.9714C145.115 12.7022 154.518 0 163.654 0H163.678ZM153.053 35.8262C163.067 35.8262 168.71 28.3226 171.617 24.1784V71.9221H146.995V33.9625C148.485 34.9434 150.952 35.8262 153.053 35.8262Z" fill="#D2D741"/>
<path d="M181.973 45.3651C181.973 41.1229 184.709 38.7443 185.393 38.0331H176.868V29.2053C186.883 29.2053 203.517 19.3231 194.723 6.86607H225.231C225.231 16.8464 212.041 25.8459 195.945 30.1617L197.361 34.3058C203.517 32.6384 206.936 31.0445 211.431 29.1808H232.974V38.0086H207.474C206.692 38.3519 203.785 41.8095 206.155 44.5314C208.622 47.4495 218.563 46.395 221.812 45.6839C226.037 44.8011 229.823 43.6486 232.974 42.4961V67.4837C227.601 71.1865 220.932 73.3199 213.629 73.3199C196.14 73.3199 181.973 60.7893 181.973 45.3406V45.3651Z" fill="#F55A32"/>
<path d="M301.806 41.3191L297.239 40.706C297.239 42.8149 296.897 51.2013 291.792 58.803C282.388 72.8294 264.703 77.6847 251.953 69.2983C239.105 60.9119 236.223 42.6432 245.358 28.4206C254.689 14.1245 272.446 9.44085 285.197 17.9254C288.348 20.0342 291.45 23.222 293.379 26.4834V14.5659H318.001V71.9466H293.379L293.111 65.6691C296.628 62.4813 301.806 52.7952 301.806 41.3191ZM281.166 53.4818C286.784 44.7521 287.932 35.8262 283.975 33.4476C280.116 31.069 272.471 36.2676 266.926 44.9973C261.479 53.8251 260.234 62.6529 264.117 65.0315C268.172 67.4101 275.817 62.3832 281.166 53.4818Z" fill="#FFD719"/>
</svg>
