<svg width="362" height="175" viewBox="0 0 362 175" fill="none" xmlns="http://www.w3.org/2000/svg">
<g clip-path="url(#clip0_630_14474)">
<rect width="362" height="175" rx="30" fill="#FF87EB"/>
<path d="M357.287 -20.3707L358.338 -16.7111L362.257 -17.6815C380.788 -22.2894 393.853 -0.0573807 380.593 13.5219L377.687 16.5L380.593 19.4781C393.853 33.0574 380.796 55.2895 362.257 50.6815L358.338 49.7111L357.287 53.3707C352.053 71.5431 325.947 71.5431 320.713 53.3707L319.662 49.7111L315.743 50.6815C297.212 55.2895 284.147 33.0574 297.407 19.4781L300.313 16.5L297.407 13.5219C284.147 -0.0573807 297.204 -22.2894 315.743 -17.6815L319.662 -16.7111L320.713 -20.3707C325.947 -38.5431 352.053 -38.5431 357.287 -20.3707Z" fill="#465AE1"/>
<path d="M354.312 128.256L355.106 131.009L358.067 130.279C372.064 126.812 381.932 143.541 371.916 153.759L369.721 156L371.916 158.241C381.932 168.459 372.069 185.188 358.067 181.721L355.106 180.99L354.312 183.744C350.36 197.419 330.64 197.419 326.688 183.744L325.894 180.99L322.933 181.721C308.936 185.188 299.068 168.459 309.084 158.241L311.279 156L309.084 153.759C299.068 143.541 308.931 126.812 322.933 130.279L325.894 131.009L326.688 128.256C330.64 114.581 350.36 114.581 354.312 128.256Z" fill="#465AE1"/>
<path d="M313.171 73.0725L313.64 74.703L315.392 74.2706C323.671 72.2176 329.509 82.1229 323.584 88.1731L322.286 89.5L323.584 90.8269C329.509 96.8771 323.675 106.782 315.392 104.729L313.64 104.297L313.171 105.928C310.832 114.024 299.168 114.024 296.829 105.928L296.36 104.297L294.608 104.729C286.329 106.782 280.491 96.8771 286.416 90.8269L287.714 89.5L286.416 88.1731C280.491 82.1229 286.325 72.2176 294.608 74.2706L296.36 74.703L296.829 73.0725C299.168 64.9759 310.832 64.9759 313.171 73.0725Z" fill="#465AE1"/>
<path d="M261.171 23.0725L261.64 24.703L263.392 24.2706C271.671 22.2176 277.509 32.1229 271.584 38.1731L270.286 39.5L271.584 40.8269C277.509 46.8771 271.675 56.7824 263.392 54.7294L261.64 54.297L261.171 55.9276C258.832 64.0242 247.168 64.0242 244.829 55.9276L244.36 54.297L242.608 54.7294C234.329 56.7824 228.491 46.8771 234.416 40.8269L235.714 39.5L234.416 38.1731C228.491 32.1229 234.325 22.2176 242.608 24.2706L244.36 24.703L244.829 23.0725C247.168 14.9759 258.832 14.9759 261.171 23.0725Z" fill="#465AE1"/>
<path d="M250.174 81.3352L251.046 84.3789L254.299 83.5718C269.675 79.7395 280.516 98.2295 269.513 109.523L267.102 112L269.513 114.477C280.516 125.77 269.682 144.261 254.299 140.428L251.046 139.621L250.174 142.665C245.832 157.778 224.168 157.778 219.826 142.665L218.954 139.621L215.701 140.428C200.325 144.261 189.484 125.77 200.487 114.477L202.898 112L200.487 109.523C189.484 98.2295 200.318 79.7395 215.701 83.5718L218.954 84.3789L219.826 81.3352C224.168 66.2216 245.832 66.2216 250.174 81.3352Z" fill="#465AE1"/>
<rect width="362" height="175" fill="#755D7B" fill-opacity="0.24"/>
<path d="M27.7354 108.166C27.0973 108.166 26.5456 108.016 26.0801 107.717C25.6146 107.417 25.2549 106.993 25.001 106.442C24.7503 105.892 24.625 105.24 24.625 104.484V104.475C24.625 103.716 24.7503 103.062 25.001 102.512C25.2549 101.962 25.613 101.537 26.0752 101.237C26.5407 100.938 27.0924 100.788 27.7305 100.788C28.2253 100.788 28.6745 100.886 29.0781 101.081C29.485 101.273 29.8203 101.542 30.084 101.887C30.3477 102.229 30.5137 102.624 30.582 103.073L30.5771 103.083H29.6934L29.6885 103.073C29.6104 102.771 29.4785 102.51 29.293 102.292C29.1074 102.071 28.8812 101.9 28.6143 101.779C28.3506 101.659 28.056 101.599 27.7305 101.599C27.2812 101.599 26.8906 101.716 26.5586 101.95C26.2298 102.185 25.9759 102.517 25.7969 102.946C25.6178 103.376 25.5283 103.885 25.5283 104.475V104.484C25.5283 105.07 25.6178 105.578 25.7969 106.008C25.9759 106.438 26.2298 106.77 26.5586 107.004C26.8906 107.238 27.2829 107.355 27.7354 107.355C28.0641 107.355 28.362 107.303 28.6289 107.199C28.8958 107.092 29.1204 106.94 29.3027 106.745C29.485 106.547 29.612 106.312 29.6836 106.042L29.6934 106.032H30.582V106.042C30.5039 106.472 30.3346 106.846 30.0742 107.165C29.8138 107.481 29.4834 107.727 29.083 107.902C28.6859 108.078 28.2367 108.166 27.7354 108.166ZM33.7998 108L36.3975 100.954H37.0713V102.092H36.793L34.7227 108H33.7998ZM34.9766 105.983L35.25 105.236H38.4336L38.707 105.983H34.9766ZM38.9414 108L36.8711 102.092V100.954H37.2666L39.8643 108H38.9414ZM44.6006 108V101.745H42.3301V100.954H47.75V101.745H45.4795V108H44.6006ZM51.6074 108V100.954H55.9727V101.745H52.4863V104.006H55.792V104.787H52.4863V107.209H55.9727V108H51.6074ZM62.9844 108.166C62.3366 108.166 61.7734 108.016 61.2949 107.717C60.8164 107.414 60.4453 106.986 60.1816 106.433C59.9212 105.879 59.791 105.228 59.791 104.479V104.47C59.791 103.728 59.9229 103.081 60.1865 102.531C60.4502 101.978 60.8213 101.55 61.2998 101.247C61.7816 100.941 62.3431 100.788 62.9844 100.788C63.5052 100.788 63.9691 100.881 64.376 101.066C64.7861 101.249 65.123 101.506 65.3867 101.838C65.6536 102.17 65.8327 102.559 65.9238 103.005L65.9336 103.054H65.0449L65.0303 103.005C64.887 102.549 64.6413 102.201 64.293 101.96C63.9447 101.719 63.5085 101.599 62.9844 101.599C62.5189 101.599 62.1136 101.717 61.7686 101.955C61.4268 102.189 61.1615 102.521 60.9727 102.951C60.7839 103.381 60.6895 103.887 60.6895 104.47V104.479C60.6895 105.069 60.7822 105.58 60.9678 106.013C61.1566 106.442 61.4219 106.774 61.7637 107.009C62.1087 107.24 62.5173 107.355 62.9893 107.355C63.4092 107.355 63.777 107.272 64.0928 107.106C64.4118 106.937 64.6592 106.703 64.835 106.403C65.0107 106.104 65.0986 105.756 65.0986 105.358V105.188H63.1211V104.416H65.9775V105.275C65.9775 105.855 65.8522 106.361 65.6016 106.794C65.3542 107.227 65.0059 107.564 64.5566 107.805C64.1107 108.046 63.5866 108.166 62.9844 108.166ZM72.9941 108.166C72.3203 108.166 71.7425 108.016 71.2607 107.717C70.779 107.414 70.4079 106.986 70.1475 106.433C69.8903 105.879 69.7617 105.228 69.7617 104.479V104.47C69.7617 103.715 69.8919 103.062 70.1523 102.512C70.416 101.962 70.7887 101.537 71.2705 101.237C71.7555 100.938 72.3301 100.788 72.9941 100.788C73.6615 100.788 74.236 100.938 74.7178 101.237C75.2028 101.537 75.5755 101.963 75.8359 102.517C76.0964 103.067 76.2266 103.718 76.2266 104.47V104.479C76.2266 105.228 76.0964 105.879 75.8359 106.433C75.5788 106.983 75.2077 107.409 74.7227 107.712C74.2409 108.015 73.6647 108.166 72.9941 108.166ZM72.9941 107.355C73.4759 107.355 73.891 107.237 74.2393 106.999C74.5876 106.761 74.8561 106.428 75.0449 105.998C75.2337 105.565 75.3281 105.059 75.3281 104.479V104.47C75.3281 103.884 75.2337 103.376 75.0449 102.946C74.8561 102.517 74.5876 102.185 74.2393 101.95C73.891 101.716 73.4759 101.599 72.9941 101.599C72.5156 101.599 72.1022 101.716 71.7539 101.95C71.4056 102.185 71.1354 102.517 70.9434 102.946C70.7546 103.376 70.6602 103.884 70.6602 104.47V104.479C70.6602 105.059 70.7529 105.565 70.9385 105.998C71.124 106.428 71.391 106.761 71.7393 106.999C72.0876 107.237 72.5059 107.355 72.9941 107.355ZM80.25 108V100.954H82.9404C83.3929 100.954 83.7868 101.042 84.1221 101.218C84.4606 101.39 84.7227 101.633 84.9082 101.945C85.0938 102.258 85.1865 102.626 85.1865 103.049V103.059C85.1865 103.547 85.0612 103.97 84.8105 104.328C84.5599 104.686 84.2132 104.935 83.7705 105.075L85.4014 108H84.3711L82.8623 105.212C82.8558 105.212 82.8477 105.212 82.8379 105.212C82.8281 105.212 82.82 105.212 82.8135 105.212H81.1289V108H80.25ZM81.1289 104.431H82.8623C83.3148 104.431 83.6631 104.315 83.9072 104.084C84.1546 103.85 84.2783 103.518 84.2783 103.088V103.078C84.2783 102.658 84.1497 102.329 83.8926 102.092C83.6354 101.854 83.279 101.735 82.8232 101.735H81.1289V104.431ZM91.0264 108V104.968L88.5264 100.954H89.5273L91.4268 104.084H91.5049L93.4043 100.954H94.4053L91.9053 104.968V108H91.0264ZM104.039 105.798C103.867 105.798 103.717 105.736 103.59 105.612C103.466 105.485 103.404 105.336 103.404 105.163C103.404 104.987 103.466 104.838 103.59 104.714C103.717 104.59 103.867 104.528 104.039 104.528C104.215 104.528 104.365 104.59 104.488 104.714C104.612 104.838 104.674 104.987 104.674 105.163C104.674 105.336 104.612 105.485 104.488 105.612C104.365 105.736 104.215 105.798 104.039 105.798ZM116.52 108.117C116.035 108.117 115.611 108.034 115.25 107.868C114.889 107.702 114.602 107.474 114.391 107.185C114.182 106.895 114.062 106.564 114.029 106.193L114.024 106.135H114.869L114.874 106.184C114.91 106.529 115.076 106.81 115.372 107.028C115.668 107.246 116.051 107.355 116.52 107.355C116.829 107.355 117.099 107.302 117.33 107.194C117.564 107.087 117.747 106.939 117.877 106.75C118.007 106.558 118.072 106.338 118.072 106.091V106.081C118.072 105.648 117.927 105.316 117.638 105.085C117.351 104.851 116.961 104.733 116.466 104.733H115.582V103.991H116.427C116.707 103.991 116.954 103.939 117.169 103.835C117.384 103.728 117.551 103.583 117.672 103.4C117.792 103.215 117.853 103.005 117.853 102.771V102.761C117.853 102.513 117.8 102.303 117.696 102.131C117.592 101.958 117.439 101.826 117.237 101.735C117.039 101.644 116.796 101.599 116.51 101.599C116.233 101.599 115.986 101.646 115.768 101.74C115.553 101.831 115.38 101.963 115.25 102.136C115.12 102.308 115.042 102.513 115.016 102.751L115.011 102.8H114.166L114.171 102.751C114.21 102.367 114.33 102.032 114.532 101.745C114.737 101.459 115.007 101.236 115.343 101.076C115.681 100.917 116.07 100.837 116.51 100.837C116.959 100.837 117.35 100.915 117.682 101.071C118.017 101.224 118.276 101.438 118.458 101.711C118.644 101.981 118.736 102.295 118.736 102.653V102.663C118.736 102.953 118.673 103.21 118.546 103.435C118.419 103.659 118.243 103.846 118.019 103.996C117.794 104.146 117.535 104.252 117.242 104.313V104.333C117.757 104.375 118.172 104.549 118.487 104.855C118.806 105.158 118.966 105.56 118.966 106.062V106.071C118.966 106.462 118.86 106.812 118.648 107.121C118.437 107.43 118.147 107.674 117.779 107.854C117.411 108.029 116.992 108.117 116.52 108.117ZM130.147 108V101.745H127.877V100.954H133.297V101.745H131.026V108H130.147ZM139.82 108.166C139.146 108.166 138.569 108.016 138.087 107.717C137.605 107.414 137.234 106.986 136.974 106.433C136.716 105.879 136.588 105.228 136.588 104.479V104.47C136.588 103.715 136.718 103.062 136.979 102.512C137.242 101.962 137.615 101.537 138.097 101.237C138.582 100.938 139.156 100.788 139.82 100.788C140.488 100.788 141.062 100.938 141.544 101.237C142.029 101.537 142.402 101.963 142.662 102.517C142.923 103.067 143.053 103.718 143.053 104.47V104.479C143.053 105.228 142.923 105.879 142.662 106.433C142.405 106.983 142.034 107.409 141.549 107.712C141.067 108.015 140.491 108.166 139.82 108.166ZM139.82 107.355C140.302 107.355 140.717 107.237 141.065 106.999C141.414 106.761 141.682 106.428 141.871 105.998C142.06 105.565 142.154 105.059 142.154 104.479V104.47C142.154 103.884 142.06 103.376 141.871 102.946C141.682 102.517 141.414 102.185 141.065 101.95C140.717 101.716 140.302 101.599 139.82 101.599C139.342 101.599 138.928 101.716 138.58 101.95C138.232 102.185 137.962 102.517 137.77 102.946C137.581 103.376 137.486 103.884 137.486 104.47V104.479C137.486 105.059 137.579 105.565 137.765 105.998C137.95 106.428 138.217 106.761 138.565 106.999C138.914 107.237 139.332 107.355 139.82 107.355ZM150.035 108.166C149.361 108.166 148.784 108.016 148.302 107.717C147.82 107.414 147.449 106.986 147.188 106.433C146.931 105.879 146.803 105.228 146.803 104.479V104.47C146.803 103.715 146.933 103.062 147.193 102.512C147.457 101.962 147.83 101.537 148.312 101.237C148.797 100.938 149.371 100.788 150.035 100.788C150.702 100.788 151.277 100.938 151.759 101.237C152.244 101.537 152.617 101.963 152.877 102.517C153.137 103.067 153.268 103.718 153.268 104.47V104.479C153.268 105.228 153.137 105.879 152.877 106.433C152.62 106.983 152.249 107.409 151.764 107.712C151.282 108.015 150.706 108.166 150.035 108.166ZM150.035 107.355C150.517 107.355 150.932 107.237 151.28 106.999C151.629 106.761 151.897 106.428 152.086 105.998C152.275 105.565 152.369 105.059 152.369 104.479V104.47C152.369 103.884 152.275 103.376 152.086 102.946C151.897 102.517 151.629 102.185 151.28 101.95C150.932 101.716 150.517 101.599 150.035 101.599C149.557 101.599 149.143 101.716 148.795 101.95C148.447 102.185 148.176 102.517 147.984 102.946C147.796 103.376 147.701 103.884 147.701 104.47V104.479C147.701 105.059 147.794 105.565 147.979 105.998C148.165 106.428 148.432 106.761 148.78 106.999C149.129 107.237 149.547 107.355 150.035 107.355ZM157.291 108V100.954H158.17V107.209H161.568V108H157.291ZM167.784 108.166C167.27 108.166 166.821 108.083 166.437 107.917C166.056 107.748 165.753 107.517 165.528 107.224C165.307 106.927 165.178 106.589 165.143 106.208L165.138 106.154H166.017L166.021 106.208C166.044 106.442 166.134 106.646 166.29 106.818C166.45 106.988 166.661 107.119 166.925 107.214C167.192 107.308 167.494 107.355 167.833 107.355C168.152 107.355 168.435 107.305 168.683 107.204C168.933 107.1 169.13 106.957 169.273 106.774C169.417 106.592 169.488 106.382 169.488 106.145V106.14C169.488 105.847 169.381 105.601 169.166 105.402C168.951 105.201 168.601 105.046 168.116 104.938L167.335 104.768C166.629 104.611 166.114 104.37 165.792 104.045C165.473 103.716 165.313 103.296 165.313 102.785V102.78C165.317 102.39 165.423 102.045 165.631 101.745C165.842 101.446 166.134 101.211 166.505 101.042C166.879 100.873 167.309 100.788 167.794 100.788C168.263 100.788 168.678 100.873 169.039 101.042C169.4 101.208 169.687 101.433 169.898 101.716C170.113 101.999 170.232 102.316 170.255 102.668L170.26 102.736H169.381L169.371 102.673C169.339 102.465 169.254 102.281 169.117 102.121C168.98 101.958 168.798 101.83 168.57 101.735C168.342 101.641 168.076 101.595 167.77 101.599C167.477 101.599 167.213 101.644 166.979 101.735C166.744 101.826 166.557 101.958 166.417 102.131C166.28 102.3 166.212 102.508 166.212 102.756V102.761C166.212 103.041 166.316 103.277 166.524 103.469C166.733 103.661 167.076 103.809 167.555 103.913L168.336 104.089C169.072 104.252 169.597 104.488 169.913 104.797C170.229 105.106 170.387 105.515 170.387 106.022V106.027C170.387 106.467 170.279 106.846 170.064 107.165C169.85 107.484 169.547 107.731 169.156 107.907C168.766 108.08 168.308 108.166 167.784 108.166Z" fill="#FFFCF5"/>
<path d="M38.688 145.184C34.992 145.184 31.968 142.736 31.584 139.592C29.592 138.848 27.792 137.408 26.472 135.392C23.448 130.712 24.408 124.712 28.632 121.952C32.856 119.192 38.712 120.728 41.784 125.408C44.4 129.464 44.088 134.84 41.352 137.408C41.16 137.576 40.608 138.224 39.096 138.224C38.136 138.224 37.56 137.84 37.56 136.712H36.576C36.336 139.136 37.944 139.472 40.536 138.968C41.472 138.776 42.336 138.512 43.056 138.248V143.864C41.832 144.704 40.32 145.184 38.688 145.184ZM30.744 137.432C32.328 138.392 35.376 136.328 37.584 132.848C39.744 129.344 40.248 125.816 38.712 124.88C37.08 123.944 34.032 125.936 31.896 129.488C29.64 132.968 29.184 136.52 30.744 137.432ZM62.4169 124.4V140H55.6969L55.6249 138.296C56.2969 137.36 57.4969 134.624 58.0009 131.672L56.8009 131.552C55.7449 137.288 53.3209 140.384 50.1049 140.384C46.9849 140.384 45.3769 138.128 45.3769 134.072V124.4H52.0969V134.072C52.0969 135.704 52.3129 136.592 53.1289 136.592C54.7129 136.592 55.6969 132.248 55.6969 124.4H62.4169ZM76.6654 139.088C73.1854 141.392 68.3374 140.12 65.7934 136.232C63.2974 132.368 64.0894 127.4 67.5934 125.12C71.0734 122.84 75.9214 124.112 78.4654 127.976C80.9614 131.84 80.1694 136.808 76.6654 139.088ZM70.9054 138.224C71.9614 138.872 74.0494 137.456 75.5614 135.08C77.0494 132.68 77.3854 130.28 76.3294 129.632C75.2254 128.984 73.1374 130.352 71.6734 132.776C70.1374 135.152 69.8254 137.576 70.9054 138.224ZM90.9204 140.384C86.1444 140.384 82.2804 136.976 82.2804 132.776C82.2804 131.624 83.0244 130.976 83.2164 130.784H80.8884V128.384C83.6244 128.384 88.1604 125.696 85.7604 122.312H94.0884C94.0884 125.024 90.4884 127.472 86.0964 128.648L86.4804 129.776C88.1604 129.32 89.0964 128.888 90.3204 128.384H96.2004V130.784H89.2404C89.0244 130.88 88.2324 131.816 88.8804 132.56C89.5524 133.352 92.2644 133.064 93.1524 132.872C94.3044 132.632 95.3364 132.32 96.2004 132.008V138.8C94.7364 139.808 92.9124 140.384 90.9204 140.384ZM102.038 140C100.574 138.704 98.1743 136.568 98.1263 132.512C98.0303 125.528 103.838 123.896 106.958 123.896C112.43 123.896 115.166 126.248 115.166 129.152C115.166 132.032 112.43 134.408 109.07 134.408C106.766 134.408 104.774 133.304 103.718 131.672L102.878 132.464C105.014 136.256 111.686 135.56 115.094 135.368L111.902 140H102.038ZM105.086 131.384C105.854 131.84 107.198 131.048 108.062 129.56C108.902 128.12 108.926 126.56 108.11 126.104C107.294 125.624 105.95 126.416 105.11 127.88C104.27 129.368 104.246 130.928 105.086 131.384ZM115.875 133.856C117.459 134.432 119.787 134.936 121.587 134.936C122.739 134.936 124.971 134.624 124.971 133.688C124.971 131.888 116.355 132.704 116.355 128.216C116.355 125.888 118.203 124.04 122.787 124.04C126.747 124.04 129.579 124.976 130.275 125.24V130.832C128.907 130.28 127.347 129.512 125.499 129.512C124.179 129.512 122.667 129.752 122.667 130.4C122.667 132.008 131.235 131.36 131.235 136.088C131.235 137.792 130.395 138.896 129.075 140H119.595L115.875 133.856Z" fill="#FFFCF5"/>
<path d="M24.4717 159L28.1084 149.136H29.0518V150.729H28.6621L25.7637 159H24.4717ZM26.1191 156.177L26.502 155.131H30.959L31.3418 156.177H26.1191ZM31.6699 159L28.7715 150.729V149.136H29.3252L32.9619 159H31.6699ZM41.0078 159.13C40.4609 159.13 39.9779 159.048 39.5586 158.884C39.1393 158.715 38.8021 158.48 38.5469 158.18C38.2962 157.879 38.1481 157.526 38.1025 157.12H39.3193C39.4196 157.425 39.6156 157.672 39.9072 157.858C40.1989 158.045 40.5794 158.139 41.0488 158.139C41.3815 158.139 41.6732 158.091 41.9238 157.995C42.179 157.895 42.3796 157.76 42.5254 157.592C42.6712 157.419 42.7441 157.22 42.7441 156.997V156.983C42.7441 156.733 42.6439 156.521 42.4434 156.348C42.2428 156.17 41.9147 156.026 41.459 155.917L40.3174 155.644C39.8571 155.534 39.4788 155.393 39.1826 155.22C38.8864 155.042 38.6676 154.826 38.5264 154.57C38.3851 154.311 38.3145 154.005 38.3145 153.654V153.647C38.3145 153.237 38.4329 152.87 38.6699 152.547C38.9115 152.223 39.2396 151.968 39.6543 151.781C40.069 151.594 40.5361 151.501 41.0557 151.501C41.5706 151.501 42.0264 151.583 42.4229 151.747C42.8239 151.907 43.1452 152.134 43.3867 152.431C43.6328 152.727 43.7832 153.076 43.8379 153.477H42.6689C42.5915 153.185 42.4137 152.948 42.1357 152.766C41.8577 152.583 41.4954 152.492 41.0488 152.492C40.7572 152.492 40.4974 152.54 40.2695 152.636C40.0417 152.727 39.8617 152.854 39.7295 153.019C39.5973 153.183 39.5312 153.374 39.5312 153.593V153.606C39.5312 153.771 39.5745 153.916 39.6611 154.044C39.7477 154.172 39.8822 154.283 40.0645 154.379C40.2467 154.475 40.4814 154.559 40.7686 154.632L41.9033 154.905C42.596 155.074 43.111 155.315 43.4482 155.63C43.79 155.944 43.9609 156.366 43.9609 156.895V156.908C43.9609 157.346 43.8311 157.733 43.5713 158.07C43.3115 158.403 42.9583 158.663 42.5117 158.85C42.0697 159.036 41.5684 159.13 41.0078 159.13ZM45.8066 159V151.631H46.9961V152.752H47.1055C47.2695 152.355 47.5202 152.048 47.8574 151.829C48.1992 151.61 48.6117 151.501 49.0947 151.501C49.4274 151.501 49.7259 151.556 49.9902 151.665C50.2546 151.774 50.4824 151.927 50.6738 152.123C50.8652 152.314 51.0179 152.538 51.1318 152.793H51.2412C51.3734 152.533 51.5511 152.308 51.7744 152.116C51.9977 151.92 52.2552 151.77 52.5469 151.665C52.8431 151.556 53.1598 151.501 53.4971 151.501C53.9984 151.501 54.4222 151.594 54.7686 151.781C55.1195 151.968 55.3861 152.242 55.5684 152.602C55.7507 152.957 55.8418 153.392 55.8418 153.907V159H54.6523V154.181C54.6523 153.816 54.5954 153.515 54.4814 153.278C54.3721 153.037 54.2035 152.857 53.9756 152.738C53.7477 152.615 53.4606 152.554 53.1143 152.554C52.7725 152.554 52.474 152.631 52.2188 152.786C51.9635 152.941 51.7653 153.148 51.624 153.408C51.4827 153.663 51.4121 153.948 51.4121 154.263V159H50.2227V153.996C50.2227 153.704 50.1589 153.451 50.0312 153.237C49.9082 153.019 49.7305 152.85 49.498 152.731C49.2702 152.613 49.0013 152.554 48.6914 152.554C48.3724 152.554 48.083 152.638 47.8232 152.807C47.568 152.975 47.3652 153.203 47.2148 153.49C47.069 153.773 46.9961 154.087 46.9961 154.434V159H45.8066ZM60.0117 159.13C59.5469 159.13 59.1276 159.041 58.7539 158.863C58.3848 158.686 58.0908 158.433 57.8721 158.104C57.6579 157.776 57.5508 157.389 57.5508 156.942V156.929C57.5508 156.491 57.6556 156.118 57.8652 155.808C58.0749 155.493 58.3802 155.247 58.7812 155.069C59.1823 154.892 59.6676 154.787 60.2373 154.755L62.9443 154.591V155.541L60.3809 155.705C59.8203 155.737 59.4102 155.853 59.1504 156.054C58.8952 156.254 58.7676 156.537 58.7676 156.901V156.915C58.7676 157.289 58.9089 157.58 59.1914 157.79C59.474 157.995 59.8294 158.098 60.2578 158.098C60.6634 158.098 61.0234 158.018 61.3379 157.858C61.6523 157.694 61.8984 157.473 62.0762 157.195C62.2585 156.917 62.3496 156.603 62.3496 156.252V153.955C62.3496 153.499 62.2106 153.153 61.9326 152.916C61.6592 152.674 61.2467 152.554 60.6953 152.554C60.2533 152.554 59.891 152.633 59.6084 152.793C59.3258 152.948 59.1367 153.169 59.041 153.456L59.0342 153.477H57.8447L57.8516 153.436C57.9154 153.048 58.0749 152.711 58.3301 152.424C58.5898 152.132 58.9248 151.907 59.335 151.747C59.7451 151.583 60.2122 151.501 60.7363 151.501C61.3379 151.501 61.846 151.599 62.2607 151.795C62.68 151.991 62.9967 152.273 63.2109 152.643C63.4297 153.007 63.5391 153.445 63.5391 153.955V159H62.3496V157.913H62.2402C62.0853 158.173 61.8962 158.394 61.6729 158.576C61.4541 158.758 61.2057 158.897 60.9277 158.993C60.6497 159.084 60.3444 159.13 60.0117 159.13ZM65.7812 159V148.705H66.9707V159H65.7812ZM69.3223 159V148.705H70.5117V159H69.3223ZM79.3506 159.055C78.5941 159.055 78.0449 158.902 77.7031 158.597C77.3659 158.291 77.1973 157.788 77.1973 157.086V152.615H76.0352V151.631H77.1973V149.724H78.4277V151.631H80.041V152.615H78.4277V156.785C78.4277 157.218 78.5098 157.53 78.6738 157.722C78.8379 157.909 79.1113 158.002 79.4941 158.002C79.599 158.002 79.6878 158 79.7607 157.995C79.8382 157.991 79.9316 157.984 80.041 157.975V158.986C79.9271 159.005 79.8132 159.021 79.6992 159.034C79.5853 159.048 79.4691 159.055 79.3506 159.055ZM81.8867 159V148.705H83.0762V152.738H83.1855C83.3724 152.346 83.6413 152.043 83.9922 151.829C84.3431 151.61 84.7897 151.501 85.332 151.501C85.8835 151.501 86.3506 151.608 86.7334 151.822C87.1162 152.032 87.4079 152.34 87.6084 152.745C87.8089 153.151 87.9092 153.645 87.9092 154.229V159H86.7197V154.516C86.7197 153.85 86.5785 153.358 86.2959 153.039C86.0179 152.715 85.585 152.554 84.9971 152.554C84.6051 152.554 84.2656 152.638 83.9785 152.807C83.6914 152.975 83.4681 153.215 83.3086 153.524C83.1536 153.834 83.0762 154.206 83.0762 154.639V159H81.8867ZM93.0908 159.13C92.3936 159.13 91.7897 158.977 91.2793 158.672C90.7734 158.362 90.3815 157.922 90.1035 157.353C89.8301 156.783 89.6934 156.106 89.6934 155.322V155.309C89.6934 154.52 89.8301 153.841 90.1035 153.271C90.3815 152.702 90.7734 152.264 91.2793 151.959C91.7897 151.654 92.3936 151.501 93.0908 151.501C93.7926 151.501 94.3965 151.654 94.9023 151.959C95.4082 152.264 95.7979 152.702 96.0713 153.271C96.3493 153.841 96.4883 154.52 96.4883 155.309V155.322C96.4883 156.106 96.3493 156.783 96.0713 157.353C95.7979 157.922 95.4082 158.362 94.9023 158.672C94.3965 158.977 93.7926 159.13 93.0908 159.13ZM93.0908 158.077C93.5557 158.077 93.9499 157.968 94.2734 157.749C94.597 157.53 94.8431 157.216 95.0117 156.806C95.1849 156.396 95.2715 155.901 95.2715 155.322V155.309C95.2715 154.725 95.1849 154.229 95.0117 153.818C94.8431 153.408 94.597 153.096 94.2734 152.882C93.9499 152.663 93.5557 152.554 93.0908 152.554C92.626 152.554 92.2318 152.663 91.9082 152.882C91.5846 153.096 91.3363 153.408 91.1631 153.818C90.9945 154.229 90.9102 154.725 90.9102 155.309V155.322C90.9102 155.901 90.9945 156.396 91.1631 156.806C91.3363 157.216 91.5846 157.53 91.9082 157.749C92.2318 157.968 92.626 158.077 93.0908 158.077ZM100.802 159.13C100.246 159.13 99.7786 159.025 99.4004 158.815C99.0221 158.601 98.7373 158.291 98.5459 157.886C98.359 157.476 98.2656 156.981 98.2656 156.402V151.631H99.4551V156.115C99.4551 156.776 99.5827 157.268 99.8379 157.592C100.098 157.915 100.521 158.077 101.109 158.077C101.433 158.077 101.718 158.029 101.964 157.934C102.215 157.838 102.424 157.701 102.593 157.523C102.761 157.341 102.887 157.122 102.969 156.867C103.055 156.607 103.099 156.316 103.099 155.992V151.631H104.288V159H103.099V157.899H102.989C102.871 158.159 102.709 158.382 102.504 158.569C102.299 158.752 102.053 158.891 101.766 158.986C101.483 159.082 101.162 159.13 100.802 159.13ZM109.545 161.598C108.952 161.598 108.435 161.513 107.993 161.345C107.551 161.181 107.198 160.946 106.934 160.641C106.674 160.34 106.512 159.989 106.448 159.588L106.462 159.581H107.692L107.699 159.588C107.763 159.866 107.954 160.094 108.273 160.271C108.592 160.454 109.016 160.545 109.545 160.545C110.206 160.545 110.721 160.395 111.09 160.094C111.464 159.798 111.65 159.378 111.65 158.836V157.346H111.541C111.386 157.615 111.192 157.845 110.96 158.036C110.728 158.228 110.465 158.373 110.174 158.474C109.882 158.569 109.568 158.617 109.23 158.617C108.597 158.617 108.048 158.467 107.583 158.166C107.123 157.861 106.767 157.441 106.517 156.908C106.266 156.375 106.141 155.764 106.141 155.076V155.062C106.141 154.374 106.266 153.764 106.517 153.23C106.772 152.693 107.132 152.271 107.597 151.966C108.062 151.656 108.615 151.501 109.258 151.501C109.604 151.501 109.923 151.556 110.215 151.665C110.507 151.774 110.764 151.929 110.987 152.13C111.215 152.33 111.404 152.57 111.555 152.848H111.637V151.631H112.826V158.897C112.826 159.444 112.692 159.921 112.423 160.326C112.159 160.732 111.78 161.044 111.288 161.263C110.796 161.486 110.215 161.598 109.545 161.598ZM109.49 157.564C109.946 157.564 110.336 157.46 110.659 157.25C110.987 157.036 111.238 156.742 111.411 156.368C111.589 155.994 111.678 155.564 111.678 155.076V155.062C111.678 154.575 111.589 154.142 111.411 153.764C111.238 153.385 110.987 153.089 110.659 152.875C110.336 152.661 109.946 152.554 109.49 152.554C109.035 152.554 108.647 152.661 108.328 152.875C108.014 153.089 107.772 153.385 107.604 153.764C107.439 154.142 107.357 154.575 107.357 155.062V155.076C107.357 155.564 107.439 155.994 107.604 156.368C107.772 156.742 108.014 157.036 108.328 157.25C108.647 157.46 109.035 157.564 109.49 157.564ZM115.109 159V148.705H116.299V152.738H116.408C116.595 152.346 116.864 152.043 117.215 151.829C117.566 151.61 118.012 151.501 118.555 151.501C119.106 151.501 119.573 151.608 119.956 151.822C120.339 152.032 120.631 152.34 120.831 152.745C121.032 153.151 121.132 153.645 121.132 154.229V159H119.942V154.516C119.942 153.85 119.801 153.358 119.519 153.039C119.241 152.715 118.808 152.554 118.22 152.554C117.828 152.554 117.488 152.638 117.201 152.807C116.914 152.975 116.691 153.215 116.531 153.524C116.376 153.834 116.299 154.206 116.299 154.639V159H115.109ZM125.903 159.055C125.147 159.055 124.598 158.902 124.256 158.597C123.919 158.291 123.75 157.788 123.75 157.086V152.615H122.588V151.631H123.75V149.724H124.98V151.631H126.594V152.615H124.98V156.785C124.98 157.218 125.062 157.53 125.227 157.722C125.391 157.909 125.664 158.002 126.047 158.002C126.152 158.002 126.241 158 126.313 157.995C126.391 157.991 126.484 157.984 126.594 157.975V158.986C126.48 159.005 126.366 159.021 126.252 159.034C126.138 159.048 126.022 159.055 125.903 159.055ZM134.927 159.055C134.17 159.055 133.621 158.902 133.279 158.597C132.942 158.291 132.773 157.788 132.773 157.086V152.615H131.611V151.631H132.773V149.724H134.004V151.631H135.617V152.615H134.004V156.785C134.004 157.218 134.086 157.53 134.25 157.722C134.414 157.909 134.688 158.002 135.07 158.002C135.175 158.002 135.264 158 135.337 157.995C135.414 157.991 135.508 157.984 135.617 157.975V158.986C135.503 159.005 135.389 159.021 135.275 159.034C135.161 159.048 135.045 159.055 134.927 159.055ZM140.327 159.13C139.63 159.13 139.026 158.977 138.516 158.672C138.01 158.362 137.618 157.922 137.34 157.353C137.066 156.783 136.93 156.106 136.93 155.322V155.309C136.93 154.52 137.066 153.841 137.34 153.271C137.618 152.702 138.01 152.264 138.516 151.959C139.026 151.654 139.63 151.501 140.327 151.501C141.029 151.501 141.633 151.654 142.139 151.959C142.645 152.264 143.034 152.702 143.308 153.271C143.586 153.841 143.725 154.52 143.725 155.309V155.322C143.725 156.106 143.586 156.783 143.308 157.353C143.034 157.922 142.645 158.362 142.139 158.672C141.633 158.977 141.029 159.13 140.327 159.13ZM140.327 158.077C140.792 158.077 141.186 157.968 141.51 157.749C141.833 157.53 142.079 157.216 142.248 156.806C142.421 156.396 142.508 155.901 142.508 155.322V155.309C142.508 154.725 142.421 154.229 142.248 153.818C142.079 153.408 141.833 153.096 141.51 152.882C141.186 152.663 140.792 152.554 140.327 152.554C139.862 152.554 139.468 152.663 139.145 152.882C138.821 153.096 138.573 153.408 138.399 153.818C138.231 154.229 138.146 154.725 138.146 155.309V155.322C138.146 155.901 138.231 156.396 138.399 156.806C138.573 157.216 138.821 157.53 139.145 157.749C139.468 157.968 139.862 158.077 140.327 158.077ZM152.037 159.13C151.49 159.13 151.007 159.048 150.588 158.884C150.169 158.715 149.831 158.48 149.576 158.18C149.326 157.879 149.177 157.526 149.132 157.12H150.349C150.449 157.425 150.645 157.672 150.937 157.858C151.228 158.045 151.609 158.139 152.078 158.139C152.411 158.139 152.702 158.091 152.953 157.995C153.208 157.895 153.409 157.76 153.555 157.592C153.701 157.419 153.773 157.22 153.773 156.997V156.983C153.773 156.733 153.673 156.521 153.473 156.348C153.272 156.17 152.944 156.026 152.488 155.917L151.347 155.644C150.886 155.534 150.508 155.393 150.212 155.22C149.916 155.042 149.697 154.826 149.556 154.57C149.414 154.311 149.344 154.005 149.344 153.654V153.647C149.344 153.237 149.462 152.87 149.699 152.547C149.941 152.223 150.269 151.968 150.684 151.781C151.098 151.594 151.565 151.501 152.085 151.501C152.6 151.501 153.056 151.583 153.452 151.747C153.853 151.907 154.174 152.134 154.416 152.431C154.662 152.727 154.812 153.076 154.867 153.477H153.698C153.621 153.185 153.443 152.948 153.165 152.766C152.887 152.583 152.525 152.492 152.078 152.492C151.786 152.492 151.527 152.54 151.299 152.636C151.071 152.727 150.891 152.854 150.759 153.019C150.627 153.183 150.561 153.374 150.561 153.593V153.606C150.561 153.771 150.604 153.916 150.69 154.044C150.777 154.172 150.911 154.283 151.094 154.379C151.276 154.475 151.511 154.559 151.798 154.632L152.933 154.905C153.625 155.074 154.14 155.315 154.478 155.63C154.819 155.944 154.99 156.366 154.99 156.895V156.908C154.99 157.346 154.86 157.733 154.601 158.07C154.341 158.403 153.988 158.663 153.541 158.85C153.099 159.036 152.598 159.13 152.037 159.13ZM159.386 159.055C158.629 159.055 158.08 158.902 157.738 158.597C157.401 158.291 157.232 157.788 157.232 157.086V152.615H156.07V151.631H157.232V149.724H158.463V151.631H160.076V152.615H158.463V156.785C158.463 157.218 158.545 157.53 158.709 157.722C158.873 157.909 159.146 158.002 159.529 158.002C159.634 158.002 159.723 158 159.796 157.995C159.873 157.991 159.967 157.984 160.076 157.975V158.986C159.962 159.005 159.848 159.021 159.734 159.034C159.62 159.048 159.504 159.055 159.386 159.055ZM163.877 159.13C163.412 159.13 162.993 159.041 162.619 158.863C162.25 158.686 161.956 158.433 161.737 158.104C161.523 157.776 161.416 157.389 161.416 156.942V156.929C161.416 156.491 161.521 156.118 161.73 155.808C161.94 155.493 162.245 155.247 162.646 155.069C163.048 154.892 163.533 154.787 164.103 154.755L166.81 154.591V155.541L164.246 155.705C163.686 155.737 163.275 155.853 163.016 156.054C162.76 156.254 162.633 156.537 162.633 156.901V156.915C162.633 157.289 162.774 157.58 163.057 157.79C163.339 157.995 163.695 158.098 164.123 158.098C164.529 158.098 164.889 158.018 165.203 157.858C165.518 157.694 165.764 157.473 165.941 157.195C166.124 156.917 166.215 156.603 166.215 156.252V153.955C166.215 153.499 166.076 153.153 165.798 152.916C165.524 152.674 165.112 152.554 164.561 152.554C164.118 152.554 163.756 152.633 163.474 152.793C163.191 152.948 163.002 153.169 162.906 153.456L162.899 153.477H161.71L161.717 153.436C161.781 153.048 161.94 152.711 162.195 152.424C162.455 152.132 162.79 151.907 163.2 151.747C163.61 151.583 164.077 151.501 164.602 151.501C165.203 151.501 165.711 151.599 166.126 151.795C166.545 151.991 166.862 152.273 167.076 152.643C167.295 153.007 167.404 153.445 167.404 153.955V159H166.215V157.913H166.105C165.951 158.173 165.761 158.394 165.538 158.576C165.319 158.758 165.071 158.897 164.793 158.993C164.515 159.084 164.21 159.13 163.877 159.13ZM169.934 161.584C169.856 161.584 169.77 161.579 169.674 161.57C169.578 161.566 169.489 161.557 169.407 161.543V160.565C169.48 160.579 169.56 160.588 169.646 160.593C169.733 160.597 169.817 160.6 169.899 160.6C170.237 160.6 170.512 160.513 170.727 160.34C170.945 160.167 171.121 159.868 171.253 159.444L171.39 159.007L168.662 151.631H169.934L172.203 158.439L171.731 157.694H172.292L171.82 158.439L174.083 151.631H175.334L172.456 159.451C172.256 160.003 172.044 160.433 171.82 160.743C171.597 161.053 171.335 161.27 171.034 161.393C170.738 161.52 170.371 161.584 169.934 161.584ZM182.266 159L180.201 151.631H181.391L182.84 157.523H182.949L184.597 151.631H185.725L187.372 157.523H187.481L188.931 151.631H190.113L188.049 159H186.853L185.205 153.299H185.096L183.455 159H182.266ZM191.713 159V151.631H192.902V159H191.713ZM192.314 150.209C192.091 150.209 191.897 150.129 191.733 149.97C191.574 149.806 191.494 149.612 191.494 149.389C191.494 149.161 191.574 148.967 191.733 148.808C191.897 148.648 192.091 148.568 192.314 148.568C192.542 148.568 192.736 148.648 192.896 148.808C193.055 148.967 193.135 149.161 193.135 149.389C193.135 149.612 193.055 149.806 192.896 149.97C192.736 150.129 192.542 150.209 192.314 150.209ZM197.763 159.055C197.006 159.055 196.457 158.902 196.115 158.597C195.778 158.291 195.609 157.788 195.609 157.086V152.615H194.447V151.631H195.609V149.724H196.84V151.631H198.453V152.615H196.84V156.785C196.84 157.218 196.922 157.53 197.086 157.722C197.25 157.909 197.523 158.002 197.906 158.002C198.011 158.002 198.1 158 198.173 157.995C198.25 157.991 198.344 157.984 198.453 157.975V158.986C198.339 159.005 198.225 159.021 198.111 159.034C197.997 159.048 197.881 159.055 197.763 159.055ZM200.299 159V148.705H201.488V152.738H201.598C201.785 152.346 202.053 152.043 202.404 151.829C202.755 151.61 203.202 151.501 203.744 151.501C204.296 151.501 204.763 151.608 205.146 151.822C205.528 152.032 205.82 152.34 206.021 152.745C206.221 153.151 206.321 153.645 206.321 154.229V159H205.132V154.516C205.132 153.85 204.991 153.358 204.708 153.039C204.43 152.715 203.997 152.554 203.409 152.554C203.017 152.554 202.678 152.638 202.391 152.807C202.104 152.975 201.88 153.215 201.721 153.524C201.566 153.834 201.488 154.206 201.488 154.639V159H200.299ZM209.445 159.068C209.204 159.068 208.994 158.982 208.816 158.809C208.643 158.631 208.557 158.421 208.557 158.18C208.557 157.934 208.643 157.724 208.816 157.551C208.994 157.378 209.204 157.291 209.445 157.291C209.691 157.291 209.901 157.378 210.074 157.551C210.247 157.724 210.334 157.934 210.334 158.18C210.334 158.421 210.247 158.631 210.074 158.809C209.901 158.982 209.691 159.068 209.445 159.068Z" fill="#FFFCF5"/>
</g>
<defs>
<clipPath id="clip0_630_14474">
<rect width="362" height="175" rx="30" fill="white"/>
</clipPath>
</defs>
</svg>
