<svg width="175" height="175" viewBox="0 0 175 175" fill="none" xmlns="http://www.w3.org/2000/svg">
<g clip-path="url(#clip0_718_13131)">
<rect width="175" height="175" rx="30" fill="#FF87EB"/>
<path d="M165.171 6.07245L165.64 7.70299L167.392 7.2706C175.671 5.21757 181.509 15.1229 175.584 21.1731L174.286 22.5L175.584 23.8269C181.509 29.8771 175.675 39.7824 167.392 37.7294L165.64 37.297L165.171 38.9276C162.832 47.0242 151.168 47.0242 148.829 38.9276L148.36 37.297L146.608 37.7294C138.329 39.7824 132.491 29.8771 138.416 23.8269L139.714 22.5L138.416 21.1731C132.491 15.1229 138.325 5.21757 146.608 7.2706L148.36 7.70299L148.829 6.07245C151.168 -2.02415 162.832 -2.02415 165.171 6.07245Z" fill="#465AE1"/>
<path d="M29.1707 144.072L29.6404 145.703L31.3916 145.271C39.6714 143.218 45.5088 153.123 39.5842 159.173L38.2859 160.5L39.5842 161.827C45.5088 167.877 39.6748 177.782 31.3916 175.729L29.6404 175.297L29.1707 176.928C26.8324 185.024 15.1676 185.024 12.8293 176.928L12.3596 175.297L10.6084 175.729C2.3286 177.782 -3.50884 167.877 2.41582 161.827L3.71415 160.5L2.41582 159.173C-3.50884 153.123 2.32524 143.218 10.6084 145.271L12.3596 145.703L12.8293 144.072C15.1676 135.976 26.8324 135.976 29.1707 144.072Z" fill="#465AE1"/>
<rect width="175" height="175" fill="#755D7B" fill-opacity="0.24"/>
<path d="M161.171 145.072L161.64 146.703L163.392 146.271C171.671 144.218 177.509 154.123 171.584 160.173L170.286 161.5L171.584 162.827C177.509 168.877 171.675 178.782 163.392 176.729L161.64 176.297L161.171 177.928C158.832 186.024 147.168 186.024 144.829 177.928L144.36 176.297L142.608 176.729C134.329 178.782 128.491 168.877 134.416 162.827L135.714 161.5L134.416 160.173C128.491 154.123 134.325 144.218 142.608 146.271L144.36 146.703L144.829 145.072C147.168 136.976 158.832 136.976 161.171 145.072Z" fill="#465AE1"/>
<path d="M27.1707 6.07245L27.6404 7.70299L29.3916 7.2706C37.6714 5.21757 43.5088 15.1229 37.5842 21.1731L36.2859 22.5L37.5842 23.8269C43.5088 29.8771 37.6748 39.7824 29.3916 37.7294L27.6404 37.297L27.1707 38.9276C24.8324 47.0242 13.1676 47.0242 10.8293 38.9276L10.3596 37.297L8.60836 37.7294C0.328597 39.7824 -5.50884 29.8771 0.415824 23.8269L1.71415 22.5L0.415824 21.1731C-5.50884 15.1229 0.325242 5.21757 8.60836 7.2706L10.3596 7.70299L10.8293 6.07245C13.1676 -2.02415 24.8324 -2.02415 27.1707 6.07245Z" fill="#465AE1"/>
<path d="M105.981 49.7642L107.044 53.4601L111.005 52.48C129.733 47.8265 142.937 70.2787 129.536 83.9924L126.599 87L129.536 90.0076C142.937 103.721 129.741 126.174 111.005 121.52L107.044 120.54L105.981 124.236C100.692 142.588 74.3077 142.588 69.0186 124.236L67.9562 120.54L63.9951 121.52C45.2671 126.174 32.0633 103.721 45.4644 90.0076L48.401 87L45.4644 83.9924C32.0633 70.2787 45.2595 47.8265 63.9951 52.48L67.9562 53.4601L69.0186 49.7642C74.3077 31.4119 100.692 31.4119 105.981 49.7642Z" fill="#465AE1"/>
<path d="M48.9458 102.184C45.2498 102.184 42.2258 99.736 41.8418 96.592C39.8498 95.848 38.0498 94.408 36.7298 92.392C33.7058 87.712 34.6658 81.712 38.8898 78.952C43.1138 76.192 48.9698 77.728 52.0418 82.408C54.6578 86.464 54.3458 91.84 51.6098 94.408C51.4178 94.576 50.8658 95.224 49.3538 95.224C48.3938 95.224 47.8178 94.84 47.8178 93.712H46.8338C46.5938 96.136 48.2018 96.472 50.7938 95.968C51.7298 95.776 52.5938 95.512 53.3138 95.248V100.864C52.0898 101.704 50.5778 102.184 48.9458 102.184ZM41.0018 94.432C42.5858 95.392 45.6338 93.328 47.8418 89.848C50.0018 86.344 50.5058 82.816 48.9698 81.88C47.3378 80.944 44.2898 82.936 42.1538 86.488C39.8978 89.968 39.4418 93.52 41.0018 94.432ZM72.6747 81.4V97H65.9547L65.8827 95.296C66.5547 94.36 67.7547 91.624 68.2587 88.672L67.0587 88.552C66.0027 94.288 63.5787 97.384 60.3627 97.384C57.2427 97.384 55.6347 95.128 55.6347 91.072V81.4H62.3547V91.072C62.3547 92.704 62.5707 93.592 63.3867 93.592C64.9707 93.592 65.9547 89.248 65.9547 81.4H72.6747ZM86.9232 96.088C83.4432 98.392 78.5952 97.12 76.0512 93.232C73.5552 89.368 74.3472 84.4 77.8512 82.12C81.3312 79.84 86.1792 81.112 88.7232 84.976C91.2192 88.84 90.4272 93.808 86.9232 96.088ZM81.1632 95.224C82.2192 95.872 84.3072 94.456 85.8192 92.08C87.3072 89.68 87.6432 87.28 86.5872 86.632C85.4832 85.984 83.3952 87.352 81.9312 89.776C80.3952 92.152 80.0832 94.576 81.1632 95.224ZM101.178 97.384C96.4023 97.384 92.5383 93.976 92.5383 89.776C92.5383 88.624 93.2823 87.976 93.4743 87.784H91.1463V85.384C93.8823 85.384 98.4183 82.696 96.0183 79.312H104.346C104.346 82.024 100.746 84.472 96.3543 85.648L96.7383 86.776C98.4183 86.32 99.3543 85.888 100.578 85.384H106.458V87.784H99.4983C99.2823 87.88 98.4903 88.816 99.1383 89.56C99.8103 90.352 102.522 90.064 103.41 89.872C104.562 89.632 105.594 89.32 106.458 89.008V95.8C104.994 96.808 103.17 97.384 101.178 97.384ZM112.296 97C110.832 95.704 108.432 93.568 108.384 89.512C108.288 82.528 114.096 80.896 117.216 80.896C122.688 80.896 125.424 83.248 125.424 86.152C125.424 89.032 122.688 91.408 119.328 91.408C117.024 91.408 115.032 90.304 113.976 88.672L113.136 89.464C115.272 93.256 121.944 92.56 125.352 92.368L122.16 97H112.296ZM115.344 88.384C116.112 88.84 117.456 88.048 118.32 86.56C119.16 85.12 119.184 83.56 118.368 83.104C117.552 82.624 116.208 83.416 115.368 84.88C114.528 86.368 114.504 87.928 115.344 88.384ZM126.133 90.856C127.717 91.432 130.045 91.936 131.845 91.936C132.997 91.936 135.229 91.624 135.229 90.688C135.229 88.888 126.613 89.704 126.613 85.216C126.613 82.888 128.461 81.04 133.045 81.04C137.005 81.04 139.837 81.976 140.533 82.24V87.832C139.165 87.28 137.605 86.512 135.757 86.512C134.437 86.512 132.925 86.752 132.925 87.4C132.925 89.008 141.493 88.36 141.493 93.088C141.493 94.792 140.653 95.896 139.333 97H129.853L126.133 90.856Z" fill="#FFFCF5"/>
</g>
<defs>
<clipPath id="clip0_718_13131">
<rect width="175" height="175" rx="30" fill="white"/>
</clipPath>
</defs>
</svg>
