<svg width="62" height="71" viewBox="0 0 62 71" fill="none" xmlns="http://www.w3.org/2000/svg">
<path d="M30.3498 56.409C30.8939 56.3098 30.8174 55.8167 30.9279 55.4313C34.3513 43.4466 37.6358 25.9329 48.6739 18.1992C50.3063 17.0543 55.6284 14.4414 57.3656 15.5778C58.3433 16.2183 60.6643 27.2989 60.9137 29.1013C64.1953 52.8609 49.1189 76.3456 22.9221 69.9268C0.749427 64.4942 -3.1869 39.7682 2.08987 20.6392C2.5263 19.0607 3.12709 15.2859 4.97764 15.3142C15.4745 15.4729 22.7209 30.5664 25.8212 38.9718C27.8786 44.549 29.5024 50.5172 30.3526 56.4061L30.3498 56.409ZM14.0094 56.8766C6.18206 48.5477 6.11405 35.3728 8.26783 24.8051C8.38402 24.1617 7.57919 23.4788 7.00673 23.5836C5.91567 23.7848 5.68329 26.4799 5.49625 27.4491C3.07324 40.0346 5.63795 55.2896 17.3336 62.4792C18.0052 62.8902 20.074 64.0606 20.7116 64.2249C22.1796 64.6047 22.9051 63.2019 21.8282 62.2327C19.0793 60.8781 16.1121 59.1154 14.0094 56.8766Z" fill="#FFAAC3"/>
<path d="M30.9107 45.9264C30.2192 46.0143 30.4601 45.9264 30.3184 45.5325C27.2322 37.0676 25.5007 30.2265 19.9802 22.7137C18.5661 20.7923 16.8176 19.1288 15.3921 17.2244C17.271 10.474 22.4231 0.192529 30.4827 0.00265645C38.7465 -0.192884 43.9297 10.4513 45.8823 17.2216C44.3491 19.1515 42.6233 20.8773 41.1723 22.8866C36.3065 29.6143 32.9823 37.9149 30.9163 45.9321L30.9107 45.9264ZM20.2154 19.7835C20.6859 20.2652 21.5842 20.0838 21.9725 19.5567C23.0465 16.3232 24.2113 13.2343 26.144 10.4117C26.7221 9.56716 27.8585 8.88418 28.1533 7.8668C28.4196 6.95144 27.7565 6.38749 26.8185 6.52919C24.5853 6.86926 20.3401 16.2099 19.9746 18.4345C19.898 18.8993 19.8612 19.4207 20.2154 19.7835Z" fill="#FFAAC3"/>
<path d="M14.0092 56.8767C16.112 59.1155 19.0819 60.8782 21.828 62.2328C22.9049 63.202 22.1766 64.6048 20.7114 64.2251C20.0738 64.0607 18.0022 62.8903 17.3334 62.4793C5.63776 55.2925 3.07589 40.0347 5.49607 27.4492C5.68311 26.48 5.91832 23.7849 7.00655 23.5837C7.579 23.4789 8.38384 24.1619 8.26765 24.8052C6.11386 35.37 6.17905 48.5478 14.0092 56.8767Z" fill="white"/>
<path d="M20.2158 19.7833C19.8616 19.4205 19.8984 18.8991 19.9749 18.4343C20.3405 16.2097 24.5857 6.86908 26.8188 6.52901C27.7597 6.38448 28.42 6.95127 28.1536 7.86663C27.8561 8.884 26.7225 9.56698 26.1444 10.4115C24.2116 13.2369 23.0469 16.3231 21.9728 19.5566C21.5846 20.0837 20.6862 20.2651 20.2158 19.7833Z" fill="white"/>
</svg>
