<svg width="103" height="120" viewBox="0 0 103 120" fill="none" xmlns="http://www.w3.org/2000/svg">
<path d="M50.9466 94.6909C51.8599 94.5244 51.7315 93.6967 51.917 93.0497C57.6637 72.9317 63.1772 43.5324 81.7064 30.5501C84.4465 28.6282 93.3804 24.2421 96.2966 26.1498C97.9378 27.2249 101.834 45.8254 102.253 48.8509C107.761 88.735 82.4532 128.158 38.478 117.383C1.25802 108.263 -5.34968 66.7569 3.50816 34.6461C4.24076 31.9963 5.24928 25.6598 8.3557 25.7073C25.9762 25.9737 38.1403 51.3104 43.3446 65.4201C46.7983 74.7822 49.5242 84.8008 50.9513 94.6862L50.9466 94.6909ZM23.5168 95.4759C10.3775 81.4946 10.2633 59.3785 13.8788 41.6391C14.0738 40.5592 12.7228 39.4127 11.7618 39.5887C9.93032 39.9265 9.54024 44.4506 9.22626 46.0775C5.15889 67.2041 9.46412 92.8118 29.0969 104.881C30.2244 105.571 33.6971 107.535 34.7675 107.811C37.2317 108.449 38.4495 106.094 36.6418 104.467C32.0273 102.193 27.0466 99.234 23.5168 95.4759Z" fill="#FFAAC3"/>
<path d="M51.8886 77.0942C50.7278 77.2417 51.1322 77.0942 50.8943 76.433C45.7138 62.2234 42.8072 50.7396 33.5402 38.1283C31.1664 34.903 28.2312 32.1105 25.8384 28.9137C28.9924 17.5822 37.6409 0.323189 51.1703 0.00445924C65.0421 -0.323785 73.743 17.5441 77.0207 28.909C74.447 32.1486 71.5499 35.0457 69.1143 38.4185C60.9462 49.712 55.3661 63.6457 51.8981 77.1037L51.8886 77.0942ZM33.9351 33.2094C34.7248 34.0182 36.2328 33.7137 36.8845 32.8289C38.6875 27.4009 40.6427 22.2156 43.887 17.4775C44.8575 16.0599 46.7651 14.9134 47.2599 13.2056C47.707 11.669 46.5939 10.7223 45.0193 10.9602C41.2706 11.5311 34.1444 27.2107 33.5307 30.945C33.4023 31.7252 33.3404 32.6005 33.9351 33.2094Z" fill="#FFAAC3"/>
<path d="M23.517 95.4758C27.0468 99.234 32.0323 102.193 36.642 104.467C38.4497 106.094 37.2271 108.449 34.7676 107.811C33.6973 107.535 30.2198 105.57 29.0971 104.881C9.46431 92.8165 5.16384 67.204 9.22645 46.0775C9.54042 44.4505 9.93527 39.9264 11.762 39.5887C12.723 39.4127 14.074 40.5592 13.879 41.639C10.2635 59.3737 10.3729 81.4945 23.517 95.4758Z" fill="#F5F5F5"/>
<path d="M33.935 33.2094C33.3404 32.6005 33.4022 31.7251 33.5307 30.945C34.1443 27.2106 41.2706 11.531 45.0192 10.9601C46.5986 10.7175 47.707 11.6689 47.2598 13.2055C46.7603 14.9133 44.8575 16.0598 43.887 17.4774C40.6426 22.2203 38.6874 27.4009 36.8844 32.8288C36.2327 33.7136 34.7247 34.0181 33.935 33.2094Z" fill="#F5F5F5"/>
</svg>
