<svg width="175" height="207" viewBox="0 0 175 207" fill="none" xmlns="http://www.w3.org/2000/svg">
<g clip-path="url(#clip0_718_13132)">
<rect width="175" height="207" rx="30" fill="#69E093"/>
<path d="M152.034 171.157C163.613 159.646 144.331 121.814 108.966 86.6574C73.6009 51.5004 35.5451 32.3315 23.9659 43.8426C12.3868 55.3536 31.669 93.1856 67.0341 128.343C102.399 163.5 140.455 182.668 152.034 171.157Z" fill="#63A7F7"/>
<path d="M108.966 128.343C144.331 93.1856 163.613 55.3536 152.034 43.8426C140.455 32.3315 102.399 51.5004 67.0341 86.6574C31.669 121.814 12.3868 159.646 23.9659 171.157C35.5451 182.668 73.6009 163.5 108.966 128.343Z" fill="#63A7F7"/>
<rect width="175" height="207" fill="#755D7B" fill-opacity="0.24"/>
<path d="M40.2349 113.384C35.9389 113.384 32.5549 112.448 31.8589 111.944V106.04C33.4429 106.856 35.2909 107.84 38.2909 107.84C39.4429 107.84 41.6749 107.984 41.6749 105.848C41.6749 102.848 32.3389 103.304 32.3389 98.816C32.3389 96.488 34.1869 93.44 39.4909 93.44C43.4509 93.44 47.0029 94.376 47.6989 94.64V100.232C46.3309 99.68 44.0509 98.912 42.2029 98.912C40.8829 98.912 39.3709 99.224 39.3709 100.352C39.3709 103.4 48.6589 102.584 48.6589 107.312C48.6589 109.016 47.8189 113.384 40.2349 113.384ZM62.2005 112.088C58.7205 114.392 53.8725 113.12 51.3285 109.232C48.8325 105.368 49.6245 100.4 53.1285 98.12C56.6085 95.84 61.4565 97.112 64.0005 100.976C66.4965 104.84 65.7045 109.808 62.2005 112.088ZM56.4405 111.224C57.4965 111.872 59.5845 110.456 61.0965 108.08C62.5845 105.68 62.9205 103.28 61.8645 102.632C60.7605 101.984 58.6725 103.352 57.2085 105.776C55.6725 108.152 55.3605 110.576 56.4405 111.224ZM84.3036 97.4V113H77.5836L77.5116 111.296C78.1836 110.36 79.3836 107.624 79.8876 104.672L78.6876 104.552C77.6316 110.288 75.2076 113.384 71.9916 113.384C68.8716 113.384 67.2636 111.128 67.2636 107.072V97.4H73.9836V107.072C73.9836 108.704 74.1996 109.592 75.0156 109.592C76.5996 109.592 77.5836 105.248 77.5836 97.4H84.3036ZM86.6961 113V97.4H93.4161L93.4881 99.104C92.8161 100.04 91.6161 102.776 91.1121 105.728L92.3121 105.848C93.3681 100.112 95.7921 97.016 99.0081 97.016C102.128 97.016 103.736 99.272 103.736 103.328V113H97.0161V103.328C97.0161 101.696 96.8001 100.808 95.9841 100.808C94.4001 100.808 93.4161 105.152 93.4161 113H86.6961ZM120.097 113V109.76C119.569 110.648 118.729 111.512 117.865 112.088C114.385 114.392 109.537 113.12 106.993 109.232C104.497 105.368 105.289 100.4 108.793 98.12C112.273 95.84 117.097 97.16 119.665 100.976C121.057 103.04 121.153 105.32 121.153 105.896L122.401 105.728C122.401 102.608 120.985 99.968 120.025 99.104L120.097 93.8H126.817V113H120.097ZM111.841 111.152C112.945 111.8 115.033 110.432 116.497 108.008C118.033 105.632 118.345 103.208 117.265 102.56C116.209 101.912 114.121 103.328 112.609 105.704C111.121 108.104 110.785 110.504 111.841 111.152ZM128.012 106.856C129.596 107.432 131.924 107.936 133.724 107.936C134.876 107.936 137.108 107.624 137.108 106.688C137.108 104.888 128.492 105.704 128.492 101.216C128.492 98.888 130.34 97.04 134.924 97.04C138.884 97.04 141.716 97.976 142.412 98.24V103.832C141.044 103.28 139.484 102.512 137.636 102.512C136.316 102.512 134.804 102.752 134.804 103.4C134.804 105.008 143.372 104.36 143.372 109.088C143.372 110.792 142.532 111.896 141.212 113H131.732L128.012 106.856Z" fill="#FFFCF5"/>
</g>
<defs>
<clipPath id="clip0_718_13132">
<rect width="175" height="207" rx="30" fill="white"/>
</clipPath>
</defs>
</svg>
