<svg width="265" height="265" viewBox="0 0 265 265" fill="none" xmlns="http://www.w3.org/2000/svg">
<g clip-path="url(#clip0_630_15291)">
<path d="M132.5 0L158.88 34.0499L198.75 17.7516L204.571 60.4295L247.248 66.25L230.95 106.12L265 132.5L230.95 158.88L247.248 198.75L204.571 204.571L198.75 247.248L158.88 230.95L132.5 265L106.12 230.95L66.25 247.248L60.4295 204.571L17.7516 198.75L34.0499 158.88L0 132.5L34.0499 106.12L17.7516 66.25L60.4295 60.4295L66.25 17.7516L106.12 34.0499L132.5 0Z" fill="#FFFCF5"/>
<path d="M76 132.786C76 101.424 101.424 76 132.786 76C164.148 76 189.571 101.424 189.571 132.786C189.571 164.148 164.148 189.571 132.786 189.571C101.424 189.571 76 164.148 76 132.786Z" fill="#FFAAC3"/>
<path d="M128.54 151.272C127.556 151.272 126.715 150.835 126.018 149.96L115.395 136.671C115.135 136.356 114.943 136.048 114.82 135.748C114.711 135.447 114.656 135.139 114.656 134.825C114.656 134.114 114.889 133.526 115.354 133.061C115.832 132.596 116.434 132.364 117.158 132.364C117.992 132.364 118.696 132.74 119.271 133.492L128.458 145.284L146.259 117.004C146.573 116.525 146.895 116.19 147.223 115.999C147.551 115.794 147.975 115.691 148.494 115.691C149.205 115.691 149.786 115.917 150.237 116.368C150.688 116.805 150.914 117.38 150.914 118.09C150.914 118.378 150.866 118.672 150.771 118.972C150.675 119.259 150.524 119.567 150.319 119.895L131.042 149.939C130.44 150.828 129.606 151.272 128.54 151.272Z" fill="#FFFCF5"/>
</g>
<defs>
<clipPath id="clip0_630_15291">
<rect width="265" height="265" fill="white"/>
</clipPath>
</defs>
</svg>
