<svg width="362" height="240" viewBox="0 0 362 240" fill="none" xmlns="http://www.w3.org/2000/svg">
<g clip-path="url(#clip0_612_7232)">
<path d="M0 30C0 13.4315 13.4315 0 30 0H332C348.569 0 362 13.4315 362 30V210C362 226.569 348.569 240 332 240H30C13.4315 240 0 226.569 0 210V30Z" fill="#465AE1"/>
<g opacity="0.55">
<path d="M-32 48C-32 3.81722 3.81722 -32 48 -32C92.1828 -32 128 3.81722 128 48C128 92.1828 92.1828 128 48 128C3.81722 128 -32 92.1828 -32 48Z" fill="#FFD719"/>
</g>
<g opacity="0.7">
<path d="M262 208C262 177.072 287.072 152 318 152C348.928 152 374 177.072 374 208C374 238.928 348.928 264 318 264C287.072 264 262 238.928 262 208Z" fill="#FFD719"/>
</g>
<path d="M306 34C306 28.4772 310.477 24 316 24C321.523 24 326 28.4772 326 34C326 39.5228 321.523 44 316 44C310.477 44 306 39.5228 306 34Z" fill="#FFD719"/>
<path d="M24.9883 101.5V93.7495H25.9551V97.1011H30.209V93.7495H31.1758V101.5H30.209V97.9712H25.9551V101.5H24.9883ZM35.9023 101.5V93.7495H40.7041V94.6196H36.8691V97.1064H40.5054V97.9658H36.8691V100.63H40.7041V101.5H35.9023ZM45.2051 101.5V93.7495H46.1719V100.63H49.9102V101.5H45.2051ZM54.6904 98.7339V97.8745H56.8818C57.4368 97.8745 57.8665 97.7313 58.1709 97.4448C58.4753 97.1548 58.6274 96.7555 58.6274 96.2471V96.2363C58.6274 95.7243 58.4753 95.325 58.1709 95.0386C57.8665 94.7521 57.4368 94.6089 56.8818 94.6089H54.6904V93.7495H57.1289C57.6159 93.7495 58.0456 93.8534 58.418 94.061C58.7904 94.2687 59.0822 94.5588 59.2935 94.9312C59.5083 95.3035 59.6157 95.735 59.6157 96.2256V96.2363C59.6157 96.7269 59.5083 97.1602 59.2935 97.5361C59.0822 97.9121 58.7904 98.2057 58.418 98.417C58.0456 98.6283 57.6159 98.7339 57.1289 98.7339H54.6904ZM54.207 101.5V93.7495H55.1738V101.5H54.207ZM63.9502 101.5V93.7495H64.917V100.63H68.6553V101.5H63.9502ZM72.9521 101.5V93.7495H73.9189V101.5H72.9521ZM78.6455 101.5V93.7495H79.5854L84.0273 100.12L83.3828 99.7812H83.877V93.7495H84.833V101.5H83.8931L79.4512 95.1514L80.0957 95.4897H79.6016V101.5H78.6455ZM89.5596 101.5V93.7495H94.3613V94.6196H90.5264V97.1064H94.1626V97.9658H90.5264V100.63H94.3613V101.5H89.5596Z" fill="#FFFCF5" fill-opacity="0.85"/>
<path d="M25.6 146.25V120.65H37.312L39.136 128.138V138.25H40.736V128.138L42.56 120.65H54.272V146.25H45.76V137.898L47.808 126.762L46.272 126.538L42.56 146.25H37.312L33.6 126.538L32.064 126.762L34.112 137.898V146.25H25.6ZM62.051 146.25C60.099 144.522 56.899 141.674 56.835 136.266C56.707 126.954 64.451 124.778 68.611 124.778C75.907 124.778 79.555 127.914 79.555 131.786C79.555 135.626 75.907 138.794 71.427 138.794C68.355 138.794 65.699 137.322 64.291 135.146L63.171 136.202C66.019 141.258 74.915 140.33 79.459 140.074L75.203 146.25H62.051ZM66.115 134.762C67.139 135.37 68.931 134.314 70.083 132.33C71.203 130.41 71.235 128.33 70.147 127.722C69.059 127.082 67.267 128.138 66.147 130.09C65.027 132.074 64.995 134.154 66.115 134.762ZM82.1 146.25V125.45H91.06L91.156 127.722C90.26 128.97 88.66 132.618 87.988 136.554L89.588 136.714C90.996 129.066 94.228 124.938 98.516 124.938C102.676 124.938 104.82 127.946 104.82 133.354V146.25H95.86V133.354C95.86 131.178 95.572 129.994 94.484 129.994C92.372 129.994 91.06 135.786 91.06 146.25H82.1ZM119.946 146.762C113.578 146.762 108.426 142.218 108.426 136.618C108.426 135.082 109.418 134.218 109.674 133.962H106.57V130.762C110.218 130.762 116.266 127.178 113.066 122.666H124.17C124.17 126.282 119.37 129.546 113.514 131.114L114.026 132.618C116.266 132.01 117.514 131.434 119.146 130.762H126.986V133.962H117.706C117.418 134.09 116.362 135.338 117.226 136.33C118.122 137.386 121.738 137.002 122.922 136.746C124.458 136.426 125.834 136.01 126.986 135.594V144.65C125.034 145.994 122.602 146.762 119.946 146.762ZM148.882 143.978C150.162 142.826 152.05 139.306 152.05 135.146L150.386 134.922C150.386 135.69 150.258 138.73 148.402 141.482C144.978 146.57 138.546 148.33 133.906 145.29C129.234 142.25 128.178 135.626 131.506 130.474C134.898 125.29 141.362 123.594 146.002 126.666C147.154 127.434 148.274 128.586 148.978 129.77V125.45H157.938V146.25H148.978L148.882 143.978ZM138.322 143.754C139.794 144.618 142.578 142.794 144.53 139.562C146.578 136.394 146.994 133.162 145.554 132.298C144.146 131.434 141.362 133.322 139.346 136.49C137.362 139.69 136.914 142.89 138.322 143.754ZM161.131 146.25V120.65H169.963V146.25H161.131ZM184.35 146.25V120.65H193.31L193.406 127.722C192.51 128.97 190.91 132.618 190.238 136.554L191.838 136.714C193.246 129.066 196.478 124.938 200.766 124.938C204.926 124.938 207.07 127.946 207.07 133.354V146.25H198.11V133.354C198.11 131.178 197.822 129.994 196.734 129.994C194.622 129.994 193.31 135.786 193.31 146.25H184.35ZM214.676 146.25C212.724 144.522 209.524 141.674 209.46 136.266C209.332 126.954 217.076 124.778 221.236 124.778C228.532 124.778 232.18 127.914 232.18 131.786C232.18 135.626 228.532 138.794 224.052 138.794C220.98 138.794 218.324 137.322 216.916 135.146L215.796 136.202C218.644 141.258 227.54 140.33 232.084 140.074L227.828 146.25H214.676ZM218.74 134.762C219.764 135.37 221.556 134.314 222.708 132.33C223.828 130.41 223.86 128.33 222.772 127.722C221.684 127.082 219.892 128.138 218.772 130.09C217.652 132.074 217.62 134.154 218.74 134.762ZM253.413 143.978C254.693 142.826 256.581 139.306 256.581 135.146L254.917 134.922C254.917 135.69 254.789 138.73 252.933 141.482C249.509 146.57 243.077 148.33 238.437 145.29C233.765 142.25 232.709 135.626 236.037 130.474C239.429 125.29 245.893 123.594 250.533 126.666C251.685 127.434 252.805 128.586 253.509 129.77V125.45H262.469V146.25H253.509L253.413 143.978ZM242.853 143.754C244.325 144.618 247.109 142.794 249.061 139.562C251.109 136.394 251.525 133.162 250.085 132.298C248.677 131.434 245.893 133.322 243.877 136.49C241.893 139.69 241.445 142.89 242.853 143.754ZM265.663 146.25V120.65H274.495V146.25H265.663ZM289.79 146.762C283.422 146.762 278.27 142.218 278.27 136.618C278.27 135.082 279.262 134.218 279.518 133.962H276.414V130.762C280.062 130.762 286.11 127.178 282.91 122.666H294.014C294.014 126.282 289.214 129.546 283.358 131.114L283.87 132.618C286.11 132.01 287.358 131.434 288.99 130.762H296.83V133.962H287.55C287.262 134.09 286.206 135.338 287.07 136.33C287.966 137.386 291.582 137.002 292.766 136.746C294.302 136.426 295.678 136.01 296.83 135.594V144.65C294.878 145.994 292.446 146.762 289.79 146.762ZM300.038 146.25V120.65H308.998L309.094 127.722C308.198 128.97 306.598 132.618 305.926 136.554L307.526 136.714C308.934 129.066 312.166 124.938 316.454 124.938C320.614 124.938 322.758 127.946 322.758 133.354V146.25H313.798V133.354C313.798 131.178 313.51 129.994 312.422 129.994C310.31 129.994 308.998 135.786 308.998 146.25H300.038ZM24 178.058C26.112 178.826 29.216 179.498 31.616 179.498C33.152 179.498 36.128 179.082 36.128 177.834C36.128 175.434 24.64 176.522 24.64 170.538C24.64 167.434 27.104 164.97 33.216 164.97C38.496 164.97 42.272 166.218 43.2 166.57V174.026C41.376 173.29 39.296 172.266 36.832 172.266C35.072 172.266 33.056 172.586 33.056 173.45C33.056 175.594 44.48 174.73 44.48 181.034C44.48 183.306 43.36 184.778 41.6 186.25H28.96L24 178.058ZM68.9725 165.45V186.25H60.0125L59.9165 183.978C60.8125 182.73 62.4125 179.082 63.0845 175.146L61.4845 174.986C60.0765 182.634 56.8445 186.762 52.5565 186.762C48.3965 186.762 46.2525 183.754 46.2525 178.346V165.45H55.2125V178.346C55.2125 180.522 55.5005 181.706 56.5885 181.706C58.7005 181.706 60.0125 175.914 60.0125 165.45H68.9725ZM72.1625 192.65V165.45H81.1225L81.2185 167.722C79.9385 168.874 78.0505 172.394 78.0505 176.554L79.7145 176.778C79.7145 176.01 79.8425 172.97 81.6985 170.218C85.1225 165.13 91.5545 163.37 96.1945 166.41C100.867 169.45 101.923 176.074 98.5945 181.226C95.2025 186.41 88.7385 188.106 84.0985 185.034C82.9465 184.266 81.8265 183.114 81.1225 181.93V192.65H72.1625ZM85.0905 179.722C86.4985 180.586 89.2825 178.698 91.2985 175.53C93.2825 172.33 93.7305 169.13 92.3225 168.266C90.8505 167.402 88.0665 169.226 86.1145 172.458C84.0665 175.626 83.6505 178.858 85.0905 179.722ZM103.1 192.65V165.45H112.06L112.156 167.722C110.876 168.874 108.988 172.394 108.988 176.554L110.652 176.778C110.652 176.01 110.78 172.97 112.636 170.218C116.06 165.13 122.492 163.37 127.132 166.41C131.804 169.45 132.86 176.074 129.532 181.226C126.14 186.41 119.676 188.106 115.036 185.034C113.884 184.266 112.764 183.114 112.06 181.93V192.65H103.1ZM116.028 179.722C117.436 180.586 120.22 178.698 122.236 175.53C124.22 172.33 124.668 169.13 123.26 168.266C121.788 167.402 119.004 169.226 117.052 172.458C115.004 175.626 114.588 178.858 116.028 179.722ZM149.846 185.034C145.206 188.106 138.742 186.41 135.35 181.226C132.021 176.074 133.078 169.45 137.75 166.41C142.39 163.37 148.854 165.066 152.246 170.218C155.574 175.37 154.518 181.994 149.846 185.034ZM142.166 183.882C143.574 184.746 146.358 182.858 148.374 179.69C150.358 176.49 150.806 173.29 149.398 172.426C147.926 171.562 145.142 173.386 143.19 176.618C141.142 179.786 140.726 183.018 142.166 183.882ZM156.756 186.25V165.45H165.716L165.812 167.402C164.916 168.65 163.316 172.618 162.644 176.554L164.148 176.714C165.364 169.066 168.244 164.938 172.532 164.938C176.692 164.938 178.196 168.586 178.196 173.994H169.236C169.236 171.818 169.588 169.994 168.532 169.994C167.028 169.994 165.716 175.786 165.716 186.25H156.756ZM191.884 186.762C185.516 186.762 180.364 182.218 180.364 176.618C180.364 175.082 181.356 174.218 181.612 173.962H178.508V170.762C182.156 170.762 188.204 167.178 185.004 162.666H196.108C196.108 166.282 191.308 169.546 185.452 171.114L185.964 172.618C188.204 172.01 189.452 171.434 191.084 170.762H198.924V173.962H189.644C189.356 174.09 188.3 175.338 189.164 176.33C190.06 177.386 193.676 177.002 194.86 176.746C196.396 176.426 197.772 176.01 198.924 175.594V184.65C196.972 185.994 194.54 186.762 191.884 186.762Z" fill="#FFFCF5"/>
<path d="M27.2627 211.75V203.86H27.1611L24.8315 205.548V204.342L27.269 202.59H28.4053V211.75H27.2627ZM30.9634 208.576V207.548H35.229V208.576H30.9634ZM40.3135 211.902C39.666 211.902 39.0926 211.79 38.5933 211.566C38.0939 211.342 37.7004 211.033 37.4126 210.639C37.1291 210.241 36.9873 209.786 36.9873 209.274V209.262C36.9873 208.885 37.0698 208.536 37.2349 208.214C37.3999 207.893 37.6305 207.62 37.9268 207.396C38.223 207.167 38.5658 207.008 38.9551 206.919V206.894C38.4557 206.737 38.0579 206.479 37.7617 206.12C37.4655 205.76 37.3174 205.339 37.3174 204.856V204.844C37.3174 204.382 37.4465 203.972 37.7046 203.612C37.9627 203.248 38.3182 202.963 38.771 202.755C39.2238 202.544 39.738 202.438 40.3135 202.438C40.8932 202.438 41.4074 202.544 41.856 202.755C42.3088 202.963 42.6642 203.248 42.9224 203.612C43.1805 203.972 43.3096 204.382 43.3096 204.844V204.856C43.3096 205.339 43.1615 205.76 42.8652 206.12C42.5732 206.479 42.1755 206.737 41.6719 206.894V206.919C42.0654 207.008 42.4082 207.167 42.7002 207.396C42.9964 207.62 43.2271 207.893 43.3921 208.214C43.5571 208.536 43.6396 208.885 43.6396 209.262V209.274C43.6396 209.786 43.4979 210.241 43.2144 210.639C42.9308 211.033 42.5373 211.342 42.0337 211.566C41.5343 211.79 40.9609 211.902 40.3135 211.902ZM40.3135 210.906C40.7367 210.906 41.109 210.834 41.4307 210.69C41.7565 210.542 42.0125 210.341 42.1987 210.087C42.3849 209.829 42.478 209.535 42.478 209.205V209.192C42.478 208.858 42.3849 208.561 42.1987 208.303C42.0168 208.045 41.7629 207.842 41.437 207.694C41.1112 207.546 40.7367 207.472 40.3135 207.472C39.8903 207.472 39.5158 207.546 39.1899 207.694C38.8641 207.842 38.6081 208.045 38.4219 208.303C38.2399 208.561 38.1489 208.858 38.1489 209.192V209.205C38.1489 209.535 38.242 209.829 38.4282 210.087C38.6144 210.341 38.8704 210.542 39.1963 210.69C39.5221 210.834 39.8945 210.906 40.3135 210.906ZM40.3135 206.469C40.6816 206.469 41.0054 206.405 41.2847 206.278C41.564 206.147 41.7819 205.967 41.9385 205.739C42.0951 205.51 42.1733 205.248 42.1733 204.952V204.939C42.1733 204.643 42.0951 204.38 41.9385 204.152C41.7819 203.923 41.564 203.746 41.2847 203.619C41.0054 203.487 40.6816 203.422 40.3135 203.422C39.9453 203.422 39.6216 203.487 39.3423 203.619C39.063 203.746 38.8451 203.923 38.6885 204.152C38.5319 204.38 38.4536 204.643 38.4536 204.939V204.952C38.4536 205.248 38.5319 205.51 38.6885 205.739C38.8451 205.967 39.063 206.147 39.3423 206.278C39.6216 206.405 39.9453 206.469 40.3135 206.469ZM48.5527 211.966C47.8757 211.966 47.2959 211.771 46.8135 211.382C46.3353 210.993 45.9671 210.44 45.709 209.725C45.4508 209.006 45.3218 208.155 45.3218 207.173V207.161C45.3218 206.179 45.4508 205.33 45.709 204.615C45.9671 203.9 46.3353 203.348 46.8135 202.958C47.2959 202.569 47.8757 202.375 48.5527 202.375C49.2298 202.375 49.8096 202.569 50.292 202.958C50.7744 203.348 51.1447 203.9 51.4028 204.615C51.6652 205.33 51.7964 206.179 51.7964 207.161V207.173C51.7964 208.155 51.6652 209.006 51.4028 209.725C51.1447 210.44 50.7744 210.993 50.292 211.382C49.8096 211.771 49.2298 211.966 48.5527 211.966ZM48.5527 210.969C48.9928 210.969 49.3674 210.815 49.6763 210.506C49.9894 210.197 50.2285 209.759 50.3936 209.192C50.5628 208.625 50.6475 207.952 50.6475 207.173V207.161C50.6475 206.382 50.5628 205.711 50.3936 205.148C50.2285 204.581 49.9894 204.146 49.6763 203.841C49.3674 203.532 48.9928 203.377 48.5527 203.377C48.1169 203.377 47.7424 203.532 47.4292 203.841C47.1203 204.146 46.8833 204.581 46.7183 205.148C46.5532 205.711 46.4707 206.382 46.4707 207.161V207.173C46.4707 207.952 46.5532 208.625 46.7183 209.192C46.8833 209.759 47.1203 210.197 47.4292 210.506C47.7424 210.815 48.1169 210.969 48.5527 210.969ZM56.7412 211.966C56.0641 211.966 55.4844 211.771 55.002 211.382C54.5238 210.993 54.1556 210.44 53.8975 209.725C53.6393 209.006 53.5103 208.155 53.5103 207.173V207.161C53.5103 206.179 53.6393 205.33 53.8975 204.615C54.1556 203.9 54.5238 203.348 55.002 202.958C55.4844 202.569 56.0641 202.375 56.7412 202.375C57.4183 202.375 57.998 202.569 58.4805 202.958C58.9629 203.348 59.3332 203.9 59.5913 204.615C59.8537 205.33 59.9849 206.179 59.9849 207.161V207.173C59.9849 208.155 59.8537 209.006 59.5913 209.725C59.3332 210.44 58.9629 210.993 58.4805 211.382C57.998 211.771 57.4183 211.966 56.7412 211.966ZM56.7412 210.969C57.1813 210.969 57.5558 210.815 57.8647 210.506C58.1779 210.197 58.417 209.759 58.582 209.192C58.7513 208.625 58.8359 207.952 58.8359 207.173V207.161C58.8359 206.382 58.7513 205.711 58.582 205.148C58.417 204.581 58.1779 204.146 57.8647 203.841C57.5558 203.532 57.1813 203.377 56.7412 203.377C56.3053 203.377 55.9308 203.532 55.6177 203.841C55.3088 204.146 55.0718 204.581 54.9067 205.148C54.7417 205.711 54.6592 206.382 54.6592 207.161V207.173C54.6592 207.952 54.7417 208.625 54.9067 209.192C55.0718 209.759 55.3088 210.197 55.6177 210.506C55.9308 210.815 56.3053 210.969 56.7412 210.969ZM61.7749 208.576V207.548H66.0405V208.576H61.7749ZM71.2329 211.966C70.814 211.966 70.3993 211.885 69.9888 211.725C69.5825 211.564 69.2122 211.304 68.8779 210.944C68.5479 210.584 68.2834 210.11 68.0845 209.522C67.8856 208.93 67.7861 208.202 67.7861 207.338V207.326C67.7861 206.285 67.9258 205.396 68.2051 204.66C68.4844 203.919 68.8864 203.354 69.4111 202.965C69.9359 202.571 70.5685 202.375 71.3091 202.375C71.8211 202.375 72.2824 202.47 72.6929 202.66C73.1076 202.846 73.4525 203.109 73.7275 203.447C74.0068 203.782 74.1973 204.175 74.2988 204.628L74.3179 204.71H73.1689L73.1436 204.641C73.0505 204.382 72.9172 204.162 72.7437 203.98C72.5744 203.794 72.367 203.65 72.1216 203.549C71.8804 203.447 71.6053 203.396 71.2964 203.396C70.742 203.396 70.2913 203.559 69.9443 203.885C69.5973 204.207 69.3392 204.636 69.1699 205.174C69.0049 205.707 68.9097 206.293 68.8843 206.932C68.88 206.987 68.8779 207.044 68.8779 207.104C68.8779 207.159 68.8779 207.216 68.8779 207.275L69.1509 208.798C69.1509 209.2 69.2419 209.564 69.4238 209.89C69.61 210.216 69.8597 210.476 70.1729 210.671C70.486 210.861 70.8351 210.957 71.2202 210.957C71.6053 210.957 71.9544 210.863 72.2676 210.677C72.5807 210.487 72.8283 210.231 73.0103 209.909C73.1965 209.588 73.2896 209.23 73.2896 208.836V208.824C73.2896 208.417 73.2007 208.058 73.0229 207.745C72.8494 207.427 72.6082 207.18 72.2993 207.002C71.9904 206.82 71.637 206.729 71.2393 206.729C70.8457 206.729 70.4902 206.818 70.1729 206.996C69.8597 207.173 69.61 207.419 69.4238 207.732C69.2419 208.041 69.1509 208.394 69.1509 208.792V208.798H68.7764V207.148H68.9985C69.1128 206.898 69.2821 206.666 69.5063 206.45C69.7306 206.234 70.0057 206.06 70.3315 205.929C70.6574 205.798 71.0256 205.732 71.436 205.732C72.0116 205.732 72.5257 205.866 72.9785 206.132C73.4313 206.399 73.7868 206.763 74.0449 207.224C74.3073 207.685 74.4385 208.21 74.4385 208.798V208.811C74.4385 209.42 74.2988 209.962 74.0195 210.436C73.7445 210.91 73.3657 211.285 72.8833 211.56C72.4009 211.83 71.8507 211.966 71.2329 211.966ZM79.5103 211.966C79.0913 211.966 78.6766 211.885 78.2661 211.725C77.8599 211.564 77.4896 211.304 77.1553 210.944C76.8252 210.584 76.5607 210.11 76.3618 209.522C76.1629 208.93 76.0635 208.202 76.0635 207.338V207.326C76.0635 206.285 76.2031 205.396 76.4824 204.66C76.7617 203.919 77.1637 203.354 77.6885 202.965C78.2132 202.571 78.8459 202.375 79.5864 202.375C80.0985 202.375 80.5597 202.47 80.9702 202.66C81.3849 202.846 81.7298 203.109 82.0049 203.447C82.2842 203.782 82.4746 204.175 82.5762 204.628L82.5952 204.71H81.4463L81.4209 204.641C81.3278 204.382 81.1945 204.162 81.021 203.98C80.8517 203.794 80.6444 203.65 80.3989 203.549C80.1577 203.447 79.8826 203.396 79.5737 203.396C79.0194 203.396 78.5687 203.559 78.2217 203.885C77.8747 204.207 77.6165 204.636 77.4473 205.174C77.2822 205.707 77.187 206.293 77.1616 206.932C77.1574 206.987 77.1553 207.044 77.1553 207.104C77.1553 207.159 77.1553 207.216 77.1553 207.275L77.4282 208.798C77.4282 209.2 77.5192 209.564 77.7012 209.89C77.8874 210.216 78.137 210.476 78.4502 210.671C78.7633 210.861 79.1125 210.957 79.4976 210.957C79.8826 210.957 80.2318 210.863 80.5449 210.677C80.8581 210.487 81.1056 210.231 81.2876 209.909C81.4738 209.588 81.5669 209.23 81.5669 208.836V208.824C81.5669 208.417 81.478 208.058 81.3003 207.745C81.1268 207.427 80.8856 207.18 80.5767 207.002C80.2677 206.82 79.9144 206.729 79.5166 206.729C79.123 206.729 78.7676 206.818 78.4502 206.996C78.137 207.173 77.8874 207.419 77.7012 207.732C77.5192 208.041 77.4282 208.394 77.4282 208.792V208.798H77.0537V207.148H77.2759C77.3901 206.898 77.5594 206.666 77.7837 206.45C78.008 206.234 78.283 206.06 78.6089 205.929C78.9347 205.798 79.3029 205.732 79.7134 205.732C80.2889 205.732 80.8031 205.866 81.2559 206.132C81.7087 206.399 82.0641 206.763 82.3223 207.224C82.5846 207.685 82.7158 208.21 82.7158 208.798V208.811C82.7158 209.42 82.5762 209.962 82.2969 210.436C82.0218 210.91 81.6431 211.285 81.1606 211.56C80.6782 211.83 80.1281 211.966 79.5103 211.966ZM84.5503 211.75V210.963L87.6479 207.611C88.0373 207.188 88.342 206.839 88.562 206.564C88.7821 206.285 88.9365 206.033 89.0254 205.809C89.1143 205.584 89.1587 205.339 89.1587 205.072V205.06C89.1587 204.738 89.0889 204.45 88.9492 204.196C88.8096 203.942 88.6107 203.741 88.3525 203.593C88.0944 203.445 87.7855 203.371 87.4258 203.371C87.0618 203.371 86.7424 203.447 86.4673 203.6C86.1922 203.748 85.9785 203.957 85.8262 204.228C85.6738 204.495 85.5977 204.808 85.5977 205.167L85.5913 205.18L84.4995 205.174L84.4868 205.167C84.491 204.626 84.6222 204.146 84.8804 203.727C85.1385 203.303 85.494 202.973 85.9468 202.736C86.3996 202.495 86.918 202.375 87.502 202.375C88.0352 202.375 88.5155 202.487 88.9429 202.711C89.3703 202.931 89.7067 203.234 89.9521 203.619C90.2018 204.004 90.3267 204.444 90.3267 204.939V204.952C90.3267 205.299 90.2653 205.633 90.1426 205.955C90.0241 206.276 89.8125 206.634 89.5078 207.027C89.2031 207.417 88.7736 207.897 88.2192 208.468L85.8516 210.912L86.1372 210.385V210.912L85.8579 210.722H90.479V211.75H84.5503ZM92.3071 208.576V207.548H96.5728V208.576H92.3071ZM102.711 211.75V209.852H98.2485V208.811C98.4982 208.396 98.7521 207.977 99.0103 207.554C99.2684 207.127 99.5286 206.701 99.791 206.278C100.058 205.851 100.324 205.428 100.591 205.009C100.857 204.59 101.122 204.177 101.384 203.771C101.651 203.365 101.913 202.971 102.171 202.59H103.828V208.83H105.129V209.852H103.828V211.75H102.711ZM99.4165 208.836H102.717V203.65H102.641C102.434 203.959 102.222 204.281 102.006 204.615C101.791 204.945 101.57 205.284 101.346 205.631C101.126 205.978 100.906 206.327 100.686 206.678C100.466 207.029 100.248 207.381 100.032 207.732C99.8206 208.079 99.6154 208.422 99.4165 208.76V208.836ZM110.011 211.902C109.38 211.902 108.83 211.794 108.36 211.579C107.891 211.363 107.518 211.067 107.243 210.69C106.972 210.313 106.816 209.884 106.773 209.401L106.767 209.325H107.865L107.872 209.389C107.901 209.689 108.007 209.954 108.189 210.182C108.375 210.411 108.623 210.59 108.932 210.722C109.245 210.849 109.604 210.912 110.011 210.912C110.413 210.912 110.764 210.842 111.064 210.703C111.369 210.563 111.606 210.37 111.775 210.125C111.945 209.875 112.029 209.59 112.029 209.268V209.255C112.029 208.693 111.841 208.261 111.464 207.96C111.092 207.656 110.584 207.503 109.941 207.503H108.792V206.539H109.89C110.254 206.539 110.576 206.471 110.855 206.335C111.134 206.196 111.352 206.007 111.509 205.771C111.665 205.529 111.744 205.256 111.744 204.952V204.939C111.744 204.617 111.676 204.344 111.541 204.12C111.405 203.896 111.206 203.724 110.944 203.606C110.686 203.487 110.37 203.428 109.998 203.428C109.638 203.428 109.317 203.49 109.033 203.612C108.754 203.731 108.53 203.902 108.36 204.126C108.191 204.351 108.09 204.617 108.056 204.926L108.049 204.99H106.951L106.958 204.926C107.008 204.427 107.165 203.991 107.427 203.619C107.694 203.246 108.045 202.956 108.481 202.749C108.921 202.542 109.427 202.438 109.998 202.438C110.582 202.438 111.09 202.54 111.521 202.743C111.957 202.942 112.294 203.219 112.531 203.574C112.772 203.925 112.893 204.334 112.893 204.799V204.812C112.893 205.189 112.81 205.523 112.645 205.815C112.48 206.107 112.251 206.35 111.959 206.545C111.667 206.74 111.331 206.877 110.95 206.958V206.983C111.619 207.038 112.158 207.264 112.569 207.662C112.984 208.056 113.191 208.578 113.191 209.23V209.243C113.191 209.75 113.053 210.205 112.778 210.607C112.503 211.009 112.127 211.327 111.648 211.56C111.17 211.788 110.624 211.902 110.011 211.902ZM118.053 211.966C117.486 211.966 116.98 211.854 116.536 211.629C116.092 211.405 115.734 211.1 115.463 210.715C115.197 210.326 115.04 209.888 114.994 209.401L114.987 209.332H116.085L116.092 209.382C116.13 209.674 116.236 209.941 116.409 210.182C116.587 210.419 116.818 210.607 117.101 210.747C117.389 210.887 117.71 210.957 118.066 210.957C118.472 210.957 118.83 210.868 119.139 210.69C119.448 210.508 119.689 210.258 119.862 209.941C120.036 209.624 120.123 209.26 120.123 208.849V208.836C120.123 208.43 120.034 208.07 119.856 207.757C119.682 207.44 119.443 207.192 119.139 207.015C118.834 206.837 118.483 206.748 118.085 206.748C117.78 206.748 117.499 206.795 117.241 206.888C116.987 206.981 116.76 207.12 116.562 207.307C116.481 207.383 116.405 207.465 116.333 207.554C116.265 207.643 116.202 207.743 116.143 207.853H115.152L115.635 202.59H120.732V203.612H116.536L116.225 206.71H116.327C116.462 206.503 116.629 206.329 116.828 206.189C117.027 206.05 117.249 205.944 117.495 205.872C117.744 205.796 118.007 205.758 118.282 205.758C118.857 205.758 119.367 205.891 119.812 206.158C120.256 206.42 120.605 206.782 120.859 207.243C121.113 207.7 121.24 208.225 121.24 208.817V208.83C121.24 209.444 121.102 209.987 120.827 210.461C120.556 210.931 120.182 211.299 119.704 211.566C119.225 211.833 118.675 211.966 118.053 211.966ZM123.461 211.75L127.575 203.701V203.612H122.674V202.59H128.736V203.65L124.661 211.75H123.461Z" fill="#FFFCF5" fill-opacity="0.9"/>
</g>
<defs>
<clipPath id="clip0_612_7232">
<path d="M0 30C0 13.4315 13.4315 0 30 0H332C348.569 0 362 13.4315 362 30V210C362 226.569 348.569 240 332 240H30C13.4315 240 0 226.569 0 210V30Z" fill="white"/>
</clipPath>
</defs>
</svg>
